<?xml version="1.0" encoding="UTF-8"?><svg xmlns="http://www.w3.org/2000/svg" viewBox="0 0 500 500"><defs><style>.c{fill:#bf5c5c;}.d{fill:#c66767;}.e{fill:#b0504d;}</style></defs><g id="a"/><g id="b"><g><polygon class="c" points="135.18 263.79 162.36 182.59 211.19 325.08 135.18 263.79"/><polygon class="e" points="162.36 182.59 341.3 295.6 211.19 325.08 162.36 182.59"/><polygon class="d" points="234.78 107.47 303.95 115.77 269.37 172.81 234.78 107.47"/><polygon class="c" points="269.37 209.47 358.24 172.81 364.82 247.19 269.37 209.47"/><polygon class="e" points="269.37 209.47 303.95 115.77 358.24 172.81 269.37 209.47"/><polygon class="d" points="211.19 325.08 234.78 392.53 341.3 295.6 211.19 325.08"/><polygon class="c" points="191.9 165.57 212.65 121.3 160.08 124.07 191.9 165.57"/><polygon class="c" points="269.37 172.81 191.9 165.57 234.78 107.47 269.37 172.81"/><polygon class="e" points="234.78 392.53 136.56 265.17 211.19 325.08 234.78 392.53"/><polygon class="d" points="160.08 124.07 162.36 182.59 191.9 165.57 160.08 124.07"/><polygon class="d" points="162.36 182.59 269.37 172.81 269.37 209.47 162.36 182.59"/><polygon class="d" points="364.82 247.19 341.3 295.6 269.37 209.47 364.82 247.19"/><polygon class="c" points="341.3 295.6 269.37 209.47 162.36 182.59 341.3 295.6"/><polygon class="e" points="234.78 107.47 212.65 121.3 191.9 165.57 234.78 107.47"/><polygon class="e" points="191.9 165.57 269.37 172.81 162.36 182.59 191.9 165.57"/><polygon class="c" points="303.95 115.77 269.37 172.81 269.37 209.47 303.95 115.77"/></g></g></svg>