<?xml version="1.0" encoding="UTF-8"?><svg xmlns="http://www.w3.org/2000/svg" viewBox="0 0 1386 1080"><defs><style>.m{fill:#a55353;}.n{stroke-width:4.88px;}.n,.o{fill:none;stroke:#a55353;stroke-miterlimit:10;}.o{stroke-width:5px;}.p{fill:#8c3131;opacity:.8;}</style></defs><g id="a"/><g id="b"><polygon class="m" points="146 937 272 853 425 807 609 871 756 278 876 845 1010 923 1178 905 1178 937.21 146 937"/></g><g id="c"><polygon class="p" points="146 937 272 933 424.65 937.21 608.65 937.21 756 805 876 841 1009.65 937.21 1177.65 933.86 1177.65 937.21 146 937"/></g><g id="d"/><g id="e"/><g id="f"/><g id="g"><polyline class="o" points="146 144 146 937 1316 937.21"/><g><line class="n" x1="148" y1="937" x2="116.3" y2="937"/><line class="n" x1="148" y1="871.08" x2="116.3" y2="871.08"/><line class="n" x1="148" y1="805.17" x2="116.3" y2="805.17"/><line class="n" x1="148" y1="739.25" x2="116.3" y2="739.25"/><line class="n" x1="148" y1="673.33" x2="116.3" y2="673.33"/><line class="n" x1="148" y1="607.42" x2="116.3" y2="607.42"/><line class="n" x1="148" y1="541.5" x2="116.3" y2="541.5"/><line class="n" x1="148" y1="475.58" x2="116.3" y2="475.58"/><line class="n" x1="148" y1="409.67" x2="116.3" y2="409.67"/><line class="n" x1="148" y1="343.75" x2="116.3" y2="343.75"/><line class="n" x1="148" y1="277.83" x2="116.3" y2="277.83"/><line class="n" x1="148" y1="211.92" x2="116.3" y2="211.92"/><line class="n" x1="148" y1="146" x2="116.3" y2="146"/></g></g><g id="h"><path class="m" d="M49.81,964.38c-2.46,0-4.66-.63-6.59-1.89-1.94-1.26-3.46-3.09-4.59-5.49s-1.69-5.31-1.69-8.73,.56-6.33,1.69-8.73c1.12-2.4,2.65-4.23,4.59-5.49,1.94-1.26,4.13-1.89,6.59-1.89s4.62,.63,6.57,1.89c1.95,1.26,3.48,3.09,4.59,5.49,1.11,2.4,1.67,5.31,1.67,8.73s-.56,6.33-1.67,8.73c-1.11,2.4-2.64,4.23-4.59,5.49-1.95,1.26-4.14,1.89-6.57,1.89Zm0-4c1.65,0,3.1-.45,4.34-1.35,1.24-.9,2.22-2.25,2.92-4.05,.7-1.8,1.06-4.03,1.06-6.71s-.35-4.91-1.06-6.71c-.71-1.8-1.68-3.15-2.92-4.05-1.25-.9-2.69-1.35-4.34-1.35s-3.1,.45-4.36,1.35c-1.26,.9-2.24,2.25-2.95,4.05-.71,1.8-1.06,4.04-1.06,6.71s.35,4.91,1.06,6.71c.7,1.8,1.69,3.15,2.95,4.05,1.26,.9,2.71,1.35,4.36,1.35Z"/><path class="m" d="M36.45,897.02v-3.06l12.83-12.38c1.14-1.08,1.99-2.03,2.54-2.86,.55-.82,.93-1.59,1.12-2.29,.19-.7,.29-1.39,.29-2.05,0-1.62-.57-2.89-1.71-3.83-1.14-.93-2.81-1.4-5-1.4-1.68,0-3.2,.28-4.54,.83-1.35,.56-2.52,1.42-3.51,2.59l-3.06-2.66c1.2-1.53,2.81-2.71,4.84-3.53,2.03-.83,4.25-1.24,6.68-1.24,2.19,0,4.1,.35,5.72,1.06,1.62,.71,2.87,1.72,3.76,3.04,.88,1.32,1.33,2.88,1.33,4.68,0,1.02-.14,2.03-.41,3.01-.27,.99-.78,2.04-1.53,3.15-.75,1.11-1.83,2.36-3.24,3.74l-11.43,11.02-1.08-1.75h19.03v3.92h-22.63Z"/><path class="m" d="M36.49,822.28v-3.15l16.11-20.61h4.86l-15.98,20.61-2.29-.72h25.15v3.87h-27.85Zm17.5,7.74v-7.74l.14-3.87v-6.84h4.23v18.45h-4.37Z"/><path class="m" d="M50.17,763.38c-2.79,0-5.18-.62-7.16-1.85-1.98-1.23-3.49-3.01-4.52-5.33-1.03-2.32-1.55-5.17-1.55-8.53,0-3.57,.63-6.58,1.89-9.04,1.26-2.46,3.02-4.32,5.27-5.58,2.25-1.26,4.83-1.89,7.74-1.89,1.5,0,2.93,.15,4.3,.45,1.36,.3,2.54,.77,3.53,1.4l-1.71,3.51c-.81-.57-1.73-.96-2.77-1.17-1.04-.21-2.12-.32-3.26-.32-3.21,0-5.76,1-7.65,2.99-1.89,2-2.83,4.96-2.83,8.89,0,.63,.03,1.38,.09,2.25,.06,.87,.21,1.73,.45,2.57l-1.53-1.53c.45-1.38,1.16-2.54,2.14-3.49,.97-.95,2.14-1.65,3.51-2.12,1.36-.46,2.84-.7,4.43-.7,2.1,0,3.96,.39,5.58,1.17,1.62,.78,2.89,1.88,3.82,3.31,.93,1.42,1.4,3.11,1.4,5.06s-.49,3.77-1.48,5.26c-.99,1.5-2.33,2.66-4,3.46-1.68,.81-3.57,1.22-5.67,1.22Zm-.18-3.65c1.38,0,2.59-.25,3.62-.76,1.04-.51,1.85-1.22,2.45-2.14,.6-.92,.9-1.99,.9-3.22,0-1.86-.65-3.34-1.94-4.43-1.29-1.09-3.05-1.64-5.27-1.64-1.44,0-2.7,.27-3.78,.81s-1.93,1.27-2.54,2.18c-.62,.92-.92,1.96-.92,3.13,0,1.08,.28,2.08,.85,2.99,.57,.92,1.41,1.66,2.52,2.23,1.11,.57,2.47,.85,4.09,.85Z"/><path class="m" d="M49.23,696.38c-2.55,0-4.75-.38-6.61-1.12-1.86-.75-3.3-1.82-4.32-3.22-1.02-1.4-1.53-3.04-1.53-4.93s.49-3.44,1.46-4.75c.97-1.31,2.39-2.29,4.25-2.97,1.86-.67,4.11-1.01,6.75-1.01s4.9,.34,6.77,1.01c1.87,.68,3.31,1.67,4.3,2.99,.99,1.32,1.48,2.9,1.48,4.72s-.51,3.53-1.53,4.93c-1.02,1.39-2.48,2.47-4.37,3.22s-4.11,1.12-6.66,1.12Zm0-15.57c-2.4,0-4.44-.32-6.12-.97-1.68-.64-2.97-1.58-3.87-2.79s-1.35-2.66-1.35-4.34c0-1.77,.47-3.29,1.42-4.57,.94-1.27,2.27-2.26,3.98-2.95,1.71-.69,3.69-1.04,5.94-1.04s4.28,.35,5.99,1.04c1.71,.69,3.04,1.67,4,2.95,.96,1.28,1.44,2.8,1.44,4.57s-.45,3.13-1.35,4.34-2.21,2.15-3.92,2.79c-1.71,.65-3.77,.97-6.17,.97Zm0,11.92c2.52,0,4.49-.52,5.92-1.55,1.42-1.03,2.14-2.44,2.14-4.21s-.71-3.11-2.14-4.12-3.4-1.51-5.92-1.51-4.44,.5-5.85,1.51c-1.41,1-2.12,2.38-2.12,4.12s.7,3.17,2.12,4.21c1.41,1.04,3.36,1.55,5.85,1.55Zm0-14.8c2.19,0,3.91-.45,5.15-1.35,1.24-.9,1.87-2.13,1.87-3.69s-.65-2.83-1.94-3.74c-1.29-.9-2.99-1.35-5.08-1.35s-3.77,.45-5.02,1.35c-1.25,.9-1.87,2.15-1.87,3.74s.61,2.79,1.82,3.69c1.22,.9,2.9,1.35,5.06,1.35Z"/><g><path class="m" d="M42.25,629.02v-29.7l1.93,2.12h-9.04v-3.92h11.56v31.5h-4.45Z"/><path class="m" d="M66.46,629.38c-2.46,0-4.66-.63-6.59-1.89-1.94-1.26-3.46-3.09-4.59-5.49s-1.69-5.31-1.69-8.73,.56-6.33,1.69-8.73c1.12-2.4,2.65-4.23,4.59-5.49,1.94-1.26,4.13-1.89,6.59-1.89s4.62,.63,6.57,1.89c1.95,1.26,3.48,3.09,4.59,5.49,1.11,2.4,1.67,5.31,1.67,8.73s-.56,6.33-1.67,8.73c-1.11,2.4-2.64,4.23-4.59,5.49-1.95,1.26-4.14,1.89-6.57,1.89Zm0-4c1.65,0,3.1-.45,4.34-1.35,1.24-.9,2.22-2.25,2.92-4.05,.7-1.8,1.06-4.03,1.06-6.71s-.35-4.91-1.06-6.71c-.71-1.8-1.68-3.15-2.92-4.05-1.25-.9-2.69-1.35-4.34-1.35s-3.1,.45-4.36,1.35c-1.26,.9-2.24,2.25-2.95,4.05-.71,1.8-1.06,4.04-1.06,6.71s.35,4.91,1.06,6.71c.7,1.8,1.69,3.15,2.95,4.05,1.26,.9,2.71,1.35,4.36,1.35Z"/></g><g><path class="m" d="M42.25,562.02v-29.7l1.93,2.12h-9.04v-3.92h11.56v31.5h-4.45Z"/><path class="m" d="M53.1,562.02v-3.06l12.83-12.38c1.14-1.08,1.99-2.03,2.54-2.86,.55-.82,.93-1.59,1.12-2.29,.19-.7,.29-1.39,.29-2.05,0-1.62-.57-2.89-1.71-3.83-1.14-.93-2.81-1.4-5-1.4-1.68,0-3.2,.28-4.54,.83-1.35,.56-2.52,1.42-3.51,2.59l-3.06-2.66c1.2-1.53,2.81-2.71,4.84-3.53,2.03-.83,4.25-1.24,6.68-1.24,2.19,0,4.1,.35,5.72,1.06,1.62,.71,2.87,1.72,3.76,3.04,.88,1.32,1.33,2.88,1.33,4.68,0,1.02-.14,2.03-.41,3.01-.27,.99-.78,2.04-1.53,3.15-.75,1.11-1.83,2.36-3.24,3.74l-11.43,11.02-1.08-1.75h19.03v3.92h-22.63Z"/></g><g><path class="m" d="M42.25,495.02v-29.7l1.93,2.12h-9.04v-3.92h11.56v31.5h-4.45Z"/><path class="m" d="M53.14,487.28v-3.15l16.11-20.61h4.86l-15.98,20.61-2.29-.72h25.15v3.87h-27.85Zm17.5,7.74v-7.74l.14-3.87v-6.84h4.23v18.45h-4.37Z"/></g><g><path class="m" d="M42.25,428.02v-29.7l1.93,2.12h-9.04v-3.92h11.56v31.5h-4.45Z"/><path class="m" d="M66.82,428.38c-2.79,0-5.18-.62-7.16-1.85-1.98-1.23-3.49-3.01-4.52-5.33-1.03-2.32-1.55-5.17-1.55-8.53,0-3.57,.63-6.58,1.89-9.04,1.26-2.46,3.02-4.32,5.27-5.58,2.25-1.26,4.83-1.89,7.74-1.89,1.5,0,2.93,.15,4.3,.45,1.36,.3,2.54,.77,3.53,1.4l-1.71,3.51c-.81-.57-1.73-.96-2.77-1.17-1.04-.21-2.12-.32-3.26-.32-3.21,0-5.76,1-7.65,2.99-1.89,2-2.83,4.96-2.83,8.89,0,.63,.03,1.38,.09,2.25,.06,.87,.21,1.73,.45,2.57l-1.53-1.53c.45-1.38,1.16-2.54,2.14-3.49,.97-.95,2.14-1.65,3.51-2.12,1.36-.46,2.84-.7,4.43-.7,2.1,0,3.96,.39,5.58,1.17,1.62,.78,2.89,1.88,3.82,3.31,.93,1.42,1.4,3.11,1.4,5.06s-.49,3.77-1.48,5.26c-.99,1.5-2.33,2.66-4,3.46-1.68,.81-3.57,1.22-5.67,1.22Zm-.18-3.65c1.38,0,2.59-.25,3.62-.76,1.04-.51,1.85-1.22,2.45-2.14,.6-.92,.9-1.99,.9-3.22,0-1.86-.65-3.34-1.94-4.43-1.29-1.09-3.05-1.64-5.27-1.64-1.44,0-2.7,.27-3.78,.81s-1.93,1.27-2.54,2.18c-.62,.92-.92,1.96-.92,3.13,0,1.08,.28,2.08,.85,2.99,.57,.92,1.41,1.66,2.52,2.23,1.11,.57,2.47,.85,4.09,.85Z"/></g><g><path class="m" d="M42.25,361.02v-29.7l1.93,2.12h-9.04v-3.92h11.56v31.5h-4.45Z"/><path class="m" d="M65.88,361.38c-2.55,0-4.75-.38-6.61-1.12-1.86-.75-3.3-1.82-4.32-3.22-1.02-1.4-1.53-3.04-1.53-4.93s.49-3.44,1.46-4.75c.97-1.31,2.39-2.29,4.25-2.97,1.86-.67,4.11-1.01,6.75-1.01s4.9,.34,6.77,1.01c1.87,.68,3.31,1.67,4.3,2.99,.99,1.32,1.48,2.9,1.48,4.72s-.51,3.53-1.53,4.93c-1.02,1.39-2.48,2.47-4.37,3.22s-4.11,1.12-6.66,1.12Zm0-15.57c-2.4,0-4.44-.32-6.12-.97-1.68-.64-2.97-1.58-3.87-2.79s-1.35-2.66-1.35-4.34c0-1.77,.47-3.29,1.42-4.57,.94-1.27,2.27-2.26,3.98-2.95,1.71-.69,3.69-1.04,5.94-1.04s4.28,.35,5.99,1.04c1.71,.69,3.04,1.67,4,2.95,.96,1.28,1.44,2.8,1.44,4.57s-.45,3.13-1.35,4.34-2.21,2.15-3.92,2.79c-1.71,.65-3.77,.97-6.17,.97Zm0,11.92c2.52,0,4.49-.52,5.92-1.55,1.42-1.03,2.14-2.44,2.14-4.21s-.71-3.11-2.14-4.12-3.4-1.51-5.92-1.51-4.44,.5-5.85,1.51c-1.41,1-2.12,2.38-2.12,4.12s.7,3.17,2.12,4.21c1.41,1.04,3.36,1.55,5.85,1.55Zm0-14.8c2.19,0,3.91-.45,5.15-1.35,1.24-.9,1.87-2.13,1.87-3.69s-.65-2.83-1.94-3.74c-1.29-.9-2.99-1.35-5.08-1.35s-3.77,.45-5.02,1.35c-1.25,.9-1.87,2.15-1.87,3.74s.61,2.79,1.82,3.69c1.22,.9,2.9,1.35,5.06,1.35Z"/></g><g><path class="m" d="M36.45,294.02v-3.06l12.83-12.38c1.14-1.08,1.99-2.03,2.54-2.86,.55-.82,.93-1.59,1.12-2.29,.19-.7,.29-1.39,.29-2.05,0-1.62-.57-2.89-1.71-3.83-1.14-.93-2.81-1.4-5-1.4-1.68,0-3.2,.28-4.54,.83-1.35,.56-2.52,1.42-3.51,2.59l-3.06-2.66c1.2-1.53,2.81-2.71,4.84-3.53,2.03-.83,4.25-1.24,6.68-1.24,2.19,0,4.1,.35,5.72,1.06,1.62,.71,2.87,1.72,3.76,3.04,.88,1.32,1.33,2.88,1.33,4.68,0,1.02-.14,2.03-.41,3.01-.27,.99-.78,2.04-1.53,3.15-.75,1.11-1.83,2.36-3.24,3.74l-11.43,11.02-1.08-1.75h19.03v3.92h-22.63Z"/><path class="m" d="M75.6,294.38c-2.46,0-4.66-.63-6.59-1.89-1.94-1.26-3.46-3.09-4.59-5.49s-1.69-5.31-1.69-8.73,.56-6.33,1.69-8.73c1.12-2.4,2.65-4.23,4.59-5.49,1.94-1.26,4.13-1.89,6.59-1.89s4.62,.63,6.57,1.89c1.95,1.26,3.48,3.09,4.59,5.49,1.11,2.4,1.67,5.31,1.67,8.73s-.56,6.33-1.67,8.73c-1.11,2.4-2.64,4.23-4.59,5.49-1.95,1.26-4.14,1.89-6.57,1.89Zm0-4c1.65,0,3.1-.45,4.34-1.35,1.24-.9,2.22-2.25,2.92-4.05,.7-1.8,1.06-4.03,1.06-6.71s-.35-4.91-1.06-6.71c-.71-1.8-1.68-3.15-2.92-4.05-1.25-.9-2.69-1.35-4.34-1.35s-3.1,.45-4.36,1.35c-1.26,.9-2.24,2.25-2.95,4.05-.71,1.8-1.06,4.04-1.06,6.71s.35,4.91,1.06,6.71c.7,1.8,1.69,3.15,2.95,4.05,1.26,.9,2.71,1.35,4.36,1.35Z"/></g><g><path class="m" d="M36.45,227.02v-3.06l12.83-12.38c1.14-1.08,1.99-2.03,2.54-2.86,.55-.82,.93-1.59,1.12-2.29,.19-.7,.29-1.39,.29-2.05,0-1.62-.57-2.89-1.71-3.83-1.14-.93-2.81-1.4-5-1.4-1.68,0-3.2,.28-4.54,.83-1.35,.56-2.52,1.42-3.51,2.59l-3.06-2.66c1.2-1.53,2.81-2.71,4.84-3.53,2.03-.83,4.25-1.24,6.68-1.24,2.19,0,4.1,.35,5.72,1.06,1.62,.71,2.87,1.72,3.76,3.04,.88,1.32,1.33,2.88,1.33,4.68,0,1.02-.14,2.03-.41,3.01-.27,.99-.78,2.04-1.53,3.15-.75,1.11-1.83,2.36-3.24,3.74l-11.43,11.02-1.08-1.75h19.03v3.92h-22.63Z"/><path class="m" d="M62.28,227.02v-3.06l12.83-12.38c1.14-1.08,1.99-2.03,2.54-2.86,.55-.82,.93-1.59,1.12-2.29,.19-.7,.29-1.39,.29-2.05,0-1.62-.57-2.89-1.71-3.83-1.14-.93-2.81-1.4-5-1.4-1.68,0-3.2,.28-4.54,.83-1.35,.56-2.52,1.42-3.51,2.59l-3.06-2.66c1.2-1.53,2.81-2.71,4.84-3.53,2.03-.83,4.25-1.24,6.68-1.24,2.19,0,4.1,.35,5.72,1.06,1.62,.71,2.87,1.72,3.76,3.04,.88,1.32,1.33,2.88,1.33,4.68,0,1.02-.14,2.03-.41,3.01-.27,.99-.78,2.04-1.53,3.15-.75,1.11-1.83,2.36-3.24,3.74l-11.43,11.02-1.08-1.75h19.03v3.92h-22.63Z"/></g><g><path class="m" d="M36.45,160.02v-3.06l12.83-12.38c1.14-1.08,1.99-2.03,2.54-2.86,.55-.82,.93-1.59,1.12-2.29,.19-.7,.29-1.39,.29-2.05,0-1.62-.57-2.89-1.71-3.83-1.14-.93-2.81-1.4-5-1.4-1.68,0-3.2,.28-4.54,.83-1.35,.56-2.52,1.42-3.51,2.59l-3.06-2.66c1.2-1.53,2.81-2.71,4.84-3.53,2.03-.83,4.25-1.24,6.68-1.24,2.19,0,4.1,.35,5.72,1.06,1.62,.71,2.87,1.72,3.76,3.04,.88,1.32,1.33,2.88,1.33,4.68,0,1.02-.14,2.03-.41,3.01-.27,.99-.78,2.04-1.53,3.15-.75,1.11-1.83,2.36-3.24,3.74l-11.43,11.02-1.08-1.75h19.03v3.92h-22.63Z"/><path class="m" d="M61.47,152.28v-3.15l16.11-20.61h4.86l-15.98,20.61-2.29-.72h25.15v3.87h-27.85Zm17.5,7.74v-7.74l.14-3.87v-6.84h4.23v18.45h-4.37Z"/></g></g><g id="i"><line class="n" x1="271.65" y1="935.65" x2="271.65" y2="967.35"/><line class="n" x1="424.65" y1="935.65" x2="424.65" y2="967.35"/><line class="n" x1="608.65" y1="935.65" x2="608.65" y2="967.35"/><line class="n" x1="755.65" y1="935.65" x2="755.65" y2="967.35"/><line class="n" x1="875.65" y1="935.65" x2="875.65" y2="967.35"/><line class="n" x1="1009.65" y1="935.65" x2="1009.65" y2="967.35"/><line class="n" x1="1177.65" y1="935.65" x2="1177.65" y2="967.35"/></g><g id="j"/><g id="k"><rect class="m" x="1026" y="47" width="35" height="35"/><rect class="p" x="1026" y="99" width="35" height="35"/></g><g id="l"><g><path class="m" d="M1091.58,82.29c-1.77,0-3.4-.29-4.88-.87-1.49-.58-2.78-1.4-3.88-2.47s-1.96-2.31-2.57-3.73-.92-2.99-.92-4.72,.31-3.3,.92-4.72c.61-1.42,1.47-2.66,2.59-3.73,1.11-1.07,2.41-1.89,3.9-2.47,1.48-.58,3.11-.87,4.88-.87,1.88,0,3.59,.32,5.14,.97,1.55,.64,2.86,1.6,3.93,2.87l-2.75,2.59c-.85-.9-1.79-1.57-2.82-2.01-1.03-.45-2.13-.67-3.31-.67s-2.3,.2-3.29,.59c-.99,.39-1.86,.95-2.59,1.67-.73,.72-1.31,1.57-1.72,2.56-.41,.98-.62,2.06-.62,3.24s.21,2.26,.62,3.24c.42,.98,.99,1.83,1.72,2.56,.73,.72,1.59,1.28,2.59,1.67,.99,.39,2.09,.59,3.29,.59s2.28-.22,3.31-.67,1.97-1.13,2.82-2.05l2.75,2.59c-1.07,1.27-2.38,2.23-3.93,2.88s-3.28,.98-5.18,.98Z"/><path class="m" d="M1106.46,61.59c-.76,0-1.39-.24-1.88-.72-.49-.48-.74-1.07-.74-1.77,0-.66,.25-1.22,.74-1.7,.49-.48,1.12-.72,1.88-.72s1.39,.22,1.88,.67c.49,.45,.74,1.02,.74,1.72s-.24,1.29-.72,1.79c-.48,.49-1.11,.74-1.9,.74Zm-2.03,20.38v-17.49h4.06v17.49h-4.06Z"/><path class="m" d="M1118.51,81.97l-7.5-17.49h4.22l6.49,15.43h-2.1l6.68-15.43h3.93l-7.5,17.49h-4.23Z"/><path class="m" d="M1134.86,61.59c-.76,0-1.39-.24-1.88-.72-.49-.48-.74-1.07-.74-1.77,0-.66,.25-1.22,.74-1.7,.49-.48,1.12-.72,1.88-.72s1.39,.22,1.88,.67c.49,.45,.74,1.02,.74,1.72s-.24,1.29-.72,1.79c-.48,.49-1.11,.74-1.9,.74Zm-2.03,20.38v-17.49h4.06v17.49h-4.06Z"/><path class="m" d="M1142.29,81.97v-24.31h4.06v24.31h-4.06Z"/><path class="m" d="M1153.79,61.59c-.76,0-1.39-.24-1.88-.72-.49-.48-.74-1.07-.74-1.77,0-.66,.25-1.22,.74-1.7,.49-.48,1.12-.72,1.88-.72s1.39,.22,1.88,.67c.49,.45,.74,1.02,.74,1.72s-.24,1.29-.72,1.79c-.48,.49-1.11,.74-1.9,.74Zm-2.03,20.38v-17.49h4.06v17.49h-4.06Z"/><path class="m" d="M1166.47,82.2c-1.31,0-2.46-.22-3.44-.67s-1.74-1.07-2.28-1.87c-.54-.8-.8-1.7-.8-2.7s.23-1.87,.7-2.65,1.24-1.41,2.31-1.87c1.07-.46,2.49-.69,4.26-.69h5.08v2.72h-4.78c-1.38,0-2.31,.22-2.8,.67-.49,.45-.74,1.01-.74,1.69,0,.72,.29,1.3,.88,1.74,.59,.44,1.41,.66,2.46,.66s1.91-.23,2.7-.69c.8-.46,1.38-1.14,1.75-2.03l.66,2.46c-.39,1.03-1.09,1.82-2.1,2.39-1,.57-2.29,.85-3.87,.85Zm5.5-.23v-3.57l-.2-.72v-6.19c0-1.2-.37-2.13-1.1-2.8s-1.84-1-3.33-1c-.96,0-1.91,.15-2.85,.46-.94,.31-1.75,.73-2.42,1.28l-1.61-2.98c.96-.72,2.08-1.27,3.37-1.64,1.29-.37,2.63-.56,4.03-.56,2.56,0,4.52,.61,5.9,1.83,1.38,1.22,2.06,3.1,2.06,5.63v10.25h-3.87Z"/><path class="m" d="M1191,64.25c1.42,0,2.67,.27,3.75,.82,1.08,.55,1.94,1.39,2.59,2.52,.64,1.14,.97,2.59,.97,4.36v10.02h-4.09v-9.5c0-1.55-.36-2.71-1.08-3.47-.72-.76-1.75-1.15-3.08-1.15-.96,0-1.81,.2-2.55,.59-.74,.39-1.32,.98-1.72,1.75s-.61,1.75-.61,2.93v8.84h-4.06v-17.49h3.9v4.75l-.69-1.47c.59-1.11,1.47-1.98,2.64-2.59s2.52-.92,4.04-.92Z"/><path class="m" d="M1212.95,81.97v-22.93h10.06c2.45,0,4.61,.47,6.5,1.42s3.36,2.29,4.41,4.01c1.05,1.73,1.57,3.73,1.57,6.03s-.52,4.3-1.57,6.03c-1.05,1.72-2.52,3.06-4.41,4.01s-4.06,1.42-6.5,1.42h-10.06Zm4.26-3.6h5.54c1.73,0,3.22-.33,4.47-.98s2.24-1.57,2.95-2.75,1.06-2.55,1.06-4.13-.35-3-1.06-4.16c-.71-1.16-1.69-2.06-2.95-2.72s-2.75-.98-4.47-.98h-5.54v15.72Z"/><path class="m" d="M1247.84,82.2c-1.95,0-3.64-.39-5.09-1.16s-2.58-1.83-3.37-3.18-1.2-2.89-1.2-4.63,.39-3.29,1.16-4.64,1.85-2.4,3.21-3.18c1.36-.77,2.92-1.16,4.67-1.16s3.22,.38,4.55,1.13c1.33,.75,2.38,1.81,3.15,3.16s1.15,2.96,1.15,4.82c0,.15,0,.34-.02,.57-.01,.23-.03,.43-.05,.61h-14.58v-2.72h12.42l-1.64,.85c.02-.98-.18-1.86-.61-2.64s-1.01-1.38-1.75-1.8c-.74-.43-1.62-.64-2.62-.64s-1.86,.21-2.64,.64c-.78,.43-1.37,1.03-1.79,1.82-.42,.79-.62,1.69-.62,2.72v.66c0,1.05,.23,1.98,.71,2.78,.47,.81,1.14,1.44,2.01,1.88,.87,.45,1.89,.67,3.05,.67,.98,0,1.87-.16,2.65-.49,.79-.33,1.49-.81,2.1-1.44l2.23,2.55c-.81,.92-1.81,1.62-3,2.1-1.19,.48-2.55,.72-4.08,.72Z"/><path class="m" d="M1264.77,82.2c-1.31,0-2.46-.22-3.44-.67s-1.74-1.07-2.28-1.87c-.54-.8-.8-1.7-.8-2.7s.23-1.87,.71-2.65c.47-.79,1.24-1.41,2.31-1.87,1.07-.46,2.49-.69,4.26-.69h5.08v2.72h-4.78c-1.38,0-2.31,.22-2.8,.67-.49,.45-.74,1.01-.74,1.69,0,.72,.29,1.3,.88,1.74,.59,.44,1.41,.66,2.46,.66s1.91-.23,2.7-.69c.8-.46,1.38-1.14,1.75-2.03l.66,2.46c-.39,1.03-1.09,1.82-2.1,2.39-1,.57-2.29,.85-3.87,.85Zm5.5-.23v-3.57l-.2-.72v-6.19c0-1.2-.37-2.13-1.1-2.8-.73-.67-1.84-1-3.32-1-.96,0-1.91,.15-2.85,.46-.94,.31-1.75,.73-2.42,1.28l-1.61-2.98c.96-.72,2.08-1.27,3.37-1.64s2.63-.56,4.03-.56c2.55,0,4.52,.61,5.9,1.83,1.38,1.22,2.06,3.1,2.06,5.63v10.25h-3.87Z"/><path class="m" d="M1277.06,67.88v-3.28h11.66v3.28h-11.66Zm8.91,14.32c-1.92,0-3.41-.5-4.46-1.49-1.05-.99-1.57-2.45-1.57-4.37v-15.72h4.06v15.59c0,.83,.22,1.47,.66,1.93,.44,.46,1.05,.69,1.83,.69,.89,0,1.64-.24,2.23-.72l1.18,2.92c-.5,.39-1.1,.69-1.8,.88-.7,.2-1.41,.29-2.13,.29Z"/><path class="m" d="M1303.2,64.25c1.42,0,2.67,.27,3.75,.82s1.94,1.39,2.59,2.52,.97,2.59,.97,4.36v10.02h-4.1v-9.5c0-1.55-.36-2.71-1.08-3.47-.72-.76-1.75-1.15-3.08-1.15-.96,0-1.81,.2-2.55,.59-.74,.39-1.32,.98-1.72,1.75-.41,.78-.61,1.75-.61,2.93v8.84h-4.06v-24.31h4.06v11.56l-.85-1.47c.59-1.11,1.47-1.98,2.64-2.59s2.52-.92,4.05-.92Z"/><path class="m" d="M1321.15,82.2c-1.49,0-2.89-.19-4.23-.57s-2.4-.85-3.21-1.39l1.57-3.11c.79,.5,1.73,.91,2.82,1.23,1.09,.32,2.2,.48,3.31,.48,1.27,0,2.19-.17,2.77-.51s.87-.8,.87-1.39c0-.48-.2-.85-.59-1.1-.39-.25-.91-.44-1.54-.57-.63-.13-1.34-.25-2.11-.36-.78-.11-1.55-.26-2.33-.44-.78-.19-1.48-.46-2.11-.82-.63-.36-1.15-.85-1.54-1.46-.39-.61-.59-1.43-.59-2.46,0-1.09,.32-2.05,.95-2.87,.63-.82,1.52-1.46,2.67-1.92,1.15-.46,2.51-.69,4.08-.69,1.16,0,2.34,.14,3.55,.41,1.21,.27,2.22,.65,3.03,1.13l-1.6,3.11c-.81-.48-1.64-.81-2.49-1s-1.69-.28-2.52-.28c-1.22,0-2.14,.18-2.75,.54-.61,.36-.92,.82-.92,1.39,0,.52,.2,.92,.59,1.18,.39,.26,.91,.46,1.54,.61,.63,.14,1.34,.27,2.11,.39,.78,.12,1.54,.27,2.31,.46s1.47,.45,2.11,.79c.64,.34,1.16,.81,1.56,1.42,.39,.61,.59,1.41,.59,2.39,0,1.11-.32,2.07-.97,2.87-.64,.8-1.55,1.42-2.72,1.87s-2.57,.67-4.21,.67Z"/></g><g><path class="m" d="M61.97,70.97v-22.93h10.06c2.45,0,4.61,.47,6.5,1.42,1.89,.95,3.36,2.29,4.41,4.01,1.05,1.73,1.57,3.73,1.57,6.03s-.52,4.3-1.57,6.03c-1.05,1.72-2.52,3.06-4.41,4.01-1.89,.95-4.06,1.42-6.5,1.42h-10.06Zm4.26-3.6h5.54c1.73,0,3.22-.33,4.47-.98,1.26-.66,2.24-1.57,2.95-2.75,.71-1.18,1.06-2.55,1.06-4.13s-.35-3-1.06-4.16c-.71-1.16-1.69-2.06-2.95-2.72-1.26-.66-2.75-.98-4.47-.98h-5.54v15.72Z"/><path class="m" d="M96.86,71.2c-1.94,0-3.64-.39-5.09-1.16-1.45-.78-2.58-1.83-3.37-3.18-.8-1.34-1.2-2.89-1.2-4.63s.39-3.29,1.16-4.64c.77-1.34,1.85-2.4,3.21-3.18,1.36-.77,2.92-1.16,4.67-1.16s3.22,.38,4.55,1.13c1.33,.75,2.38,1.81,3.15,3.16,.76,1.35,1.15,2.96,1.15,4.82,0,.15,0,.34-.02,.57-.01,.23-.03,.43-.05,.61h-14.58v-2.72h12.42l-1.64,.85c.02-.98-.18-1.86-.61-2.64s-1.01-1.38-1.75-1.8c-.74-.43-1.62-.64-2.62-.64s-1.86,.21-2.64,.64c-.78,.43-1.37,1.03-1.79,1.82-.42,.79-.62,1.69-.62,2.72v.66c0,1.05,.23,1.98,.7,2.78,.47,.81,1.14,1.44,2.01,1.88,.87,.45,1.89,.67,3.05,.67,.98,0,1.87-.16,2.65-.49,.79-.33,1.48-.81,2.1-1.44l2.23,2.55c-.81,.92-1.81,1.62-3,2.1-1.19,.48-2.55,.72-4.08,.72Z"/><path class="m" d="M113.79,71.2c-1.31,0-2.46-.22-3.44-.67-.98-.45-1.74-1.07-2.28-1.87-.54-.8-.8-1.7-.8-2.7s.23-1.87,.7-2.65,1.24-1.41,2.31-1.87c1.07-.46,2.49-.69,4.26-.69h5.08v2.72h-4.78c-1.38,0-2.31,.22-2.8,.67-.49,.45-.74,1.01-.74,1.69,0,.72,.29,1.3,.88,1.74,.59,.44,1.41,.66,2.46,.66s1.91-.23,2.7-.69c.8-.46,1.38-1.14,1.75-2.03l.66,2.46c-.39,1.03-1.09,1.82-2.1,2.39-1,.57-2.29,.85-3.87,.85Zm5.5-.23v-3.57l-.2-.72v-6.19c0-1.2-.37-2.13-1.1-2.8-.73-.67-1.84-1-3.33-1-.96,0-1.91,.15-2.85,.46-.94,.31-1.75,.73-2.42,1.28l-1.61-2.98c.96-.72,2.09-1.27,3.37-1.64,1.29-.37,2.63-.56,4.03-.56,2.56,0,4.52,.61,5.9,1.83,1.38,1.22,2.06,3.1,2.06,5.63v10.25h-3.87Z"/><path class="m" d="M126.08,56.88v-3.28h11.66v3.28h-11.66Zm8.91,14.32c-1.92,0-3.41-.5-4.46-1.49-1.05-.99-1.57-2.45-1.57-4.37v-15.72h4.06v15.59c0,.83,.22,1.47,.66,1.93,.44,.46,1.05,.69,1.83,.69,.9,0,1.64-.24,2.23-.72l1.18,2.92c-.5,.39-1.1,.69-1.8,.88-.7,.2-1.41,.29-2.13,.29Z"/><path class="m" d="M152.22,53.25c1.42,0,2.67,.27,3.75,.82s1.94,1.39,2.59,2.52c.64,1.14,.97,2.59,.97,4.36v10.02h-4.09v-9.5c0-1.55-.36-2.71-1.08-3.47-.72-.76-1.75-1.15-3.08-1.15-.96,0-1.81,.2-2.56,.59-.74,.39-1.32,.98-1.72,1.75-.4,.78-.61,1.75-.61,2.93v8.84h-4.06v-24.31h4.06v11.56l-.85-1.47c.59-1.11,1.47-1.98,2.64-2.59,1.17-.61,2.52-.92,4.05-.92Z"/><path class="m" d="M170.17,71.2c-1.49,0-2.89-.19-4.23-.57-1.33-.38-2.4-.85-3.21-1.39l1.57-3.11c.79,.5,1.73,.91,2.82,1.23,1.09,.32,2.19,.48,3.31,.48,1.27,0,2.19-.17,2.77-.51,.58-.34,.87-.8,.87-1.39,0-.48-.2-.85-.59-1.1-.39-.25-.91-.44-1.54-.57-.63-.13-1.34-.25-2.11-.36-.78-.11-1.55-.26-2.33-.44-.78-.19-1.48-.46-2.11-.82-.63-.36-1.15-.85-1.54-1.46-.39-.61-.59-1.43-.59-2.46,0-1.09,.32-2.05,.95-2.87,.63-.82,1.52-1.46,2.67-1.92,1.15-.46,2.51-.69,4.08-.69,1.16,0,2.34,.14,3.55,.41,1.21,.27,2.22,.65,3.03,1.13l-1.6,3.11c-.81-.48-1.64-.81-2.49-1s-1.69-.28-2.52-.28c-1.22,0-2.14,.18-2.75,.54-.61,.36-.92,.82-.92,1.39,0,.52,.2,.92,.59,1.18,.39,.26,.91,.46,1.54,.61,.63,.14,1.34,.27,2.11,.39,.77,.12,1.54,.27,2.31,.46,.76,.19,1.47,.45,2.11,.79,.64,.34,1.16,.81,1.56,1.42,.39,.61,.59,1.41,.59,2.39,0,1.11-.32,2.07-.97,2.87-.64,.8-1.55,1.42-2.72,1.87-1.17,.45-2.57,.67-4.21,.67Z"/><path class="m" d="M192.71,50.59c-.76,0-1.39-.24-1.88-.72-.49-.48-.74-1.07-.74-1.77,0-.66,.25-1.22,.74-1.7,.49-.48,1.12-.72,1.88-.72s1.39,.22,1.88,.67c.49,.45,.74,1.02,.74,1.72s-.24,1.29-.72,1.79c-.48,.49-1.11,.74-1.9,.74Zm-2.03,20.38v-17.49h4.06v17.49h-4.06Z"/><path class="m" d="M210.04,53.25c1.42,0,2.67,.27,3.75,.82s1.94,1.39,2.59,2.52c.64,1.14,.97,2.59,.97,4.36v10.02h-4.09v-9.5c0-1.55-.36-2.71-1.08-3.47-.72-.76-1.75-1.15-3.08-1.15-.96,0-1.81,.2-2.56,.59-.74,.39-1.32,.98-1.72,1.75-.4,.78-.61,1.75-.61,2.93v8.84h-4.06v-17.49h3.9v4.75l-.69-1.47c.59-1.11,1.47-1.98,2.64-2.59,1.17-.61,2.52-.92,4.05-.92Z"/><path class="m" d="M231.98,70.97v-22.93h3.51l10.02,16.74h-1.83l9.86-16.74h3.5l.07,22.93h-4.1v-16.61h.82l-8.32,14.02h-1.93l-8.52-14.02h.98v16.61h-4.06Z"/><path class="m" d="M264.94,50.59c-.76,0-1.39-.24-1.88-.72-.49-.48-.74-1.07-.74-1.77,0-.66,.25-1.22,.74-1.7,.49-.48,1.12-.72,1.88-.72s1.39,.22,1.88,.67c.49,.45,.74,1.02,.74,1.72s-.24,1.29-.72,1.79c-.48,.49-1.11,.74-1.9,.74Zm-2.03,20.38v-17.49h4.06v17.49h-4.06Z"/><path class="m" d="M272.37,70.97v-24.31h4.06v24.31h-4.06Z"/><path class="m" d="M281.84,70.97v-24.31h4.06v24.31h-4.06Z"/><path class="m" d="M293.34,50.59c-.76,0-1.39-.24-1.88-.72-.49-.48-.74-1.07-.74-1.77,0-.66,.25-1.22,.74-1.7,.49-.48,1.12-.72,1.88-.72s1.39,.22,1.88,.67c.49,.45,.74,1.02,.74,1.72s-.24,1.29-.72,1.79c-.48,.49-1.11,.74-1.9,.74Zm-2.03,20.38v-17.49h4.06v17.49h-4.06Z"/><path class="m" d="M308.6,71.2c-1.77,0-3.36-.39-4.77-1.16s-2.52-1.84-3.32-3.19c-.81-1.35-1.21-2.89-1.21-4.62s.4-3.32,1.21-4.65c.81-1.33,1.91-2.39,3.31-3.16,1.4-.77,2.99-1.16,4.78-1.16s3.42,.39,4.83,1.16c1.41,.78,2.51,1.83,3.31,3.16,.8,1.33,1.2,2.88,1.2,4.65s-.4,3.29-1.2,4.63c-.8,1.34-1.91,2.4-3.32,3.18-1.42,.78-3.03,1.16-4.82,1.16Zm0-3.47c1,0,1.9-.22,2.69-.67,.79-.45,1.4-1.09,1.85-1.93,.45-.84,.67-1.81,.67-2.9s-.22-2.08-.67-2.9-1.06-1.45-1.85-1.9c-.79-.45-1.67-.67-2.65-.67s-1.87,.22-2.65,.67c-.79,.45-1.41,1.08-1.87,1.9-.46,.82-.69,1.79-.69,2.9s.23,2.06,.69,2.9c.46,.84,1.08,1.49,1.87,1.93,.79,.45,1.66,.67,2.62,.67Z"/><path class="m" d="M331.79,53.25c1.42,0,2.67,.27,3.75,.82s1.94,1.39,2.59,2.52c.64,1.14,.97,2.59,.97,4.36v10.02h-4.09v-9.5c0-1.55-.36-2.71-1.08-3.47-.72-.76-1.75-1.15-3.08-1.15-.96,0-1.81,.2-2.56,.59-.74,.39-1.32,.98-1.72,1.75-.4,.78-.61,1.75-.61,2.93v8.84h-4.06v-17.49h3.9v4.75l-.69-1.47c.59-1.11,1.47-1.98,2.64-2.59,1.17-.61,2.52-.92,4.05-.92Z"/><path class="m" d="M349.75,71.2c-1.49,0-2.89-.19-4.23-.57-1.33-.38-2.4-.85-3.21-1.39l1.57-3.11c.79,.5,1.73,.91,2.82,1.23,1.09,.32,2.19,.48,3.31,.48,1.27,0,2.19-.17,2.77-.51,.58-.34,.87-.8,.87-1.39,0-.48-.2-.85-.59-1.1-.39-.25-.91-.44-1.54-.57-.63-.13-1.34-.25-2.11-.36-.78-.11-1.55-.26-2.33-.44-.78-.19-1.48-.46-2.11-.82-.63-.36-1.15-.85-1.54-1.46-.39-.61-.59-1.43-.59-2.46,0-1.09,.32-2.05,.95-2.87,.63-.82,1.52-1.46,2.67-1.92,1.15-.46,2.51-.69,4.08-.69,1.16,0,2.34,.14,3.55,.41,1.21,.27,2.22,.65,3.03,1.13l-1.6,3.11c-.81-.48-1.64-.81-2.49-1s-1.69-.28-2.52-.28c-1.22,0-2.14,.18-2.75,.54-.61,.36-.92,.82-.92,1.39,0,.52,.2,.92,.59,1.18,.39,.26,.91,.46,1.54,.61,.63,.14,1.34,.27,2.11,.39,.77,.12,1.54,.27,2.31,.46,.76,.19,1.47,.45,2.11,.79,.64,.34,1.16,.81,1.56,1.42,.39,.61,.59,1.41,.59,2.39,0,1.11-.32,2.07-.97,2.87-.64,.8-1.55,1.42-2.72,1.87-1.17,.45-2.57,.67-4.21,.67Z"/></g><g><path class="m" d="M1080.97,133.97v-22.93h3.5l10.02,16.74h-1.83l9.86-16.74h3.5l.07,22.93h-4.09v-16.61h.82l-8.32,14.02h-1.93l-8.52-14.02h.98v16.61h-4.06Z"/><path class="m" d="M1113.92,113.59c-.76,0-1.39-.24-1.88-.72-.49-.48-.74-1.07-.74-1.77,0-.66,.25-1.22,.74-1.7,.49-.48,1.12-.72,1.88-.72s1.39,.22,1.88,.67c.49,.45,.74,1.02,.74,1.72s-.24,1.29-.72,1.79c-.48,.49-1.11,.74-1.9,.74Zm-2.03,20.38v-17.49h4.06v17.49h-4.06Z"/><path class="m" d="M1121.36,133.97v-24.31h4.06v24.31h-4.06Z"/><path class="m" d="M1132.86,113.59c-.76,0-1.39-.24-1.88-.72-.49-.48-.74-1.07-.74-1.77,0-.66,.25-1.22,.74-1.7,.49-.48,1.12-.72,1.88-.72s1.39,.22,1.88,.67c.49,.45,.74,1.02,.74,1.72s-.24,1.29-.72,1.79c-.48,.49-1.11,.74-1.9,.74Zm-2.03,20.38v-17.49h4.06v17.49h-4.06Z"/><path class="m" d="M1137.94,119.88v-3.28h11.66v3.28h-11.66Zm8.91,14.32c-1.92,0-3.41-.5-4.46-1.49-1.05-.99-1.57-2.45-1.57-4.37v-15.72h4.06v15.59c0,.83,.22,1.47,.66,1.93,.44,.46,1.05,.69,1.83,.69,.9,0,1.64-.24,2.23-.72l1.18,2.92c-.5,.39-1.1,.69-1.8,.88s-1.41,.29-2.13,.29Z"/><path class="m" d="M1159.42,134.2c-1.31,0-2.46-.22-3.44-.67-.98-.45-1.74-1.07-2.28-1.87-.54-.8-.8-1.7-.8-2.7s.23-1.87,.7-2.65c.47-.79,1.24-1.41,2.31-1.87,1.07-.46,2.49-.69,4.26-.69h5.08v2.72h-4.78c-1.38,0-2.31,.22-2.8,.67-.49,.45-.74,1.01-.74,1.69,0,.72,.29,1.3,.88,1.74,.59,.44,1.41,.66,2.46,.66s1.91-.23,2.7-.69c.8-.46,1.38-1.14,1.75-2.03l.66,2.46c-.39,1.03-1.09,1.82-2.1,2.39-1,.57-2.29,.85-3.87,.85Zm5.5-.23v-3.57l-.2-.72v-6.19c0-1.2-.37-2.13-1.1-2.8-.73-.67-1.84-1-3.33-1-.96,0-1.91,.15-2.85,.46-.94,.31-1.75,.73-2.42,1.28l-1.61-2.98c.96-.72,2.09-1.27,3.38-1.64,1.29-.37,2.63-.56,4.03-.56,2.56,0,4.52,.61,5.9,1.83,1.38,1.22,2.06,3.1,2.06,5.63v10.25h-3.87Z"/><path class="m" d="M1174.07,133.97v-17.49h3.9v4.82l-.46-1.41c.5-1.18,1.32-2.08,2.46-2.7,1.14-.62,2.52-.93,4.16-.93v3.9c-.15-.02-.31-.04-.46-.05s-.29-.02-.43-.02c-1.57,0-2.82,.45-3.73,1.34-.92,.9-1.38,2.26-1.38,4.1v8.45h-4.06Z"/><path class="m" d="M1189.76,140.55c-.87,0-1.74-.14-2.59-.43-.85-.28-1.55-.68-2.1-1.18l1.61-2.98c.41,.35,.88,.63,1.39,.85,.51,.22,1.05,.33,1.62,.33,.74,0,1.34-.19,1.8-.56,.46-.37,.88-1,1.28-1.9l.98-2.23,.39-.52,6.58-15.46h3.93l-8.19,18.93c-.55,1.29-1.15,2.31-1.82,3.06-.67,.75-1.41,1.29-2.23,1.61-.82,.32-1.71,.47-2.67,.47Zm3.57-5.96l-7.89-18.12h4.23l6.45,15.1-2.78,3.01Z"/><path class="m" d="M1216.65,133.97v-22.93h10.06c2.45,0,4.61,.47,6.5,1.42s3.36,2.29,4.41,4.01c1.05,1.73,1.57,3.73,1.57,6.03s-.52,4.3-1.57,6.03c-1.05,1.72-2.52,3.06-4.41,4.01s-4.06,1.42-6.5,1.42h-10.06Zm4.26-3.6h5.54c1.72,0,3.21-.33,4.47-.98s2.24-1.57,2.95-2.75c.71-1.18,1.06-2.55,1.06-4.13s-.36-3-1.06-4.16c-.71-1.16-1.69-2.06-2.95-2.72s-2.75-.98-4.47-.98h-5.54v15.72Z"/><path class="m" d="M1251.54,134.2c-1.94,0-3.64-.39-5.09-1.16-1.45-.78-2.58-1.83-3.37-3.18-.8-1.34-1.2-2.89-1.2-4.63s.39-3.29,1.16-4.64c.77-1.34,1.84-2.4,3.21-3.18,1.36-.77,2.92-1.16,4.67-1.16s3.22,.38,4.55,1.13c1.33,.75,2.38,1.81,3.14,3.16,.76,1.35,1.15,2.96,1.15,4.82,0,.15,0,.34-.02,.57s-.03,.43-.05,.61h-14.58v-2.72h12.42l-1.64,.85c.02-.98-.18-1.86-.61-2.64s-1.01-1.38-1.75-1.8-1.62-.64-2.62-.64-1.86,.21-2.64,.64-1.37,1.03-1.79,1.82c-.41,.79-.62,1.69-.62,2.72v.66c0,1.05,.23,1.98,.7,2.78,.47,.81,1.14,1.44,2.02,1.88,.87,.45,1.89,.67,3.05,.67,.98,0,1.87-.16,2.65-.49,.79-.33,1.48-.81,2.1-1.44l2.23,2.55c-.81,.92-1.81,1.62-3,2.1-1.19,.48-2.55,.72-4.08,.72Z"/><path class="m" d="M1268.48,134.2c-1.31,0-2.46-.22-3.44-.67-.98-.45-1.74-1.07-2.28-1.87-.54-.8-.8-1.7-.8-2.7s.23-1.87,.7-2.65c.47-.79,1.24-1.41,2.31-1.87,1.07-.46,2.49-.69,4.26-.69h5.08v2.72h-4.78c-1.38,0-2.31,.22-2.8,.67-.49,.45-.74,1.01-.74,1.69,0,.72,.29,1.3,.88,1.74,.59,.44,1.41,.66,2.46,.66s1.91-.23,2.7-.69c.8-.46,1.38-1.14,1.75-2.03l.66,2.46c-.39,1.03-1.09,1.82-2.1,2.39-1,.57-2.29,.85-3.87,.85Zm5.5-.23v-3.57l-.2-.72v-6.19c0-1.2-.37-2.13-1.1-2.8-.73-.67-1.84-1-3.33-1-.96,0-1.91,.15-2.85,.46-.94,.31-1.75,.73-2.42,1.28l-1.61-2.98c.96-.72,2.09-1.27,3.38-1.64,1.29-.37,2.63-.56,4.03-.56,2.56,0,4.52,.61,5.9,1.83,1.38,1.22,2.06,3.1,2.06,5.63v10.25h-3.87Z"/><path class="m" d="M1280.76,119.88v-3.28h11.66v3.28h-11.66Zm8.91,14.32c-1.92,0-3.41-.5-4.46-1.49-1.05-.99-1.57-2.45-1.57-4.37v-15.72h4.06v15.59c0,.83,.22,1.47,.66,1.93,.44,.46,1.05,.69,1.83,.69,.9,0,1.64-.24,2.23-.72l1.18,2.92c-.5,.39-1.1,.69-1.8,.88s-1.41,.29-2.13,.29Z"/><path class="m" d="M1306.9,116.25c1.42,0,2.67,.27,3.75,.82s1.94,1.39,2.59,2.52c.64,1.14,.97,2.59,.97,4.36v10.02h-4.09v-9.5c0-1.55-.36-2.71-1.08-3.47-.72-.76-1.75-1.15-3.08-1.15-.96,0-1.81,.2-2.56,.59-.74,.39-1.32,.98-1.72,1.75s-.61,1.75-.61,2.93v8.84h-4.06v-24.31h4.06v11.56l-.85-1.47c.59-1.11,1.47-1.98,2.64-2.59,1.17-.61,2.52-.92,4.04-.92Z"/><path class="m" d="M1324.85,134.2c-1.49,0-2.89-.19-4.23-.57-1.33-.38-2.4-.85-3.21-1.39l1.57-3.11c.79,.5,1.72,.91,2.82,1.23,1.09,.32,2.2,.48,3.31,.48,1.27,0,2.19-.17,2.77-.51,.58-.34,.87-.8,.87-1.39,0-.48-.2-.85-.59-1.1-.39-.25-.91-.44-1.54-.57-.63-.13-1.34-.25-2.11-.36-.78-.11-1.55-.26-2.33-.44s-1.48-.46-2.11-.82c-.63-.36-1.15-.85-1.54-1.46-.39-.61-.59-1.43-.59-2.46,0-1.09,.32-2.05,.95-2.87,.63-.82,1.52-1.46,2.67-1.92,1.15-.46,2.51-.69,4.08-.69,1.16,0,2.34,.14,3.55,.41,1.21,.27,2.22,.65,3.03,1.13l-1.61,3.11c-.81-.48-1.64-.81-2.49-1s-1.69-.28-2.52-.28c-1.22,0-2.14,.18-2.75,.54s-.92,.82-.92,1.39c0,.52,.2,.92,.59,1.18,.39,.26,.91,.46,1.54,.61,.63,.14,1.34,.27,2.11,.39,.78,.12,1.54,.27,2.31,.46,.76,.19,1.47,.45,2.11,.79,.64,.34,1.16,.81,1.56,1.42,.39,.61,.59,1.41,.59,2.39,0,1.11-.32,2.07-.97,2.87-.64,.8-1.55,1.42-2.72,1.87s-2.57,.67-4.21,.67Z"/></g><g><path class="m" d="M721.58,1009.29c-1.77,0-3.4-.29-4.88-.87-1.49-.58-2.78-1.4-3.88-2.47-1.1-1.07-1.96-2.31-2.57-3.73s-.92-2.99-.92-4.72,.31-3.3,.92-4.72c.61-1.42,1.47-2.66,2.59-3.73,1.11-1.07,2.41-1.89,3.9-2.47,1.48-.58,3.11-.87,4.88-.87,1.88,0,3.59,.32,5.14,.97,1.55,.64,2.86,1.6,3.93,2.87l-2.75,2.59c-.85-.9-1.79-1.57-2.82-2.01-1.03-.45-2.13-.67-3.31-.67s-2.3,.2-3.29,.59c-.99,.39-1.86,.95-2.59,1.67-.73,.72-1.31,1.57-1.72,2.56-.42,.98-.62,2.06-.62,3.24s.21,2.26,.62,3.24c.41,.98,.99,1.83,1.72,2.56,.73,.72,1.59,1.28,2.59,1.67,.99,.39,2.09,.59,3.29,.59s2.28-.22,3.31-.67c1.03-.45,1.97-1.13,2.82-2.05l2.75,2.59c-1.07,1.27-2.38,2.23-3.93,2.88-1.55,.66-3.28,.98-5.18,.98Z"/><path class="m" d="M744.32,991.25c1.42,0,2.67,.27,3.75,.82s1.94,1.39,2.59,2.52c.64,1.14,.97,2.59,.97,4.36v10.02h-4.09v-9.5c0-1.55-.36-2.71-1.08-3.47-.72-.76-1.75-1.15-3.08-1.15-.96,0-1.81,.2-2.56,.59-.74,.39-1.32,.98-1.72,1.75-.4,.78-.61,1.75-.61,2.93v8.84h-4.06v-24.31h4.06v11.56l-.85-1.47c.59-1.11,1.47-1.98,2.64-2.59,1.17-.61,2.52-.92,4.05-.92Z"/><path class="m" d="M758.9,988.59c-.76,0-1.39-.24-1.88-.72-.49-.48-.74-1.07-.74-1.77,0-.66,.25-1.22,.74-1.7,.49-.48,1.12-.72,1.88-.72s1.39,.22,1.88,.67c.49,.45,.74,1.02,.74,1.72s-.24,1.29-.72,1.79c-.48,.49-1.11,.74-1.9,.74Zm-2.03,20.38v-17.49h4.06v17.49h-4.06Z"/><path class="m" d="M776.22,991.25c1.42,0,2.67,.27,3.75,.82s1.94,1.39,2.59,2.52c.64,1.14,.97,2.59,.97,4.36v10.02h-4.09v-9.5c0-1.55-.36-2.71-1.08-3.47-.72-.76-1.75-1.15-3.08-1.15-.96,0-1.81,.2-2.56,.59-.74,.39-1.32,.98-1.72,1.75-.4,.78-.61,1.75-.61,2.93v8.84h-4.06v-17.49h3.9v4.75l-.69-1.47c.59-1.11,1.47-1.98,2.64-2.59,1.17-.61,2.52-.92,4.05-.92Z"/><path class="m" d="M794.01,1009.2c-1.31,0-2.46-.22-3.44-.67-.98-.45-1.74-1.07-2.28-1.87-.54-.8-.8-1.7-.8-2.7s.23-1.87,.7-2.65,1.24-1.41,2.31-1.87c1.07-.46,2.49-.69,4.26-.69h5.08v2.72h-4.78c-1.38,0-2.31,.22-2.8,.67-.49,.45-.74,1.01-.74,1.69,0,.72,.29,1.3,.88,1.74,.59,.44,1.41,.66,2.46,.66s1.91-.23,2.7-.69c.8-.46,1.38-1.14,1.75-2.03l.66,2.46c-.39,1.03-1.09,1.82-2.1,2.39-1,.57-2.29,.85-3.87,.85Zm5.5-.23v-3.57l-.2-.72v-6.19c0-1.2-.37-2.13-1.1-2.8-.73-.67-1.84-1-3.33-1-.96,0-1.91,.15-2.85,.46-.94,.31-1.75,.73-2.42,1.28l-1.61-2.98c.96-.72,2.09-1.27,3.37-1.64,1.29-.37,2.63-.56,4.03-.56,2.56,0,4.52,.61,5.9,1.83,1.38,1.22,2.06,3.1,2.06,5.63v10.25h-3.87Z"/></g><g><path class="m" d="M836.56,1009.29c-1.44,0-2.78-.28-4.01-.85-1.23-.57-2.24-1.4-3.03-2.49l2.42-2.88c.63,.87,1.33,1.53,2.08,1.97s1.59,.66,2.51,.66c2.36,0,3.54-1.41,3.54-4.23v-11.83h-8.16v-3.6h12.38v15.2c0,2.71-.66,4.73-1.97,6.06-1.31,1.33-3.23,2-5.77,2Z"/><path class="m" d="M855.17,1009.2c-1.31,0-2.46-.22-3.44-.67-.98-.45-1.74-1.07-2.28-1.87-.54-.8-.8-1.7-.8-2.7s.23-1.87,.7-2.65,1.24-1.41,2.31-1.87c1.07-.46,2.49-.69,4.26-.69h5.08v2.72h-4.78c-1.38,0-2.31,.22-2.8,.67-.49,.45-.74,1.01-.74,1.69,0,.72,.29,1.3,.88,1.74,.59,.44,1.41,.66,2.46,.66s1.91-.23,2.7-.69c.8-.46,1.38-1.14,1.75-2.03l.66,2.46c-.39,1.03-1.09,1.82-2.1,2.39-1,.57-2.29,.85-3.87,.85Zm5.5-.23v-3.57l-.2-.72v-6.19c0-1.2-.37-2.13-1.1-2.8-.73-.67-1.84-1-3.33-1-.96,0-1.91,.15-2.85,.46-.94,.31-1.75,.73-2.42,1.28l-1.61-2.98c.96-.72,2.09-1.27,3.37-1.64,1.29-.37,2.63-.56,4.03-.56,2.56,0,4.52,.61,5.9,1.83,1.38,1.22,2.06,3.1,2.06,5.63v10.25h-3.87Z"/><path class="m" d="M869.81,1015.32v-23.85h3.9v4.13l-.16,4.65,.33,4.65v10.42h-4.06Zm9.66-6.13c-1.44,0-2.74-.32-3.9-.97-1.16-.64-2.08-1.63-2.75-2.96-.68-1.33-1.02-3.01-1.02-5.04s.32-3.74,.97-5.06c.64-1.32,1.56-2.3,2.74-2.95,1.18-.64,2.5-.97,3.96-.97,1.7,0,3.22,.37,4.55,1.11,1.33,.74,2.39,1.79,3.16,3.14,.77,1.35,1.16,2.93,1.16,4.72s-.39,3.39-1.16,4.73c-.78,1.34-1.83,2.39-3.16,3.13-1.33,.74-2.85,1.11-4.55,1.11Zm-.49-3.47c1,0,1.89-.23,2.67-.69,.77-.46,1.39-1.1,1.85-1.93,.46-.83,.69-1.79,.69-2.88s-.23-2.08-.69-2.9c-.46-.82-1.08-1.45-1.85-1.9-.78-.45-1.67-.67-2.67-.67s-1.83,.22-2.62,.67c-.79,.45-1.41,1.08-1.87,1.9s-.69,1.79-.69,2.9,.23,2.05,.69,2.88,1.08,1.47,1.87,1.93c.79,.46,1.66,.69,2.62,.69Z"/><path class="m" d="M897.29,1009.2c-1.31,0-2.46-.22-3.44-.67-.98-.45-1.74-1.07-2.28-1.87-.54-.8-.8-1.7-.8-2.7s.23-1.87,.7-2.65,1.24-1.41,2.31-1.87c1.07-.46,2.49-.69,4.26-.69h5.08v2.72h-4.78c-1.38,0-2.31,.22-2.8,.67-.49,.45-.74,1.01-.74,1.69,0,.72,.29,1.3,.88,1.74,.59,.44,1.41,.66,2.46,.66s1.91-.23,2.7-.69c.8-.46,1.38-1.14,1.75-2.03l.66,2.46c-.39,1.03-1.09,1.82-2.1,2.39-1,.57-2.29,.85-3.87,.85Zm5.5-.23v-3.57l-.2-.72v-6.19c0-1.2-.37-2.13-1.1-2.8-.73-.67-1.84-1-3.33-1-.96,0-1.91,.15-2.85,.46-.94,.31-1.75,.73-2.42,1.28l-1.61-2.98c.96-.72,2.09-1.27,3.37-1.64,1.29-.37,2.63-.56,4.03-.56,2.56,0,4.52,.61,5.9,1.83,1.38,1.22,2.06,3.1,2.06,5.63v10.25h-3.87Z"/><path class="m" d="M921.83,991.25c1.42,0,2.67,.27,3.75,.82s1.94,1.39,2.59,2.52c.64,1.14,.97,2.59,.97,4.36v10.02h-4.09v-9.5c0-1.55-.36-2.71-1.08-3.47-.72-.76-1.75-1.15-3.08-1.15-.96,0-1.81,.2-2.56,.59-.74,.39-1.32,.98-1.72,1.75-.4,.78-.61,1.75-.61,2.93v8.84h-4.06v-17.49h3.9v4.75l-.69-1.47c.59-1.11,1.47-1.98,2.64-2.59,1.17-.61,2.52-.92,4.05-.92Z"/></g><g><path class="m" d="M965.02,1008.97v-22.93h4.26v22.93h-4.26Zm3.77-5.41l-.2-5.04,11.99-12.48h4.81l-9.99,10.61-2.36,2.59-4.26,4.32Zm12.22,5.41l-8.81-10.45,2.85-3.11,10.97,13.56h-5.01Z"/><path class="m" d="M995.62,1009.2c-1.77,0-3.36-.39-4.77-1.16s-2.52-1.84-3.33-3.19c-.81-1.35-1.21-2.89-1.21-4.62s.4-3.32,1.21-4.65c.81-1.33,1.91-2.39,3.31-3.16,1.4-.77,2.99-1.16,4.78-1.16s3.42,.39,4.83,1.16c1.41,.78,2.51,1.83,3.31,3.16,.8,1.33,1.2,2.88,1.2,4.65s-.4,3.29-1.2,4.63c-.8,1.34-1.91,2.4-3.33,3.18-1.42,.78-3.03,1.16-4.82,1.16Zm0-3.47c1,0,1.9-.22,2.69-.67,.79-.45,1.4-1.09,1.85-1.93,.45-.84,.67-1.81,.67-2.9s-.22-2.08-.67-2.9c-.45-.82-1.06-1.45-1.85-1.9-.79-.45-1.67-.67-2.65-.67s-1.87,.22-2.65,.67c-.79,.45-1.41,1.08-1.87,1.9s-.69,1.79-.69,2.9,.23,2.06,.69,2.9c.46,.84,1.08,1.49,1.87,1.93,.79,.45,1.66,.67,2.62,.67Z"/><path class="m" d="M1008.92,1008.97v-17.49h3.9v4.82l-.46-1.41c.5-1.18,1.32-2.08,2.46-2.7,1.14-.62,2.52-.93,4.16-.93v3.9c-.15-.02-.31-.04-.46-.05s-.29-.02-.43-.02c-1.57,0-2.82,.45-3.73,1.34-.92,.9-1.38,2.26-1.38,4.1v8.45h-4.06Z"/><path class="m" d="M1030.54,1009.2c-1.94,0-3.64-.39-5.09-1.16-1.45-.78-2.58-1.83-3.37-3.18-.8-1.34-1.2-2.89-1.2-4.63s.39-3.29,1.16-4.64c.77-1.34,1.84-2.4,3.21-3.18,1.36-.77,2.92-1.16,4.67-1.16s3.22,.38,4.55,1.13c1.33,.75,2.38,1.81,3.14,3.16,.76,1.35,1.15,2.96,1.15,4.82,0,.15,0,.34-.02,.57s-.03,.43-.05,.61h-14.58v-2.72h12.42l-1.64,.85c.02-.98-.18-1.86-.61-2.64s-1.01-1.38-1.75-1.8-1.62-.64-2.62-.64-1.86,.21-2.64,.64-1.37,1.03-1.79,1.82c-.41,.79-.62,1.69-.62,2.72v.66c0,1.05,.23,1.98,.7,2.78,.47,.81,1.14,1.44,2.02,1.88,.87,.45,1.89,.67,3.05,.67,.98,0,1.87-.16,2.65-.49,.79-.33,1.48-.81,2.1-1.44l2.23,2.55c-.81,.92-1.81,1.62-3,2.1-1.19,.48-2.55,.72-4.08,.72Z"/><path class="m" d="M1047.47,1009.2c-1.31,0-2.46-.22-3.44-.67s-1.74-1.07-2.28-1.87c-.54-.8-.8-1.7-.8-2.7s.23-1.87,.7-2.65,1.24-1.41,2.31-1.87c1.07-.46,2.49-.69,4.26-.69h5.08v2.72h-4.78c-1.38,0-2.31,.22-2.8,.67-.49,.45-.74,1.01-.74,1.69,0,.72,.29,1.3,.88,1.74,.59,.44,1.41,.66,2.46,.66s1.91-.23,2.7-.69c.8-.46,1.38-1.14,1.75-2.03l.66,2.46c-.39,1.03-1.09,1.82-2.1,2.39-1,.57-2.29,.85-3.87,.85Zm5.5-.23v-3.57l-.2-.72v-6.19c0-1.2-.37-2.13-1.1-2.8s-1.84-1-3.33-1c-.96,0-1.91,.15-2.85,.46-.94,.31-1.75,.73-2.42,1.28l-1.61-2.98c.96-.72,2.08-1.27,3.37-1.64,1.29-.37,2.63-.56,4.03-.56,2.56,0,4.52,.61,5.9,1.83,1.38,1.22,2.06,3.1,2.06,5.63v10.25h-3.87Z"/></g><g><path class="m" d="M1092.02,1008.97v-22.93h9.43c2.03,0,3.77,.32,5.23,.97,1.45,.64,2.57,1.58,3.36,2.8,.79,1.22,1.18,2.69,1.18,4.39s-.39,3.13-1.18,4.34-1.91,2.15-3.36,2.82-3.19,1-5.23,1h-7.04l1.87-1.97v8.58h-4.26Zm4.26-8.12l-1.87-2.1h6.85c1.88,0,3.29-.4,4.24-1.2s1.42-1.92,1.42-3.36-.47-2.56-1.42-3.36c-.95-.8-2.36-1.2-4.24-1.2h-6.85l1.87-2.1v13.3Z"/><path class="m" d="M1125.34,991.25c1.42,0,2.67,.27,3.75,.82s1.94,1.39,2.59,2.52c.64,1.14,.97,2.59,.97,4.36v10.02h-4.09v-9.5c0-1.55-.36-2.71-1.08-3.47-.72-.76-1.75-1.15-3.08-1.15-.96,0-1.81,.2-2.56,.59-.74,.39-1.32,.98-1.72,1.75s-.61,1.75-.61,2.93v8.84h-4.06v-24.31h4.06v11.56l-.85-1.47c.59-1.11,1.47-1.98,2.64-2.59,1.17-.61,2.52-.92,4.04-.92Z"/><path class="m" d="M1139.92,988.59c-.77,0-1.39-.24-1.88-.72-.49-.48-.74-1.07-.74-1.77,0-.66,.25-1.22,.74-1.7,.49-.48,1.12-.72,1.88-.72s1.39,.22,1.88,.67c.49,.45,.74,1.02,.74,1.72s-.24,1.29-.72,1.79c-.48,.49-1.11,.74-1.9,.74Zm-2.03,20.38v-17.49h4.06v17.49h-4.06Z"/><path class="m" d="M1147.35,1008.97v-24.31h4.06v24.31h-4.06Z"/><path class="m" d="M1158.85,988.59c-.77,0-1.39-.24-1.88-.72-.49-.48-.74-1.07-.74-1.77,0-.66,.25-1.22,.74-1.7,.49-.48,1.12-.72,1.88-.72s1.39,.22,1.88,.67c.49,.45,.74,1.02,.74,1.72s-.24,1.29-.72,1.79c-.48,.49-1.11,.74-1.9,.74Zm-2.03,20.38v-17.49h4.06v17.49h-4.06Z"/><path class="m" d="M1166.29,1015.32v-23.85h3.9v4.13l-.16,4.65,.33,4.65v10.42h-4.06Zm9.66-6.13c-1.44,0-2.74-.32-3.9-.97-1.16-.64-2.08-1.63-2.75-2.96-.68-1.33-1.02-3.01-1.02-5.04s.32-3.74,.97-5.06c.64-1.32,1.56-2.3,2.73-2.95,1.18-.64,2.5-.97,3.96-.97,1.7,0,3.22,.37,4.55,1.11s2.39,1.79,3.16,3.14c.77,1.35,1.16,2.93,1.16,4.72s-.39,3.39-1.16,4.73c-.78,1.34-1.83,2.39-3.16,3.13-1.33,.74-2.85,1.11-4.55,1.11Zm-.49-3.47c1,0,1.89-.23,2.67-.69,.78-.46,1.39-1.1,1.85-1.93,.46-.83,.69-1.79,.69-2.88s-.23-2.08-.69-2.9c-.46-.82-1.08-1.45-1.85-1.9-.78-.45-1.67-.67-2.67-.67s-1.83,.22-2.62,.67c-.79,.45-1.41,1.08-1.87,1.9-.46,.82-.69,1.79-.69,2.9s.23,2.05,.69,2.88c.46,.83,1.08,1.47,1.87,1.93,.79,.46,1.66,.69,2.62,.69Z"/><path class="m" d="M1188.76,1015.32v-23.85h3.9v4.13l-.16,4.65,.33,4.65v10.42h-4.06Zm9.66-6.13c-1.44,0-2.74-.32-3.9-.97-1.16-.64-2.07-1.63-2.75-2.96-.68-1.33-1.02-3.01-1.02-5.04s.32-3.74,.97-5.06,1.56-2.3,2.74-2.95c1.18-.64,2.5-.97,3.96-.97,1.7,0,3.22,.37,4.55,1.11,1.33,.74,2.39,1.79,3.16,3.14,.78,1.35,1.16,2.93,1.16,4.72s-.39,3.39-1.16,4.73c-.78,1.34-1.83,2.39-3.16,3.13-1.33,.74-2.85,1.11-4.55,1.11Zm-.49-3.47c1,0,1.89-.23,2.67-.69,.77-.46,1.39-1.1,1.85-1.93s.69-1.79,.69-2.88-.23-2.08-.69-2.9-1.08-1.45-1.85-1.9c-.78-.45-1.67-.67-2.67-.67s-1.83,.22-2.62,.67c-.79,.45-1.41,1.08-1.87,1.9-.46,.82-.69,1.79-.69,2.9s.23,2.05,.69,2.88c.46,.83,1.08,1.47,1.87,1.93,.79,.46,1.66,.69,2.62,.69Z"/><path class="m" d="M1213.26,988.59c-.77,0-1.39-.24-1.88-.72-.49-.48-.74-1.07-.74-1.77,0-.66,.25-1.22,.74-1.7,.49-.48,1.12-.72,1.88-.72s1.39,.22,1.88,.67c.49,.45,.74,1.02,.74,1.72s-.24,1.29-.72,1.79c-.48,.49-1.11,.74-1.9,.74Zm-2.03,20.38v-17.49h4.06v17.49h-4.06Z"/><path class="m" d="M1230.59,991.25c1.42,0,2.67,.27,3.75,.82s1.94,1.39,2.59,2.52c.64,1.14,.97,2.59,.97,4.36v10.02h-4.09v-9.5c0-1.55-.36-2.71-1.08-3.47-.72-.76-1.75-1.15-3.08-1.15-.96,0-1.81,.2-2.56,.59-.74,.39-1.32,.98-1.72,1.75s-.61,1.75-.61,2.93v8.84h-4.06v-17.49h3.9v4.75l-.69-1.47c.59-1.11,1.47-1.98,2.64-2.59,1.17-.61,2.52-.92,4.04-.92Z"/><path class="m" d="M1251.36,1009.2c-1.94,0-3.64-.39-5.09-1.16-1.45-.78-2.58-1.83-3.37-3.18-.8-1.34-1.2-2.89-1.2-4.63s.39-3.29,1.16-4.64,1.85-2.4,3.21-3.18c1.36-.77,2.92-1.16,4.67-1.16s3.22,.38,4.55,1.13c1.33,.75,2.38,1.81,3.14,3.16,.76,1.35,1.15,2.96,1.15,4.82,0,.15,0,.34-.02,.57-.01,.23-.03,.43-.05,.61h-14.58v-2.72h12.42l-1.64,.85c.02-.98-.18-1.86-.61-2.64s-1.01-1.38-1.75-1.8c-.74-.43-1.62-.64-2.62-.64s-1.86,.21-2.64,.64c-.78,.43-1.37,1.03-1.79,1.82s-.62,1.69-.62,2.72v.66c0,1.05,.23,1.98,.7,2.78,.47,.81,1.14,1.44,2.01,1.88,.87,.45,1.89,.67,3.05,.67,.98,0,1.87-.16,2.65-.49,.79-.33,1.49-.81,2.1-1.44l2.23,2.55c-.81,.92-1.81,1.62-3,2.1s-2.55,.72-4.08,.72Z"/><path class="m" d="M1268.95,1009.2c-1.49,0-2.89-.19-4.23-.57-1.33-.38-2.4-.85-3.21-1.39l1.57-3.11c.79,.5,1.72,.91,2.82,1.23,1.09,.32,2.2,.48,3.31,.48,1.27,0,2.19-.17,2.77-.51,.58-.34,.87-.8,.87-1.39,0-.48-.2-.85-.59-1.1-.39-.25-.91-.44-1.54-.57-.63-.13-1.34-.25-2.11-.36-.78-.11-1.55-.26-2.33-.44s-1.48-.46-2.11-.82c-.63-.36-1.15-.85-1.54-1.46-.39-.61-.59-1.43-.59-2.46,0-1.09,.32-2.05,.95-2.87,.63-.82,1.52-1.46,2.67-1.92,1.15-.46,2.51-.69,4.08-.69,1.16,0,2.34,.14,3.55,.41,1.21,.27,2.22,.65,3.03,1.13l-1.61,3.11c-.81-.48-1.64-.81-2.49-1s-1.69-.28-2.52-.28c-1.22,0-2.14,.18-2.75,.54s-.92,.82-.92,1.39c0,.52,.2,.92,.59,1.18,.39,.26,.91,.46,1.54,.61,.63,.14,1.34,.27,2.11,.39,.78,.12,1.54,.27,2.31,.46,.76,.19,1.47,.45,2.11,.79,.64,.34,1.16,.81,1.56,1.42,.39,.61,.59,1.41,.59,2.39,0,1.11-.32,2.07-.97,2.87-.64,.8-1.55,1.42-2.72,1.87s-2.57,.67-4.21,.67Z"/></g><g><path class="m" d="M233.53,1008.97v-22.93h4.26v22.93h-4.26Z"/><path class="m" d="M253.51,991.25c1.42,0,2.67,.27,3.75,.82s1.94,1.39,2.59,2.52c.64,1.14,.97,2.59,.97,4.36v10.02h-4.09v-9.5c0-1.55-.36-2.71-1.08-3.47-.72-.76-1.75-1.15-3.08-1.15-.96,0-1.81,.2-2.56,.59-.74,.39-1.32,.98-1.72,1.75-.4,.78-.61,1.75-.61,2.93v8.84h-4.06v-17.49h3.9v4.75l-.69-1.47c.59-1.11,1.47-1.98,2.64-2.59,1.17-.61,2.52-.92,4.05-.92Z"/><path class="m" d="M273.46,1009.2c-1.68,0-3.19-.37-4.54-1.11-1.34-.74-2.4-1.79-3.16-3.13-.76-1.34-1.15-2.92-1.15-4.73s.38-3.36,1.15-4.72c.76-1.35,1.82-2.4,3.16-3.14,1.34-.74,2.85-1.11,4.54-1.11,1.46,0,2.77,.32,3.93,.97,1.16,.64,2.07,1.63,2.75,2.95,.68,1.32,1.02,3.01,1.02,5.06s-.33,3.71-.98,5.04c-.66,1.33-1.56,2.32-2.7,2.96-1.15,.64-2.48,.97-4.01,.97Zm.49-3.47c.98,0,1.86-.22,2.64-.67,.77-.45,1.4-1.09,1.87-1.93,.47-.84,.7-1.81,.7-2.9s-.23-2.08-.7-2.9-1.09-1.45-1.87-1.9c-.78-.45-1.65-.67-2.64-.67s-1.86,.22-2.64,.67c-.78,.45-1.4,1.08-1.87,1.9-.47,.82-.7,1.79-.7,2.9s.23,2.06,.7,2.9c.47,.84,1.09,1.49,1.87,1.93,.77,.45,1.65,.67,2.64,.67Zm5.34,3.24v-4.13l.1-4.65-.33-4.65v-10.88h4.13v24.31h-3.9Z"/><path class="m" d="M290.63,988.59c-.76,0-1.39-.24-1.88-.72-.49-.48-.74-1.07-.74-1.77,0-.66,.25-1.22,.74-1.7,.49-.48,1.12-.72,1.88-.72s1.39,.22,1.88,.67c.49,.45,.74,1.02,.74,1.72s-.24,1.29-.72,1.79c-.48,.49-1.11,.74-1.9,.74Zm-2.03,20.38v-17.49h4.06v17.49h-4.06Z"/><path class="m" d="M303.31,1009.2c-1.31,0-2.46-.22-3.44-.67-.98-.45-1.74-1.07-2.28-1.87-.54-.8-.8-1.7-.8-2.7s.23-1.87,.7-2.65,1.24-1.41,2.31-1.87c1.07-.46,2.49-.69,4.26-.69h5.08v2.72h-4.78c-1.38,0-2.31,.22-2.8,.67-.49,.45-.74,1.01-.74,1.69,0,.72,.29,1.3,.88,1.74,.59,.44,1.41,.66,2.46,.66s1.91-.23,2.7-.69c.8-.46,1.38-1.14,1.75-2.03l.66,2.46c-.39,1.03-1.09,1.82-2.1,2.39-1,.57-2.29,.85-3.87,.85Zm5.5-.23v-3.57l-.2-.72v-6.19c0-1.2-.37-2.13-1.1-2.8-.73-.67-1.84-1-3.33-1-.96,0-1.91,.15-2.85,.46-.94,.31-1.75,.73-2.42,1.28l-1.61-2.98c.96-.72,2.09-1.27,3.37-1.64,1.29-.37,2.63-.56,4.03-.56,2.56,0,4.52,.61,5.9,1.83,1.38,1.22,2.06,3.1,2.06,5.63v10.25h-3.87Z"/></g><g><path class="m" d="M351.84,1008.97v-22.93h4.26v22.93h-4.26Z"/><path class="m" d="M371.82,991.25c1.42,0,2.67,.27,3.75,.82s1.94,1.39,2.59,2.52c.64,1.14,.97,2.59,.97,4.36v10.02h-4.09v-9.5c0-1.55-.36-2.71-1.08-3.47-.72-.76-1.75-1.15-3.08-1.15-.96,0-1.81,.2-2.56,.59-.74,.39-1.32,.98-1.72,1.75-.4,.78-.61,1.75-.61,2.93v8.84h-4.06v-17.49h3.9v4.75l-.69-1.47c.59-1.11,1.47-1.98,2.64-2.59,1.17-.61,2.52-.92,4.05-.92Z"/><path class="m" d="M391.77,1009.2c-1.68,0-3.19-.37-4.54-1.11-1.34-.74-2.4-1.79-3.16-3.13-.76-1.34-1.15-2.92-1.15-4.73s.38-3.36,1.15-4.72c.76-1.35,1.82-2.4,3.16-3.14,1.34-.74,2.85-1.11,4.54-1.11,1.46,0,2.77,.32,3.93,.97,1.16,.64,2.07,1.63,2.75,2.95,.68,1.32,1.02,3.01,1.02,5.06s-.33,3.71-.98,5.04c-.66,1.33-1.56,2.32-2.7,2.96-1.15,.64-2.48,.97-4.01,.97Zm.49-3.47c.98,0,1.86-.22,2.64-.67,.77-.45,1.4-1.09,1.87-1.93,.47-.84,.7-1.81,.7-2.9s-.23-2.08-.7-2.9-1.09-1.45-1.87-1.9c-.78-.45-1.65-.67-2.64-.67s-1.86,.22-2.64,.67c-.78,.45-1.4,1.08-1.87,1.9-.47,.82-.7,1.79-.7,2.9s.23,2.06,.7,2.9c.47,.84,1.09,1.49,1.87,1.93,.77,.45,1.65,.67,2.64,.67Zm5.34,3.24v-4.13l.1-4.65-.33-4.65v-10.88h4.13v24.31h-3.9Z"/><path class="m" d="M414.74,1009.2c-1.77,0-3.36-.39-4.77-1.16s-2.52-1.84-3.32-3.19c-.81-1.35-1.21-2.89-1.21-4.62s.4-3.32,1.21-4.65c.81-1.33,1.91-2.39,3.31-3.16,1.4-.77,2.99-1.16,4.78-1.16s3.42,.39,4.83,1.16c1.41,.78,2.51,1.83,3.31,3.16,.8,1.33,1.2,2.88,1.2,4.65s-.4,3.29-1.2,4.63c-.8,1.34-1.91,2.4-3.32,3.18-1.42,.78-3.03,1.16-4.82,1.16Zm0-3.47c1,0,1.9-.22,2.69-.67,.79-.45,1.4-1.09,1.85-1.93,.45-.84,.67-1.81,.67-2.9s-.22-2.08-.67-2.9-1.06-1.45-1.85-1.9c-.79-.45-1.67-.67-2.65-.67s-1.87,.22-2.65,.67c-.79,.45-1.41,1.08-1.87,1.9-.46,.82-.69,1.79-.69,2.9s.23,2.06,.69,2.9c.46,.84,1.08,1.49,1.87,1.93,.79,.45,1.66,.67,2.62,.67Z"/><path class="m" d="M437.93,991.25c1.42,0,2.67,.27,3.75,.82s1.94,1.39,2.59,2.52c.64,1.14,.97,2.59,.97,4.36v10.02h-4.09v-9.5c0-1.55-.36-2.71-1.08-3.47-.72-.76-1.75-1.15-3.08-1.15-.96,0-1.81,.2-2.56,.59-.74,.39-1.32,.98-1.72,1.75-.4,.78-.61,1.75-.61,2.93v8.84h-4.06v-17.49h3.9v4.75l-.69-1.47c.59-1.11,1.47-1.98,2.64-2.59,1.17-.61,2.52-.92,4.05-.92Z"/><path class="m" d="M458.7,1009.2c-1.94,0-3.64-.39-5.09-1.16-1.45-.78-2.58-1.83-3.37-3.18-.8-1.34-1.2-2.89-1.2-4.63s.39-3.29,1.16-4.64c.77-1.34,1.85-2.4,3.21-3.18,1.36-.77,2.92-1.16,4.67-1.16s3.22,.38,4.55,1.13c1.33,.75,2.38,1.81,3.15,3.16,.76,1.35,1.15,2.96,1.15,4.82,0,.15,0,.34-.02,.57-.01,.23-.03,.43-.05,.61h-14.58v-2.72h12.42l-1.64,.85c.02-.98-.18-1.86-.61-2.64s-1.01-1.38-1.75-1.8c-.74-.43-1.62-.64-2.62-.64s-1.86,.21-2.64,.64c-.78,.43-1.37,1.03-1.79,1.82-.42,.79-.62,1.69-.62,2.72v.66c0,1.05,.23,1.98,.7,2.78,.47,.81,1.14,1.44,2.01,1.88,.87,.45,1.89,.67,3.05,.67,.98,0,1.87-.16,2.65-.49,.79-.33,1.48-.81,2.1-1.44l2.23,2.55c-.81,.92-1.81,1.62-3,2.1-1.19,.48-2.55,.72-4.08,.72Z"/><path class="m" d="M476.29,1009.2c-1.49,0-2.89-.19-4.23-.57-1.33-.38-2.4-.85-3.21-1.39l1.57-3.11c.79,.5,1.73,.91,2.82,1.23,1.09,.32,2.19,.48,3.31,.48,1.27,0,2.19-.17,2.77-.51,.58-.34,.87-.8,.87-1.39,0-.48-.2-.85-.59-1.1-.39-.25-.91-.44-1.54-.57-.63-.13-1.34-.25-2.11-.36-.78-.11-1.55-.26-2.33-.44-.78-.19-1.48-.46-2.11-.82-.63-.36-1.15-.85-1.54-1.46-.39-.61-.59-1.43-.59-2.46,0-1.09,.32-2.05,.95-2.87,.63-.82,1.52-1.46,2.67-1.92,1.15-.46,2.51-.69,4.08-.69,1.16,0,2.34,.14,3.55,.41,1.21,.27,2.22,.65,3.03,1.13l-1.6,3.11c-.81-.48-1.64-.81-2.49-1s-1.69-.28-2.52-.28c-1.22,0-2.14,.18-2.75,.54-.61,.36-.92,.82-.92,1.39,0,.52,.2,.92,.59,1.18,.39,.26,.91,.46,1.54,.61,.63,.14,1.34,.27,2.11,.39,.77,.12,1.54,.27,2.31,.46,.76,.19,1.47,.45,2.11,.79,.64,.34,1.16,.81,1.56,1.42,.39,.61,.59,1.41,.59,2.39,0,1.11-.32,2.07-.97,2.87-.64,.8-1.55,1.42-2.72,1.87-1.17,.45-2.57,.67-4.21,.67Z"/><path class="m" d="M489.79,988.59c-.76,0-1.39-.24-1.88-.72-.49-.48-.74-1.07-.74-1.77,0-.66,.25-1.22,.74-1.7,.49-.48,1.12-.72,1.88-.72s1.39,.22,1.88,.67c.49,.45,.74,1.02,.74,1.72s-.24,1.29-.72,1.79c-.48,.49-1.11,.74-1.9,.74Zm-2.03,20.38v-17.49h4.06v17.49h-4.06Z"/><path class="m" d="M502.46,1009.2c-1.31,0-2.46-.22-3.44-.67-.98-.45-1.74-1.07-2.28-1.87-.54-.8-.8-1.7-.8-2.7s.23-1.87,.7-2.65,1.24-1.41,2.31-1.87c1.07-.46,2.49-.69,4.26-.69h5.08v2.72h-4.78c-1.38,0-2.31,.22-2.8,.67-.49,.45-.74,1.01-.74,1.69,0,.72,.29,1.3,.88,1.74,.59,.44,1.41,.66,2.46,.66s1.91-.23,2.7-.69c.8-.46,1.38-1.14,1.75-2.03l.66,2.46c-.39,1.03-1.09,1.82-2.1,2.39-1,.57-2.29,.85-3.87,.85Zm5.5-.23v-3.57l-.2-.72v-6.19c0-1.2-.37-2.13-1.1-2.8-.73-.67-1.84-1-3.33-1-.96,0-1.91,.15-2.85,.46-.94,.31-1.75,.73-2.42,1.28l-1.61-2.98c.96-.72,2.09-1.27,3.37-1.64,1.29-.37,2.63-.56,4.03-.56,2.56,0,4.52,.61,5.9,1.83,1.38,1.22,2.06,3.1,2.06,5.63v10.25h-3.87Z"/></g><g><path class="m" d="M555.52,1008.97v-22.93h10.78c2.73,0,4.82,.54,6.26,1.62s2.16,2.53,2.16,4.34c0,1.22-.28,2.27-.85,3.13-.57,.86-1.33,1.53-2.28,2-.95,.47-1.98,.7-3.1,.7l.59-1.18c1.29,0,2.45,.24,3.47,.7,1.03,.47,1.83,1.15,2.42,2.05,.59,.9,.88,2.01,.88,3.34,0,1.96-.75,3.49-2.24,4.59-1.5,1.09-3.72,1.64-6.67,1.64h-11.43Zm4.26-3.34h6.91c1.57,0,2.78-.26,3.64-.79,.85-.52,1.28-1.36,1.28-2.52s-.43-1.97-1.28-2.51c-.85-.53-2.06-.8-3.64-.8h-7.24v-3.31h6.35c1.46,0,2.6-.26,3.41-.79,.81-.52,1.21-1.31,1.21-2.36s-.4-1.87-1.21-2.39c-.81-.52-1.94-.79-3.41-.79h-6.03v16.25Z"/><path class="m" d="M587.46,1009.2c-1.49,0-2.8-.28-3.93-.84-1.14-.56-2.03-1.41-2.67-2.55-.64-1.15-.97-2.59-.97-4.34v-9.99h4.13v9.47c0,1.55,.36,2.71,1.08,3.49,.72,.78,1.73,1.16,3.01,1.16,.96,0,1.8-.2,2.52-.59,.72-.39,1.28-.98,1.67-1.77s.59-1.76,.59-2.92v-8.84h4.09v17.49h-3.9v-4.75l.69,1.47c-.59,1.11-1.45,1.98-2.59,2.59-1.14,.61-2.38,.92-3.73,.92Z"/><path class="m" d="M602.4,1008.97v-17.49h3.9v4.82l-.46-1.41c.5-1.18,1.32-2.08,2.46-2.7,1.14-.62,2.52-.93,4.16-.93v3.9c-.15-.02-.31-.04-.46-.05s-.29-.02-.43-.02c-1.57,0-2.82,.45-3.73,1.34-.92,.9-1.38,2.26-1.38,4.1v8.45h-4.06Z"/><path class="m" d="M638.04,991.25c1.4,0,2.64,.27,3.72,.82s1.93,1.39,2.54,2.52,.92,2.59,.92,4.36v10.02h-4.06v-9.5c0-1.55-.34-2.71-1.03-3.47-.69-.76-1.67-1.15-2.93-1.15-.9,0-1.69,.2-2.38,.59-.69,.39-1.22,.98-1.6,1.75-.38,.78-.57,1.74-.57,2.9v8.88h-4.06v-9.5c0-1.55-.34-2.71-1.03-3.47-.69-.76-1.67-1.15-2.93-1.15-.9,0-1.69,.2-2.38,.59-.69,.39-1.22,.98-1.61,1.75-.38,.78-.57,1.74-.57,2.9v8.88h-4.06v-17.49h3.9v4.68l-.72-1.41c.59-1.11,1.45-1.98,2.57-2.59s2.42-.92,3.88-.92c1.64,0,3.06,.4,4.26,1.21,1.2,.81,2,2.05,2.39,3.73l-1.57-.59c.55-1.29,1.47-2.34,2.78-3.14,1.31-.81,2.83-1.21,4.55-1.21Z"/><path class="m" d="M655.73,1009.2c-1.31,0-2.46-.22-3.44-.67-.98-.45-1.74-1.07-2.28-1.87-.54-.8-.8-1.7-.8-2.7s.23-1.87,.7-2.65,1.24-1.41,2.31-1.87c1.07-.46,2.49-.69,4.26-.69h5.08v2.72h-4.78c-1.38,0-2.31,.22-2.8,.67-.49,.45-.74,1.01-.74,1.69,0,.72,.29,1.3,.88,1.74,.59,.44,1.41,.66,2.46,.66s1.91-.23,2.7-.69c.8-.46,1.38-1.14,1.75-2.03l.66,2.46c-.39,1.03-1.09,1.82-2.1,2.39-1,.57-2.29,.85-3.87,.85Zm5.5-.23v-3.57l-.2-.72v-6.19c0-1.2-.37-2.13-1.1-2.8-.73-.67-1.84-1-3.33-1-.96,0-1.91,.15-2.85,.46-.94,.31-1.75,.73-2.42,1.28l-1.61-2.98c.96-.72,2.09-1.27,3.37-1.64,1.29-.37,2.63-.56,4.03-.56,2.56,0,4.52,.61,5.9,1.83,1.38,1.22,2.06,3.1,2.06,5.63v10.25h-3.87Z"/></g></g></svg>