<?xml version="1.0" encoding="UTF-8"?><svg xmlns="http://www.w3.org/2000/svg" viewBox="0 0 500 500"><defs><style>.i{fill:#bf5c5c;}.j{fill:#c66767;}.k{fill:#b0504d;}</style></defs><g id="a"/><g id="b"/><g id="c"><g><g><polygon class="i" points="469.87 415.05 466.98 401.04 455.57 351.89 455.57 311.37 462.72 294.69 446.03 269.66 399.56 254.17 409.09 314.95 406.56 298.8 382.87 319.71 388.83 328.06 378.11 326.86 349.16 299.54 379.09 289.46 386.45 279.2 406.56 298.8 399.56 254.17 391.22 237.49 376.92 241.06 367.38 249.4 371.72 269.66 332.82 295.88 338.78 303.03 371.72 335.15 379.09 343.24 390.02 339.97 416.22 332.05 426.97 357.85 454.38 401.04 434.27 415.05 469.87 415.05"/><polygon class="i" points="294.48 250.6 95.68 63.5 90.91 69.46 102.89 80.49 67.08 188.63 44.43 256.55 30.13 307.8 39.16 379.45 112.36 424.58 164.79 436.5 224.13 336.4 248.21 281.58 252.78 218.48 291.55 254.17 332.82 295.88 339.81 291.17 294.48 250.6"/></g><g><polygon class="k" points="399.56 254.17 446.03 269.66 409.09 314.95 399.56 254.17"/><polygon class="j" points="446.03 269.66 455.57 311.37 409.09 314.95 446.03 269.66"/><polygon class="i" points="386.45 279.2 406.56 298.8 399.56 254.17 386.45 279.2"/><polygon class="k" points="455.57 311.37 455.57 351.89 409.09 314.95 455.57 311.37"/><polygon class="i" points="409.09 314.95 426.97 357.85 455.57 351.89 409.09 314.95"/><polygon class="k" points="367.38 249.4 376.92 241.06 380.49 260.13 367.38 249.4"/><polygon class="j" points="386.45 279.2 380.49 260.13 399.56 254.17 386.45 279.2"/><polygon class="k" points="446.03 269.66 462.72 294.69 455.57 311.37 446.03 269.66"/><polygon class="j" points="376.92 241.06 391.22 237.49 399.56 254.17 376.92 241.06"/><polygon class="i" points="380.49 260.13 376.92 241.06 399.56 254.17 380.49 260.13"/><polygon class="k" points="386.45 279.2 371.72 269.66 380.49 260.13 386.45 279.2"/><polygon class="i" points="371.72 269.66 367.38 249.4 380.49 260.13 371.72 269.66"/><polygon class="i" points="338.78 303.03 371.72 269.66 379.09 289.46 338.78 303.03"/><polygon class="k" points="338.78 303.03 332.82 295.88 371.72 269.66 338.78 303.03"/><polygon class="j" points="379.09 289.46 386.45 279.2 371.72 269.66 379.09 289.46"/><polygon class="j" points="406.56 298.8 382.87 319.71 409.09 314.95 406.56 298.8"/><polygon class="k" points="426.97 357.85 454.38 401.04 466.98 401.04 426.97 357.85"/><polygon class="j" points="455.57 351.89 466.98 401.04 426.97 357.85 455.57 351.89"/><polygon class="k" points="466.98 401.04 469.87 415.05 434.27 415.05 466.98 401.04"/><polygon class="i" points="434.27 415.05 454.38 401.04 466.98 401.04 434.27 415.05"/><polygon class="i" points="382.87 319.71 388.83 328.06 409.09 314.95 382.87 319.71"/><polygon class="k" points="409.09 314.95 388.83 328.06 390.02 339.97 409.09 314.95"/><polygon class="j" points="390.02 339.97 416.22 332.05 409.09 314.95 390.02 339.97"/><polygon class="i" points="388.83 328.06 378.11 326.86 390.02 339.97 388.83 328.06"/><polygon class="j" points="378.11 326.86 371.72 335.15 390.02 339.97 378.11 326.86"/><polygon class="k" points="390.02 339.97 379.09 343.24 371.72 335.15 390.02 339.97"/><polygon class="k" points="291.55 254.17 90.91 69.46 95.68 63.5 291.55 254.17"/><polygon class="i" points="291.55 254.17 294.48 250.6 95.68 63.5 291.55 254.17"/><polygon class="j" points="291.55 254.17 294.48 250.6 339.81 291.17 291.55 254.17"/><polygon class="i" points="339.81 291.17 332.82 295.88 291.55 254.17 339.81 291.17"/><polygon class="k" points="338.78 303.03 371.72 335.15 378.11 326.86 338.78 303.03"/><polygon class="j" points="378.11 326.86 349.16 299.54 338.78 303.03 378.11 326.86"/><polygon class="j" points="102.89 80.49 67.08 188.63 252.78 218.48 102.89 80.49"/><polygon class="k" points="252.78 218.48 248.21 281.58 67.08 188.63 252.78 218.48"/><polygon class="i" points="67.08 188.63 44.43 256.55 248.21 281.58 67.08 188.63"/><polygon class="k" points="112.36 424.58 164.79 436.5 224.13 336.4 112.36 424.58"/><polygon class="j" points="248.21 281.58 224.13 336.4 44.43 256.55 248.21 281.58"/><polygon class="k" points="30.13 307.8 39.16 379.45 224.13 336.4 30.13 307.8"/><polygon class="i" points="39.16 379.45 112.36 424.58 224.13 336.4 39.16 379.45"/><polygon class="i" points="30.13 307.8 44.43 256.55 224.13 336.4 30.13 307.8"/></g></g></g><g id="d"/><g id="e"/><g id="f"/><g id="g"/><g id="h"/></svg>