<?xml version="1.0" encoding="UTF-8"?><svg xmlns="http://www.w3.org/2000/svg" viewBox="0 0 2537 1080"><defs><style>.m{fill:#a55353;}.n{stroke-width:4.88px;}.n,.o{fill:none;stroke:#a55353;stroke-miterlimit:10;}.o{stroke-width:5px;}.p{fill:#8c3131;opacity:.8;}</style></defs><g id="a"/><g id="b"/><g id="c"/><g id="d"/><g id="e"><polygon class="m" points="146 939 272 932 503 924 699 938 917 675 1080 769 1202 934 1332 920 1534 346 1788 930 2035 920 2195 931 2359 873 2359 939.21 146 939"/></g><g id="f"><polygon class="p" points="146 939 272 922 503 929 699 918 917 775 1080 928 1202 924 1332 926 1534 434 1788 930 2035 926 2195 934 2359 926 2359 939 146 939"/></g><g id="g"><polyline class="o" points="146 146 146 939 2466 939.21"/><g><line class="n" x1="148" y1="939" x2="116.3" y2="939"/><line class="n" x1="148" y1="873.08" x2="116.3" y2="873.08"/><line class="n" x1="148" y1="807.17" x2="116.3" y2="807.17"/><line class="n" x1="148" y1="741.25" x2="116.3" y2="741.25"/><line class="n" x1="148" y1="675.33" x2="116.3" y2="675.33"/><line class="n" x1="148" y1="609.42" x2="116.3" y2="609.42"/><line class="n" x1="148" y1="543.5" x2="116.3" y2="543.5"/><line class="n" x1="148" y1="477.58" x2="116.3" y2="477.58"/><line class="n" x1="148" y1="411.67" x2="116.3" y2="411.67"/><line class="n" x1="148" y1="345.75" x2="116.3" y2="345.75"/><line class="n" x1="148" y1="279.83" x2="116.3" y2="279.83"/><line class="n" x1="148" y1="213.92" x2="116.3" y2="213.92"/><line class="n" x1="148" y1="148" x2="116.3" y2="148"/></g></g><g id="h"><path class="m" d="M49.81,966.38c-2.46,0-4.66-.63-6.59-1.89-1.94-1.26-3.46-3.09-4.59-5.49s-1.69-5.31-1.69-8.73,.56-6.33,1.69-8.73c1.12-2.4,2.65-4.23,4.59-5.49,1.94-1.26,4.13-1.89,6.59-1.89s4.62,.63,6.57,1.89c1.95,1.26,3.48,3.09,4.59,5.49,1.11,2.4,1.67,5.31,1.67,8.73s-.56,6.33-1.67,8.73c-1.11,2.4-2.64,4.23-4.59,5.49-1.95,1.26-4.14,1.89-6.57,1.89Zm0-4c1.65,0,3.1-.45,4.34-1.35,1.24-.9,2.22-2.25,2.92-4.05,.7-1.8,1.06-4.03,1.06-6.71s-.35-4.91-1.06-6.71c-.71-1.8-1.68-3.15-2.92-4.05-1.25-.9-2.69-1.35-4.34-1.35s-3.1,.45-4.36,1.35c-1.26,.9-2.24,2.25-2.95,4.05-.71,1.8-1.06,4.04-1.06,6.71s.35,4.91,1.06,6.71c.7,1.8,1.69,3.15,2.95,4.05,1.26,.9,2.71,1.35,4.36,1.35Z"/><path class="m" d="M36.45,899.02v-3.06l12.83-12.38c1.14-1.08,1.99-2.03,2.54-2.86,.55-.82,.93-1.59,1.12-2.29,.19-.7,.29-1.39,.29-2.05,0-1.62-.57-2.89-1.71-3.83-1.14-.93-2.81-1.4-5-1.4-1.68,0-3.2,.28-4.54,.83-1.35,.56-2.52,1.42-3.51,2.59l-3.06-2.66c1.2-1.53,2.81-2.71,4.84-3.53,2.03-.83,4.25-1.24,6.68-1.24,2.19,0,4.1,.35,5.72,1.06,1.62,.71,2.87,1.72,3.76,3.04,.88,1.32,1.33,2.88,1.33,4.68,0,1.02-.14,2.03-.41,3.01-.27,.99-.78,2.04-1.53,3.15-.75,1.11-1.83,2.36-3.24,3.74l-11.43,11.02-1.08-1.75h19.03v3.92h-22.63Z"/><path class="m" d="M36.49,824.28v-3.15l16.11-20.61h4.86l-15.98,20.61-2.29-.72h25.15v3.87h-27.85Zm17.5,7.74v-7.74l.14-3.87v-6.84h4.23v18.45h-4.37Z"/><path class="m" d="M50.17,765.38c-2.79,0-5.18-.62-7.16-1.85-1.98-1.23-3.49-3.01-4.52-5.33-1.03-2.32-1.55-5.17-1.55-8.53,0-3.57,.63-6.58,1.89-9.04,1.26-2.46,3.02-4.32,5.27-5.58,2.25-1.26,4.83-1.89,7.74-1.89,1.5,0,2.93,.15,4.3,.45,1.36,.3,2.54,.77,3.53,1.4l-1.71,3.51c-.81-.57-1.73-.96-2.77-1.17-1.04-.21-2.12-.32-3.26-.32-3.21,0-5.76,1-7.65,2.99-1.89,2-2.83,4.96-2.83,8.89,0,.63,.03,1.38,.09,2.25,.06,.87,.21,1.73,.45,2.57l-1.53-1.53c.45-1.38,1.16-2.54,2.14-3.49,.97-.95,2.14-1.65,3.51-2.12,1.36-.46,2.84-.7,4.43-.7,2.1,0,3.96,.39,5.58,1.17,1.62,.78,2.89,1.88,3.82,3.31,.93,1.42,1.4,3.11,1.4,5.06s-.49,3.77-1.48,5.26c-.99,1.5-2.33,2.66-4,3.46-1.68,.81-3.57,1.22-5.67,1.22Zm-.18-3.65c1.38,0,2.59-.25,3.62-.76,1.04-.51,1.85-1.22,2.45-2.14,.6-.92,.9-1.99,.9-3.22,0-1.86-.65-3.34-1.94-4.43-1.29-1.09-3.05-1.64-5.27-1.64-1.44,0-2.7,.27-3.78,.81s-1.93,1.27-2.54,2.18c-.62,.92-.92,1.96-.92,3.13,0,1.08,.28,2.08,.85,2.99,.57,.92,1.41,1.66,2.52,2.23,1.11,.57,2.47,.85,4.09,.85Z"/><path class="m" d="M49.23,698.38c-2.55,0-4.75-.38-6.61-1.12-1.86-.75-3.3-1.82-4.32-3.22-1.02-1.4-1.53-3.04-1.53-4.93s.49-3.44,1.46-4.75c.97-1.31,2.39-2.29,4.25-2.97,1.86-.67,4.11-1.01,6.75-1.01s4.9,.34,6.77,1.01c1.87,.68,3.31,1.67,4.3,2.99,.99,1.32,1.48,2.9,1.48,4.72s-.51,3.53-1.53,4.93c-1.02,1.39-2.48,2.47-4.37,3.22s-4.11,1.12-6.66,1.12Zm0-15.57c-2.4,0-4.44-.32-6.12-.97-1.68-.64-2.97-1.58-3.87-2.79s-1.35-2.66-1.35-4.34c0-1.77,.47-3.29,1.42-4.57,.94-1.27,2.27-2.26,3.98-2.95,1.71-.69,3.69-1.04,5.94-1.04s4.28,.35,5.99,1.04c1.71,.69,3.04,1.67,4,2.95,.96,1.28,1.44,2.8,1.44,4.57s-.45,3.13-1.35,4.34-2.21,2.15-3.92,2.79c-1.71,.65-3.77,.97-6.17,.97Zm0,11.92c2.52,0,4.49-.52,5.92-1.55,1.42-1.03,2.14-2.44,2.14-4.21s-.71-3.11-2.14-4.12-3.4-1.51-5.92-1.51-4.44,.5-5.85,1.51c-1.41,1-2.12,2.38-2.12,4.12s.7,3.17,2.12,4.21c1.41,1.04,3.36,1.55,5.85,1.55Zm0-14.8c2.19,0,3.91-.45,5.15-1.35,1.24-.9,1.87-2.13,1.87-3.69s-.65-2.83-1.94-3.74c-1.29-.9-2.99-1.35-5.08-1.35s-3.77,.45-5.02,1.35c-1.25,.9-1.87,2.15-1.87,3.74s.61,2.79,1.82,3.69c1.22,.9,2.9,1.35,5.06,1.35Z"/><g><path class="m" d="M42.25,631.02v-29.7l1.93,2.12h-9.04v-3.92h11.56v31.5h-4.45Z"/><path class="m" d="M66.46,631.38c-2.46,0-4.66-.63-6.59-1.89-1.94-1.26-3.46-3.09-4.59-5.49s-1.69-5.31-1.69-8.73,.56-6.33,1.69-8.73c1.12-2.4,2.65-4.23,4.59-5.49,1.94-1.26,4.13-1.89,6.59-1.89s4.62,.63,6.57,1.89c1.95,1.26,3.48,3.09,4.59,5.49,1.11,2.4,1.67,5.31,1.67,8.73s-.56,6.33-1.67,8.73c-1.11,2.4-2.64,4.23-4.59,5.49-1.95,1.26-4.14,1.89-6.57,1.89Zm0-4c1.65,0,3.1-.45,4.34-1.35,1.24-.9,2.22-2.25,2.92-4.05,.7-1.8,1.06-4.03,1.06-6.71s-.35-4.91-1.06-6.71c-.71-1.8-1.68-3.15-2.92-4.05-1.25-.9-2.69-1.35-4.34-1.35s-3.1,.45-4.36,1.35c-1.26,.9-2.24,2.25-2.95,4.05-.71,1.8-1.06,4.04-1.06,6.71s.35,4.91,1.06,6.71c.7,1.8,1.69,3.15,2.95,4.05,1.26,.9,2.71,1.35,4.36,1.35Z"/></g><g><path class="m" d="M42.25,564.02v-29.7l1.93,2.12h-9.04v-3.92h11.56v31.5h-4.45Z"/><path class="m" d="M53.1,564.02v-3.06l12.83-12.38c1.14-1.08,1.99-2.03,2.54-2.86,.55-.82,.93-1.59,1.12-2.29,.19-.7,.29-1.39,.29-2.05,0-1.62-.57-2.89-1.71-3.83-1.14-.93-2.81-1.4-5-1.4-1.68,0-3.2,.28-4.54,.83-1.35,.56-2.52,1.42-3.51,2.59l-3.06-2.66c1.2-1.53,2.81-2.71,4.84-3.53,2.03-.83,4.25-1.24,6.68-1.24,2.19,0,4.1,.35,5.72,1.06,1.62,.71,2.87,1.72,3.76,3.04,.88,1.32,1.33,2.88,1.33,4.68,0,1.02-.14,2.03-.41,3.01-.27,.99-.78,2.04-1.53,3.15-.75,1.11-1.83,2.36-3.24,3.74l-11.43,11.02-1.08-1.75h19.03v3.92h-22.63Z"/></g><g><path class="m" d="M42.25,497.02v-29.7l1.93,2.12h-9.04v-3.92h11.56v31.5h-4.45Z"/><path class="m" d="M53.14,489.28v-3.15l16.11-20.61h4.86l-15.98,20.61-2.29-.72h25.15v3.87h-27.85Zm17.5,7.74v-7.74l.14-3.87v-6.84h4.23v18.45h-4.37Z"/></g><g><path class="m" d="M42.25,430.02v-29.7l1.93,2.12h-9.04v-3.92h11.56v31.5h-4.45Z"/><path class="m" d="M66.82,430.38c-2.79,0-5.18-.62-7.16-1.85-1.98-1.23-3.49-3.01-4.52-5.33-1.03-2.32-1.55-5.17-1.55-8.53,0-3.57,.63-6.58,1.89-9.04,1.26-2.46,3.02-4.32,5.27-5.58,2.25-1.26,4.83-1.89,7.74-1.89,1.5,0,2.93,.15,4.3,.45,1.36,.3,2.54,.77,3.53,1.4l-1.71,3.51c-.81-.57-1.73-.96-2.77-1.17-1.04-.21-2.12-.32-3.26-.32-3.21,0-5.76,1-7.65,2.99-1.89,2-2.83,4.96-2.83,8.89,0,.63,.03,1.38,.09,2.25,.06,.87,.21,1.73,.45,2.57l-1.53-1.53c.45-1.38,1.16-2.54,2.14-3.49,.97-.95,2.14-1.65,3.51-2.12,1.36-.46,2.84-.7,4.43-.7,2.1,0,3.96,.39,5.58,1.17,1.62,.78,2.89,1.88,3.82,3.31,.93,1.42,1.4,3.11,1.4,5.06s-.49,3.77-1.48,5.26c-.99,1.5-2.33,2.66-4,3.46-1.68,.81-3.57,1.22-5.67,1.22Zm-.18-3.65c1.38,0,2.59-.25,3.62-.76,1.04-.51,1.85-1.22,2.45-2.14,.6-.92,.9-1.99,.9-3.22,0-1.86-.65-3.34-1.94-4.43-1.29-1.09-3.05-1.64-5.27-1.64-1.44,0-2.7,.27-3.78,.81s-1.93,1.27-2.54,2.18c-.62,.92-.92,1.96-.92,3.13,0,1.08,.28,2.08,.85,2.99,.57,.92,1.41,1.66,2.52,2.23,1.11,.57,2.47,.85,4.09,.85Z"/></g><g><path class="m" d="M42.25,363.02v-29.7l1.93,2.12h-9.04v-3.92h11.56v31.5h-4.45Z"/><path class="m" d="M65.88,363.38c-2.55,0-4.75-.38-6.61-1.12-1.86-.75-3.3-1.82-4.32-3.22-1.02-1.4-1.53-3.04-1.53-4.93s.49-3.44,1.46-4.75c.97-1.31,2.39-2.29,4.25-2.97,1.86-.67,4.11-1.01,6.75-1.01s4.9,.34,6.77,1.01c1.87,.68,3.31,1.67,4.3,2.99,.99,1.32,1.48,2.9,1.48,4.72s-.51,3.53-1.53,4.93c-1.02,1.39-2.48,2.47-4.37,3.22s-4.11,1.12-6.66,1.12Zm0-15.57c-2.4,0-4.44-.32-6.12-.97-1.68-.64-2.97-1.58-3.87-2.79s-1.35-2.66-1.35-4.34c0-1.77,.47-3.29,1.42-4.57,.94-1.27,2.27-2.26,3.98-2.95,1.71-.69,3.69-1.04,5.94-1.04s4.28,.35,5.99,1.04c1.71,.69,3.04,1.67,4,2.95,.96,1.28,1.44,2.8,1.44,4.57s-.45,3.13-1.35,4.34-2.21,2.15-3.92,2.79c-1.71,.65-3.77,.97-6.17,.97Zm0,11.92c2.52,0,4.49-.52,5.92-1.55,1.42-1.03,2.14-2.44,2.14-4.21s-.71-3.11-2.14-4.12-3.4-1.51-5.92-1.51-4.44,.5-5.85,1.51c-1.41,1-2.12,2.38-2.12,4.12s.7,3.17,2.12,4.21c1.41,1.04,3.36,1.55,5.85,1.55Zm0-14.8c2.19,0,3.91-.45,5.15-1.35,1.24-.9,1.87-2.13,1.87-3.69s-.65-2.83-1.94-3.74c-1.29-.9-2.99-1.35-5.08-1.35s-3.77,.45-5.02,1.35c-1.25,.9-1.87,2.15-1.87,3.74s.61,2.79,1.82,3.69c1.22,.9,2.9,1.35,5.06,1.35Z"/></g><g><path class="m" d="M36.45,296.02v-3.06l12.83-12.38c1.14-1.08,1.99-2.03,2.54-2.86,.55-.82,.93-1.59,1.12-2.29,.19-.7,.29-1.39,.29-2.05,0-1.62-.57-2.89-1.71-3.83-1.14-.93-2.81-1.4-5-1.4-1.68,0-3.2,.28-4.54,.83-1.35,.56-2.52,1.42-3.51,2.59l-3.06-2.66c1.2-1.53,2.81-2.71,4.84-3.53,2.03-.83,4.25-1.24,6.68-1.24,2.19,0,4.1,.35,5.72,1.06,1.62,.71,2.87,1.72,3.76,3.04,.88,1.32,1.33,2.88,1.33,4.68,0,1.02-.14,2.03-.41,3.01-.27,.99-.78,2.04-1.53,3.15-.75,1.11-1.83,2.36-3.24,3.74l-11.43,11.02-1.08-1.75h19.03v3.92h-22.63Z"/><path class="m" d="M75.6,296.38c-2.46,0-4.66-.63-6.59-1.89-1.94-1.26-3.46-3.09-4.59-5.49s-1.69-5.31-1.69-8.73,.56-6.33,1.69-8.73c1.12-2.4,2.65-4.23,4.59-5.49,1.94-1.26,4.13-1.89,6.59-1.89s4.62,.63,6.57,1.89c1.95,1.26,3.48,3.09,4.59,5.49,1.11,2.4,1.67,5.31,1.67,8.73s-.56,6.33-1.67,8.73c-1.11,2.4-2.64,4.23-4.59,5.49-1.95,1.26-4.14,1.89-6.57,1.89Zm0-4c1.65,0,3.1-.45,4.34-1.35,1.24-.9,2.22-2.25,2.92-4.05,.7-1.8,1.06-4.03,1.06-6.71s-.35-4.91-1.06-6.71c-.71-1.8-1.68-3.15-2.92-4.05-1.25-.9-2.69-1.35-4.34-1.35s-3.1,.45-4.36,1.35c-1.26,.9-2.24,2.25-2.95,4.05-.71,1.8-1.06,4.04-1.06,6.71s.35,4.91,1.06,6.71c.7,1.8,1.69,3.15,2.95,4.05,1.26,.9,2.71,1.35,4.36,1.35Z"/></g><g><path class="m" d="M36.45,229.02v-3.06l12.83-12.38c1.14-1.08,1.99-2.03,2.54-2.86,.55-.82,.93-1.59,1.12-2.29,.19-.7,.29-1.39,.29-2.05,0-1.62-.57-2.89-1.71-3.83-1.14-.93-2.81-1.4-5-1.4-1.68,0-3.2,.28-4.54,.83-1.35,.56-2.52,1.42-3.51,2.59l-3.06-2.66c1.2-1.53,2.81-2.71,4.84-3.53,2.03-.83,4.25-1.24,6.68-1.24,2.19,0,4.1,.35,5.72,1.06,1.62,.71,2.87,1.72,3.76,3.04,.88,1.32,1.33,2.88,1.33,4.68,0,1.02-.14,2.03-.41,3.01-.27,.99-.78,2.04-1.53,3.15-.75,1.11-1.83,2.36-3.24,3.74l-11.43,11.02-1.08-1.75h19.03v3.92h-22.63Z"/><path class="m" d="M62.28,229.02v-3.06l12.83-12.38c1.14-1.08,1.99-2.03,2.54-2.86,.55-.82,.93-1.59,1.12-2.29,.19-.7,.29-1.39,.29-2.05,0-1.62-.57-2.89-1.71-3.83-1.14-.93-2.81-1.4-5-1.4-1.68,0-3.2,.28-4.54,.83-1.35,.56-2.52,1.42-3.51,2.59l-3.06-2.66c1.2-1.53,2.81-2.71,4.84-3.53,2.03-.83,4.25-1.24,6.68-1.24,2.19,0,4.1,.35,5.72,1.06,1.62,.71,2.87,1.72,3.76,3.04,.88,1.32,1.33,2.88,1.33,4.68,0,1.02-.14,2.03-.41,3.01-.27,.99-.78,2.04-1.53,3.15-.75,1.11-1.83,2.36-3.24,3.74l-11.43,11.02-1.08-1.75h19.03v3.92h-22.63Z"/></g><g><path class="m" d="M36.45,162.02v-3.06l12.83-12.38c1.14-1.08,1.99-2.03,2.54-2.86,.55-.82,.93-1.59,1.12-2.29,.19-.7,.29-1.39,.29-2.05,0-1.62-.57-2.89-1.71-3.83-1.14-.93-2.81-1.4-5-1.4-1.68,0-3.2,.28-4.54,.83-1.35,.56-2.52,1.42-3.51,2.59l-3.06-2.66c1.2-1.53,2.81-2.71,4.84-3.53,2.03-.83,4.25-1.24,6.68-1.24,2.19,0,4.1,.35,5.72,1.06,1.62,.71,2.87,1.72,3.76,3.04,.88,1.32,1.33,2.88,1.33,4.68,0,1.02-.14,2.03-.41,3.01-.27,.99-.78,2.04-1.53,3.15-.75,1.11-1.83,2.36-3.24,3.74l-11.43,11.02-1.08-1.75h19.03v3.92h-22.63Z"/><path class="m" d="M61.47,154.28v-3.15l16.11-20.61h4.86l-15.98,20.61-2.29-.72h25.15v3.87h-27.85Zm17.5,7.74v-7.74l.14-3.87v-6.84h4.23v18.45h-4.37Z"/></g></g><g id="i"><line class="n" x1="271.65" y1="937.65" x2="271.65" y2="969.35"/><line class="n" x1="502.65" y1="937.65" x2="502.65" y2="969.35"/><line class="n" x1="698.65" y1="937.65" x2="698.65" y2="969.35"/><line class="n" x1="916.65" y1="937.65" x2="916.65" y2="969.35"/><line class="n" x1="1079.65" y1="937.65" x2="1079.65" y2="969.35"/><line class="n" x1="1201.65" y1="937.65" x2="1201.65" y2="969.35"/><line class="n" x1="1331.65" y1="937.65" x2="1331.65" y2="969.35"/><line class="n" x1="1533.65" y1="937.65" x2="1533.65" y2="969.35"/><line class="n" x1="1787.65" y1="937.65" x2="1787.65" y2="969.35"/><line class="n" x1="2034.65" y1="937.65" x2="2034.65" y2="969.35"/><line class="n" x1="2194.65" y1="937.65" x2="2194.65" y2="969.35"/><line class="n" x1="2358.65" y1="937.65" x2="2358.65" y2="969.35"/></g><g id="j"/><g id="k"><rect class="m" x="1938" y="154" width="35" height="35"/><rect class="p" x="1938" y="206" width="35" height="35"/></g><g id="l"><g><path class="m" d="M855.68,1011.13c-1.73,0-3.32-.29-4.78-.87-1.46-.58-2.73-1.39-3.82-2.44-1.08-1.05-1.92-2.28-2.51-3.69-.59-1.41-.88-2.95-.88-4.64s.29-3.23,.88-4.63c.59-1.41,1.43-2.64,2.52-3.69,1.09-1.05,2.36-1.86,3.82-2.44,1.45-.58,3.05-.87,4.8-.87s3.2,.26,4.62,.79c1.42,.52,2.63,1.31,3.64,2.36l-1.05,1.11c-1-.98-2.1-1.68-3.29-2.1-1.19-.41-2.48-.62-3.88-.62-1.49,0-2.86,.25-4.13,.75-1.27,.5-2.37,1.21-3.31,2.13-.94,.92-1.67,1.99-2.18,3.21-.51,1.22-.77,2.55-.77,4s.26,2.77,.77,4c.51,1.22,1.24,2.29,2.18,3.21s2.04,1.63,3.31,2.13c1.27,.5,2.64,.75,4.13,.75,1.35,0,2.64-.21,3.85-.62,1.21-.42,2.32-1.1,3.32-2.06l.95,1.28c-1.03,.98-2.26,1.72-3.69,2.21-1.43,.49-2.93,.74-4.5,.74Zm6.58-3.11v-8.42h1.61v8.58l-1.61-.16Z"/><path class="m" d="M877.63,1011.1c-1.73,0-3.25-.37-4.57-1.11s-2.36-1.77-3.11-3.08c-.75-1.31-1.13-2.81-1.13-4.49s.35-3.21,1.06-4.5c.71-1.3,1.69-2.32,2.93-3.06,1.25-.74,2.64-1.11,4.19-1.11s2.94,.36,4.18,1.08,2.21,1.73,2.92,3.03c.71,1.3,1.06,2.8,1.06,4.5,0,.07,0,.14-.02,.21-.01,.08-.02,.16-.02,.25h-15.1v-1.28h14.22l-.66,.62c.02-1.33-.26-2.53-.83-3.59-.58-1.06-1.36-1.89-2.34-2.49s-2.12-.9-3.41-.9-2.4,.3-3.39,.9c-.99,.6-1.77,1.43-2.34,2.49-.57,1.06-.85,2.27-.85,3.62v.29c0,1.4,.31,2.64,.93,3.72,.62,1.08,1.48,1.92,2.57,2.52,1.09,.6,2.34,.9,3.73,.9,1.09,0,2.11-.2,3.06-.59,.95-.39,1.75-.99,2.41-1.8l.95,1.08c-.74,.92-1.68,1.61-2.8,2.08-1.12,.47-2.34,.7-3.65,.7Z"/><path class="m" d="M890.24,1010.97v-17.1h1.57v4.68l-.16-.52c.48-1.38,1.29-2.43,2.42-3.18,1.14-.74,2.56-1.11,4.26-1.11v1.6c-.07,0-.13,0-.2-.02s-.13-.02-.2-.02c-1.9,0-3.39,.59-4.46,1.79-1.07,1.19-1.6,2.84-1.6,4.96v8.91h-1.64Z"/><path class="m" d="M924.15,993.74c1.38,0,2.57,.27,3.59,.8,1.02,.54,1.81,1.34,2.37,2.42s.85,2.42,.85,4.01v9.99h-1.64v-9.86c0-1.92-.47-3.38-1.41-4.39-.94-1-2.25-1.51-3.93-1.51-1.29,0-2.4,.27-3.34,.82-.94,.55-1.66,1.31-2.16,2.29-.5,.98-.75,2.16-.75,3.54v9.11h-1.64v-9.86c0-1.92-.47-3.38-1.41-4.39-.94-1-2.25-1.51-3.93-1.51-1.29,0-2.4,.27-3.34,.82-.94,.55-1.66,1.31-2.16,2.29-.5,.98-.75,2.16-.75,3.54v9.11h-1.64v-17.1h1.57v4.72l-.23-.52c.5-1.33,1.34-2.39,2.52-3.16,1.18-.77,2.6-1.16,4.26-1.16s3.14,.43,4.31,1.29c1.17,.86,1.9,2.15,2.21,3.85l-.56-.23c.46-1.46,1.32-2.65,2.59-3.55,1.27-.91,2.81-1.36,4.62-1.36Z"/><path class="m" d="M942.33,1011.1c-1.27,0-2.36-.2-3.29-.61-.93-.4-1.64-.98-2.13-1.72-.49-.74-.74-1.59-.74-2.56,0-.87,.2-1.67,.61-2.38,.4-.71,1.08-1.29,2.01-1.74,.94-.45,2.19-.67,3.77-.67h6.29v1.28h-6.26c-1.77,0-3.01,.33-3.72,.98-.71,.66-1.06,1.47-1.06,2.46,0,1.09,.41,1.97,1.24,2.62,.83,.65,2,.98,3.51,.98s2.66-.33,3.65-.98c.99-.66,1.73-1.61,2.21-2.85l.46,1.11c-.46,1.24-1.24,2.23-2.34,2.96-1.1,.73-2.51,1.1-4.21,1.1Zm6.16-.13v-3.9l-.07-.59v-6.42c0-1.59-.43-2.81-1.29-3.64-.86-.83-2.12-1.24-3.78-1.24-1.18,0-2.28,.2-3.29,.61-1.02,.4-1.88,.92-2.6,1.56l-.82-1.18c.85-.76,1.88-1.36,3.08-1.79,1.2-.43,2.46-.64,3.77-.64,2.12,0,3.75,.54,4.88,1.6,1.14,1.07,1.7,2.67,1.7,4.78v10.84h-1.57Z"/><path class="m" d="M965.16,993.74c1.4,0,2.62,.27,3.65,.8,1.04,.54,1.85,1.34,2.42,2.42s.87,2.42,.87,4.01v9.99h-1.64v-9.86c0-1.92-.49-3.38-1.46-4.39-.97-1-2.33-1.51-4.08-1.51-1.33,0-2.49,.27-3.47,.82-.98,.55-1.73,1.31-2.24,2.29-.51,.98-.77,2.16-.77,3.54v9.11h-1.64v-17.1h1.57v4.75l-.23-.52c.52-1.35,1.39-2.42,2.59-3.19,1.2-.77,2.67-1.16,4.42-1.16Z"/><path class="m" d="M978.13,1017.45c-.79,0-1.52-.13-2.21-.39-.69-.26-1.27-.64-1.75-1.15l.82-1.24c.44,.46,.91,.8,1.42,1.01,.51,.22,1.1,.33,1.75,.33,.79,0,1.48-.22,2.08-.66,.6-.44,1.16-1.23,1.69-2.39l1.18-2.62,.23-.29,7.24-16.18h1.67l-8.78,19.43c-.46,1.05-.96,1.87-1.49,2.47s-1.12,1.03-1.75,1.29c-.63,.26-1.33,.39-2.1,.39Zm4.95-6.06l-7.93-17.53h1.74l7.21,16.08-1.02,1.44Z"/></g><g><path class="m" d="M2003.58,189.13c-1.7,0-3.28-.29-4.73-.87-1.45-.58-2.71-1.39-3.78-2.44-1.07-1.05-1.9-2.28-2.49-3.69-.59-1.41-.88-2.95-.88-4.64s.29-3.23,.88-4.63c.59-1.41,1.42-2.64,2.51-3.69,1.08-1.05,2.34-1.86,3.78-2.44,1.44-.58,3.01-.87,4.72-.87s3.13,.26,4.54,.79,2.62,1.32,3.62,2.39l-1.05,1.08c-.98-.96-2.07-1.65-3.26-2.08-1.19-.43-2.45-.64-3.78-.64-1.46,0-2.82,.25-4.08,.75-1.26,.5-2.35,1.21-3.28,2.13-.93,.92-1.65,1.99-2.16,3.21-.51,1.22-.77,2.55-.77,4s.26,2.77,.77,4c.51,1.22,1.23,2.29,2.16,3.21s2.02,1.63,3.28,2.13c1.25,.5,2.61,.75,4.08,.75,1.33,0,2.59-.21,3.78-.64,1.19-.43,2.28-1.13,3.26-2.11l1.05,1.08c-1,1.07-2.21,1.87-3.62,2.41s-2.92,.8-4.54,.8Z"/><path class="m" d="M2017.64,167.71c-.37,0-.69-.13-.95-.39-.26-.26-.39-.57-.39-.92,0-.37,.13-.69,.39-.95,.26-.26,.58-.39,.95-.39,.39,0,.71,.12,.97,.38,.25,.25,.38,.56,.38,.93s-.13,.69-.38,.95c-.25,.26-.57,.39-.97,.39Zm-.82,21.26v-17.1h1.64v17.1h-1.64Z"/><path class="m" d="M2029.69,188.97l-7.7-17.1h1.74l7.21,16.18h-.79l7.27-16.18h1.67l-7.73,17.1h-1.67Z"/><path class="m" d="M2043.48,167.71c-.37,0-.69-.13-.95-.39-.26-.26-.39-.57-.39-.92,0-.37,.13-.69,.39-.95,.26-.26,.58-.39,.95-.39,.39,0,.71,.12,.97,.38,.25,.25,.38,.56,.38,.93s-.13,.69-.38,.95c-.25,.26-.57,.39-.97,.39Zm-.82,21.26v-17.1h1.64v17.1h-1.64Z"/><path class="m" d="M2051.21,188.97v-24.31h1.64v24.31h-1.64Z"/><path class="m" d="M2060.58,167.71c-.37,0-.69-.13-.95-.39s-.39-.57-.39-.92c0-.37,.13-.69,.39-.95s.58-.39,.95-.39c.39,0,.71,.12,.97,.38,.25,.25,.38,.56,.38,.93s-.13,.69-.38,.95c-.25,.26-.57,.39-.97,.39Zm-.82,21.26v-17.1h1.64v17.1h-1.64Z"/><path class="m" d="M2072.93,189.1c-1.27,0-2.37-.2-3.29-.61s-1.64-.98-2.13-1.72c-.49-.74-.74-1.59-.74-2.56,0-.87,.2-1.67,.61-2.38,.4-.71,1.08-1.29,2.01-1.74,.94-.45,2.2-.67,3.77-.67h6.29v1.28h-6.26c-1.77,0-3.01,.33-3.72,.98-.71,.66-1.06,1.47-1.06,2.46,0,1.09,.42,1.97,1.25,2.62,.83,.65,2,.98,3.5,.98s2.66-.33,3.65-.98c.99-.66,1.73-1.61,2.21-2.85l.46,1.11c-.46,1.24-1.24,2.23-2.34,2.96-1.1,.73-2.51,1.1-4.21,1.1Zm6.16-.13v-3.9l-.07-.59v-6.42c0-1.59-.43-2.81-1.29-3.64-.86-.83-2.12-1.24-3.78-1.24-1.18,0-2.28,.2-3.29,.61-1.02,.4-1.88,.92-2.6,1.56l-.82-1.18c.85-.76,1.88-1.36,3.08-1.79s2.46-.64,3.77-.64c2.12,0,3.74,.54,4.88,1.6,1.13,1.07,1.7,2.67,1.7,4.78v10.84h-1.57Z"/><path class="m" d="M2095.76,171.74c1.4,0,2.62,.27,3.65,.8,1.04,.54,1.85,1.34,2.42,2.42s.87,2.42,.87,4.01v9.99h-1.64v-9.86c0-1.92-.49-3.38-1.46-4.39-.97-1-2.33-1.51-4.08-1.51-1.33,0-2.49,.27-3.47,.82s-1.73,1.31-2.24,2.29c-.51,.98-.77,2.16-.77,3.54v9.11h-1.64v-17.1h1.57v4.75l-.23-.52c.52-1.35,1.39-2.42,2.59-3.19,1.2-.77,2.67-1.16,4.42-1.16Z"/><path class="m" d="M2118.4,188.97v-22.93h9.07c2.42,0,4.55,.49,6.39,1.47,1.83,.98,3.26,2.34,4.27,4.06,1.02,1.73,1.52,3.7,1.52,5.93s-.51,4.21-1.52,5.93c-1.02,1.73-2.44,3.08-4.27,4.06-1.83,.98-3.96,1.47-6.39,1.47h-9.07Zm1.67-1.51h7.27c2.16,0,4.04-.43,5.63-1.28,1.59-.85,2.83-2.03,3.7-3.52s1.31-3.22,1.31-5.16-.44-3.66-1.31-5.16c-.87-1.5-2.11-2.67-3.7-3.52-1.59-.85-3.47-1.28-5.63-1.28h-7.27v19.92Z"/><path class="m" d="M2151.88,189.1c-1.72,0-3.25-.37-4.57-1.11-1.32-.74-2.36-1.77-3.11-3.08-.75-1.31-1.13-2.81-1.13-4.49s.36-3.21,1.07-4.5c.71-1.3,1.69-2.32,2.93-3.06,1.25-.74,2.64-1.11,4.19-1.11s2.94,.36,4.18,1.08c1.23,.72,2.21,1.73,2.92,3.03,.71,1.3,1.07,2.8,1.07,4.5,0,.07,0,.14-.02,.21-.01,.08-.02,.16-.02,.25h-15.1v-1.28h14.22l-.66,.62c.02-1.33-.26-2.53-.83-3.59-.58-1.06-1.36-1.89-2.34-2.49-.98-.6-2.12-.9-3.41-.9s-2.4,.3-3.39,.9c-.99,.6-1.77,1.43-2.34,2.49-.57,1.06-.85,2.27-.85,3.62v.29c0,1.4,.31,2.64,.93,3.72,.62,1.08,1.48,1.92,2.57,2.52,1.09,.6,2.34,.9,3.73,.9,1.09,0,2.11-.2,3.06-.59,.95-.39,1.75-.99,2.41-1.8l.95,1.08c-.74,.92-1.68,1.61-2.8,2.08s-2.34,.7-3.65,.7Z"/><path class="m" d="M2168.62,189.1c-1.27,0-2.36-.2-3.29-.61-.93-.4-1.64-.98-2.13-1.72-.49-.74-.74-1.59-.74-2.56,0-.87,.2-1.67,.61-2.38,.4-.71,1.08-1.29,2.01-1.74,.94-.45,2.2-.67,3.77-.67h6.29v1.28h-6.26c-1.77,0-3.01,.33-3.72,.98-.71,.66-1.06,1.47-1.06,2.46,0,1.09,.41,1.97,1.24,2.62,.83,.65,2,.98,3.51,.98s2.66-.33,3.65-.98c.99-.66,1.73-1.61,2.21-2.85l.46,1.11c-.46,1.24-1.24,2.23-2.34,2.96-1.1,.73-2.51,1.1-4.21,1.1Zm6.16-.13v-3.9l-.07-.59v-6.42c0-1.59-.43-2.81-1.29-3.64-.86-.83-2.12-1.24-3.78-1.24-1.18,0-2.28,.2-3.29,.61-1.02,.4-1.88,.92-2.6,1.56l-.82-1.18c.85-.76,1.88-1.36,3.08-1.79,1.2-.43,2.46-.64,3.77-.64,2.12,0,3.75,.54,4.88,1.6,1.14,1.07,1.7,2.67,1.7,4.78v10.84h-1.57Z"/><path class="m" d="M2180.28,173.28v-1.41h10.22v1.41h-10.22Zm7.8,15.82c-1.51,0-2.66-.41-3.46-1.25-.8-.83-1.2-1.96-1.2-3.41v-16.31h1.64v16.15c0,1.09,.27,1.93,.82,2.52s1.33,.88,2.36,.88,1.95-.32,2.65-.95l.69,1.15c-.44,.42-.97,.72-1.59,.92-.62,.2-1.26,.29-1.92,.29Z"/><path class="m" d="M2204.49,171.74c1.4,0,2.62,.27,3.65,.8,1.04,.54,1.85,1.34,2.42,2.42,.58,1.08,.87,2.42,.87,4.01v9.99h-1.64v-9.86c0-1.92-.49-3.38-1.46-4.39-.97-1-2.33-1.51-4.08-1.51-1.33,0-2.49,.27-3.47,.82-.98,.55-1.73,1.31-2.24,2.29-.51,.98-.77,2.16-.77,3.54v9.11h-1.64v-24.31h1.64v11.96l-.29-.52c.52-1.35,1.39-2.42,2.59-3.19,1.2-.77,2.67-1.16,4.42-1.16Z"/><path class="m" d="M2222.5,189.1c-1.42,0-2.75-.21-3.98-.62-1.23-.42-2.19-.94-2.87-1.57l.75-1.31c.65,.57,1.53,1.05,2.62,1.46,1.09,.4,2.27,.61,3.54,.61,1.79,0,3.08-.29,3.87-.88,.79-.59,1.18-1.37,1.18-2.33,0-.7-.2-1.25-.61-1.65-.4-.4-.95-.71-1.62-.93-.68-.22-1.42-.4-2.23-.54-.81-.14-1.62-.3-2.42-.47-.81-.17-1.55-.43-2.23-.75-.68-.33-1.22-.78-1.62-1.36-.4-.58-.61-1.35-.61-2.31,0-.87,.24-1.66,.72-2.36,.48-.7,1.2-1.26,2.16-1.69,.96-.43,2.16-.64,3.6-.64,1.07,0,2.14,.15,3.23,.46,1.08,.31,1.96,.71,2.64,1.21l-.75,1.31c-.72-.55-1.53-.94-2.42-1.18s-1.8-.36-2.72-.36c-1.66,0-2.88,.31-3.65,.92-.78,.61-1.16,1.38-1.16,2.29,0,.72,.2,1.29,.61,1.72,.4,.43,.94,.75,1.62,.98,.68,.23,1.42,.42,2.23,.56,.81,.14,1.62,.3,2.42,.47s1.55,.42,2.23,.74,1.22,.75,1.62,1.31c.4,.56,.61,1.3,.61,2.24s-.26,1.76-.77,2.46c-.51,.7-1.27,1.25-2.28,1.64-1.01,.39-2.24,.59-3.7,.59Z"/></g><g><path class="m" d="M62.89,72.97v-22.93h9.07c2.42,0,4.55,.49,6.39,1.47,1.83,.98,3.26,2.34,4.27,4.06,1.02,1.73,1.52,3.7,1.52,5.93s-.51,4.21-1.52,5.93c-1.02,1.73-2.44,3.08-4.27,4.06-1.83,.98-3.96,1.47-6.39,1.47h-9.07Zm1.67-1.51h7.27c2.16,0,4.04-.43,5.63-1.28s2.83-2.03,3.7-3.52,1.31-3.22,1.31-5.16-.44-3.66-1.31-5.16c-.87-1.5-2.11-2.67-3.7-3.52s-3.47-1.28-5.63-1.28h-7.27v19.92Z"/><path class="m" d="M96.37,73.1c-1.73,0-3.25-.37-4.57-1.11s-2.36-1.77-3.11-3.08c-.75-1.31-1.13-2.81-1.13-4.49s.35-3.21,1.06-4.5c.71-1.3,1.69-2.32,2.93-3.06,1.25-.74,2.64-1.11,4.19-1.11s2.94,.36,4.18,1.08,2.21,1.73,2.92,3.03c.71,1.3,1.06,2.8,1.06,4.5,0,.07,0,.14-.02,.21-.01,.08-.02,.16-.02,.25h-15.1v-1.28h14.22l-.66,.62c.02-1.33-.26-2.53-.83-3.59-.58-1.06-1.36-1.89-2.34-2.49s-2.12-.9-3.41-.9-2.4,.3-3.39,.9c-.99,.6-1.77,1.43-2.34,2.49-.57,1.06-.85,2.27-.85,3.62v.29c0,1.4,.31,2.64,.93,3.72,.62,1.08,1.48,1.92,2.57,2.52,1.09,.6,2.34,.9,3.73,.9,1.09,0,2.11-.2,3.06-.59,.95-.39,1.75-.99,2.41-1.8l.95,1.08c-.74,.92-1.68,1.61-2.8,2.08-1.12,.47-2.34,.7-3.65,.7Z"/><path class="m" d="M113.11,73.1c-1.27,0-2.36-.2-3.29-.61-.93-.4-1.64-.98-2.13-1.72-.49-.74-.74-1.59-.74-2.56,0-.87,.2-1.67,.61-2.38,.4-.71,1.08-1.29,2.01-1.74,.94-.45,2.19-.67,3.77-.67h6.29v1.28h-6.26c-1.77,0-3.01,.33-3.72,.98-.71,.66-1.06,1.47-1.06,2.46,0,1.09,.41,1.97,1.24,2.62,.83,.65,2,.98,3.51,.98s2.66-.33,3.65-.98c.99-.66,1.73-1.61,2.21-2.85l.46,1.11c-.46,1.24-1.24,2.23-2.34,2.96-1.1,.73-2.51,1.1-4.21,1.1Zm6.16-.13v-3.9l-.07-.59v-6.42c0-1.59-.43-2.81-1.29-3.64-.86-.83-2.12-1.24-3.78-1.24-1.18,0-2.28,.2-3.29,.61-1.02,.4-1.88,.92-2.6,1.56l-.82-1.18c.85-.76,1.88-1.36,3.08-1.79,1.2-.43,2.46-.64,3.77-.64,2.12,0,3.75,.54,4.88,1.6,1.14,1.07,1.7,2.67,1.7,4.78v10.84h-1.57Z"/><path class="m" d="M124.77,57.28v-1.41h10.22v1.41h-10.22Zm7.8,15.82c-1.51,0-2.66-.41-3.46-1.25-.8-.83-1.2-1.96-1.2-3.41v-16.31h1.64v16.15c0,1.09,.27,1.93,.82,2.52,.55,.59,1.33,.88,2.36,.88s1.95-.32,2.65-.95l.69,1.15c-.44,.42-.97,.72-1.59,.92-.62,.2-1.26,.29-1.92,.29Z"/><path class="m" d="M148.98,55.74c1.4,0,2.62,.27,3.65,.8,1.04,.54,1.85,1.34,2.42,2.42s.87,2.42,.87,4.01v9.99h-1.64v-9.86c0-1.92-.49-3.38-1.46-4.39-.97-1-2.33-1.51-4.08-1.51-1.33,0-2.49,.27-3.47,.82s-1.73,1.31-2.24,2.29c-.51,.98-.77,2.16-.77,3.54v9.11h-1.64v-24.31h1.64v11.96l-.29-.52c.52-1.35,1.39-2.42,2.59-3.19,1.2-.77,2.67-1.16,4.42-1.16Z"/><path class="m" d="M166.99,73.1c-1.42,0-2.75-.21-3.98-.62-1.23-.42-2.19-.94-2.87-1.57l.75-1.31c.65,.57,1.53,1.05,2.62,1.46,1.09,.4,2.27,.61,3.54,.61,1.79,0,3.08-.29,3.87-.88,.79-.59,1.18-1.37,1.18-2.33,0-.7-.2-1.25-.61-1.65-.4-.4-.94-.71-1.62-.93-.68-.22-1.42-.4-2.23-.54-.81-.14-1.62-.3-2.42-.47s-1.55-.43-2.23-.75c-.68-.33-1.22-.78-1.62-1.36-.4-.58-.61-1.35-.61-2.31,0-.87,.24-1.66,.72-2.36,.48-.7,1.2-1.26,2.16-1.69,.96-.43,2.16-.64,3.6-.64,1.07,0,2.15,.15,3.23,.46,1.08,.31,1.96,.71,2.64,1.21l-.75,1.31c-.72-.55-1.53-.94-2.42-1.18s-1.8-.36-2.72-.36c-1.66,0-2.88,.31-3.65,.92-.78,.61-1.16,1.38-1.16,2.29,0,.72,.2,1.29,.61,1.72,.4,.43,.94,.75,1.62,.98,.68,.23,1.42,.42,2.23,.56,.81,.14,1.62,.3,2.42,.47s1.55,.42,2.23,.74,1.22,.75,1.62,1.31c.4,.56,.61,1.3,.61,2.24s-.26,1.76-.77,2.46c-.51,.7-1.27,1.25-2.28,1.64-1,.39-2.24,.59-3.7,.59Z"/><path class="m" d="M187.56,51.71c-.37,0-.69-.13-.95-.39s-.39-.57-.39-.92c0-.37,.13-.69,.39-.95s.58-.39,.95-.39c.39,0,.71,.12,.97,.38,.25,.25,.38,.56,.38,.93s-.13,.69-.38,.95c-.25,.26-.57,.39-.97,.39Zm-.82,21.26v-17.1h1.64v17.1h-1.64Z"/><path class="m" d="M203.65,55.74c1.4,0,2.62,.27,3.65,.8,1.04,.54,1.85,1.34,2.42,2.42s.87,2.42,.87,4.01v9.99h-1.64v-9.86c0-1.92-.49-3.38-1.46-4.39-.97-1-2.33-1.51-4.08-1.51-1.33,0-2.49,.27-3.47,.82s-1.73,1.31-2.24,2.29c-.51,.98-.77,2.16-.77,3.54v9.11h-1.64v-17.1h1.57v4.75l-.23-.52c.52-1.35,1.39-2.42,2.59-3.19,1.2-.77,2.67-1.16,4.42-1.16Z"/><path class="m" d="M226.28,72.97v-22.93h1.41l10.65,18.38h-.75l10.61-18.38h1.38l.03,22.93h-1.64l-.03-20.41h.46l-10.06,17.36h-.82l-10.09-17.36h.49v20.41h-1.64Z"/><path class="m" d="M257.89,51.71c-.37,0-.69-.13-.95-.39s-.39-.57-.39-.92c0-.37,.13-.69,.39-.95s.58-.39,.95-.39c.39,0,.71,.12,.97,.38,.25,.25,.38,.56,.38,.93s-.13,.69-.38,.95c-.25,.26-.57,.39-.97,.39Zm-.82,21.26v-17.1h1.64v17.1h-1.64Z"/><path class="m" d="M265.62,72.97v-24.31h1.64v24.31h-1.64Z"/><path class="m" d="M274.17,72.97v-24.31h1.64v24.31h-1.64Z"/><path class="m" d="M283.54,51.71c-.37,0-.69-.13-.95-.39s-.39-.57-.39-.92c0-.37,.13-.69,.39-.95s.58-.39,.95-.39c.39,0,.71,.12,.97,.38,.25,.25,.38,.56,.38,.93s-.13,.69-.38,.95c-.25,.26-.57,.39-.97,.39Zm-.82,21.26v-17.1h1.64v17.1h-1.64Z"/><path class="m" d="M297.96,73.1c-1.64,0-3.1-.37-4.37-1.11-1.28-.74-2.29-1.77-3.05-3.08-.75-1.31-1.13-2.81-1.13-4.49s.38-3.21,1.13-4.5c.75-1.3,1.77-2.32,3.05-3.06,1.28-.74,2.74-1.11,4.37-1.11s3.1,.37,4.39,1.11c1.29,.74,2.3,1.76,3.05,3.06,.74,1.3,1.11,2.8,1.11,4.5s-.37,3.18-1.11,4.49c-.74,1.31-1.76,2.34-3.05,3.08-1.29,.74-2.75,1.11-4.39,1.11Zm0-1.47c1.31,0,2.49-.3,3.54-.9,1.05-.6,1.87-1.45,2.46-2.54,.59-1.09,.88-2.35,.88-3.77s-.29-2.7-.88-3.78c-.59-1.08-1.41-1.92-2.46-2.52s-2.23-.9-3.54-.9-2.48,.3-3.52,.9c-1.04,.6-1.86,1.44-2.46,2.52-.6,1.08-.9,2.34-.9,3.78s.3,2.68,.9,3.77c.6,1.09,1.42,1.94,2.46,2.54,1.04,.6,2.21,.9,3.52,.9Z"/><path class="m" d="M319.94,55.74c1.4,0,2.62,.27,3.65,.8,1.04,.54,1.85,1.34,2.42,2.42s.87,2.42,.87,4.01v9.99h-1.64v-9.86c0-1.92-.49-3.38-1.46-4.39-.97-1-2.33-1.51-4.08-1.51-1.33,0-2.49,.27-3.47,.82s-1.73,1.31-2.24,2.29c-.51,.98-.77,2.16-.77,3.54v9.11h-1.64v-17.1h1.57v4.75l-.23-.52c.52-1.35,1.39-2.42,2.59-3.19,1.2-.77,2.67-1.16,4.42-1.16Z"/><path class="m" d="M337.95,73.1c-1.42,0-2.75-.21-3.98-.62-1.23-.42-2.19-.94-2.87-1.57l.75-1.31c.65,.57,1.53,1.05,2.62,1.46,1.09,.4,2.27,.61,3.54,.61,1.79,0,3.08-.29,3.87-.88,.79-.59,1.18-1.37,1.18-2.33,0-.7-.2-1.25-.61-1.65-.4-.4-.94-.71-1.62-.93-.68-.22-1.42-.4-2.23-.54-.81-.14-1.62-.3-2.42-.47s-1.55-.43-2.23-.75c-.68-.33-1.22-.78-1.62-1.36-.4-.58-.61-1.35-.61-2.31,0-.87,.24-1.66,.72-2.36,.48-.7,1.2-1.26,2.16-1.69,.96-.43,2.16-.64,3.6-.64,1.07,0,2.15,.15,3.23,.46,1.08,.31,1.96,.71,2.64,1.21l-.75,1.31c-.72-.55-1.53-.94-2.42-1.18s-1.8-.36-2.72-.36c-1.66,0-2.88,.31-3.65,.92-.78,.61-1.16,1.38-1.16,2.29,0,.72,.2,1.29,.61,1.72,.4,.43,.94,.75,1.62,.98,.68,.23,1.42,.42,2.23,.56,.81,.14,1.62,.3,2.42,.47s1.55,.42,2.23,.74,1.22,.75,1.62,1.31c.4,.56,.61,1.3,.61,2.24s-.26,1.76-.77,2.46c-.51,.7-1.27,1.25-2.28,1.64-1,.39-2.24,.59-3.7,.59Z"/></g><g><path class="m" d="M1993.89,240.97v-22.93h1.41l10.65,18.38h-.75l10.61-18.38h1.38l.03,22.93h-1.64l-.03-20.41h.46l-10.06,17.36h-.82l-10.09-17.36h.49v20.41h-1.64Z"/><path class="m" d="M2025.5,219.71c-.37,0-.69-.13-.95-.39-.26-.26-.39-.57-.39-.92,0-.37,.13-.69,.39-.95,.26-.26,.58-.39,.95-.39,.39,0,.71,.12,.97,.38,.25,.25,.38,.56,.38,.93s-.12,.69-.38,.95-.57,.39-.97,.39Zm-.82,21.26v-17.1h1.64v17.1h-1.64Z"/><path class="m" d="M2033.23,240.97v-24.31h1.64v24.31h-1.64Z"/><path class="m" d="M2042.6,219.71c-.37,0-.69-.13-.95-.39-.26-.26-.39-.57-.39-.92,0-.37,.13-.69,.39-.95,.26-.26,.58-.39,.95-.39,.39,0,.71,.12,.97,.38,.25,.25,.38,.56,.38,.93s-.13,.69-.38,.95c-.25,.26-.57,.39-.97,.39Zm-.82,21.26v-17.1h1.64v17.1h-1.64Z"/><path class="m" d="M2047.51,225.28v-1.41h10.22v1.41h-10.22Zm7.8,15.82c-1.51,0-2.66-.41-3.46-1.25-.8-.83-1.2-1.96-1.2-3.41v-16.31h1.64v16.15c0,1.09,.27,1.93,.82,2.52,.54,.59,1.33,.88,2.36,.88s1.96-.32,2.65-.95l.69,1.15c-.44,.42-.97,.72-1.59,.92-.62,.2-1.26,.29-1.92,.29Z"/><path class="m" d="M2067.99,241.1c-1.27,0-2.36-.2-3.29-.61-.93-.4-1.64-.98-2.13-1.72-.49-.74-.74-1.59-.74-2.56,0-.87,.2-1.67,.61-2.38,.4-.71,1.08-1.29,2.01-1.74,.94-.45,2.2-.67,3.77-.67h6.29v1.28h-6.26c-1.77,0-3.01,.33-3.72,.98-.71,.66-1.06,1.47-1.06,2.46,0,1.09,.41,1.97,1.24,2.62,.83,.65,2,.98,3.51,.98s2.66-.33,3.65-.98c.99-.66,1.73-1.61,2.21-2.85l.46,1.11c-.46,1.24-1.24,2.23-2.34,2.96-1.1,.73-2.51,1.1-4.21,1.1Zm6.16-.13v-3.9l-.07-.59v-6.42c0-1.59-.43-2.81-1.29-3.64-.86-.83-2.12-1.24-3.78-1.24-1.18,0-2.28,.2-3.29,.61-1.02,.4-1.88,.92-2.6,1.56l-.82-1.18c.85-.76,1.88-1.36,3.08-1.79,1.2-.43,2.46-.64,3.77-.64,2.12,0,3.75,.54,4.88,1.6,1.14,1.07,1.7,2.67,1.7,4.78v10.84h-1.57Z"/><path class="m" d="M2082.46,240.97v-17.1h1.57v4.68l-.16-.52c.48-1.38,1.29-2.43,2.42-3.18,1.13-.74,2.55-1.11,4.26-1.11v1.6c-.06,0-.13,0-.2-.02-.07-.01-.13-.02-.2-.02-1.9,0-3.38,.59-4.46,1.79s-1.61,2.84-1.61,4.96v8.91h-1.64Z"/><path class="m" d="M2095.47,247.45c-.79,0-1.52-.13-2.21-.39-.69-.26-1.27-.64-1.75-1.15l.82-1.24c.44,.46,.91,.8,1.42,1.01,.51,.22,1.1,.33,1.75,.33,.79,0,1.48-.22,2.08-.66,.6-.44,1.16-1.23,1.69-2.39l1.18-2.62,.23-.29,7.24-16.18h1.67l-8.78,19.43c-.46,1.05-.96,1.87-1.49,2.47s-1.12,1.03-1.75,1.29c-.63,.26-1.33,.39-2.1,.39Zm4.95-6.06l-7.93-17.53h1.74l7.21,16.08-1.02,1.44Z"/><path class="m" d="M2122.1,240.97v-22.93h9.07c2.42,0,4.55,.49,6.39,1.47,1.83,.98,3.26,2.34,4.28,4.06,1.02,1.73,1.52,3.7,1.52,5.93s-.51,4.21-1.52,5.93c-1.02,1.73-2.44,3.08-4.28,4.06-1.83,.98-3.96,1.47-6.39,1.47h-9.07Zm1.67-1.51h7.27c2.16,0,4.04-.43,5.63-1.28,1.59-.85,2.83-2.03,3.7-3.52s1.31-3.22,1.31-5.16-.44-3.66-1.31-5.16c-.87-1.5-2.11-2.67-3.7-3.52-1.59-.85-3.47-1.28-5.63-1.28h-7.27v19.92Z"/><path class="m" d="M2155.58,241.1c-1.73,0-3.25-.37-4.57-1.11s-2.36-1.77-3.11-3.08c-.75-1.31-1.13-2.81-1.13-4.49s.36-3.21,1.06-4.5c.71-1.3,1.69-2.32,2.93-3.06,1.25-.74,2.64-1.11,4.19-1.11s2.94,.36,4.18,1.08,2.21,1.73,2.92,3.03c.71,1.3,1.07,2.8,1.07,4.5,0,.07,0,.14-.02,.21-.01,.08-.02,.16-.02,.25h-15.1v-1.28h14.22l-.66,.62c.02-1.33-.26-2.53-.83-3.59-.58-1.06-1.36-1.89-2.34-2.49s-2.12-.9-3.41-.9-2.4,.3-3.39,.9-1.77,1.43-2.34,2.49c-.57,1.06-.85,2.27-.85,3.62v.29c0,1.4,.31,2.64,.93,3.72,.62,1.08,1.48,1.92,2.57,2.52,1.09,.6,2.34,.9,3.73,.9,1.09,0,2.11-.2,3.06-.59,.95-.39,1.75-.99,2.41-1.8l.95,1.08c-.74,.92-1.68,1.61-2.8,2.08s-2.34,.7-3.65,.7Z"/><path class="m" d="M2172.32,241.1c-1.27,0-2.36-.2-3.29-.61-.93-.4-1.64-.98-2.13-1.72s-.74-1.59-.74-2.56c0-.87,.2-1.67,.61-2.38,.4-.71,1.08-1.29,2.02-1.74,.94-.45,2.19-.67,3.77-.67h6.29v1.28h-6.26c-1.77,0-3.01,.33-3.72,.98-.71,.66-1.06,1.47-1.06,2.46,0,1.09,.41,1.97,1.24,2.62,.83,.65,2,.98,3.51,.98s2.66-.33,3.65-.98c.99-.66,1.73-1.61,2.21-2.85l.46,1.11c-.46,1.24-1.24,2.23-2.34,2.96-1.1,.73-2.51,1.1-4.21,1.1Zm6.16-.13v-3.9l-.07-.59v-6.42c0-1.59-.43-2.81-1.29-3.64-.86-.83-2.12-1.24-3.78-1.24-1.18,0-2.28,.2-3.29,.61-1.01,.4-1.88,.92-2.6,1.56l-.82-1.18c.85-.76,1.88-1.36,3.08-1.79,1.2-.43,2.46-.64,3.77-.64,2.12,0,3.75,.54,4.88,1.6,1.14,1.07,1.7,2.67,1.7,4.78v10.84h-1.57Z"/><path class="m" d="M2183.98,225.28v-1.41h10.22v1.41h-10.22Zm7.8,15.82c-1.51,0-2.66-.41-3.46-1.25-.8-.83-1.2-1.96-1.2-3.41v-16.31h1.64v16.15c0,1.09,.27,1.93,.82,2.52,.54,.59,1.33,.88,2.36,.88s1.95-.32,2.65-.95l.69,1.15c-.44,.42-.97,.72-1.59,.92-.62,.2-1.26,.29-1.92,.29Z"/><path class="m" d="M2208.19,223.74c1.4,0,2.62,.27,3.65,.8,1.04,.54,1.84,1.34,2.42,2.42,.58,1.08,.87,2.42,.87,4.01v9.99h-1.64v-9.86c0-1.92-.49-3.38-1.46-4.39-.97-1-2.33-1.51-4.08-1.51-1.33,0-2.49,.27-3.47,.82-.98,.55-1.73,1.31-2.24,2.29-.51,.98-.77,2.16-.77,3.54v9.11h-1.64v-24.31h1.64v11.96l-.29-.52c.53-1.35,1.39-2.42,2.59-3.19,1.2-.77,2.68-1.16,4.42-1.16Z"/><path class="m" d="M2226.21,241.1c-1.42,0-2.75-.21-3.98-.62s-2.19-.94-2.87-1.57l.75-1.31c.66,.57,1.53,1.05,2.62,1.46s2.27,.61,3.54,.61c1.79,0,3.08-.29,3.87-.88,.79-.59,1.18-1.37,1.18-2.33,0-.7-.2-1.25-.61-1.65s-.94-.71-1.62-.93c-.68-.22-1.42-.4-2.23-.54-.81-.14-1.62-.3-2.42-.47-.81-.17-1.55-.43-2.23-.75-.68-.33-1.22-.78-1.62-1.36-.4-.58-.61-1.35-.61-2.31,0-.87,.24-1.66,.72-2.36,.48-.7,1.2-1.26,2.16-1.69s2.16-.64,3.6-.64c1.07,0,2.15,.15,3.23,.46,1.08,.31,1.96,.71,2.64,1.21l-.75,1.31c-.72-.55-1.53-.94-2.42-1.18s-1.8-.36-2.72-.36c-1.66,0-2.88,.31-3.65,.92s-1.16,1.38-1.16,2.29c0,.72,.2,1.29,.61,1.72s.95,.75,1.62,.98c.68,.23,1.42,.42,2.23,.56,.81,.14,1.62,.3,2.42,.47s1.55,.42,2.23,.74,1.22,.75,1.62,1.31c.4,.56,.61,1.3,.61,2.24s-.26,1.76-.77,2.46c-.51,.7-1.27,1.25-2.28,1.64-1,.39-2.24,.59-3.7,.59Z"/></g><g><path class="m" d="M1026.89,1010.97v-22.93h8.22c1.92,0,3.57,.31,4.95,.92,1.38,.61,2.43,1.49,3.18,2.64,.74,1.15,1.11,2.54,1.11,4.18s-.37,2.97-1.11,4.13c-.74,1.16-1.8,2.04-3.18,2.65-1.38,.61-3.03,.92-4.95,.92h-7.3l.75-.79v8.29h-1.67Zm1.67-8.19l-.75-.82h7.3c2.47,0,4.34-.54,5.62-1.62,1.28-1.08,1.92-2.6,1.92-4.57s-.64-3.52-1.92-4.6c-1.28-1.08-3.15-1.62-5.62-1.62h-7.3l.75-.82v14.05Z"/><path class="m" d="M1056.04,1011.1c-1.64,0-3.1-.37-4.37-1.11s-2.29-1.77-3.05-3.08c-.75-1.31-1.13-2.81-1.13-4.49s.38-3.21,1.13-4.5c.75-1.3,1.77-2.32,3.05-3.06,1.28-.74,2.73-1.11,4.37-1.11s3.1,.37,4.39,1.11c1.29,.74,2.3,1.76,3.05,3.06,.74,1.3,1.11,2.8,1.11,4.5s-.37,3.18-1.11,4.49c-.74,1.31-1.76,2.34-3.05,3.08-1.29,.74-2.75,1.11-4.39,1.11Zm0-1.47c1.31,0,2.49-.3,3.54-.9,1.05-.6,1.87-1.45,2.46-2.54s.88-2.35,.88-3.77-.29-2.7-.88-3.78c-.59-1.08-1.41-1.92-2.46-2.52-1.05-.6-2.23-.9-3.54-.9s-2.48,.3-3.52,.9-1.86,1.44-2.46,2.52c-.6,1.08-.9,2.34-.9,3.78s.3,2.68,.9,3.77c.6,1.09,1.42,1.94,2.46,2.54,1.04,.6,2.21,.9,3.52,.9Z"/><path class="m" d="M1069.67,1010.97v-24.31h1.64v24.31h-1.64Z"/><path class="m" d="M1082.84,1011.1c-1.27,0-2.36-.2-3.29-.61-.93-.4-1.64-.98-2.13-1.72s-.74-1.59-.74-2.56c0-.87,.2-1.67,.61-2.38,.4-.71,1.08-1.29,2.02-1.74,.94-.45,2.19-.67,3.77-.67h6.29v1.28h-6.26c-1.77,0-3.01,.33-3.72,.98-.71,.66-1.06,1.47-1.06,2.46,0,1.09,.41,1.97,1.24,2.62,.83,.65,2,.98,3.51,.98s2.66-.33,3.65-.98c.99-.66,1.73-1.61,2.21-2.85l.46,1.11c-.46,1.24-1.24,2.23-2.34,2.96-1.1,.73-2.51,1.1-4.21,1.1Zm6.16-.13v-3.9l-.07-.59v-6.42c0-1.59-.43-2.81-1.29-3.64-.86-.83-2.12-1.24-3.78-1.24-1.18,0-2.28,.2-3.29,.61-1.01,.4-1.88,.92-2.6,1.56l-.82-1.18c.85-.76,1.88-1.36,3.08-1.79,1.2-.43,2.46-.64,3.77-.64,2.12,0,3.75,.54,4.88,1.6,1.14,1.07,1.7,2.67,1.7,4.78v10.84h-1.57Z"/><path class="m" d="M1105.67,993.74c1.4,0,2.62,.27,3.65,.8,1.04,.54,1.84,1.34,2.42,2.42,.58,1.08,.87,2.42,.87,4.01v9.99h-1.64v-9.86c0-1.92-.49-3.38-1.46-4.39-.97-1-2.33-1.51-4.08-1.51-1.33,0-2.49,.27-3.47,.82-.98,.55-1.73,1.31-2.24,2.29-.51,.98-.77,2.16-.77,3.54v9.11h-1.64v-17.1h1.57v4.75l-.23-.52c.53-1.35,1.39-2.42,2.59-3.19,1.2-.77,2.68-1.16,4.42-1.16Z"/><path class="m" d="M1125.95,1011.1c-1.59,0-3.03-.37-4.31-1.1-1.28-.73-2.29-1.75-3.03-3.06s-1.11-2.82-1.11-4.52,.37-3.24,1.11-4.54c.74-1.3,1.75-2.31,3.03-3.05,1.28-.73,2.71-1.1,4.31-1.1,1.51,0,2.87,.35,4.08,1.05,1.21,.7,2.17,1.69,2.88,2.98,.71,1.29,1.06,2.84,1.06,4.65s-.35,3.31-1.05,4.62c-.7,1.31-1.65,2.31-2.87,3.01-1.21,.7-2.58,1.05-4.11,1.05Zm.1-1.47c1.31,0,2.48-.3,3.52-.9,1.04-.6,1.86-1.45,2.46-2.54s.9-2.35,.9-3.77-.3-2.7-.9-3.78c-.6-1.08-1.42-1.92-2.46-2.52-1.04-.6-2.21-.9-3.52-.9s-2.49,.3-3.52,.9c-1.04,.6-1.86,1.44-2.46,2.52-.6,1.08-.9,2.34-.9,3.78s.3,2.68,.9,3.77c.6,1.09,1.42,1.94,2.46,2.54,1.04,.6,2.21,.9,3.52,.9Zm6.91,1.34v-5.6l.29-2.98-.33-2.98v-12.74h1.64v24.31h-1.61Z"/></g><g><path class="m" d="M1170.89,1010.97v-22.93h1.67v22.93h-1.67Z"/><path class="m" d="M1177.21,995.28v-1.41h10.22v1.41h-10.22Zm7.8,15.82c-1.51,0-2.66-.41-3.46-1.25-.8-.83-1.2-1.96-1.2-3.41v-16.31h1.64v16.15c0,1.09,.27,1.93,.82,2.52s1.33,.88,2.36,.88,1.96-.32,2.65-.95l.69,1.15c-.44,.42-.97,.72-1.59,.92-.62,.2-1.26,.29-1.92,.29Z"/><path class="m" d="M1197.68,1011.1c-1.27,0-2.36-.2-3.29-.61-.93-.4-1.64-.98-2.13-1.72-.49-.74-.74-1.59-.74-2.56,0-.87,.2-1.67,.61-2.38,.4-.71,1.08-1.29,2.01-1.74,.94-.45,2.19-.67,3.77-.67h6.29v1.28h-6.26c-1.77,0-3.01,.33-3.72,.98s-1.06,1.47-1.06,2.46c0,1.09,.42,1.97,1.25,2.62,.83,.65,2,.98,3.5,.98s2.66-.33,3.65-.98c.99-.66,1.73-1.61,2.21-2.85l.46,1.11c-.46,1.24-1.24,2.23-2.34,2.96-1.1,.73-2.51,1.1-4.21,1.1Zm6.16-.13v-3.9l-.06-.59v-6.42c0-1.59-.43-2.81-1.29-3.64-.86-.83-2.12-1.24-3.78-1.24-1.18,0-2.28,.2-3.29,.61-1.01,.4-1.88,.92-2.6,1.56l-.82-1.18c.85-.76,1.88-1.36,3.08-1.79s2.46-.64,3.77-.64c2.12,0,3.75,.54,4.88,1.6,1.13,1.07,1.7,2.67,1.7,4.78v10.84h-1.57Z"/><path class="m" d="M1212.16,1010.97v-24.31h1.64v24.31h-1.64Z"/><path class="m" d="M1220.32,1017.45c-.79,0-1.52-.13-2.21-.39-.69-.26-1.27-.64-1.75-1.15l.82-1.24c.44,.46,.91,.8,1.43,1.01,.51,.22,1.1,.33,1.75,.33,.79,0,1.48-.22,2.08-.66,.6-.44,1.16-1.23,1.69-2.39l1.18-2.62,.23-.29,7.24-16.18h1.67l-8.78,19.43c-.46,1.05-.96,1.87-1.49,2.47s-1.12,1.03-1.75,1.29c-.63,.26-1.33,.39-2.1,.39Zm4.95-6.06l-7.93-17.53h1.74l7.21,16.08-1.02,1.44Z"/></g><g><path class="m" d="M1267.13,1010.97h-1.67v-22.93h1.67v22.93Zm15.53-10.91h-15.72v-1.47h15.72v1.47Zm-.2-12.02h1.67v22.93h-1.67v-22.93Z"/><path class="m" d="M1298.54,1011.1c-1.46,0-2.73-.27-3.8-.8-1.07-.53-1.89-1.34-2.47-2.42-.58-1.08-.87-2.42-.87-4.01v-9.99h1.64v9.86c0,1.92,.49,3.38,1.47,4.39,.98,1,2.37,1.51,4.16,1.51,1.29,0,2.4-.27,3.34-.82,.94-.55,1.66-1.32,2.16-2.31,.5-.99,.75-2.17,.75-3.52v-9.11h1.64v17.1h-1.57v-4.75l.23,.56c-.5,1.33-1.34,2.39-2.51,3.16-1.17,.78-2.56,1.16-4.18,1.16Z"/><path class="m" d="M1321.87,993.74c1.4,0,2.62,.27,3.65,.8,1.04,.54,1.85,1.34,2.42,2.42,.58,1.08,.87,2.42,.87,4.01v9.99h-1.64v-9.86c0-1.92-.49-3.38-1.46-4.39-.97-1-2.33-1.51-4.08-1.51-1.33,0-2.49,.27-3.47,.82-.98,.55-1.73,1.31-2.24,2.29-.51,.98-.77,2.16-.77,3.54v9.11h-1.64v-17.1h1.57v4.75l-.23-.52c.52-1.35,1.39-2.42,2.59-3.19,1.2-.77,2.67-1.16,4.42-1.16Z"/><path class="m" d="M1342.21,1010.35c-1.62,0-3.06-.36-4.34-1.07-1.28-.71-2.29-1.69-3.05-2.95-.75-1.25-1.13-2.69-1.13-4.31s.38-3.08,1.13-4.32c.75-1.24,1.77-2.22,3.05-2.92,1.28-.7,2.72-1.05,4.34-1.05s2.94,.33,4.18,1c1.23,.67,2.21,1.62,2.93,2.85,.72,1.23,1.08,2.71,1.08,4.44s-.36,3.18-1.08,4.42-1.7,2.21-2.93,2.88c-1.23,.68-2.63,1.02-4.18,1.02Zm.46,7.11c-1.55,0-3.03-.24-4.42-.72-1.4-.48-2.53-1.15-3.41-2l.88-1.25c.85,.79,1.87,1.4,3.06,1.83,1.19,.44,2.47,.66,3.85,.66,2.29,0,3.98-.54,5.06-1.6,1.08-1.07,1.62-2.75,1.62-5.04v-4.75l.33-2.56-.26-2.55v-5.6h1.57v15.27c0,2.86-.69,4.96-2.08,6.31-1.39,1.34-3.46,2.01-6.21,2.01Zm-.33-8.58c1.38,0,2.59-.29,3.64-.87,1.05-.58,1.87-1.39,2.47-2.42,.6-1.04,.9-2.22,.9-3.55s-.3-2.54-.9-3.57c-.6-1.03-1.42-1.82-2.47-2.39-1.05-.57-2.26-.85-3.64-.85s-2.53,.28-3.59,.85c-1.06,.57-1.89,1.37-2.49,2.39s-.9,2.22-.9,3.57,.3,2.52,.9,3.55,1.43,1.85,2.49,2.42c1.06,.58,2.25,.87,3.59,.87Z"/><path class="m" d="M1362.52,1011.1c-1.27,0-2.36-.2-3.29-.61-.93-.4-1.64-.98-2.13-1.72s-.74-1.59-.74-2.56c0-.87,.2-1.67,.61-2.38,.4-.71,1.08-1.29,2.01-1.74,.94-.45,2.19-.67,3.77-.67h6.29v1.28h-6.26c-1.77,0-3.01,.33-3.72,.98-.71,.66-1.06,1.47-1.06,2.46,0,1.09,.41,1.97,1.24,2.62,.83,.65,2,.98,3.51,.98s2.66-.33,3.65-.98c.99-.66,1.73-1.61,2.21-2.85l.46,1.11c-.46,1.24-1.24,2.23-2.34,2.96-1.1,.73-2.51,1.1-4.21,1.1Zm6.16-.13v-3.9l-.07-.59v-6.42c0-1.59-.43-2.81-1.29-3.64-.86-.83-2.12-1.24-3.78-1.24-1.18,0-2.28,.2-3.29,.61-1.01,.4-1.88,.92-2.6,1.56l-.82-1.18c.85-.76,1.88-1.36,3.08-1.79s2.46-.64,3.77-.64c2.12,0,3.75,.54,4.88,1.6,1.13,1.07,1.7,2.67,1.7,4.78v10.84h-1.57Z"/><path class="m" d="M1377,1010.97v-17.1h1.57v4.68l-.16-.52c.48-1.38,1.29-2.43,2.42-3.18,1.14-.74,2.56-1.11,4.26-1.11v1.6c-.07,0-.13,0-.2-.02s-.13-.02-.2-.02c-1.9,0-3.38,.59-4.46,1.79s-1.6,2.84-1.6,4.96v8.91h-1.64Z"/><path class="m" d="M1390,1017.45c-.79,0-1.52-.13-2.21-.39-.69-.26-1.27-.64-1.75-1.15l.82-1.24c.44,.46,.91,.8,1.42,1.01,.51,.22,1.1,.33,1.75,.33,.79,0,1.48-.22,2.08-.66,.6-.44,1.16-1.23,1.69-2.39l1.18-2.62,.23-.29,7.24-16.18h1.67l-8.78,19.43c-.46,1.05-.96,1.87-1.49,2.47s-1.12,1.03-1.75,1.29c-.63,.26-1.33,.39-2.1,.39Zm4.95-6.06l-7.93-17.53h1.74l7.21,16.08-1.02,1.44Z"/></g><g><path class="m" d="M2150.25,1011.13c-1.72,0-3.32-.29-4.78-.87-1.46-.58-2.74-1.39-3.82-2.44-1.08-1.05-1.92-2.28-2.51-3.69s-.88-2.95-.88-4.64,.29-3.23,.88-4.63c.59-1.41,1.43-2.64,2.52-3.69,1.09-1.05,2.36-1.86,3.82-2.44,1.45-.58,3.05-.87,4.8-.87s3.2,.26,4.62,.79c1.42,.52,2.63,1.31,3.64,2.36l-1.05,1.11c-1-.98-2.1-1.68-3.29-2.1-1.19-.41-2.49-.62-3.88-.62-1.49,0-2.86,.25-4.13,.75-1.27,.5-2.37,1.21-3.31,2.13-.94,.92-1.67,1.99-2.18,3.21-.51,1.22-.77,2.55-.77,4s.26,2.77,.77,4c.51,1.22,1.24,2.29,2.18,3.21,.94,.92,2.04,1.63,3.31,2.13,1.27,.5,2.64,.75,4.13,.75,1.35,0,2.64-.21,3.85-.62s2.32-1.1,3.33-2.06l.95,1.28c-1.03,.98-2.26,1.72-3.69,2.21-1.43,.49-2.93,.74-4.5,.74Zm6.58-3.11v-8.42h1.61v8.58l-1.61-.16Z"/><path class="m" d="M2165.25,1010.97v-17.1h1.57v4.68l-.16-.52c.48-1.38,1.29-2.43,2.42-3.18,1.14-.74,2.56-1.11,4.26-1.11v1.6c-.07,0-.13,0-.2-.02s-.13-.02-.2-.02c-1.9,0-3.38,.59-4.46,1.79s-1.6,2.84-1.6,4.96v8.91h-1.64Z"/><path class="m" d="M2184.65,1011.1c-1.72,0-3.25-.37-4.57-1.11s-2.36-1.77-3.11-3.08c-.75-1.31-1.13-2.81-1.13-4.49s.35-3.21,1.06-4.5c.71-1.3,1.69-2.32,2.93-3.06,1.25-.74,2.64-1.11,4.19-1.11s2.94,.36,4.18,1.08c1.23,.72,2.21,1.73,2.92,3.03,.71,1.3,1.07,2.8,1.07,4.5,0,.07,0,.14-.02,.21-.01,.08-.02,.16-.02,.25h-15.1v-1.28h14.22l-.66,.62c.02-1.33-.26-2.53-.83-3.59-.58-1.06-1.36-1.89-2.34-2.49-.98-.6-2.12-.9-3.41-.9s-2.4,.3-3.39,.9-1.77,1.43-2.34,2.49c-.57,1.06-.85,2.27-.85,3.62v.29c0,1.4,.31,2.64,.93,3.72,.62,1.08,1.48,1.92,2.57,2.52,1.09,.6,2.34,.9,3.73,.9,1.09,0,2.11-.2,3.06-.59,.95-.39,1.75-.99,2.41-1.8l.95,1.08c-.74,.92-1.68,1.61-2.8,2.08-1.12,.47-2.34,.7-3.65,.7Z"/><path class="m" d="M2204.2,1011.1c-1.73,0-3.25-.37-4.57-1.11s-2.36-1.77-3.11-3.08c-.75-1.31-1.13-2.81-1.13-4.49s.36-3.21,1.07-4.5c.71-1.3,1.69-2.32,2.93-3.06,1.25-.74,2.64-1.11,4.19-1.11s2.94,.36,4.18,1.08c1.23,.72,2.21,1.73,2.92,3.03,.71,1.3,1.06,2.8,1.06,4.5,0,.07,0,.14-.02,.21s-.02,.16-.02,.25h-15.1v-1.28h14.22l-.66,.62c.02-1.33-.26-2.53-.83-3.59-.58-1.06-1.36-1.89-2.34-2.49-.98-.6-2.12-.9-3.41-.9s-2.4,.3-3.39,.9c-.99,.6-1.77,1.43-2.34,2.49-.57,1.06-.85,2.27-.85,3.62v.29c0,1.4,.31,2.64,.93,3.72s1.48,1.92,2.57,2.52c1.09,.6,2.34,.9,3.73,.9,1.09,0,2.11-.2,3.06-.59,.95-.39,1.75-.99,2.41-1.8l.95,1.08c-.74,.92-1.68,1.61-2.8,2.08s-2.34,.7-3.65,.7Z"/><path class="m" d="M2223.6,1011.1c-1.66,0-3.14-.37-4.44-1.11-1.3-.74-2.33-1.77-3.08-3.08-.75-1.31-1.13-2.81-1.13-4.49s.38-3.21,1.13-4.52c.75-1.31,1.78-2.33,3.08-3.06,1.3-.73,2.78-1.1,4.44-1.1,1.38,0,2.62,.26,3.75,.79,1.12,.52,2.04,1.31,2.73,2.36l-1.21,.88c-.61-.87-1.38-1.52-2.29-1.93-.92-.41-1.91-.62-2.98-.62-1.33,0-2.53,.3-3.59,.9-1.06,.6-1.89,1.44-2.49,2.52-.6,1.08-.9,2.34-.9,3.78s.3,2.7,.9,3.78,1.43,1.92,2.49,2.52c1.06,.6,2.25,.9,3.59,.9,1.07,0,2.06-.21,2.98-.62,.92-.41,1.68-1.06,2.29-1.93l1.21,.88c-.7,1.05-1.61,1.83-2.73,2.36-1.13,.52-2.38,.79-3.75,.79Z"/><path class="m" d="M2241.65,1011.1c-1.73,0-3.25-.37-4.57-1.11s-2.36-1.77-3.11-3.08c-.75-1.31-1.13-2.81-1.13-4.49s.36-3.21,1.07-4.5c.71-1.3,1.69-2.32,2.93-3.06,1.25-.74,2.64-1.11,4.19-1.11s2.94,.36,4.18,1.08c1.23,.72,2.21,1.73,2.92,3.03,.71,1.3,1.06,2.8,1.06,4.5,0,.07,0,.14-.02,.21s-.02,.16-.02,.25h-15.1v-1.28h14.22l-.66,.62c.02-1.33-.26-2.53-.83-3.59-.58-1.06-1.36-1.89-2.34-2.49-.98-.6-2.12-.9-3.41-.9s-2.4,.3-3.39,.9c-.99,.6-1.77,1.43-2.34,2.49-.57,1.06-.85,2.27-.85,3.62v.29c0,1.4,.31,2.64,.93,3.72s1.48,1.92,2.57,2.52c1.09,.6,2.34,.9,3.73,.9,1.09,0,2.11-.2,3.06-.59,.95-.39,1.75-.99,2.41-1.8l.95,1.08c-.74,.92-1.68,1.61-2.8,2.08s-2.34,.7-3.65,.7Z"/></g><g><path class="m" d="M1685.58,1011.13c-1.7,0-3.28-.29-4.73-.87-1.45-.58-2.71-1.39-3.78-2.44-1.07-1.05-1.9-2.28-2.49-3.69-.59-1.41-.88-2.95-.88-4.64s.29-3.23,.88-4.63c.59-1.41,1.42-2.64,2.51-3.69,1.08-1.05,2.34-1.86,3.78-2.44,1.44-.58,3.01-.87,4.72-.87s3.13,.26,4.54,.79,2.62,1.32,3.62,2.39l-1.05,1.08c-.98-.96-2.07-1.65-3.26-2.08-1.19-.43-2.45-.64-3.78-.64-1.46,0-2.82,.25-4.08,.75-1.26,.5-2.35,1.21-3.28,2.13-.93,.92-1.65,1.99-2.16,3.21-.51,1.22-.77,2.55-.77,4s.26,2.77,.77,4c.51,1.22,1.23,2.29,2.16,3.21s2.02,1.63,3.28,2.13c1.25,.5,2.61,.75,4.08,.75,1.33,0,2.59-.21,3.78-.64,1.19-.43,2.28-1.13,3.26-2.11l1.05,1.08c-1,1.07-2.21,1.87-3.62,2.41s-2.92,.8-4.54,.8Z"/><path class="m" d="M1696.16,1010.97v-1.11l11.7-15.13,.43,.56h-11.96v-1.41h13.23v1.11l-11.73,15.13-.49-.56h12.42v1.41h-13.6Z"/><path class="m" d="M1721.32,1011.1c-1.73,0-3.25-.37-4.57-1.11-1.32-.74-2.36-1.77-3.11-3.08-.75-1.31-1.13-2.81-1.13-4.49s.35-3.21,1.06-4.5c.71-1.3,1.69-2.32,2.93-3.06,1.25-.74,2.64-1.11,4.19-1.11s2.94,.36,4.18,1.08c1.23,.72,2.21,1.73,2.92,3.03,.71,1.3,1.06,2.8,1.06,4.5,0,.07,0,.14-.02,.21-.01,.08-.02,.16-.02,.25h-15.1v-1.28h14.22l-.66,.62c.02-1.33-.26-2.53-.83-3.59-.58-1.06-1.36-1.89-2.34-2.49-.98-.6-2.12-.9-3.41-.9s-2.4,.3-3.39,.9-1.77,1.43-2.34,2.49c-.57,1.06-.85,2.27-.85,3.62v.29c0,1.4,.31,2.64,.93,3.72,.62,1.08,1.48,1.92,2.57,2.52,1.09,.6,2.34,.9,3.73,.9,1.09,0,2.11-.2,3.06-.59,.95-.39,1.75-.99,2.41-1.8l.95,1.08c-.74,.92-1.68,1.61-2.8,2.08-1.12,.47-2.34,.7-3.65,.7Z"/><path class="m" d="M1740.72,1011.1c-1.66,0-3.14-.37-4.44-1.11-1.3-.74-2.33-1.77-3.08-3.08-.75-1.31-1.13-2.81-1.13-4.49s.38-3.21,1.13-4.52c.75-1.31,1.78-2.33,3.08-3.06,1.3-.73,2.78-1.1,4.44-1.1,1.38,0,2.63,.26,3.75,.79,1.12,.52,2.04,1.31,2.73,2.36l-1.21,.88c-.61-.87-1.38-1.52-2.29-1.93-.92-.41-1.91-.62-2.98-.62-1.33,0-2.53,.3-3.59,.9-1.06,.6-1.89,1.44-2.49,2.52-.6,1.08-.9,2.34-.9,3.78s.3,2.7,.9,3.78,1.43,1.92,2.49,2.52c1.06,.6,2.25,.9,3.59,.9,1.07,0,2.06-.21,2.98-.62,.92-.41,1.68-1.06,2.29-1.93l1.21,.88c-.7,1.05-1.61,1.83-2.73,2.36s-2.38,.79-3.75,.79Z"/><path class="m" d="M1760.17,993.74c1.4,0,2.62,.27,3.65,.8,1.04,.54,1.84,1.34,2.42,2.42s.87,2.42,.87,4.01v9.99h-1.64v-9.86c0-1.92-.49-3.38-1.46-4.39-.97-1-2.33-1.51-4.08-1.51-1.33,0-2.49,.27-3.47,.82s-1.73,1.31-2.24,2.29c-.51,.98-.77,2.16-.77,3.54v9.11h-1.64v-24.31h1.64v11.96l-.29-.52c.52-1.35,1.39-2.42,2.59-3.19,1.2-.77,2.67-1.16,4.42-1.16Z"/><path class="m" d="M1780.55,1011.1c-1.64,0-3.1-.37-4.37-1.11-1.28-.74-2.29-1.77-3.05-3.08-.75-1.31-1.13-2.81-1.13-4.49s.38-3.21,1.13-4.5c.75-1.3,1.77-2.32,3.05-3.06,1.28-.74,2.74-1.11,4.37-1.11s3.1,.37,4.39,1.11c1.29,.74,2.3,1.76,3.05,3.06,.74,1.3,1.11,2.8,1.11,4.5s-.37,3.18-1.11,4.49c-.74,1.31-1.76,2.34-3.05,3.08-1.29,.74-2.75,1.11-4.39,1.11Zm0-1.47c1.31,0,2.49-.3,3.54-.9,1.05-.6,1.87-1.45,2.46-2.54,.59-1.09,.88-2.35,.88-3.77s-.29-2.7-.88-3.78c-.59-1.08-1.41-1.92-2.46-2.52-1.05-.6-2.23-.9-3.54-.9s-2.49,.3-3.52,.9c-1.04,.6-1.86,1.44-2.46,2.52-.6,1.08-.9,2.34-.9,3.78s.3,2.68,.9,3.77,1.42,1.94,2.46,2.54c1.04,.6,2.21,.9,3.52,.9Z"/><path class="m" d="M1798.5,1011.1c-1.42,0-2.75-.21-3.98-.62-1.23-.42-2.19-.94-2.87-1.57l.75-1.31c.65,.57,1.53,1.05,2.62,1.46,1.09,.4,2.27,.61,3.54,.61,1.79,0,3.08-.29,3.87-.88,.79-.59,1.18-1.37,1.18-2.33,0-.7-.2-1.25-.61-1.65-.4-.4-.95-.71-1.62-.93-.68-.22-1.42-.4-2.23-.54-.81-.14-1.62-.3-2.42-.47-.81-.17-1.55-.43-2.23-.75-.68-.33-1.22-.78-1.62-1.36-.4-.58-.61-1.35-.61-2.31,0-.87,.24-1.66,.72-2.36,.48-.7,1.2-1.26,2.16-1.69,.96-.43,2.16-.64,3.6-.64,1.07,0,2.14,.15,3.23,.46,1.08,.31,1.96,.71,2.64,1.21l-.75,1.31c-.72-.55-1.53-.94-2.42-1.18s-1.8-.36-2.72-.36c-1.66,0-2.88,.31-3.65,.92-.78,.61-1.16,1.38-1.16,2.29,0,.72,.2,1.29,.61,1.72,.4,.43,.94,.75,1.62,.98,.68,.23,1.42,.42,2.23,.56,.81,.14,1.62,.3,2.42,.47s1.55,.42,2.23,.74,1.22,.75,1.62,1.31c.4,.56,.61,1.3,.61,2.24s-.26,1.76-.77,2.46c-.51,.7-1.27,1.25-2.28,1.64-1.01,.39-2.24,.59-3.7,.59Z"/><path class="m" d="M1809.83,1010.97v-24.31h1.64v24.31h-1.64Z"/><path class="m" d="M1825.07,1011.1c-1.64,0-3.1-.37-4.37-1.11-1.28-.74-2.29-1.77-3.05-3.08-.75-1.31-1.13-2.81-1.13-4.49s.38-3.21,1.13-4.5c.75-1.3,1.77-2.32,3.05-3.06,1.28-.74,2.74-1.11,4.37-1.11s3.1,.37,4.39,1.11c1.29,.74,2.3,1.76,3.05,3.06,.74,1.3,1.11,2.8,1.11,4.5s-.37,3.18-1.11,4.49c-.74,1.31-1.76,2.34-3.05,3.08-1.29,.74-2.75,1.11-4.39,1.11Zm0-1.47c1.31,0,2.49-.3,3.54-.9,1.05-.6,1.87-1.45,2.46-2.54,.59-1.09,.88-2.35,.88-3.77s-.29-2.7-.88-3.78c-.59-1.08-1.41-1.92-2.46-2.52-1.05-.6-2.23-.9-3.54-.9s-2.49,.3-3.52,.9c-1.04,.6-1.86,1.44-2.46,2.52-.6,1.08-.9,2.34-.9,3.78s.3,2.68,.9,3.77,1.42,1.94,2.46,2.54c1.04,.6,2.21,.9,3.52,.9Z"/><path class="m" d="M1842.53,1010.97l-7.7-17.1h1.74l7.21,16.18h-.79l7.27-16.18h1.67l-7.73,17.1h-1.67Z"/><path class="m" d="M1859.59,1011.1c-1.27,0-2.36-.2-3.29-.61-.93-.4-1.64-.98-2.13-1.72-.49-.74-.74-1.59-.74-2.56,0-.87,.2-1.67,.61-2.38,.4-.71,1.08-1.29,2.01-1.74,.94-.45,2.2-.67,3.77-.67h6.29v1.28h-6.26c-1.77,0-3.01,.33-3.72,.98-.71,.66-1.06,1.47-1.06,2.46,0,1.09,.41,1.97,1.24,2.62,.83,.65,2,.98,3.51,.98s2.66-.33,3.65-.98c.99-.66,1.73-1.61,2.21-2.85l.46,1.11c-.46,1.24-1.24,2.23-2.34,2.96-1.1,.73-2.51,1.1-4.21,1.1Zm6.16-.13v-3.9l-.07-.59v-6.42c0-1.59-.43-2.81-1.29-3.64-.86-.83-2.12-1.24-3.78-1.24-1.18,0-2.28,.2-3.29,.61-1.02,.4-1.88,.92-2.6,1.56l-.82-1.18c.85-.76,1.88-1.36,3.08-1.79,1.2-.43,2.46-.64,3.77-.64,2.12,0,3.75,.54,4.88,1.6,1.14,1.07,1.7,2.67,1.7,4.78v10.84h-1.57Z"/><path class="m" d="M1874.07,1010.97v-24.31h1.64v24.31h-1.64Zm1.25-4.72l.03-2.06,11.3-10.32h2.1l-7.5,7.04-.98,.82-4.95,4.52Zm12.12,4.72l-7.47-9.37,1.11-1.21,8.39,10.58h-2.03Z"/><path class="m" d="M1894.15,989.71c-.37,0-.69-.13-.95-.39s-.39-.57-.39-.92c0-.37,.13-.69,.39-.95s.58-.39,.95-.39c.39,0,.71,.12,.97,.38,.25,.25,.38,.56,.38,.93s-.13,.69-.38,.95c-.25,.26-.57,.39-.97,.39Zm-.82,21.26v-17.1h1.64v17.1h-1.64Z"/><path class="m" d="M1906.5,1011.1c-1.27,0-2.36-.2-3.29-.61-.93-.4-1.64-.98-2.13-1.72-.49-.74-.74-1.59-.74-2.56,0-.87,.2-1.67,.61-2.38,.4-.71,1.08-1.29,2.01-1.74,.94-.45,2.19-.67,3.77-.67h6.29v1.28h-6.26c-1.77,0-3.01,.33-3.72,.98s-1.06,1.47-1.06,2.46c0,1.09,.42,1.97,1.25,2.62,.83,.65,2,.98,3.5,.98s2.66-.33,3.65-.98c.99-.66,1.73-1.61,2.21-2.85l.46,1.11c-.46,1.24-1.24,2.23-2.34,2.96-1.1,.73-2.51,1.1-4.21,1.1Zm6.16-.13v-3.9l-.06-.59v-6.42c0-1.59-.43-2.81-1.29-3.64-.86-.83-2.12-1.24-3.78-1.24-1.18,0-2.28,.2-3.29,.61-1.01,.4-1.88,.92-2.6,1.56l-.82-1.18c.85-.76,1.88-1.36,3.08-1.79s2.46-.64,3.77-.64c2.12,0,3.75,.54,4.88,1.6,1.13,1.07,1.7,2.67,1.7,4.78v10.84h-1.57Z"/></g><g><path class="m" d="M1445.92,1011.13c-1.7,0-3.31-.29-4.83-.87-1.52-.58-2.69-1.33-3.52-2.24l.75-1.25c.79,.81,1.86,1.49,3.23,2.05,1.36,.56,2.81,.83,4.34,.83s2.78-.2,3.75-.61,1.69-.94,2.16-1.62c.47-.68,.71-1.43,.71-2.26,0-.98-.26-1.77-.79-2.36-.52-.59-1.21-1.06-2.06-1.41-.85-.35-1.78-.64-2.78-.88-1-.24-2.02-.5-3.05-.77-1.03-.27-1.96-.63-2.82-1.06s-1.54-1.03-2.05-1.79c-.51-.75-.77-1.73-.77-2.93,0-1.09,.28-2.1,.85-3.01,.57-.92,1.45-1.66,2.65-2.23,1.2-.57,2.74-.85,4.62-.85,1.27,0,2.52,.19,3.75,.56,1.23,.37,2.29,.87,3.16,1.51l-.62,1.34c-.96-.66-1.99-1.14-3.1-1.46-1.1-.32-2.17-.47-3.19-.47-1.46,0-2.68,.21-3.64,.62s-1.67,.97-2.13,1.65-.69,1.46-.69,2.31c0,.98,.26,1.77,.77,2.36,.51,.59,1.2,1.06,2.05,1.41,.85,.35,1.79,.64,2.82,.88,1.03,.24,2.04,.5,3.05,.77,1,.27,1.93,.63,2.79,1.07s1.54,1.03,2.06,1.77c.52,.74,.79,1.7,.79,2.88,0,1.07-.29,2.07-.88,3-.59,.93-1.49,1.67-2.7,2.23-1.21,.56-2.77,.84-4.67,.84Z"/><path class="m" d="M1466,1011.1c-1.64,0-3.1-.37-4.37-1.11s-2.29-1.77-3.05-3.08c-.75-1.31-1.13-2.81-1.13-4.49s.38-3.21,1.13-4.5c.75-1.3,1.77-2.32,3.05-3.06,1.28-.74,2.73-1.11,4.37-1.11s3.1,.37,4.39,1.11c1.29,.74,2.3,1.76,3.05,3.06,.74,1.3,1.11,2.8,1.11,4.5s-.37,3.18-1.11,4.49c-.74,1.31-1.76,2.34-3.05,3.08-1.29,.74-2.75,1.11-4.39,1.11Zm0-1.47c1.31,0,2.49-.3,3.54-.9,1.05-.6,1.87-1.45,2.46-2.54s.88-2.35,.88-3.77-.29-2.7-.88-3.78c-.59-1.08-1.41-1.92-2.46-2.52-1.05-.6-2.23-.9-3.54-.9s-2.48,.3-3.52,.9-1.86,1.44-2.46,2.52c-.6,1.08-.9,2.34-.9,3.78s.3,2.68,.9,3.77c.6,1.09,1.42,1.94,2.46,2.54,1.04,.6,2.21,.9,3.52,.9Z"/><path class="m" d="M1483.46,1010.97l-7.7-17.1h1.74l7.21,16.18h-.79l7.27-16.18h1.67l-7.73,17.1h-1.67Z"/><path class="m" d="M1497.25,989.71c-.37,0-.69-.13-.95-.39s-.39-.57-.39-.92c0-.37,.13-.69,.39-.95s.58-.39,.95-.39c.39,0,.71,.12,.97,.38,.25,.25,.38,.56,.38,.93s-.13,.69-.38,.95-.57,.39-.97,.39Zm-.82,21.26v-17.1h1.64v17.1h-1.64Z"/><path class="m" d="M1511.92,1011.1c-1.72,0-3.25-.37-4.57-1.11s-2.36-1.77-3.11-3.08c-.75-1.31-1.13-2.81-1.13-4.49s.35-3.21,1.07-4.5c.71-1.3,1.69-2.32,2.93-3.06,1.24-.74,2.64-1.11,4.19-1.11s2.94,.36,4.18,1.08,2.21,1.73,2.92,3.03c.71,1.3,1.06,2.8,1.06,4.5,0,.07,0,.14-.02,.21s-.02,.16-.02,.25h-15.1v-1.28h14.22l-.65,.62c.02-1.33-.26-2.53-.84-3.59-.58-1.06-1.36-1.89-2.34-2.49s-2.12-.9-3.41-.9-2.4,.3-3.39,.9c-.99,.6-1.78,1.43-2.34,2.49-.57,1.06-.85,2.27-.85,3.62v.29c0,1.4,.31,2.64,.93,3.72s1.48,1.92,2.57,2.52c1.09,.6,2.34,.9,3.73,.9,1.09,0,2.11-.2,3.06-.59,.95-.39,1.75-.99,2.41-1.8l.95,1.08c-.74,.92-1.68,1.61-2.8,2.08-1.12,.47-2.34,.7-3.65,.7Z"/><path class="m" d="M1521.72,995.28v-1.41h10.22v1.41h-10.22Zm7.8,15.82c-1.51,0-2.66-.41-3.46-1.25-.8-.83-1.2-1.96-1.2-3.41v-16.31h1.64v16.15c0,1.09,.27,1.93,.82,2.52,.54,.59,1.33,.88,2.36,.88s1.95-.32,2.65-.95l.69,1.15c-.44,.42-.97,.72-1.59,.92-.62,.2-1.26,.29-1.92,.29Z"/><path class="m" d="M1555.49,1011.13c-2.84,0-5.08-.83-6.72-2.49-1.64-1.66-2.46-4.13-2.46-7.4v-13.2h1.67v13.14c0,2.86,.66,4.98,1.96,6.36,1.31,1.38,3.17,2.06,5.57,2.06s4.23-.69,5.54-2.06,1.97-3.49,1.97-6.36v-13.14h1.67v13.2c0,3.28-.82,5.74-2.46,7.4-1.64,1.66-3.89,2.49-6.75,2.49Z"/><path class="m" d="M1580.32,993.74c1.4,0,2.62,.27,3.65,.8,1.04,.54,1.85,1.34,2.42,2.42,.58,1.08,.87,2.42,.87,4.01v9.99h-1.64v-9.86c0-1.92-.49-3.38-1.46-4.39-.97-1-2.33-1.51-4.08-1.51-1.33,0-2.49,.27-3.47,.82-.98,.55-1.73,1.31-2.24,2.29-.51,.98-.77,2.16-.77,3.54v9.11h-1.64v-17.1h1.57v4.75l-.23-.52c.52-1.35,1.39-2.42,2.59-3.19,1.2-.77,2.67-1.16,4.42-1.16Z"/><path class="m" d="M1594.83,989.71c-.37,0-.69-.13-.95-.39s-.39-.57-.39-.92c0-.37,.13-.69,.39-.95s.58-.39,.95-.39c.39,0,.71,.12,.97,.38,.25,.25,.38,.56,.38,.93s-.13,.69-.38,.95c-.25,.26-.57,.39-.97,.39Zm-.82,21.26v-17.1h1.64v17.1h-1.64Z"/><path class="m" d="M1609.25,1011.1c-1.64,0-3.1-.37-4.37-1.11-1.28-.74-2.29-1.77-3.05-3.08-.75-1.31-1.13-2.81-1.13-4.49s.38-3.21,1.13-4.5c.75-1.3,1.77-2.32,3.05-3.06,1.28-.74,2.74-1.11,4.37-1.11s3.1,.37,4.39,1.11c1.29,.74,2.3,1.76,3.05,3.06,.74,1.3,1.11,2.8,1.11,4.5s-.37,3.18-1.11,4.49c-.74,1.31-1.76,2.34-3.05,3.08s-2.75,1.11-4.39,1.11Zm0-1.47c1.31,0,2.49-.3,3.54-.9,1.05-.6,1.87-1.45,2.46-2.54s.88-2.35,.88-3.77-.29-2.7-.88-3.78c-.59-1.08-1.41-1.92-2.46-2.52s-2.23-.9-3.54-.9-2.49,.3-3.52,.9c-1.04,.6-1.86,1.44-2.46,2.52-.6,1.08-.9,2.34-.9,3.78s.3,2.68,.9,3.77c.6,1.09,1.42,1.94,2.46,2.54,1.04,.6,2.21,.9,3.52,.9Z"/><path class="m" d="M1631.23,993.74c1.4,0,2.62,.27,3.65,.8,1.04,.54,1.84,1.34,2.42,2.42,.58,1.08,.87,2.42,.87,4.01v9.99h-1.64v-9.86c0-1.92-.49-3.38-1.46-4.39-.97-1-2.33-1.51-4.08-1.51-1.33,0-2.49,.27-3.47,.82-.98,.55-1.73,1.31-2.24,2.29-.51,.98-.77,2.16-.77,3.54v9.11h-1.64v-17.1h1.57v4.75l-.23-.52c.53-1.35,1.39-2.42,2.59-3.19,1.2-.77,2.68-1.16,4.42-1.16Z"/></g><g><path class="m" d="M1963.89,1010.97v-22.93h8.22c1.92,0,3.57,.31,4.95,.92,1.38,.61,2.43,1.49,3.18,2.64,.74,1.15,1.11,2.54,1.11,4.18s-.37,2.96-1.11,4.11c-.74,1.15-1.8,2.03-3.18,2.65-1.38,.62-3.03,.93-4.95,.93h-7.3l.75-.79v8.29h-1.67Zm1.67-8.19l-.75-.79h7.3c2.47,0,4.34-.55,5.62-1.64,1.28-1.09,1.92-2.62,1.92-4.59s-.64-3.52-1.92-4.6c-1.28-1.08-3.15-1.62-5.62-1.62h-7.3l.75-.82v14.05Zm14.25,8.19l-5.96-8.32h1.9l5.96,8.32h-1.9Z"/><path class="m" d="M1993.63,1011.1c-1.64,0-3.1-.37-4.37-1.11-1.28-.74-2.29-1.77-3.05-3.08-.75-1.31-1.13-2.81-1.13-4.49s.38-3.21,1.13-4.5c.75-1.3,1.77-2.32,3.05-3.06,1.28-.74,2.74-1.11,4.37-1.11s3.1,.37,4.39,1.11c1.29,.74,2.3,1.76,3.05,3.06,.74,1.3,1.11,2.8,1.11,4.5s-.37,3.18-1.11,4.49c-.74,1.31-1.76,2.34-3.05,3.08-1.29,.74-2.75,1.11-4.39,1.11Zm0-1.47c1.31,0,2.49-.3,3.54-.9,1.05-.6,1.87-1.45,2.46-2.54,.59-1.09,.88-2.35,.88-3.77s-.29-2.7-.88-3.78c-.59-1.08-1.41-1.92-2.46-2.52-1.05-.6-2.23-.9-3.54-.9s-2.49,.3-3.52,.9c-1.04,.6-1.86,1.44-2.46,2.52-.6,1.08-.9,2.34-.9,3.78s.3,2.68,.9,3.77,1.42,1.94,2.46,2.54c1.04,.6,2.21,.9,3.52,.9Z"/><path class="m" d="M2028.55,993.74c1.38,0,2.57,.27,3.59,.8,1.02,.54,1.81,1.34,2.38,2.42s.85,2.42,.85,4.01v9.99h-1.64v-9.86c0-1.92-.47-3.38-1.41-4.39-.94-1-2.25-1.51-3.93-1.51-1.29,0-2.4,.27-3.34,.82-.94,.55-1.66,1.31-2.16,2.29-.5,.98-.75,2.16-.75,3.54v9.11h-1.64v-9.86c0-1.92-.47-3.38-1.41-4.39-.94-1-2.25-1.51-3.93-1.51-1.29,0-2.4,.27-3.34,.82-.94,.55-1.66,1.31-2.16,2.29-.5,.98-.75,2.16-.75,3.54v9.11h-1.64v-17.1h1.57v4.72l-.23-.52c.5-1.33,1.34-2.39,2.52-3.16,1.18-.77,2.6-1.16,4.26-1.16s3.14,.43,4.31,1.29c1.17,.86,1.9,2.15,2.21,3.85l-.56-.23c.46-1.46,1.32-2.65,2.59-3.55,1.27-.91,2.8-1.36,4.62-1.36Z"/><path class="m" d="M2046.73,1011.1c-1.27,0-2.36-.2-3.29-.61-.93-.4-1.64-.98-2.13-1.72-.49-.74-.74-1.59-.74-2.56,0-.87,.2-1.67,.61-2.38,.4-.71,1.08-1.29,2.01-1.74,.94-.45,2.19-.67,3.77-.67h6.29v1.28h-6.26c-1.77,0-3.01,.33-3.72,.98s-1.06,1.47-1.06,2.46c0,1.09,.42,1.97,1.25,2.62,.83,.65,2,.98,3.5,.98s2.66-.33,3.65-.98c.99-.66,1.73-1.61,2.21-2.85l.46,1.11c-.46,1.24-1.24,2.23-2.34,2.96-1.1,.73-2.51,1.1-4.21,1.1Zm6.16-.13v-3.9l-.06-.59v-6.42c0-1.59-.43-2.81-1.29-3.64-.86-.83-2.12-1.24-3.78-1.24-1.18,0-2.28,.2-3.29,.61-1.01,.4-1.88,.92-2.6,1.56l-.82-1.18c.85-.76,1.88-1.36,3.08-1.79s2.46-.64,3.77-.64c2.12,0,3.75,.54,4.88,1.6,1.13,1.07,1.7,2.67,1.7,4.78v10.84h-1.57Z"/><path class="m" d="M2069.56,993.74c1.4,0,2.62,.27,3.65,.8,1.04,.54,1.84,1.34,2.42,2.42s.87,2.42,.87,4.01v9.99h-1.64v-9.86c0-1.92-.49-3.38-1.46-4.39-.97-1-2.33-1.51-4.08-1.51-1.33,0-2.49,.27-3.47,.82s-1.73,1.31-2.24,2.29c-.51,.98-.77,2.16-.77,3.54v9.11h-1.64v-17.1h1.57v4.75l-.23-.52c.52-1.35,1.39-2.42,2.59-3.19,1.2-.77,2.67-1.16,4.42-1.16Z"/><path class="m" d="M2084.08,989.71c-.37,0-.69-.13-.95-.39-.26-.26-.39-.57-.39-.92,0-.37,.13-.69,.39-.95,.26-.26,.58-.39,.95-.39,.39,0,.71,.12,.97,.38,.25,.25,.38,.56,.38,.93s-.13,.69-.38,.95c-.25,.26-.57,.39-.97,.39Zm-.82,21.26v-17.1h1.64v17.1h-1.64Z"/><path class="m" d="M2096.43,1011.1c-1.27,0-2.36-.2-3.29-.61-.93-.4-1.64-.98-2.13-1.72-.49-.74-.74-1.59-.74-2.56,0-.87,.2-1.67,.61-2.38,.4-.71,1.08-1.29,2.01-1.74,.94-.45,2.19-.67,3.77-.67h6.29v1.28h-6.26c-1.77,0-3.01,.33-3.72,.98s-1.06,1.47-1.06,2.46c0,1.09,.42,1.97,1.25,2.62,.83,.65,2,.98,3.5,.98s2.66-.33,3.65-.98c.99-.66,1.73-1.61,2.21-2.85l.46,1.11c-.46,1.24-1.24,2.23-2.34,2.96-1.1,.73-2.51,1.1-4.21,1.1Zm6.16-.13v-3.9l-.06-.59v-6.42c0-1.59-.43-2.81-1.29-3.64-.86-.83-2.12-1.24-3.78-1.24-1.18,0-2.28,.2-3.29,.61-1.01,.4-1.88,.92-2.6,1.56l-.82-1.18c.85-.76,1.88-1.36,3.08-1.79s2.46-.64,3.77-.64c2.12,0,3.75,.54,4.88,1.6,1.13,1.07,1.7,2.67,1.7,4.78v10.84h-1.57Z"/></g><g><path class="m" d="M2288.29,1010.97v-8.32l.39,1.08-9.63-15.69h1.83l8.75,14.25h-.92l8.75-14.25h1.74l-9.63,15.69,.39-1.08v8.32h-1.67Z"/><path class="m" d="M2308.64,1011.1c-1.46,0-2.73-.27-3.8-.8-1.07-.53-1.89-1.34-2.47-2.42-.58-1.08-.87-2.42-.87-4.01v-9.99h1.64v9.86c0,1.92,.49,3.38,1.47,4.39,.98,1,2.37,1.51,4.16,1.51,1.29,0,2.4-.27,3.34-.82,.94-.55,1.66-1.32,2.16-2.31,.5-.99,.75-2.17,.75-3.52v-9.11h1.64v17.1h-1.57v-4.75l.23,.56c-.5,1.33-1.34,2.39-2.51,3.16-1.17,.78-2.56,1.16-4.18,1.16Z"/><path class="m" d="M2330.26,1010.35c-1.62,0-3.06-.36-4.34-1.07-1.28-.71-2.29-1.69-3.05-2.95-.75-1.25-1.13-2.69-1.13-4.31s.38-3.08,1.13-4.32c.75-1.24,1.77-2.22,3.05-2.92,1.28-.7,2.72-1.05,4.34-1.05s2.94,.33,4.18,1,2.21,1.62,2.93,2.85c.72,1.23,1.08,2.71,1.08,4.44s-.36,3.18-1.08,4.42-1.7,2.21-2.93,2.88-2.63,1.02-4.18,1.02Zm.46,7.11c-1.55,0-3.03-.24-4.42-.72-1.4-.48-2.53-1.15-3.41-2l.88-1.25c.85,.79,1.87,1.4,3.06,1.83,1.19,.44,2.47,.66,3.85,.66,2.29,0,3.98-.54,5.06-1.6,1.08-1.07,1.62-2.75,1.62-5.04v-4.75l.33-2.56-.26-2.55v-5.6h1.57v15.27c0,2.86-.69,4.96-2.08,6.31-1.39,1.34-3.46,2.01-6.21,2.01Zm-.33-8.58c1.38,0,2.59-.29,3.64-.87,1.05-.58,1.87-1.39,2.47-2.42,.6-1.04,.9-2.22,.9-3.55s-.3-2.54-.9-3.57c-.6-1.03-1.42-1.82-2.47-2.39-1.05-.57-2.26-.85-3.64-.85s-2.53,.28-3.59,.85c-1.06,.57-1.89,1.37-2.49,2.39-.6,1.03-.9,2.22-.9,3.57s.3,2.52,.9,3.55c.6,1.04,1.43,1.85,2.49,2.42,1.06,.58,2.25,.87,3.59,.87Z"/><path class="m" d="M2352.63,1011.1c-1.64,0-3.1-.37-4.37-1.11-1.28-.74-2.29-1.77-3.05-3.08-.75-1.31-1.13-2.81-1.13-4.49s.38-3.21,1.13-4.5c.75-1.3,1.77-2.32,3.05-3.06,1.28-.74,2.74-1.11,4.37-1.11s3.1,.37,4.39,1.11c1.29,.74,2.3,1.76,3.05,3.06,.74,1.3,1.11,2.8,1.11,4.5s-.37,3.18-1.11,4.49c-.74,1.31-1.76,2.34-3.05,3.08-1.29,.74-2.75,1.11-4.39,1.11Zm0-1.47c1.31,0,2.49-.3,3.54-.9,1.05-.6,1.87-1.45,2.46-2.54,.59-1.09,.88-2.35,.88-3.77s-.29-2.7-.88-3.78c-.59-1.08-1.41-1.92-2.46-2.52-1.05-.6-2.23-.9-3.54-.9s-2.49,.3-3.52,.9c-1.04,.6-1.86,1.44-2.46,2.52-.6,1.08-.9,2.34-.9,3.78s.3,2.68,.9,3.77,1.42,1.94,2.46,2.54c1.04,.6,2.21,.9,3.52,.9Z"/><path class="m" d="M2370.58,1011.1c-1.42,0-2.75-.21-3.98-.62-1.23-.42-2.19-.94-2.87-1.57l.75-1.31c.65,.57,1.53,1.05,2.62,1.46,1.09,.4,2.27,.61,3.54,.61,1.79,0,3.08-.29,3.87-.88,.79-.59,1.18-1.37,1.18-2.33,0-.7-.2-1.25-.61-1.65-.4-.4-.95-.71-1.62-.93-.68-.22-1.42-.4-2.23-.54-.81-.14-1.62-.3-2.42-.47-.81-.17-1.55-.43-2.23-.75-.68-.33-1.22-.78-1.62-1.36-.4-.58-.61-1.35-.61-2.31,0-.87,.24-1.66,.72-2.36,.48-.7,1.2-1.26,2.16-1.69,.96-.43,2.16-.64,3.6-.64,1.07,0,2.14,.15,3.23,.46,1.08,.31,1.96,.71,2.64,1.21l-.75,1.31c-.72-.55-1.53-.94-2.42-1.18s-1.8-.36-2.72-.36c-1.66,0-2.88,.31-3.65,.92-.78,.61-1.16,1.38-1.16,2.29,0,.72,.2,1.29,.61,1.72,.4,.43,.94,.75,1.62,.98,.68,.23,1.42,.42,2.23,.56,.81,.14,1.62,.3,2.42,.47s1.55,.42,2.23,.74,1.22,.75,1.62,1.31c.4,.56,.61,1.3,.61,2.24s-.26,1.76-.77,2.46c-.51,.7-1.27,1.25-2.28,1.64-1.01,.39-2.24,.59-3.7,.59Z"/><path class="m" d="M2381.92,1010.97v-24.31h1.64v24.31h-1.64Z"/><path class="m" d="M2395.08,1011.1c-1.27,0-2.36-.2-3.29-.61-.93-.4-1.64-.98-2.13-1.72-.49-.74-.74-1.59-.74-2.56,0-.87,.2-1.67,.61-2.38,.4-.71,1.08-1.29,2.01-1.74,.94-.45,2.19-.67,3.77-.67h6.29v1.28h-6.26c-1.77,0-3.01,.33-3.72,.98s-1.06,1.47-1.06,2.46c0,1.09,.42,1.97,1.25,2.62,.83,.65,2,.98,3.5,.98s2.66-.33,3.65-.98c.99-.66,1.73-1.61,2.21-2.85l.46,1.11c-.46,1.24-1.24,2.23-2.34,2.96-1.1,.73-2.51,1.1-4.21,1.1Zm6.16-.13v-3.9l-.06-.59v-6.42c0-1.59-.43-2.81-1.29-3.64-.86-.83-2.12-1.24-3.78-1.24-1.18,0-2.28,.2-3.29,.61-1.01,.4-1.88,.92-2.6,1.56l-.82-1.18c.85-.76,1.88-1.36,3.08-1.79s2.46-.64,3.77-.64c2.12,0,3.75,.54,4.88,1.6,1.13,1.07,1.7,2.67,1.7,4.78v10.84h-1.57Z"/><path class="m" d="M2413.56,1010.97l-7.7-17.1h1.74l7.21,16.18h-.79l7.27-16.18h1.67l-7.73,17.1h-1.67Z"/><path class="m" d="M2427.35,989.71c-.37,0-.69-.13-.95-.39s-.39-.57-.39-.92c0-.37,.13-.69,.39-.95s.58-.39,.95-.39c.39,0,.71,.12,.97,.38,.25,.25,.38,.56,.38,.93s-.13,.69-.38,.95-.57,.39-.97,.39Zm-.82,21.26v-17.1h1.64v17.1h-1.64Z"/><path class="m" d="M2439.7,1011.1c-1.27,0-2.36-.2-3.29-.61-.93-.4-1.64-.98-2.13-1.72-.49-.74-.74-1.59-.74-2.56,0-.87,.2-1.67,.61-2.38,.4-.71,1.08-1.29,2.01-1.74,.94-.45,2.2-.67,3.77-.67h6.29v1.28h-6.26c-1.77,0-3.01,.33-3.72,.98-.71,.66-1.06,1.47-1.06,2.46,0,1.09,.41,1.97,1.24,2.62,.83,.65,2,.98,3.51,.98s2.66-.33,3.65-.98c.99-.66,1.73-1.61,2.21-2.85l.46,1.11c-.46,1.24-1.24,2.23-2.34,2.96-1.1,.73-2.51,1.1-4.21,1.1Zm6.16-.13v-3.9l-.07-.59v-6.42c0-1.59-.43-2.81-1.29-3.64-.86-.83-2.12-1.24-3.78-1.24-1.18,0-2.28,.2-3.29,.61-1.02,.4-1.88,.92-2.6,1.56l-.82-1.18c.85-.76,1.88-1.36,3.08-1.79,1.2-.43,2.46-.64,3.77-.64,2.12,0,3.75,.54,4.88,1.6,1.14,1.07,1.7,2.67,1.7,4.78v10.84h-1.57Z"/></g><g><path class="m" d="M161.42,1011.13c-2.84,0-5.08-.83-6.72-2.49-1.64-1.66-2.46-4.13-2.46-7.4v-13.2h1.67v13.14c0,2.86,.66,4.98,1.97,6.36,1.31,1.38,3.17,2.06,5.57,2.06s4.23-.69,5.54-2.06c1.31-1.38,1.97-3.49,1.97-6.36v-13.14h1.67v13.2c0,3.28-.82,5.74-2.46,7.4-1.64,1.66-3.89,2.49-6.75,2.49Z"/><path class="m" d="M186.26,993.74c1.4,0,2.62,.27,3.65,.8,1.04,.54,1.85,1.34,2.42,2.42s.87,2.42,.87,4.01v9.99h-1.64v-9.86c0-1.92-.49-3.38-1.46-4.39-.97-1-2.33-1.51-4.08-1.51-1.33,0-2.49,.27-3.47,.82s-1.73,1.31-2.24,2.29c-.51,.98-.77,2.16-.77,3.54v9.11h-1.64v-17.1h1.57v4.75l-.23-.52c.52-1.35,1.39-2.42,2.59-3.19,1.2-.77,2.67-1.16,4.42-1.16Z"/><path class="m" d="M200.77,989.71c-.37,0-.69-.13-.95-.39s-.39-.57-.39-.92c0-.37,.13-.69,.39-.95s.58-.39,.95-.39c.39,0,.71,.12,.97,.38,.25,.25,.38,.56,.38,.93s-.13,.69-.38,.95c-.25,.26-.57,.39-.97,.39Zm-.82,21.26v-17.1h1.64v17.1h-1.64Z"/><path class="m" d="M205.68,995.28v-1.41h10.22v1.41h-10.22Zm7.8,15.82c-1.51,0-2.66-.41-3.46-1.25-.8-.83-1.2-1.96-1.2-3.41v-16.31h1.64v16.15c0,1.09,.27,1.93,.82,2.52,.55,.59,1.33,.88,2.36,.88s1.95-.32,2.65-.95l.69,1.15c-.44,.42-.97,.72-1.59,.92-.62,.2-1.26,.29-1.92,.29Z"/><path class="m" d="M227.86,1011.1c-1.73,0-3.25-.37-4.57-1.11s-2.36-1.77-3.11-3.08c-.75-1.31-1.13-2.81-1.13-4.49s.35-3.21,1.06-4.5c.71-1.3,1.69-2.32,2.93-3.06,1.25-.74,2.64-1.11,4.19-1.11s2.94,.36,4.18,1.08,2.21,1.73,2.92,3.03c.71,1.3,1.06,2.8,1.06,4.5,0,.07,0,.14-.02,.21-.01,.08-.02,.16-.02,.25h-15.1v-1.28h14.22l-.66,.62c.02-1.33-.26-2.53-.83-3.59-.58-1.06-1.36-1.89-2.34-2.49s-2.12-.9-3.41-.9-2.4,.3-3.39,.9c-.99,.6-1.77,1.43-2.34,2.49-.57,1.06-.85,2.27-.85,3.62v.29c0,1.4,.31,2.64,.93,3.72,.62,1.08,1.48,1.92,2.57,2.52,1.09,.6,2.34,.9,3.73,.9,1.09,0,2.11-.2,3.06-.59,.95-.39,1.75-.99,2.41-1.8l.95,1.08c-.74,.92-1.68,1.61-2.8,2.08-1.12,.47-2.34,.7-3.65,.7Z"/><path class="m" d="M247.05,1011.1c-1.59,0-3.03-.37-4.31-1.1-1.28-.73-2.29-1.75-3.03-3.06-.74-1.31-1.11-2.82-1.11-4.52s.37-3.24,1.11-4.54c.74-1.3,1.75-2.31,3.03-3.05,1.28-.73,2.71-1.1,4.31-1.1,1.51,0,2.87,.35,4.08,1.05,1.21,.7,2.17,1.69,2.88,2.98,.71,1.29,1.06,2.84,1.06,4.65s-.35,3.31-1.05,4.62c-.7,1.31-1.65,2.31-2.87,3.01s-2.58,1.05-4.11,1.05Zm.1-1.47c1.31,0,2.48-.3,3.52-.9,1.04-.6,1.86-1.45,2.46-2.54s.9-2.35,.9-3.77-.3-2.7-.9-3.78c-.6-1.08-1.42-1.92-2.46-2.52-1.04-.6-2.21-.9-3.52-.9s-2.48,.3-3.52,.9c-1.04,.6-1.86,1.44-2.46,2.52-.6,1.08-.9,2.34-.9,3.78s.3,2.68,.9,3.77c.6,1.09,1.42,1.94,2.46,2.54,1.04,.6,2.21,.9,3.52,.9Zm6.91,1.34v-5.6l.29-2.98-.33-2.98v-12.74h1.64v24.31h-1.61Z"/><path class="m" d="M271,1010.97v-24.31h1.64v24.31h-1.64Zm1.25-4.72l.03-2.06,11.3-10.32h2.1l-7.5,7.04-.98,.82-4.95,4.52Zm12.12,4.72l-7.47-9.37,1.11-1.21,8.39,10.58h-2.03Z"/><path class="m" d="M291.08,989.71c-.37,0-.69-.13-.95-.39s-.39-.57-.39-.92c0-.37,.13-.69,.39-.95s.58-.39,.95-.39c.39,0,.71,.12,.97,.38,.25,.25,.38,.56,.38,.93s-.13,.69-.38,.95c-.25,.26-.57,.39-.97,.39Zm-.82,21.26v-17.1h1.64v17.1h-1.64Z"/><path class="m" d="M307.16,993.74c1.4,0,2.62,.27,3.65,.8,1.04,.54,1.85,1.34,2.42,2.42s.87,2.42,.87,4.01v9.99h-1.64v-9.86c0-1.92-.49-3.38-1.46-4.39-.97-1-2.33-1.51-4.08-1.51-1.33,0-2.49,.27-3.47,.82s-1.73,1.31-2.24,2.29c-.51,.98-.77,2.16-.77,3.54v9.11h-1.64v-17.1h1.57v4.75l-.23-.52c.52-1.35,1.39-2.42,2.59-3.19,1.2-.77,2.67-1.16,4.42-1.16Z"/><path class="m" d="M327.51,1010.35c-1.62,0-3.06-.36-4.34-1.07-1.28-.71-2.29-1.69-3.05-2.95-.75-1.25-1.13-2.69-1.13-4.31s.38-3.08,1.13-4.32c.75-1.24,1.77-2.22,3.05-2.92,1.28-.7,2.72-1.05,4.34-1.05s2.94,.33,4.18,1,2.21,1.62,2.93,2.85c.72,1.23,1.08,2.71,1.08,4.44s-.36,3.18-1.08,4.42-1.7,2.21-2.93,2.88-2.63,1.02-4.18,1.02Zm.46,7.11c-1.55,0-3.03-.24-4.42-.72-1.4-.48-2.53-1.15-3.41-2l.88-1.25c.85,.79,1.87,1.4,3.06,1.83,1.19,.44,2.47,.66,3.85,.66,2.29,0,3.98-.54,5.06-1.6,1.08-1.07,1.62-2.75,1.62-5.04v-4.75l.33-2.56-.26-2.55v-5.6h1.57v15.27c0,2.86-.69,4.96-2.08,6.31-1.39,1.34-3.46,2.01-6.21,2.01Zm-.33-8.58c1.38,0,2.59-.29,3.64-.87,1.05-.58,1.87-1.39,2.47-2.42,.6-1.04,.9-2.22,.9-3.55s-.3-2.54-.9-3.57c-.6-1.03-1.42-1.82-2.47-2.39-1.05-.57-2.26-.85-3.64-.85s-2.53,.28-3.59,.85c-1.06,.57-1.89,1.37-2.49,2.39-.6,1.03-.9,2.22-.9,3.57s.3,2.52,.9,3.55c.6,1.04,1.43,1.85,2.49,2.42,1.06,.58,2.25,.87,3.59,.87Z"/><path class="m" d="M349.78,1011.1c-1.59,0-3.03-.37-4.31-1.1-1.28-.73-2.29-1.75-3.03-3.06-.74-1.31-1.11-2.82-1.11-4.52s.37-3.24,1.11-4.54c.74-1.3,1.75-2.31,3.03-3.05,1.28-.73,2.71-1.1,4.31-1.1,1.51,0,2.87,.35,4.08,1.05,1.21,.7,2.17,1.69,2.88,2.98,.71,1.29,1.06,2.84,1.06,4.65s-.35,3.31-1.05,4.62c-.7,1.31-1.65,2.31-2.87,3.01s-2.58,1.05-4.11,1.05Zm.1-1.47c1.31,0,2.48-.3,3.52-.9,1.04-.6,1.86-1.45,2.46-2.54s.9-2.35,.9-3.77-.3-2.7-.9-3.78c-.6-1.08-1.42-1.92-2.46-2.52-1.04-.6-2.21-.9-3.52-.9s-2.48,.3-3.52,.9c-1.04,.6-1.86,1.44-2.46,2.52-.6,1.08-.9,2.34-.9,3.78s.3,2.68,.9,3.77c.6,1.09,1.42,1.94,2.46,2.54,1.04,.6,2.21,.9,3.52,.9Zm6.91,1.34v-5.6l.29-2.98-.33-2.98v-12.74h1.64v24.31h-1.61Z"/><path class="m" d="M371.99,1011.1c-1.64,0-3.1-.37-4.37-1.11-1.28-.74-2.29-1.77-3.05-3.08-.75-1.31-1.13-2.81-1.13-4.49s.38-3.21,1.13-4.5c.75-1.3,1.77-2.32,3.05-3.06,1.28-.74,2.74-1.11,4.37-1.11s3.1,.37,4.39,1.11c1.29,.74,2.3,1.76,3.05,3.06,.74,1.3,1.11,2.8,1.11,4.5s-.37,3.18-1.11,4.49c-.74,1.31-1.76,2.34-3.05,3.08-1.29,.74-2.75,1.11-4.39,1.11Zm0-1.47c1.31,0,2.49-.3,3.54-.9,1.05-.6,1.87-1.45,2.46-2.54,.59-1.09,.88-2.35,.88-3.77s-.29-2.7-.88-3.78c-.59-1.08-1.41-1.92-2.46-2.52s-2.23-.9-3.54-.9-2.48,.3-3.52,.9c-1.04,.6-1.86,1.44-2.46,2.52-.6,1.08-.9,2.34-.9,3.78s.3,2.68,.9,3.77c.6,1.09,1.42,1.94,2.46,2.54,1.04,.6,2.21,.9,3.52,.9Z"/><path class="m" d="M406.91,993.74c1.38,0,2.57,.27,3.59,.8,1.02,.54,1.81,1.34,2.37,2.42s.85,2.42,.85,4.01v9.99h-1.64v-9.86c0-1.92-.47-3.38-1.41-4.39-.94-1-2.25-1.51-3.93-1.51-1.29,0-2.4,.27-3.34,.82-.94,.55-1.66,1.31-2.16,2.29-.5,.98-.75,2.16-.75,3.54v9.11h-1.64v-9.86c0-1.92-.47-3.38-1.41-4.39-.94-1-2.25-1.51-3.93-1.51-1.29,0-2.4,.27-3.34,.82-.94,.55-1.66,1.31-2.16,2.29-.5,.98-.75,2.16-.75,3.54v9.11h-1.64v-17.1h1.57v4.72l-.23-.52c.5-1.33,1.34-2.39,2.52-3.16,1.18-.77,2.6-1.16,4.26-1.16s3.14,.43,4.31,1.29c1.17,.86,1.9,2.15,2.21,3.85l-.56-.23c.46-1.46,1.32-2.65,2.59-3.55,1.27-.91,2.81-1.36,4.62-1.36Z"/></g><g><path class="m" d="M454.56,1010.97h-1.67v-22.93h15.33v1.51h-13.66v21.42Zm-.2-11.63h12.42v1.51h-12.42v-1.51Z"/><path class="m" d="M472.71,1010.97v-17.1h1.57v4.68l-.16-.52c.48-1.38,1.29-2.43,2.42-3.18,1.14-.74,2.56-1.11,4.26-1.11v1.6c-.07,0-.13,0-.2-.02s-.13-.02-.2-.02c-1.9,0-3.39,.59-4.46,1.79-1.07,1.19-1.6,2.84-1.6,4.96v8.91h-1.64Z"/><path class="m" d="M488.66,1011.1c-1.27,0-2.36-.2-3.29-.61-.93-.4-1.64-.98-2.13-1.72-.49-.74-.74-1.59-.74-2.56,0-.87,.2-1.67,.61-2.38,.4-.71,1.08-1.29,2.01-1.74,.94-.45,2.19-.67,3.77-.67h6.29v1.28h-6.26c-1.77,0-3.01,.33-3.72,.98-.71,.66-1.06,1.47-1.06,2.46,0,1.09,.41,1.97,1.24,2.62,.83,.65,2,.98,3.51,.98s2.66-.33,3.65-.98c.99-.66,1.73-1.61,2.21-2.85l.46,1.11c-.46,1.24-1.24,2.23-2.34,2.96-1.1,.73-2.51,1.1-4.21,1.1Zm6.16-.13v-3.9l-.07-.59v-6.42c0-1.59-.43-2.81-1.29-3.64-.86-.83-2.12-1.24-3.78-1.24-1.18,0-2.28,.2-3.29,.61-1.02,.4-1.88,.92-2.6,1.56l-.82-1.18c.85-.76,1.88-1.36,3.08-1.79,1.2-.43,2.46-.64,3.77-.64,2.12,0,3.75,.54,4.88,1.6,1.14,1.07,1.7,2.67,1.7,4.78v10.84h-1.57Z"/><path class="m" d="M511.49,993.74c1.4,0,2.62,.27,3.65,.8,1.04,.54,1.85,1.34,2.42,2.42s.87,2.42,.87,4.01v9.99h-1.64v-9.86c0-1.92-.49-3.38-1.46-4.39-.97-1-2.33-1.51-4.08-1.51-1.33,0-2.49,.27-3.47,.82s-1.73,1.31-2.24,2.29c-.51,.98-.77,2.16-.77,3.54v9.11h-1.64v-17.1h1.57v4.75l-.23-.52c.52-1.35,1.39-2.42,2.59-3.19,1.2-.77,2.67-1.16,4.42-1.16Z"/><path class="m" d="M531.97,1011.1c-1.66,0-3.14-.37-4.44-1.11s-2.33-1.77-3.08-3.08c-.75-1.31-1.13-2.81-1.13-4.49s.38-3.21,1.13-4.52,1.78-2.33,3.08-3.06c1.3-.73,2.78-1.1,4.44-1.1,1.38,0,2.63,.26,3.75,.79,1.12,.52,2.04,1.31,2.73,2.36l-1.21,.88c-.61-.87-1.38-1.52-2.29-1.93-.92-.41-1.91-.62-2.98-.62-1.33,0-2.53,.3-3.59,.9-1.06,.6-1.89,1.44-2.49,2.52-.6,1.08-.9,2.34-.9,3.78s.3,2.7,.9,3.78c.6,1.08,1.43,1.92,2.49,2.52,1.06,.6,2.25,.9,3.59,.9,1.07,0,2.06-.21,2.98-.62,.92-.41,1.68-1.06,2.29-1.93l1.21,.88c-.7,1.05-1.61,1.83-2.73,2.36-1.13,.52-2.38,.79-3.75,.79Z"/><path class="m" d="M550.02,1011.1c-1.73,0-3.25-.37-4.57-1.11s-2.36-1.77-3.11-3.08c-.75-1.31-1.13-2.81-1.13-4.49s.35-3.21,1.06-4.5c.71-1.3,1.69-2.32,2.93-3.06,1.25-.74,2.64-1.11,4.19-1.11s2.94,.36,4.18,1.08,2.21,1.73,2.92,3.03c.71,1.3,1.06,2.8,1.06,4.5,0,.07,0,.14-.02,.21-.01,.08-.02,.16-.02,.25h-15.1v-1.28h14.22l-.66,.62c.02-1.33-.26-2.53-.83-3.59-.58-1.06-1.36-1.89-2.34-2.49s-2.12-.9-3.41-.9-2.4,.3-3.39,.9c-.99,.6-1.77,1.43-2.34,2.49-.57,1.06-.85,2.27-.85,3.62v.29c0,1.4,.31,2.64,.93,3.72,.62,1.08,1.48,1.92,2.57,2.52,1.09,.6,2.34,.9,3.73,.9,1.09,0,2.11-.2,3.06-.59,.95-.39,1.75-.99,2.41-1.8l.95,1.08c-.74,.92-1.68,1.61-2.8,2.08-1.12,.47-2.34,.7-3.65,.7Z"/></g><g><path class="m" d="M605.86,1011.13c-2.84,0-5.08-.83-6.72-2.49-1.64-1.66-2.46-4.13-2.46-7.4v-13.2h1.67v13.14c0,2.86,.66,4.98,1.97,6.36,1.31,1.38,3.17,2.06,5.57,2.06s4.23-.69,5.54-2.06c1.31-1.38,1.97-3.49,1.97-6.36v-13.14h1.67v13.2c0,3.28-.82,5.74-2.46,7.4-1.64,1.66-3.89,2.49-6.75,2.49Z"/><path class="m" d="M630.69,993.74c1.4,0,2.62,.27,3.65,.8,1.04,.54,1.85,1.34,2.42,2.42s.87,2.42,.87,4.01v9.99h-1.64v-9.86c0-1.92-.49-3.38-1.46-4.39-.97-1-2.33-1.51-4.08-1.51-1.33,0-2.49,.27-3.47,.82s-1.73,1.31-2.24,2.29c-.51,.98-.77,2.16-.77,3.54v9.11h-1.64v-17.1h1.57v4.75l-.23-.52c.52-1.35,1.39-2.42,2.59-3.19,1.2-.77,2.67-1.16,4.42-1.16Z"/><path class="m" d="M645.21,989.71c-.37,0-.69-.13-.95-.39s-.39-.57-.39-.92c0-.37,.13-.69,.39-.95s.58-.39,.95-.39c.39,0,.71,.12,.97,.38,.25,.25,.38,.56,.38,.93s-.13,.69-.38,.95c-.25,.26-.57,.39-.97,.39Zm-.82,21.26v-17.1h1.64v17.1h-1.64Z"/><path class="m" d="M650.12,995.28v-1.41h10.22v1.41h-10.22Zm7.8,15.82c-1.51,0-2.66-.41-3.46-1.25-.8-.83-1.2-1.96-1.2-3.41v-16.31h1.64v16.15c0,1.09,.27,1.93,.82,2.52,.55,.59,1.33,.88,2.36,.88s1.95-.32,2.65-.95l.69,1.15c-.44,.42-.97,.72-1.59,.92-.62,.2-1.26,.29-1.92,.29Z"/><path class="m" d="M672.3,1011.1c-1.73,0-3.25-.37-4.57-1.11s-2.36-1.77-3.11-3.08c-.75-1.31-1.13-2.81-1.13-4.49s.35-3.21,1.06-4.5c.71-1.3,1.69-2.32,2.93-3.06,1.25-.74,2.64-1.11,4.19-1.11s2.94,.36,4.18,1.08,2.21,1.73,2.92,3.03c.71,1.3,1.06,2.8,1.06,4.5,0,.07,0,.14-.02,.21-.01,.08-.02,.16-.02,.25h-15.1v-1.28h14.22l-.66,.62c.02-1.33-.26-2.53-.83-3.59-.58-1.06-1.36-1.89-2.34-2.49s-2.12-.9-3.41-.9-2.4,.3-3.39,.9c-.99,.6-1.77,1.43-2.34,2.49-.57,1.06-.85,2.27-.85,3.62v.29c0,1.4,.31,2.64,.93,3.72,.62,1.08,1.48,1.92,2.57,2.52,1.09,.6,2.34,.9,3.73,.9,1.09,0,2.11-.2,3.06-.59,.95-.39,1.75-.99,2.41-1.8l.95,1.08c-.74,.92-1.68,1.61-2.8,2.08-1.12,.47-2.34,.7-3.65,.7Z"/><path class="m" d="M691.49,1011.1c-1.59,0-3.03-.37-4.31-1.1-1.28-.73-2.29-1.75-3.03-3.06-.74-1.31-1.11-2.82-1.11-4.52s.37-3.24,1.11-4.54c.74-1.3,1.75-2.31,3.03-3.05,1.28-.73,2.71-1.1,4.31-1.1,1.51,0,2.87,.35,4.08,1.05,1.21,.7,2.17,1.69,2.88,2.98,.71,1.29,1.06,2.84,1.06,4.65s-.35,3.31-1.05,4.62c-.7,1.31-1.65,2.31-2.87,3.01s-2.58,1.05-4.11,1.05Zm.1-1.47c1.31,0,2.48-.3,3.52-.9,1.04-.6,1.86-1.45,2.46-2.54s.9-2.35,.9-3.77-.3-2.7-.9-3.78c-.6-1.08-1.42-1.92-2.46-2.52-1.04-.6-2.21-.9-3.52-.9s-2.48,.3-3.52,.9c-1.04,.6-1.86,1.44-2.46,2.52-.6,1.08-.9,2.34-.9,3.78s.3,2.68,.9,3.77c.6,1.09,1.42,1.94,2.46,2.54,1.04,.6,2.21,.9,3.52,.9Zm6.91,1.34v-5.6l.29-2.98-.33-2.98v-12.74h1.64v24.31h-1.61Z"/><path class="m" d="M721.99,1011.13c-1.7,0-3.31-.29-4.83-.87-1.52-.58-2.69-1.33-3.52-2.24l.75-1.25c.79,.81,1.86,1.49,3.23,2.05,1.36,.56,2.81,.83,4.34,.83s2.78-.2,3.75-.61c.97-.4,1.69-.94,2.16-1.62,.47-.68,.7-1.43,.7-2.26,0-.98-.26-1.77-.79-2.36-.52-.59-1.21-1.06-2.06-1.41-.85-.35-1.78-.64-2.78-.88-1-.24-2.02-.5-3.05-.77-1.03-.27-1.97-.63-2.82-1.06s-1.53-1.03-2.05-1.79c-.51-.75-.77-1.73-.77-2.93,0-1.09,.28-2.1,.85-3.01,.57-.92,1.45-1.66,2.65-2.23,1.2-.57,2.74-.85,4.62-.85,1.27,0,2.52,.19,3.75,.56,1.23,.37,2.29,.87,3.16,1.51l-.62,1.34c-.96-.66-1.99-1.14-3.1-1.46-1.1-.32-2.17-.47-3.19-.47-1.46,0-2.68,.21-3.64,.62s-1.67,.97-2.13,1.65c-.46,.69-.69,1.46-.69,2.31,0,.98,.26,1.77,.77,2.36s1.2,1.06,2.05,1.41c.85,.35,1.79,.64,2.82,.88,1.03,.24,2.04,.5,3.05,.77,1,.27,1.93,.63,2.78,1.07s1.54,1.03,2.06,1.77c.52,.74,.79,1.7,.79,2.88,0,1.07-.29,2.07-.88,3-.59,.93-1.49,1.67-2.7,2.23-1.21,.56-2.77,.84-4.67,.84Z"/><path class="m" d="M732.57,995.28v-1.41h10.22v1.41h-10.22Zm7.8,15.82c-1.51,0-2.66-.41-3.46-1.25-.8-.83-1.2-1.96-1.2-3.41v-16.31h1.64v16.15c0,1.09,.27,1.93,.82,2.52,.55,.59,1.33,.88,2.36,.88s1.95-.32,2.65-.95l.69,1.15c-.44,.42-.97,.72-1.59,.92-.62,.2-1.26,.29-1.92,.29Z"/><path class="m" d="M753.04,1011.1c-1.27,0-2.36-.2-3.29-.61-.93-.4-1.64-.98-2.13-1.72-.49-.74-.74-1.59-.74-2.56,0-.87,.2-1.67,.61-2.38,.4-.71,1.08-1.29,2.01-1.74,.94-.45,2.19-.67,3.77-.67h6.29v1.28h-6.26c-1.77,0-3.01,.33-3.72,.98-.71,.66-1.06,1.47-1.06,2.46,0,1.09,.41,1.97,1.24,2.62,.83,.65,2,.98,3.51,.98s2.66-.33,3.65-.98c.99-.66,1.73-1.61,2.21-2.85l.46,1.11c-.46,1.24-1.24,2.23-2.34,2.96-1.1,.73-2.51,1.1-4.21,1.1Zm6.16-.13v-3.9l-.07-.59v-6.42c0-1.59-.43-2.81-1.29-3.64-.86-.83-2.12-1.24-3.78-1.24-1.18,0-2.28,.2-3.29,.61-1.02,.4-1.88,.92-2.6,1.56l-.82-1.18c.85-.76,1.88-1.36,3.08-1.79,1.2-.43,2.46-.64,3.77-.64,2.12,0,3.75,.54,4.88,1.6,1.14,1.07,1.7,2.67,1.7,4.78v10.84h-1.57Z"/><path class="m" d="M764.71,995.28v-1.41h10.22v1.41h-10.22Zm7.8,15.82c-1.51,0-2.66-.41-3.46-1.25-.8-.83-1.2-1.96-1.2-3.41v-16.31h1.64v16.15c0,1.09,.27,1.93,.82,2.52,.55,.59,1.33,.88,2.36,.88s1.95-.32,2.65-.95l.69,1.15c-.44,.42-.97,.72-1.59,.92-.62,.2-1.26,.29-1.92,.29Z"/><path class="m" d="M786.88,1011.1c-1.73,0-3.25-.37-4.57-1.11s-2.36-1.77-3.11-3.08c-.75-1.31-1.13-2.81-1.13-4.49s.35-3.21,1.06-4.5c.71-1.3,1.69-2.32,2.93-3.06,1.25-.74,2.64-1.11,4.19-1.11s2.94,.36,4.18,1.08,2.21,1.73,2.92,3.03c.71,1.3,1.06,2.8,1.06,4.5,0,.07,0,.14-.02,.21-.01,.08-.02,.16-.02,.25h-15.1v-1.28h14.22l-.66,.62c.02-1.33-.26-2.53-.83-3.59-.58-1.06-1.36-1.89-2.34-2.49s-2.12-.9-3.41-.9-2.4,.3-3.39,.9c-.99,.6-1.77,1.43-2.34,2.49-.57,1.06-.85,2.27-.85,3.62v.29c0,1.4,.31,2.64,.93,3.72,.62,1.08,1.48,1.92,2.57,2.52,1.09,.6,2.34,.9,3.73,.9,1.09,0,2.11-.2,3.06-.59,.95-.39,1.75-.99,2.41-1.8l.95,1.08c-.74,.92-1.68,1.61-2.8,2.08-1.12,.47-2.34,.7-3.65,.7Z"/><path class="m" d="M803.82,1011.1c-1.42,0-2.75-.21-3.98-.62-1.23-.42-2.19-.94-2.87-1.57l.75-1.31c.65,.57,1.53,1.05,2.62,1.46,1.09,.4,2.27,.61,3.54,.61,1.79,0,3.08-.29,3.87-.88,.79-.59,1.18-1.37,1.18-2.33,0-.7-.2-1.25-.61-1.65-.4-.4-.94-.71-1.62-.93-.68-.22-1.42-.4-2.23-.54-.81-.14-1.62-.3-2.42-.47s-1.55-.43-2.23-.75c-.68-.33-1.22-.78-1.62-1.36-.4-.58-.61-1.35-.61-2.31,0-.87,.24-1.66,.72-2.36,.48-.7,1.2-1.26,2.16-1.69,.96-.43,2.16-.64,3.6-.64,1.07,0,2.15,.15,3.23,.46,1.08,.31,1.96,.71,2.64,1.21l-.75,1.31c-.72-.55-1.53-.94-2.42-1.18s-1.8-.36-2.72-.36c-1.66,0-2.88,.31-3.65,.92-.78,.61-1.16,1.38-1.16,2.29,0,.72,.2,1.29,.61,1.72,.4,.43,.94,.75,1.62,.98,.68,.23,1.42,.42,2.23,.56,.81,.14,1.62,.3,2.42,.47s1.55,.42,2.23,.74,1.22,.75,1.62,1.31c.4,.56,.61,1.3,.61,2.24s-.26,1.76-.77,2.46c-.51,.7-1.27,1.25-2.28,1.64-1,.39-2.24,.59-3.7,.59Z"/></g></g></svg>