<?xml version="1.0" encoding="UTF-8"?><svg xmlns="http://www.w3.org/2000/svg" viewBox="0 0 2537 1080"><defs><style>.m{fill:#a55353;}.n{stroke-width:4.88px;}.n,.o{fill:none;stroke:#a55353;stroke-miterlimit:10;}.o{stroke-width:5px;}.p{fill:#8c3131;opacity:.8;}</style></defs><g id="a"/><g id="b"/><g id="c"/><g id="d"/><g id="e"><polygon class="m" points="146 939 272 932 503 924 699 938 917 675 1080 769 1202 934 1332 920 1534 466 1788 930 2035 920 2195 931 2359 873 2359 939.21 146 939"/></g><g id="f"><polygon class="p" points="146 939 272 922 503 929 699 918 917 775 1080 928 1202 924 1332 926 1534 583 1788 930 2035 926 2195 934 2359 926 2359 939 146 939"/></g><g id="g"><polyline class="o" points="146 146 146 939 2466 939.21"/><g><line class="n" x1="148" y1="939" x2="116.3" y2="939"/><line class="n" x1="148" y1="873.08" x2="116.3" y2="873.08"/><line class="n" x1="148" y1="807.17" x2="116.3" y2="807.17"/><line class="n" x1="148" y1="741.25" x2="116.3" y2="741.25"/><line class="n" x1="148" y1="675.33" x2="116.3" y2="675.33"/><line class="n" x1="148" y1="609.42" x2="116.3" y2="609.42"/><line class="n" x1="148" y1="543.5" x2="116.3" y2="543.5"/><line class="n" x1="148" y1="477.58" x2="116.3" y2="477.58"/><line class="n" x1="148" y1="411.67" x2="116.3" y2="411.67"/><line class="n" x1="148" y1="345.75" x2="116.3" y2="345.75"/><line class="n" x1="148" y1="279.83" x2="116.3" y2="279.83"/><line class="n" x1="148" y1="213.92" x2="116.3" y2="213.92"/><line class="n" x1="148" y1="148" x2="116.3" y2="148"/></g></g><g id="h"><path class="m" d="M49.95,966.47c-2.52,0-4.77-.63-6.75-1.89-1.98-1.26-3.55-3.1-4.7-5.51-1.16-2.42-1.73-5.35-1.73-8.8s.58-6.38,1.73-8.8c1.15-2.41,2.72-4.25,4.7-5.51,1.98-1.26,4.23-1.89,6.75-1.89s4.73,.63,6.71,1.89c1.98,1.26,3.55,3.1,4.7,5.51,1.15,2.42,1.73,5.35,1.73,8.8s-.58,6.38-1.73,8.8-2.72,4.25-4.7,5.51c-1.98,1.26-4.22,1.89-6.71,1.89Zm0-5.08c1.44,0,2.7-.4,3.78-1.19,1.08-.79,1.93-2.02,2.54-3.67,.61-1.65,.92-3.74,.92-6.25s-.31-4.6-.92-6.25c-.62-1.65-1.46-2.87-2.54-3.67-1.08-.79-2.34-1.19-3.78-1.19s-2.71,.4-3.8,1.19c-1.1,.8-1.96,2.02-2.59,3.67-.63,1.65-.94,3.74-.94,6.25s.31,4.61,.94,6.25c.63,1.65,1.49,2.87,2.59,3.67,1.09,.79,2.36,1.19,3.8,1.19Z"/><path class="m" d="M36.36,899.02v-3.92l12.55-11.88c1.02-.99,1.78-1.86,2.29-2.61,.51-.75,.85-1.45,1.04-2.09s.27-1.25,.27-1.82c0-1.44-.5-2.56-1.51-3.35-1.01-.79-2.48-1.19-4.43-1.19-1.5,0-2.87,.27-4.12,.81-1.25,.54-2.32,1.35-3.22,2.43l-4.1-3.11c1.23-1.65,2.89-2.93,4.97-3.85,2.08-.92,4.42-1.37,7-1.37,2.28,0,4.26,.37,5.94,1.1,1.68,.74,2.98,1.78,3.92,3.13,.93,1.35,1.4,2.94,1.4,4.77,0,1.05-.14,2.08-.41,3.08s-.78,2.07-1.53,3.19c-.75,1.12-1.85,2.38-3.29,3.76l-10.8,10.17-1.21-2.21h18.45v4.95h-23.22Z"/><path class="m" d="M36.31,824.82v-4l15.53-20.29h6.25l-15.25,20.29-2.97-.9h24.93v4.91h-28.49Zm17.33,7.2v-7.2l.14-4.91v-6.34h5.53v18.45h-5.67Z"/><path class="m" d="M50.35,765.47c-2.82,0-5.25-.6-7.29-1.8s-3.6-2.96-4.68-5.29c-1.08-2.32-1.62-5.17-1.62-8.53,0-3.63,.65-6.69,1.96-9.18s3.12-4.38,5.44-5.67c2.32-1.29,5.02-1.94,8.08-1.94,1.53,0,3.02,.17,4.48,.5,1.45,.33,2.72,.83,3.8,1.49l-2.21,4.46c-.87-.57-1.81-.96-2.81-1.17-1.01-.21-2.08-.32-3.22-.32-2.94,0-5.29,.91-7.04,2.72-1.75,1.82-2.63,4.51-2.63,8.08,0,.6,.02,1.28,.07,2.03s.17,1.5,.38,2.25l-1.84-1.94c.54-1.23,1.28-2.26,2.23-3.08,.94-.83,2.07-1.45,3.38-1.87,1.3-.42,2.72-.63,4.25-.63,2.07,0,3.92,.41,5.54,1.22,1.62,.81,2.91,1.93,3.87,3.38,.96,1.44,1.44,3.15,1.44,5.13s-.51,3.83-1.53,5.38c-1.02,1.55-2.4,2.73-4.14,3.56-1.74,.82-3.71,1.24-5.9,1.24Zm-.27-4.59c1.2,0,2.27-.22,3.22-.65,.94-.43,1.67-1.06,2.16-1.87,.49-.81,.74-1.75,.74-2.83,0-1.62-.56-2.92-1.69-3.89-1.12-.97-2.65-1.46-4.57-1.46-1.26,0-2.36,.23-3.31,.7-.94,.46-1.69,1.1-2.23,1.91-.54,.81-.81,1.74-.81,2.79,0,.96,.25,1.84,.74,2.66,.5,.81,1.23,1.46,2.21,1.93,.97,.48,2.15,.72,3.53,.72Z"/><path class="m" d="M49.41,698.47c-2.61,0-4.87-.38-6.77-1.15-1.91-.77-3.39-1.86-4.46-3.29-1.07-1.42-1.6-3.11-1.6-5.06s.51-3.54,1.53-4.86c1.02-1.32,2.48-2.32,4.39-3.01,1.9-.69,4.21-1.04,6.91-1.04s4.97,.35,6.91,1.04c1.93,.69,3.42,1.7,4.45,3.04,1.04,1.34,1.55,2.95,1.55,4.84s-.54,3.64-1.62,5.06-2.58,2.52-4.5,3.29c-1.92,.76-4.19,1.15-6.79,1.15Zm0-15.3c-2.43,0-4.52-.33-6.25-.99-1.74-.66-3.08-1.61-4.03-2.86-.94-1.25-1.42-2.74-1.42-4.48,0-1.83,.49-3.39,1.46-4.68,.97-1.29,2.35-2.29,4.12-3.01,1.77-.72,3.81-1.08,6.12-1.08s4.39,.36,6.17,1.08c1.77,.72,3.15,1.73,4.14,3.01,.99,1.29,1.48,2.85,1.48,4.68s-.47,3.23-1.42,4.48-2.29,2.2-4.05,2.86c-1.75,.66-3.86,.99-6.32,.99Zm0,10.75c2.16,0,3.87-.46,5.13-1.4,1.26-.93,1.89-2.17,1.89-3.73s-.63-2.79-1.89-3.69c-1.26-.9-2.97-1.35-5.13-1.35s-3.86,.45-5.11,1.35c-1.25,.9-1.87,2.13-1.87,3.69s.62,2.8,1.87,3.73c1.24,.93,2.95,1.4,5.11,1.4Zm0-14.4c1.89,0,3.36-.39,4.41-1.17,1.05-.78,1.57-1.86,1.57-3.24s-.55-2.51-1.64-3.31c-1.1-.79-2.54-1.19-4.34-1.19s-3.23,.4-4.3,1.19c-1.07,.8-1.6,1.9-1.6,3.31s.52,2.46,1.55,3.24c1.03,.78,2.48,1.17,4.34,1.17Z"/><g><path class="m" d="M41.85,631.02v-29.25l2.48,2.7h-9.23v-4.95h12.56v31.5h-5.81Z"/><path class="m" d="M67.09,631.47c-2.52,0-4.77-.63-6.75-1.89-1.98-1.26-3.55-3.1-4.7-5.51-1.16-2.42-1.73-5.35-1.73-8.8s.58-6.38,1.73-8.8c1.15-2.41,2.72-4.25,4.7-5.51,1.98-1.26,4.23-1.89,6.75-1.89s4.73,.63,6.71,1.89c1.98,1.26,3.55,3.1,4.7,5.51,1.15,2.42,1.73,5.35,1.73,8.8s-.58,6.38-1.73,8.8-2.72,4.25-4.7,5.51c-1.98,1.26-4.22,1.89-6.71,1.89Zm0-5.08c1.44,0,2.7-.4,3.78-1.19,1.08-.79,1.93-2.02,2.54-3.67,.61-1.65,.92-3.74,.92-6.25s-.31-4.6-.92-6.25c-.62-1.65-1.46-2.87-2.54-3.67-1.08-.79-2.34-1.19-3.78-1.19s-2.71,.4-3.8,1.19c-1.1,.8-1.96,2.02-2.59,3.67-.63,1.65-.94,3.74-.94,6.25s.31,4.61,.94,6.25c.63,1.65,1.49,2.87,2.59,3.67,1.09,.79,2.36,1.19,3.8,1.19Z"/></g><g><path class="m" d="M41.85,564.02v-29.25l2.48,2.7h-9.23v-4.95h12.56v31.5h-5.81Z"/><path class="m" d="M53.5,564.02v-3.92l12.55-11.88c1.02-.99,1.78-1.86,2.29-2.61,.51-.75,.85-1.45,1.04-2.09s.27-1.25,.27-1.82c0-1.44-.5-2.56-1.51-3.35-1.01-.79-2.48-1.19-4.43-1.19-1.5,0-2.87,.27-4.12,.81-1.25,.54-2.32,1.35-3.22,2.43l-4.1-3.11c1.23-1.65,2.89-2.93,4.97-3.85,2.08-.92,4.42-1.37,7-1.37,2.28,0,4.26,.37,5.94,1.1,1.68,.74,2.98,1.78,3.92,3.13,.93,1.35,1.4,2.94,1.4,4.77,0,1.05-.14,2.08-.41,3.08s-.78,2.07-1.53,3.19c-.75,1.12-1.85,2.38-3.29,3.76l-10.8,10.17-1.21-2.21h18.45v4.95h-23.22Z"/></g><g><path class="m" d="M41.85,497.02v-29.25l2.48,2.7h-9.23v-4.95h12.56v31.5h-5.81Z"/><path class="m" d="M53.46,489.82v-4l15.53-20.29h6.25l-15.25,20.29-2.97-.9h24.93v4.91h-28.49Zm17.33,7.2v-7.2l.14-4.91v-6.34h5.53v18.45h-5.67Z"/></g><g><path class="m" d="M41.85,430.02v-29.25l2.48,2.7h-9.23v-4.95h12.56v31.5h-5.81Z"/><path class="m" d="M67.5,430.47c-2.82,0-5.25-.6-7.29-1.8s-3.6-2.96-4.68-5.29c-1.08-2.32-1.62-5.17-1.62-8.53,0-3.63,.65-6.69,1.96-9.18s3.12-4.38,5.44-5.67c2.32-1.29,5.02-1.94,8.08-1.94,1.53,0,3.02,.17,4.48,.5,1.45,.33,2.72,.83,3.8,1.49l-2.21,4.46c-.87-.57-1.81-.96-2.81-1.17-1.01-.21-2.08-.32-3.22-.32-2.94,0-5.29,.91-7.04,2.72-1.75,1.82-2.63,4.51-2.63,8.08,0,.6,.02,1.28,.07,2.03s.17,1.5,.38,2.25l-1.84-1.94c.54-1.23,1.28-2.26,2.23-3.08,.94-.83,2.07-1.45,3.38-1.87,1.3-.42,2.72-.63,4.25-.63,2.07,0,3.92,.41,5.54,1.22,1.62,.81,2.91,1.93,3.87,3.38,.96,1.44,1.44,3.15,1.44,5.13s-.51,3.83-1.53,5.38c-1.02,1.55-2.4,2.73-4.14,3.56-1.74,.82-3.71,1.24-5.9,1.24Zm-.27-4.59c1.2,0,2.27-.22,3.22-.65,.94-.43,1.67-1.06,2.16-1.87,.49-.81,.74-1.75,.74-2.83,0-1.62-.56-2.92-1.69-3.89-1.12-.97-2.65-1.46-4.57-1.46-1.26,0-2.36,.23-3.31,.7-.94,.46-1.69,1.1-2.23,1.91-.54,.81-.81,1.74-.81,2.79,0,.96,.25,1.84,.74,2.66,.5,.81,1.23,1.46,2.21,1.93,.97,.48,2.15,.72,3.53,.72Z"/></g><g><path class="m" d="M41.85,363.02v-29.25l2.48,2.7h-9.23v-4.95h12.56v31.5h-5.81Z"/><path class="m" d="M66.55,363.47c-2.61,0-4.87-.38-6.77-1.15-1.91-.77-3.39-1.86-4.46-3.29-1.07-1.42-1.6-3.11-1.6-5.06s.51-3.54,1.53-4.86c1.02-1.32,2.48-2.32,4.39-3.01,1.9-.69,4.21-1.04,6.91-1.04s4.97,.35,6.91,1.04c1.93,.69,3.42,1.7,4.45,3.04,1.04,1.34,1.55,2.95,1.55,4.84s-.54,3.64-1.62,5.06-2.58,2.52-4.5,3.29c-1.92,.76-4.19,1.15-6.79,1.15Zm0-15.3c-2.43,0-4.52-.33-6.25-.99-1.74-.66-3.08-1.61-4.03-2.86-.94-1.25-1.42-2.74-1.42-4.48,0-1.83,.49-3.39,1.46-4.68,.97-1.29,2.35-2.29,4.12-3.01,1.77-.72,3.81-1.08,6.12-1.08s4.39,.36,6.17,1.08c1.77,.72,3.15,1.73,4.14,3.01,.99,1.29,1.48,2.85,1.48,4.68s-.47,3.23-1.42,4.48-2.29,2.2-4.05,2.86c-1.75,.66-3.86,.99-6.32,.99Zm0,10.75c2.16,0,3.87-.46,5.13-1.4,1.26-.93,1.89-2.17,1.89-3.73s-.63-2.79-1.89-3.69c-1.26-.9-2.97-1.35-5.13-1.35s-3.86,.45-5.11,1.35c-1.25,.9-1.87,2.13-1.87,3.69s.62,2.8,1.87,3.73c1.24,.93,2.95,1.4,5.11,1.4Zm0-14.4c1.89,0,3.36-.39,4.41-1.17,1.05-.78,1.57-1.86,1.57-3.24s-.55-2.51-1.64-3.31c-1.1-.79-2.54-1.19-4.34-1.19s-3.23,.4-4.3,1.19c-1.07,.8-1.6,1.9-1.6,3.31s.52,2.46,1.55,3.24c1.03,.78,2.48,1.17,4.34,1.17Z"/></g><g><path class="m" d="M36.36,296.02v-3.92l12.55-11.88c1.02-.99,1.78-1.86,2.29-2.61,.51-.75,.85-1.45,1.04-2.09s.27-1.25,.27-1.82c0-1.44-.5-2.56-1.51-3.35-1.01-.79-2.48-1.19-4.43-1.19-1.5,0-2.87,.27-4.12,.81-1.25,.54-2.32,1.35-3.22,2.43l-4.1-3.11c1.23-1.65,2.89-2.93,4.97-3.85,2.08-.92,4.42-1.37,7-1.37,2.28,0,4.26,.37,5.94,1.1,1.68,.74,2.98,1.78,3.92,3.13,.93,1.35,1.4,2.94,1.4,4.77,0,1.05-.14,2.08-.41,3.08s-.78,2.07-1.53,3.19c-.75,1.12-1.85,2.38-3.29,3.76l-10.8,10.17-1.21-2.21h18.45v4.95h-23.22Z"/><path class="m" d="M76.14,296.47c-2.52,0-4.77-.63-6.75-1.89-1.98-1.26-3.55-3.1-4.7-5.51-1.16-2.42-1.73-5.35-1.73-8.8s.58-6.38,1.73-8.8c1.15-2.41,2.72-4.25,4.7-5.51,1.98-1.26,4.23-1.89,6.75-1.89s4.73,.63,6.71,1.89c1.98,1.26,3.55,3.1,4.7,5.51,1.15,2.42,1.73,5.35,1.73,8.8s-.58,6.38-1.73,8.8-2.72,4.25-4.7,5.51c-1.98,1.26-4.22,1.89-6.71,1.89Zm0-5.08c1.44,0,2.7-.4,3.78-1.19,1.08-.79,1.93-2.02,2.54-3.67,.61-1.65,.92-3.74,.92-6.25s-.31-4.6-.92-6.25c-.62-1.65-1.46-2.87-2.54-3.67-1.08-.79-2.34-1.19-3.78-1.19s-2.71,.4-3.8,1.19c-1.1,.8-1.96,2.02-2.59,3.67-.63,1.65-.94,3.74-.94,6.25s.31,4.61,.94,6.25c.63,1.65,1.49,2.87,2.59,3.67,1.09,.79,2.36,1.19,3.8,1.19Z"/></g><g><path class="m" d="M36.36,229.02v-3.92l12.55-11.88c1.02-.99,1.78-1.86,2.29-2.61,.51-.75,.85-1.45,1.04-2.09s.27-1.25,.27-1.82c0-1.44-.5-2.56-1.51-3.35-1.01-.79-2.48-1.19-4.43-1.19-1.5,0-2.87,.27-4.12,.81-1.25,.54-2.32,1.35-3.22,2.43l-4.1-3.11c1.23-1.65,2.89-2.93,4.97-3.85,2.08-.92,4.42-1.37,7-1.37,2.28,0,4.26,.37,5.94,1.1,1.68,.74,2.98,1.78,3.92,3.13,.93,1.35,1.4,2.94,1.4,4.77,0,1.05-.14,2.08-.41,3.08s-.78,2.07-1.53,3.19c-.75,1.12-1.85,2.38-3.29,3.76l-10.8,10.17-1.21-2.21h18.45v4.95h-23.22Z"/><path class="m" d="M62.55,229.02v-3.92l12.55-11.88c1.02-.99,1.78-1.86,2.29-2.61,.51-.75,.85-1.45,1.04-2.09s.27-1.25,.27-1.82c0-1.44-.5-2.56-1.51-3.35-1.01-.79-2.48-1.19-4.43-1.19-1.5,0-2.87,.27-4.12,.81-1.25,.54-2.32,1.35-3.22,2.43l-4.1-3.11c1.23-1.65,2.89-2.93,4.97-3.85,2.08-.92,4.42-1.37,7-1.37,2.28,0,4.26,.37,5.94,1.1,1.68,.74,2.98,1.78,3.92,3.13,.93,1.35,1.4,2.94,1.4,4.77,0,1.05-.14,2.08-.41,3.08s-.78,2.07-1.53,3.19c-.75,1.12-1.85,2.38-3.29,3.76l-10.8,10.17-1.21-2.21h18.45v4.95h-23.22Z"/></g><g><path class="m" d="M36.36,162.02v-3.92l12.55-11.88c1.02-.99,1.78-1.86,2.29-2.61,.51-.75,.85-1.45,1.04-2.09s.27-1.25,.27-1.82c0-1.44-.5-2.56-1.51-3.35-1.01-.79-2.48-1.19-4.43-1.19-1.5,0-2.87,.27-4.12,.81-1.25,.54-2.32,1.35-3.22,2.43l-4.1-3.11c1.23-1.65,2.89-2.93,4.97-3.85,2.08-.92,4.42-1.37,7-1.37,2.28,0,4.26,.37,5.94,1.1,1.68,.74,2.98,1.78,3.92,3.13,.93,1.35,1.4,2.94,1.4,4.77,0,1.05-.14,2.08-.41,3.08s-.78,2.07-1.53,3.19c-.75,1.12-1.85,2.38-3.29,3.76l-10.8,10.17-1.21-2.21h18.45v4.95h-23.22Z"/><path class="m" d="M61.83,154.82v-4l15.53-20.29h6.25l-15.25,20.29-2.97-.9h24.93v4.91h-28.49Zm17.33,7.2v-7.2l.14-4.91v-6.34h5.53v18.45h-5.67Z"/></g></g><g id="i"><line class="n" x1="271.65" y1="937.65" x2="271.65" y2="969.35"/><line class="n" x1="502.65" y1="937.65" x2="502.65" y2="969.35"/><line class="n" x1="698.65" y1="937.65" x2="698.65" y2="969.35"/><line class="n" x1="916.65" y1="937.65" x2="916.65" y2="969.35"/><line class="n" x1="1079.65" y1="937.65" x2="1079.65" y2="969.35"/><line class="n" x1="1201.65" y1="937.65" x2="1201.65" y2="969.35"/><line class="n" x1="1331.65" y1="937.65" x2="1331.65" y2="969.35"/><line class="n" x1="1533.65" y1="937.65" x2="1533.65" y2="969.35"/><line class="n" x1="1787.65" y1="937.65" x2="1787.65" y2="969.35"/><line class="n" x1="2034.65" y1="937.65" x2="2034.65" y2="969.35"/><line class="n" x1="2194.65" y1="937.65" x2="2194.65" y2="969.35"/><line class="n" x1="2358.65" y1="937.65" x2="2358.65" y2="969.35"/></g><g id="j"/><g id="k"><rect class="m" x="1938" y="154" width="35" height="35"/><rect class="p" x="1938" y="206" width="35" height="35"/></g><g id="l"><g><path class="m" d="M855.68,1011.29c-1.79,0-3.43-.29-4.93-.87-1.5-.58-2.8-1.4-3.92-2.47s-1.98-2.31-2.59-3.73-.92-2.99-.92-4.72,.31-3.3,.92-4.72c.61-1.42,1.48-2.66,2.6-3.73,1.12-1.07,2.44-1.89,3.93-2.47,1.5-.58,3.16-.87,5-.87s3.66,.32,5.22,.95c1.56,.63,2.88,1.56,3.95,2.78l-2.69,2.62c-.9-.9-1.86-1.56-2.9-1.98-1.04-.43-2.18-.64-3.42-.64s-2.34,.2-3.36,.59c-1.02,.39-1.9,.95-2.64,1.67-.74,.72-1.32,1.57-1.74,2.56-.42,.98-.62,2.06-.62,3.24s.21,2.23,.62,3.23c.41,.99,.99,1.85,1.74,2.57,.74,.72,1.62,1.28,2.62,1.67,1,.39,2.12,.59,3.34,.59,1.14,0,2.23-.18,3.29-.54,1.06-.36,2.07-.97,3.03-1.82l2.39,3.18c-1.18,.96-2.56,1.69-4.13,2.18-1.57,.49-3.18,.74-4.82,.74Zm4.95-3.47v-8.55h4v9.11l-4-.56Z"/><path class="m" d="M878.09,1011.2c-1.94,0-3.64-.39-5.09-1.16-1.45-.78-2.58-1.83-3.37-3.18-.8-1.34-1.2-2.89-1.2-4.63s.39-3.29,1.16-4.64c.77-1.34,1.85-2.4,3.21-3.18,1.36-.77,2.92-1.16,4.67-1.16s3.22,.38,4.55,1.13c1.33,.75,2.38,1.81,3.15,3.16,.76,1.35,1.15,2.96,1.15,4.82,0,.15,0,.34-.02,.57-.01,.23-.03,.43-.05,.61h-14.58v-2.72h12.42l-1.64,.85c.02-.98-.18-1.86-.61-2.64s-1.01-1.38-1.75-1.8c-.74-.43-1.62-.64-2.62-.64s-1.86,.21-2.64,.64c-.78,.43-1.37,1.03-1.79,1.82-.42,.79-.62,1.69-.62,2.72v.66c0,1.05,.23,1.98,.7,2.78,.47,.81,1.14,1.44,2.01,1.88,.87,.45,1.89,.67,3.05,.67,.98,0,1.87-.16,2.65-.49,.79-.33,1.48-.81,2.1-1.44l2.23,2.55c-.81,.92-1.81,1.62-3,2.1-1.19,.48-2.55,.72-4.08,.72Z"/><path class="m" d="M890.27,1010.97v-17.49h3.9v4.82l-.46-1.41c.5-1.18,1.32-2.08,2.46-2.7,1.14-.62,2.52-.93,4.16-.93v3.9c-.15-.02-.31-.04-.46-.05s-.29-.02-.43-.02c-1.57,0-2.82,.45-3.73,1.34-.92,.9-1.38,2.26-1.38,4.1v8.45h-4.06Z"/><path class="m" d="M925.92,993.25c1.4,0,2.64,.27,3.72,.82s1.93,1.39,2.54,2.52,.92,2.59,.92,4.36v10.02h-4.06v-9.5c0-1.55-.34-2.71-1.03-3.47-.69-.76-1.67-1.15-2.93-1.15-.9,0-1.69,.2-2.38,.59-.69,.39-1.22,.98-1.6,1.75-.38,.78-.57,1.74-.57,2.9v8.88h-4.06v-9.5c0-1.55-.34-2.71-1.03-3.47-.69-.76-1.67-1.15-2.93-1.15-.9,0-1.69,.2-2.38,.59-.69,.39-1.22,.98-1.61,1.75-.38,.78-.57,1.74-.57,2.9v8.88h-4.06v-17.49h3.9v4.68l-.72-1.41c.59-1.11,1.45-1.98,2.57-2.59s2.42-.92,3.88-.92c1.64,0,3.06,.4,4.26,1.21,1.2,.81,2,2.05,2.39,3.73l-1.57-.59c.55-1.29,1.47-2.34,2.78-3.14,1.31-.81,2.83-1.21,4.55-1.21Z"/><path class="m" d="M943.61,1011.2c-1.31,0-2.46-.22-3.44-.67-.98-.45-1.74-1.07-2.28-1.87-.54-.8-.8-1.7-.8-2.7s.23-1.87,.7-2.65,1.24-1.41,2.31-1.87c1.07-.46,2.49-.69,4.26-.69h5.08v2.72h-4.78c-1.38,0-2.31,.22-2.8,.67-.49,.45-.74,1.01-.74,1.69,0,.72,.29,1.3,.88,1.74,.59,.44,1.41,.66,2.46,.66s1.91-.23,2.7-.69c.8-.46,1.38-1.14,1.75-2.03l.66,2.46c-.39,1.03-1.09,1.82-2.1,2.39-1,.57-2.29,.85-3.87,.85Zm5.5-.23v-3.57l-.2-.72v-6.19c0-1.2-.37-2.13-1.1-2.8-.73-.67-1.84-1-3.33-1-.96,0-1.91,.15-2.85,.46-.94,.31-1.75,.73-2.42,1.28l-1.61-2.98c.96-.72,2.09-1.27,3.37-1.64,1.29-.37,2.63-.56,4.03-.56,2.56,0,4.52,.61,5.9,1.83,1.38,1.22,2.06,3.1,2.06,5.63v10.25h-3.87Z"/><path class="m" d="M968.14,993.25c1.42,0,2.67,.27,3.75,.82s1.94,1.39,2.59,2.52c.64,1.14,.97,2.59,.97,4.36v10.02h-4.09v-9.5c0-1.55-.36-2.71-1.08-3.47-.72-.76-1.75-1.15-3.08-1.15-.96,0-1.81,.2-2.56,.59-.74,.39-1.32,.98-1.72,1.75s-.61,1.75-.61,2.93v8.84h-4.06v-17.49h3.9v4.75l-.69-1.47c.59-1.11,1.47-1.98,2.64-2.59,1.17-.61,2.52-.92,4.04-.92Z"/><path class="m" d="M981.8,1017.55c-.87,0-1.74-.14-2.59-.43s-1.55-.68-2.1-1.18l1.6-2.98c.42,.35,.88,.63,1.39,.85,.51,.22,1.05,.33,1.62,.33,.74,0,1.34-.19,1.8-.56,.46-.37,.88-1,1.28-1.9l.98-2.23,.39-.52,6.58-15.46h3.93l-8.19,18.93c-.55,1.29-1.15,2.31-1.82,3.06-.67,.75-1.41,1.29-2.23,1.61s-1.71,.47-2.67,.47Zm3.57-5.96l-7.89-18.12h4.23l6.45,15.1-2.79,3.01Z"/></g><g><path class="m" d="M2003.58,189.29c-1.77,0-3.4-.29-4.88-.87-1.49-.58-2.78-1.4-3.88-2.47s-1.96-2.31-2.57-3.73-.92-2.99-.92-4.72,.31-3.3,.92-4.72c.61-1.42,1.47-2.66,2.59-3.73,1.11-1.07,2.41-1.89,3.9-2.47,1.48-.58,3.11-.87,4.88-.87,1.88,0,3.59,.32,5.14,.97,1.55,.64,2.86,1.6,3.93,2.87l-2.75,2.59c-.85-.9-1.79-1.57-2.82-2.01-1.03-.45-2.13-.67-3.31-.67s-2.3,.2-3.29,.59c-.99,.39-1.86,.95-2.59,1.67-.73,.72-1.31,1.57-1.72,2.56-.41,.98-.62,2.06-.62,3.24s.21,2.26,.62,3.24c.42,.98,.99,1.83,1.72,2.56,.73,.72,1.59,1.28,2.59,1.67,.99,.39,2.09,.59,3.29,.59s2.28-.22,3.31-.67,1.97-1.13,2.82-2.05l2.75,2.59c-1.07,1.27-2.38,2.23-3.93,2.88s-3.28,.98-5.18,.98Z"/><path class="m" d="M2018.46,168.59c-.76,0-1.39-.24-1.88-.72-.49-.48-.74-1.07-.74-1.77,0-.66,.25-1.22,.74-1.7,.49-.48,1.12-.72,1.88-.72s1.39,.22,1.88,.67c.49,.45,.74,1.02,.74,1.72s-.24,1.29-.72,1.79c-.48,.49-1.11,.74-1.9,.74Zm-2.03,20.38v-17.49h4.06v17.49h-4.06Z"/><path class="m" d="M2030.51,188.97l-7.5-17.49h4.22l6.49,15.43h-2.1l6.68-15.43h3.93l-7.5,17.49h-4.23Z"/><path class="m" d="M2046.86,168.59c-.76,0-1.39-.24-1.88-.72-.49-.48-.74-1.07-.74-1.77,0-.66,.25-1.22,.74-1.7,.49-.48,1.12-.72,1.88-.72s1.39,.22,1.88,.67c.49,.45,.74,1.02,.74,1.72s-.24,1.29-.72,1.79c-.48,.49-1.11,.74-1.9,.74Zm-2.03,20.38v-17.49h4.06v17.49h-4.06Z"/><path class="m" d="M2054.29,188.97v-24.31h4.06v24.31h-4.06Z"/><path class="m" d="M2065.79,168.59c-.76,0-1.39-.24-1.88-.72-.49-.48-.74-1.07-.74-1.77,0-.66,.25-1.22,.74-1.7,.49-.48,1.12-.72,1.88-.72s1.39,.22,1.88,.67c.49,.45,.74,1.02,.74,1.72s-.24,1.29-.72,1.79c-.48,.49-1.11,.74-1.9,.74Zm-2.03,20.38v-17.49h4.06v17.49h-4.06Z"/><path class="m" d="M2078.47,189.2c-1.31,0-2.46-.22-3.44-.67s-1.74-1.07-2.28-1.87c-.54-.8-.8-1.7-.8-2.7s.23-1.87,.7-2.65,1.24-1.41,2.31-1.87c1.07-.46,2.49-.69,4.26-.69h5.08v2.72h-4.78c-1.38,0-2.31,.22-2.8,.67-.49,.45-.74,1.01-.74,1.69,0,.72,.29,1.3,.88,1.74,.59,.44,1.41,.66,2.46,.66s1.91-.23,2.7-.69c.8-.46,1.38-1.14,1.75-2.03l.66,2.46c-.39,1.03-1.09,1.82-2.1,2.39-1,.57-2.29,.85-3.87,.85Zm5.5-.23v-3.57l-.2-.72v-6.19c0-1.2-.37-2.13-1.1-2.8s-1.84-1-3.33-1c-.96,0-1.91,.15-2.85,.46-.94,.31-1.75,.73-2.42,1.28l-1.61-2.98c.96-.72,2.08-1.27,3.37-1.64,1.29-.37,2.63-.56,4.03-.56,2.56,0,4.52,.61,5.9,1.83,1.38,1.22,2.06,3.1,2.06,5.63v10.25h-3.87Z"/><path class="m" d="M2103,171.25c1.42,0,2.67,.27,3.75,.82,1.08,.55,1.94,1.39,2.59,2.52,.64,1.14,.97,2.59,.97,4.36v10.02h-4.09v-9.5c0-1.55-.36-2.71-1.08-3.47-.72-.76-1.75-1.15-3.08-1.15-.96,0-1.81,.2-2.55,.59-.74,.39-1.32,.98-1.72,1.75s-.61,1.75-.61,2.93v8.84h-4.06v-17.49h3.9v4.75l-.69-1.47c.59-1.11,1.47-1.98,2.64-2.59s2.52-.92,4.04-.92Z"/><path class="m" d="M2124.95,188.97v-22.93h10.06c2.45,0,4.61,.47,6.5,1.42s3.36,2.29,4.41,4.01c1.05,1.73,1.57,3.73,1.57,6.03s-.52,4.3-1.57,6.03c-1.05,1.72-2.52,3.06-4.41,4.01s-4.06,1.42-6.5,1.42h-10.06Zm4.26-3.6h5.54c1.73,0,3.22-.33,4.47-.98s2.24-1.57,2.95-2.75,1.06-2.55,1.06-4.13-.35-3-1.06-4.16c-.71-1.16-1.69-2.06-2.95-2.72s-2.75-.98-4.47-.98h-5.54v15.72Z"/><path class="m" d="M2159.84,189.2c-1.95,0-3.64-.39-5.09-1.16s-2.58-1.83-3.37-3.18-1.2-2.89-1.2-4.63,.39-3.29,1.16-4.64,1.85-2.4,3.21-3.18c1.36-.77,2.92-1.16,4.67-1.16s3.22,.38,4.55,1.13c1.33,.75,2.38,1.81,3.15,3.16s1.15,2.96,1.15,4.82c0,.15,0,.34-.02,.57-.01,.23-.03,.43-.05,.61h-14.58v-2.72h12.42l-1.64,.85c.02-.98-.18-1.86-.61-2.64s-1.01-1.38-1.75-1.8c-.74-.43-1.62-.64-2.62-.64s-1.86,.21-2.64,.64c-.78,.43-1.37,1.03-1.79,1.82-.42,.79-.62,1.69-.62,2.72v.66c0,1.05,.23,1.98,.71,2.78,.47,.81,1.14,1.44,2.01,1.88,.87,.45,1.89,.67,3.05,.67,.98,0,1.87-.16,2.65-.49,.79-.33,1.49-.81,2.1-1.44l2.23,2.55c-.81,.92-1.81,1.62-3,2.1-1.19,.48-2.55,.72-4.08,.72Z"/><path class="m" d="M2176.77,189.2c-1.31,0-2.46-.22-3.44-.67s-1.74-1.07-2.28-1.87c-.54-.8-.8-1.7-.8-2.7s.23-1.87,.71-2.65c.47-.79,1.24-1.41,2.31-1.87,1.07-.46,2.49-.69,4.26-.69h5.08v2.72h-4.78c-1.38,0-2.31,.22-2.8,.67-.49,.45-.74,1.01-.74,1.69,0,.72,.29,1.3,.88,1.74,.59,.44,1.41,.66,2.46,.66s1.91-.23,2.7-.69c.8-.46,1.38-1.14,1.75-2.03l.66,2.46c-.39,1.03-1.09,1.82-2.1,2.39-1,.57-2.29,.85-3.87,.85Zm5.5-.23v-3.57l-.2-.72v-6.19c0-1.2-.37-2.13-1.1-2.8-.73-.67-1.84-1-3.32-1-.96,0-1.91,.15-2.85,.46-.94,.31-1.75,.73-2.42,1.28l-1.61-2.98c.96-.72,2.08-1.27,3.37-1.64s2.63-.56,4.03-.56c2.55,0,4.52,.61,5.9,1.83,1.38,1.22,2.06,3.1,2.06,5.63v10.25h-3.87Z"/><path class="m" d="M2189.06,174.88v-3.28h11.66v3.28h-11.66Zm8.91,14.32c-1.92,0-3.41-.5-4.46-1.49-1.05-.99-1.57-2.45-1.57-4.37v-15.72h4.06v15.59c0,.83,.22,1.47,.66,1.93,.44,.46,1.05,.69,1.83,.69,.89,0,1.64-.24,2.23-.72l1.18,2.92c-.5,.39-1.1,.69-1.8,.88-.7,.2-1.41,.29-2.13,.29Z"/><path class="m" d="M2215.2,171.25c1.42,0,2.67,.27,3.75,.82s1.94,1.39,2.59,2.52,.97,2.59,.97,4.36v10.02h-4.1v-9.5c0-1.55-.36-2.71-1.08-3.47-.72-.76-1.75-1.15-3.08-1.15-.96,0-1.81,.2-2.55,.59-.74,.39-1.32,.98-1.72,1.75-.41,.78-.61,1.75-.61,2.93v8.84h-4.06v-24.31h4.06v11.56l-.85-1.47c.59-1.11,1.47-1.98,2.64-2.59s2.52-.92,4.05-.92Z"/><path class="m" d="M2233.15,189.2c-1.49,0-2.89-.19-4.23-.57s-2.4-.85-3.21-1.39l1.57-3.11c.79,.5,1.73,.91,2.82,1.23,1.09,.32,2.2,.48,3.31,.48,1.27,0,2.19-.17,2.77-.51s.87-.8,.87-1.39c0-.48-.2-.85-.59-1.1-.39-.25-.91-.44-1.54-.57-.63-.13-1.34-.25-2.11-.36-.78-.11-1.55-.26-2.33-.44-.78-.19-1.48-.46-2.11-.82-.63-.36-1.15-.85-1.54-1.46-.39-.61-.59-1.43-.59-2.46,0-1.09,.32-2.05,.95-2.87,.63-.82,1.52-1.46,2.67-1.92,1.15-.46,2.51-.69,4.08-.69,1.16,0,2.34,.14,3.55,.41,1.21,.27,2.22,.65,3.03,1.13l-1.6,3.11c-.81-.48-1.64-.81-2.49-1s-1.69-.28-2.52-.28c-1.22,0-2.14,.18-2.75,.54-.61,.36-.92,.82-.92,1.39,0,.52,.2,.92,.59,1.18,.39,.26,.91,.46,1.54,.61,.63,.14,1.34,.27,2.11,.39,.78,.12,1.54,.27,2.31,.46s1.47,.45,2.11,.79c.64,.34,1.16,.81,1.56,1.42,.39,.61,.59,1.41,.59,2.39,0,1.11-.32,2.07-.97,2.87-.64,.8-1.55,1.42-2.72,1.87s-2.57,.67-4.21,.67Z"/></g><g><path class="m" d="M61.97,72.97v-22.93h10.06c2.45,0,4.61,.47,6.5,1.42,1.89,.95,3.36,2.29,4.41,4.01,1.05,1.73,1.57,3.73,1.57,6.03s-.52,4.3-1.57,6.03c-1.05,1.72-2.52,3.06-4.41,4.01-1.89,.95-4.06,1.42-6.5,1.42h-10.06Zm4.26-3.6h5.54c1.73,0,3.22-.33,4.47-.98,1.26-.66,2.24-1.57,2.95-2.75,.71-1.18,1.06-2.55,1.06-4.13s-.35-3-1.06-4.16c-.71-1.16-1.69-2.06-2.95-2.72-1.26-.66-2.75-.98-4.47-.98h-5.54v15.72Z"/><path class="m" d="M96.86,73.2c-1.94,0-3.64-.39-5.09-1.16-1.45-.78-2.58-1.83-3.37-3.18-.8-1.34-1.2-2.89-1.2-4.63s.39-3.29,1.16-4.64c.77-1.34,1.85-2.4,3.21-3.18,1.36-.77,2.92-1.16,4.67-1.16s3.22,.38,4.55,1.13c1.33,.75,2.38,1.81,3.15,3.16,.76,1.35,1.15,2.96,1.15,4.82,0,.15,0,.34-.02,.57-.01,.23-.03,.43-.05,.61h-14.58v-2.72h12.42l-1.64,.85c.02-.98-.18-1.86-.61-2.64s-1.01-1.38-1.75-1.8c-.74-.43-1.62-.64-2.62-.64s-1.86,.21-2.64,.64c-.78,.43-1.37,1.03-1.79,1.82-.42,.79-.62,1.69-.62,2.72v.66c0,1.05,.23,1.98,.7,2.78,.47,.81,1.14,1.44,2.01,1.88,.87,.45,1.89,.67,3.05,.67,.98,0,1.87-.16,2.65-.49,.79-.33,1.48-.81,2.1-1.44l2.23,2.55c-.81,.92-1.81,1.62-3,2.1-1.19,.48-2.55,.72-4.08,.72Z"/><path class="m" d="M113.79,73.2c-1.31,0-2.46-.22-3.44-.67-.98-.45-1.74-1.07-2.28-1.87-.54-.8-.8-1.7-.8-2.7s.23-1.87,.7-2.65,1.24-1.41,2.31-1.87c1.07-.46,2.49-.69,4.26-.69h5.08v2.72h-4.78c-1.38,0-2.31,.22-2.8,.67-.49,.45-.74,1.01-.74,1.69,0,.72,.29,1.3,.88,1.74,.59,.44,1.41,.66,2.46,.66s1.91-.23,2.7-.69c.8-.46,1.38-1.14,1.75-2.03l.66,2.46c-.39,1.03-1.09,1.82-2.1,2.39-1,.57-2.29,.85-3.87,.85Zm5.5-.23v-3.57l-.2-.72v-6.19c0-1.2-.37-2.13-1.1-2.8-.73-.67-1.84-1-3.33-1-.96,0-1.91,.15-2.85,.46-.94,.31-1.75,.73-2.42,1.28l-1.61-2.98c.96-.72,2.09-1.27,3.37-1.64,1.29-.37,2.63-.56,4.03-.56,2.56,0,4.52,.61,5.9,1.83,1.38,1.22,2.06,3.1,2.06,5.63v10.25h-3.87Z"/><path class="m" d="M126.08,58.88v-3.28h11.66v3.28h-11.66Zm8.91,14.32c-1.92,0-3.41-.5-4.46-1.49-1.05-.99-1.57-2.45-1.57-4.37v-15.72h4.06v15.59c0,.83,.22,1.47,.66,1.93,.44,.46,1.05,.69,1.83,.69,.9,0,1.64-.24,2.23-.72l1.18,2.92c-.5,.39-1.1,.69-1.8,.88-.7,.2-1.41,.29-2.13,.29Z"/><path class="m" d="M152.22,55.25c1.42,0,2.67,.27,3.75,.82s1.94,1.39,2.59,2.52c.64,1.14,.97,2.59,.97,4.36v10.02h-4.09v-9.5c0-1.55-.36-2.71-1.08-3.47-.72-.76-1.75-1.15-3.08-1.15-.96,0-1.81,.2-2.56,.59-.74,.39-1.32,.98-1.72,1.75-.4,.78-.61,1.75-.61,2.93v8.84h-4.06v-24.31h4.06v11.56l-.85-1.47c.59-1.11,1.47-1.98,2.64-2.59,1.17-.61,2.52-.92,4.05-.92Z"/><path class="m" d="M170.17,73.2c-1.49,0-2.89-.19-4.23-.57-1.33-.38-2.4-.85-3.21-1.39l1.57-3.11c.79,.5,1.73,.91,2.82,1.23,1.09,.32,2.19,.48,3.31,.48,1.27,0,2.19-.17,2.77-.51,.58-.34,.87-.8,.87-1.39,0-.48-.2-.85-.59-1.1-.39-.25-.91-.44-1.54-.57-.63-.13-1.34-.25-2.11-.36-.78-.11-1.55-.26-2.33-.44-.78-.19-1.48-.46-2.11-.82-.63-.36-1.15-.85-1.54-1.46-.39-.61-.59-1.43-.59-2.46,0-1.09,.32-2.05,.95-2.87,.63-.82,1.52-1.46,2.67-1.92,1.15-.46,2.51-.69,4.08-.69,1.16,0,2.34,.14,3.55,.41,1.21,.27,2.22,.65,3.03,1.13l-1.6,3.11c-.81-.48-1.64-.81-2.49-1s-1.69-.28-2.52-.28c-1.22,0-2.14,.18-2.75,.54-.61,.36-.92,.82-.92,1.39,0,.52,.2,.92,.59,1.18,.39,.26,.91,.46,1.54,.61,.63,.14,1.34,.27,2.11,.39,.77,.12,1.54,.27,2.31,.46,.76,.19,1.47,.45,2.11,.79,.64,.34,1.16,.81,1.56,1.42,.39,.61,.59,1.41,.59,2.39,0,1.11-.32,2.07-.97,2.87-.64,.8-1.55,1.42-2.72,1.87-1.17,.45-2.57,.67-4.21,.67Z"/><path class="m" d="M192.71,52.59c-.76,0-1.39-.24-1.88-.72-.49-.48-.74-1.07-.74-1.77,0-.66,.25-1.22,.74-1.7,.49-.48,1.12-.72,1.88-.72s1.39,.22,1.88,.67c.49,.45,.74,1.02,.74,1.72s-.24,1.29-.72,1.79c-.48,.49-1.11,.74-1.9,.74Zm-2.03,20.38v-17.49h4.06v17.49h-4.06Z"/><path class="m" d="M210.04,55.25c1.42,0,2.67,.27,3.75,.82s1.94,1.39,2.59,2.52c.64,1.14,.97,2.59,.97,4.36v10.02h-4.09v-9.5c0-1.55-.36-2.71-1.08-3.47-.72-.76-1.75-1.15-3.08-1.15-.96,0-1.81,.2-2.56,.59-.74,.39-1.32,.98-1.72,1.75-.4,.78-.61,1.75-.61,2.93v8.84h-4.06v-17.49h3.9v4.75l-.69-1.47c.59-1.11,1.47-1.98,2.64-2.59,1.17-.61,2.52-.92,4.05-.92Z"/><path class="m" d="M231.98,72.97v-22.93h3.51l10.02,16.74h-1.83l9.86-16.74h3.5l.07,22.93h-4.1v-16.61h.82l-8.32,14.02h-1.93l-8.52-14.02h.98v16.61h-4.06Z"/><path class="m" d="M264.94,52.59c-.76,0-1.39-.24-1.88-.72-.49-.48-.74-1.07-.74-1.77,0-.66,.25-1.22,.74-1.7,.49-.48,1.12-.72,1.88-.72s1.39,.22,1.88,.67c.49,.45,.74,1.02,.74,1.72s-.24,1.29-.72,1.79c-.48,.49-1.11,.74-1.9,.74Zm-2.03,20.38v-17.49h4.06v17.49h-4.06Z"/><path class="m" d="M272.37,72.97v-24.31h4.06v24.31h-4.06Z"/><path class="m" d="M281.84,72.97v-24.31h4.06v24.31h-4.06Z"/><path class="m" d="M293.34,52.59c-.76,0-1.39-.24-1.88-.72-.49-.48-.74-1.07-.74-1.77,0-.66,.25-1.22,.74-1.7,.49-.48,1.12-.72,1.88-.72s1.39,.22,1.88,.67c.49,.45,.74,1.02,.74,1.72s-.24,1.29-.72,1.79c-.48,.49-1.11,.74-1.9,.74Zm-2.03,20.38v-17.49h4.06v17.49h-4.06Z"/><path class="m" d="M308.6,73.2c-1.77,0-3.36-.39-4.77-1.16s-2.52-1.84-3.32-3.19c-.81-1.35-1.21-2.89-1.21-4.62s.4-3.32,1.21-4.65c.81-1.33,1.91-2.39,3.31-3.16,1.4-.77,2.99-1.16,4.78-1.16s3.42,.39,4.83,1.16c1.41,.78,2.51,1.83,3.31,3.16,.8,1.33,1.2,2.88,1.2,4.65s-.4,3.29-1.2,4.63c-.8,1.34-1.91,2.4-3.32,3.18-1.42,.78-3.03,1.16-4.82,1.16Zm0-3.47c1,0,1.9-.22,2.69-.67,.79-.45,1.4-1.09,1.85-1.93,.45-.84,.67-1.81,.67-2.9s-.22-2.08-.67-2.9-1.06-1.45-1.85-1.9c-.79-.45-1.67-.67-2.65-.67s-1.87,.22-2.65,.67c-.79,.45-1.41,1.08-1.87,1.9-.46,.82-.69,1.79-.69,2.9s.23,2.06,.69,2.9c.46,.84,1.08,1.49,1.87,1.93,.79,.45,1.66,.67,2.62,.67Z"/><path class="m" d="M331.79,55.25c1.42,0,2.67,.27,3.75,.82s1.94,1.39,2.59,2.52c.64,1.14,.97,2.59,.97,4.36v10.02h-4.09v-9.5c0-1.55-.36-2.71-1.08-3.47-.72-.76-1.75-1.15-3.08-1.15-.96,0-1.81,.2-2.56,.59-.74,.39-1.32,.98-1.72,1.75-.4,.78-.61,1.75-.61,2.93v8.84h-4.06v-17.49h3.9v4.75l-.69-1.47c.59-1.11,1.47-1.98,2.64-2.59,1.17-.61,2.52-.92,4.05-.92Z"/><path class="m" d="M349.75,73.2c-1.49,0-2.89-.19-4.23-.57-1.33-.38-2.4-.85-3.21-1.39l1.57-3.11c.79,.5,1.73,.91,2.82,1.23,1.09,.32,2.19,.48,3.31,.48,1.27,0,2.19-.17,2.77-.51,.58-.34,.87-.8,.87-1.39,0-.48-.2-.85-.59-1.1-.39-.25-.91-.44-1.54-.57-.63-.13-1.34-.25-2.11-.36-.78-.11-1.55-.26-2.33-.44-.78-.19-1.48-.46-2.11-.82-.63-.36-1.15-.85-1.54-1.46-.39-.61-.59-1.43-.59-2.46,0-1.09,.32-2.05,.95-2.87,.63-.82,1.52-1.46,2.67-1.92,1.15-.46,2.51-.69,4.08-.69,1.16,0,2.34,.14,3.55,.41,1.21,.27,2.22,.65,3.03,1.13l-1.6,3.11c-.81-.48-1.64-.81-2.49-1s-1.69-.28-2.52-.28c-1.22,0-2.14,.18-2.75,.54-.61,.36-.92,.82-.92,1.39,0,.52,.2,.92,.59,1.18,.39,.26,.91,.46,1.54,.61,.63,.14,1.34,.27,2.11,.39,.77,.12,1.54,.27,2.31,.46,.76,.19,1.47,.45,2.11,.79,.64,.34,1.16,.81,1.56,1.42,.39,.61,.59,1.41,.59,2.39,0,1.11-.32,2.07-.97,2.87-.64,.8-1.55,1.42-2.72,1.87-1.17,.45-2.57,.67-4.21,.67Z"/></g><g><path class="m" d="M1992.97,240.97v-22.93h3.5l10.02,16.74h-1.83l9.86-16.74h3.5l.07,22.93h-4.09v-16.61h.82l-8.32,14.02h-1.93l-8.52-14.02h.98v16.61h-4.06Z"/><path class="m" d="M2025.92,220.59c-.76,0-1.39-.24-1.88-.72-.49-.48-.74-1.07-.74-1.77,0-.66,.25-1.22,.74-1.7,.49-.48,1.12-.72,1.88-.72s1.39,.22,1.88,.67c.49,.45,.74,1.02,.74,1.72s-.24,1.29-.72,1.79c-.48,.49-1.11,.74-1.9,.74Zm-2.03,20.38v-17.49h4.06v17.49h-4.06Z"/><path class="m" d="M2033.36,240.97v-24.31h4.06v24.31h-4.06Z"/><path class="m" d="M2044.86,220.59c-.76,0-1.39-.24-1.88-.72-.49-.48-.74-1.07-.74-1.77,0-.66,.25-1.22,.74-1.7,.49-.48,1.12-.72,1.88-.72s1.39,.22,1.88,.67c.49,.45,.74,1.02,.74,1.72s-.24,1.29-.72,1.79c-.48,.49-1.11,.74-1.9,.74Zm-2.03,20.38v-17.49h4.06v17.49h-4.06Z"/><path class="m" d="M2049.94,226.88v-3.28h11.66v3.28h-11.66Zm8.91,14.32c-1.92,0-3.41-.5-4.46-1.49-1.05-.99-1.57-2.45-1.57-4.37v-15.72h4.06v15.59c0,.83,.22,1.47,.66,1.93,.44,.46,1.05,.69,1.83,.69,.9,0,1.64-.24,2.23-.72l1.18,2.92c-.5,.39-1.1,.69-1.8,.88s-1.41,.29-2.13,.29Z"/><path class="m" d="M2071.42,241.2c-1.31,0-2.46-.22-3.44-.67-.98-.45-1.74-1.07-2.28-1.87-.54-.8-.8-1.7-.8-2.7s.23-1.87,.7-2.65c.47-.79,1.24-1.41,2.31-1.87,1.07-.46,2.49-.69,4.26-.69h5.08v2.72h-4.78c-1.38,0-2.31,.22-2.8,.67-.49,.45-.74,1.01-.74,1.69,0,.72,.29,1.3,.88,1.74,.59,.44,1.41,.66,2.46,.66s1.91-.23,2.7-.69c.8-.46,1.38-1.14,1.75-2.03l.66,2.46c-.39,1.03-1.09,1.82-2.1,2.39-1,.57-2.29,.85-3.87,.85Zm5.5-.23v-3.57l-.2-.72v-6.19c0-1.2-.37-2.13-1.1-2.8-.73-.67-1.84-1-3.33-1-.96,0-1.91,.15-2.85,.46-.94,.31-1.75,.73-2.42,1.28l-1.61-2.98c.96-.72,2.09-1.27,3.38-1.64,1.29-.37,2.63-.56,4.03-.56,2.56,0,4.52,.61,5.9,1.83,1.38,1.22,2.06,3.1,2.06,5.63v10.25h-3.87Z"/><path class="m" d="M2086.07,240.97v-17.49h3.9v4.82l-.46-1.41c.5-1.18,1.32-2.08,2.46-2.7,1.14-.62,2.52-.93,4.16-.93v3.9c-.15-.02-.31-.04-.46-.05s-.29-.02-.43-.02c-1.57,0-2.82,.45-3.73,1.34-.92,.9-1.38,2.26-1.38,4.1v8.45h-4.06Z"/><path class="m" d="M2101.76,247.55c-.87,0-1.74-.14-2.59-.43-.85-.28-1.55-.68-2.1-1.18l1.61-2.98c.41,.35,.88,.63,1.39,.85,.51,.22,1.05,.33,1.62,.33,.74,0,1.34-.19,1.8-.56,.46-.37,.88-1,1.28-1.9l.98-2.23,.39-.52,6.58-15.46h3.93l-8.19,18.93c-.55,1.29-1.15,2.31-1.82,3.06-.67,.75-1.41,1.29-2.23,1.61-.82,.32-1.71,.47-2.67,.47Zm3.57-5.96l-7.89-18.12h4.23l6.45,15.1-2.78,3.01Z"/><path class="m" d="M2128.65,240.97v-22.93h10.06c2.45,0,4.61,.47,6.5,1.42s3.36,2.29,4.41,4.01c1.05,1.73,1.57,3.73,1.57,6.03s-.52,4.3-1.57,6.03c-1.05,1.72-2.52,3.06-4.41,4.01s-4.06,1.42-6.5,1.42h-10.06Zm4.26-3.6h5.54c1.72,0,3.21-.33,4.47-.98s2.24-1.57,2.95-2.75c.71-1.18,1.06-2.55,1.06-4.13s-.36-3-1.06-4.16c-.71-1.16-1.69-2.06-2.95-2.72s-2.75-.98-4.47-.98h-5.54v15.72Z"/><path class="m" d="M2163.54,241.2c-1.94,0-3.64-.39-5.09-1.16-1.45-.78-2.58-1.83-3.37-3.18-.8-1.34-1.2-2.89-1.2-4.63s.39-3.29,1.16-4.64c.77-1.34,1.84-2.4,3.21-3.18,1.36-.77,2.92-1.16,4.67-1.16s3.22,.38,4.55,1.13c1.33,.75,2.38,1.81,3.14,3.16,.76,1.35,1.15,2.96,1.15,4.82,0,.15,0,.34-.02,.57s-.03,.43-.05,.61h-14.58v-2.72h12.42l-1.64,.85c.02-.98-.18-1.86-.61-2.64s-1.01-1.38-1.75-1.8-1.62-.64-2.62-.64-1.86,.21-2.64,.64-1.37,1.03-1.79,1.82c-.41,.79-.62,1.69-.62,2.72v.66c0,1.05,.23,1.98,.7,2.78,.47,.81,1.14,1.44,2.02,1.88,.87,.45,1.89,.67,3.05,.67,.98,0,1.87-.16,2.65-.49,.79-.33,1.48-.81,2.1-1.44l2.23,2.55c-.81,.92-1.81,1.62-3,2.1-1.19,.48-2.55,.72-4.08,.72Z"/><path class="m" d="M2180.48,241.2c-1.31,0-2.46-.22-3.44-.67-.98-.45-1.74-1.07-2.28-1.87-.54-.8-.8-1.7-.8-2.7s.23-1.87,.7-2.65c.47-.79,1.24-1.41,2.31-1.87,1.07-.46,2.49-.69,4.26-.69h5.08v2.72h-4.78c-1.38,0-2.31,.22-2.8,.67-.49,.45-.74,1.01-.74,1.69,0,.72,.29,1.3,.88,1.74,.59,.44,1.41,.66,2.46,.66s1.91-.23,2.7-.69c.8-.46,1.38-1.14,1.75-2.03l.66,2.46c-.39,1.03-1.09,1.82-2.1,2.39-1,.57-2.29,.85-3.87,.85Zm5.5-.23v-3.57l-.2-.72v-6.19c0-1.2-.37-2.13-1.1-2.8-.73-.67-1.84-1-3.33-1-.96,0-1.91,.15-2.85,.46-.94,.31-1.75,.73-2.42,1.28l-1.61-2.98c.96-.72,2.09-1.27,3.38-1.64,1.29-.37,2.63-.56,4.03-.56,2.56,0,4.52,.61,5.9,1.83,1.38,1.22,2.06,3.1,2.06,5.63v10.25h-3.87Z"/><path class="m" d="M2192.76,226.88v-3.28h11.66v3.28h-11.66Zm8.91,14.32c-1.92,0-3.41-.5-4.46-1.49-1.05-.99-1.57-2.45-1.57-4.37v-15.72h4.06v15.59c0,.83,.22,1.47,.66,1.93,.44,.46,1.05,.69,1.83,.69,.9,0,1.64-.24,2.23-.72l1.18,2.92c-.5,.39-1.1,.69-1.8,.88s-1.41,.29-2.13,.29Z"/><path class="m" d="M2218.9,223.25c1.42,0,2.67,.27,3.75,.82s1.94,1.39,2.59,2.52c.64,1.14,.97,2.59,.97,4.36v10.02h-4.09v-9.5c0-1.55-.36-2.71-1.08-3.47-.72-.76-1.75-1.15-3.08-1.15-.96,0-1.81,.2-2.56,.59-.74,.39-1.32,.98-1.72,1.75s-.61,1.75-.61,2.93v8.84h-4.06v-24.31h4.06v11.56l-.85-1.47c.59-1.11,1.47-1.98,2.64-2.59,1.17-.61,2.52-.92,4.04-.92Z"/><path class="m" d="M2236.85,241.2c-1.49,0-2.89-.19-4.23-.57-1.33-.38-2.4-.85-3.21-1.39l1.57-3.11c.79,.5,1.72,.91,2.82,1.23,1.09,.32,2.2,.48,3.31,.48,1.27,0,2.19-.17,2.77-.51,.58-.34,.87-.8,.87-1.39,0-.48-.2-.85-.59-1.1-.39-.25-.91-.44-1.54-.57-.63-.13-1.34-.25-2.11-.36-.78-.11-1.55-.26-2.33-.44s-1.48-.46-2.11-.82c-.63-.36-1.15-.85-1.54-1.46-.39-.61-.59-1.43-.59-2.46,0-1.09,.32-2.05,.95-2.87,.63-.82,1.52-1.46,2.67-1.92,1.15-.46,2.51-.69,4.08-.69,1.16,0,2.34,.14,3.55,.41,1.21,.27,2.22,.65,3.03,1.13l-1.61,3.11c-.81-.48-1.64-.81-2.49-1s-1.69-.28-2.52-.28c-1.22,0-2.14,.18-2.75,.54s-.92,.82-.92,1.39c0,.52,.2,.92,.59,1.18,.39,.26,.91,.46,1.54,.61,.63,.14,1.34,.27,2.11,.39,.78,.12,1.54,.27,2.31,.46,.76,.19,1.47,.45,2.11,.79,.64,.34,1.16,.81,1.56,1.42,.39,.61,.59,1.41,.59,2.39,0,1.11-.32,2.07-.97,2.87-.64,.8-1.55,1.42-2.72,1.87s-2.57,.67-4.21,.67Z"/></g><g><path class="m" d="M1025.97,1010.97v-22.93h9.43c2.03,0,3.77,.32,5.23,.97,1.45,.64,2.57,1.58,3.36,2.8,.79,1.22,1.18,2.69,1.18,4.39s-.39,3.13-1.18,4.34-1.91,2.15-3.36,2.82-3.19,1-5.23,1h-7.04l1.87-1.97v8.58h-4.26Zm4.26-8.12l-1.87-2.1h6.85c1.88,0,3.29-.4,4.24-1.2s1.42-1.92,1.42-3.36-.47-2.56-1.42-3.36c-.95-.8-2.36-1.2-4.24-1.2h-6.85l1.87-2.1v13.3Z"/><path class="m" d="M1056.83,1011.2c-1.77,0-3.36-.39-4.77-1.16s-2.52-1.84-3.32-3.19c-.81-1.35-1.21-2.89-1.21-4.62s.4-3.32,1.21-4.65c.81-1.33,1.91-2.39,3.31-3.16,1.4-.77,2.99-1.16,4.78-1.16s3.42,.39,4.83,1.16c1.41,.78,2.51,1.83,3.31,3.16,.8,1.33,1.2,2.88,1.2,4.65s-.4,3.29-1.2,4.63-1.9,2.4-3.32,3.18-3.03,1.16-4.82,1.16Zm0-3.47c1,0,1.9-.22,2.69-.67,.79-.45,1.4-1.09,1.85-1.93,.45-.84,.67-1.81,.67-2.9s-.22-2.08-.67-2.9c-.45-.82-1.06-1.45-1.85-1.9-.79-.45-1.67-.67-2.65-.67s-1.87,.22-2.65,.67c-.79,.45-1.41,1.08-1.87,1.9-.46,.82-.69,1.79-.69,2.9s.23,2.06,.69,2.9c.46,.84,1.08,1.49,1.87,1.93,.79,.45,1.66,.67,2.62,.67Z"/><path class="m" d="M1070.13,1010.97v-24.31h4.06v24.31h-4.06Z"/><path class="m" d="M1084.84,1011.2c-1.31,0-2.46-.22-3.44-.67s-1.74-1.07-2.28-1.87c-.54-.8-.8-1.7-.8-2.7s.23-1.87,.7-2.65,1.24-1.41,2.31-1.87c1.07-.46,2.49-.69,4.26-.69h5.08v2.72h-4.78c-1.38,0-2.31,.22-2.8,.67-.49,.45-.74,1.01-.74,1.69,0,.72,.29,1.3,.88,1.74,.59,.44,1.41,.66,2.46,.66s1.91-.23,2.7-.69c.8-.46,1.38-1.14,1.75-2.03l.66,2.46c-.39,1.03-1.09,1.82-2.1,2.39-1,.57-2.29,.85-3.87,.85Zm5.5-.23v-3.57l-.2-.72v-6.19c0-1.2-.37-2.13-1.1-2.8s-1.84-1-3.33-1c-.96,0-1.91,.15-2.85,.46-.94,.31-1.75,.73-2.42,1.28l-1.61-2.98c.96-.72,2.08-1.27,3.37-1.64,1.29-.37,2.63-.56,4.03-.56,2.56,0,4.52,.61,5.9,1.83,1.38,1.22,2.06,3.1,2.06,5.63v10.25h-3.87Z"/><path class="m" d="M1109.37,993.25c1.42,0,2.67,.27,3.75,.82s1.94,1.39,2.59,2.52,.97,2.59,.97,4.36v10.02h-4.1v-9.5c0-1.55-.36-2.71-1.08-3.47-.72-.76-1.75-1.15-3.08-1.15-.96,0-1.81,.2-2.55,.59-.74,.39-1.32,.98-1.72,1.75-.41,.78-.61,1.75-.61,2.93v8.84h-4.06v-17.49h3.9v4.75l-.69-1.47c.59-1.11,1.47-1.98,2.64-2.59s2.52-.92,4.05-.92Z"/><path class="m" d="M1129.32,1011.2c-1.68,0-3.19-.37-4.54-1.11-1.34-.74-2.4-1.79-3.16-3.13-.76-1.34-1.15-2.92-1.15-4.73s.38-3.36,1.15-4.72c.76-1.35,1.82-2.4,3.16-3.14,1.34-.74,2.85-1.11,4.54-1.11,1.46,0,2.77,.32,3.93,.97,1.16,.64,2.08,1.63,2.75,2.95s1.02,3.01,1.02,5.06-.33,3.71-.98,5.04c-.66,1.33-1.56,2.32-2.7,2.96-1.15,.64-2.48,.97-4.01,.97Zm.49-3.47c.98,0,1.86-.22,2.64-.67,.78-.45,1.4-1.09,1.87-1.93,.47-.84,.71-1.81,.71-2.9s-.23-2.08-.71-2.9c-.47-.82-1.09-1.45-1.87-1.9-.78-.45-1.65-.67-2.64-.67s-1.86,.22-2.64,.67c-.78,.45-1.4,1.08-1.87,1.9-.47,.82-.7,1.79-.7,2.9s.23,2.06,.7,2.9c.47,.84,1.09,1.49,1.87,1.93,.78,.45,1.65,.67,2.64,.67Zm5.34,3.24v-4.13l.1-4.65-.33-4.65v-10.88h4.13v24.31h-3.9Z"/></g><g><path class="m" d="M1169.97,1010.97v-22.93h4.26v22.93h-4.26Z"/><path class="m" d="M1177.7,996.88v-3.28h11.66v3.28h-11.66Zm8.91,14.32c-1.92,0-3.41-.5-4.46-1.49-1.05-.99-1.57-2.45-1.57-4.37v-15.72h4.06v15.59c0,.83,.22,1.47,.66,1.93,.44,.46,1.05,.69,1.83,.69,.9,0,1.64-.24,2.23-.72l1.18,2.92c-.5,.39-1.1,.69-1.8,.88s-1.41,.29-2.13,.29Z"/><path class="m" d="M1199.19,1011.2c-1.31,0-2.46-.22-3.44-.67-.98-.45-1.74-1.07-2.28-1.87-.54-.8-.8-1.7-.8-2.7s.23-1.87,.7-2.65c.47-.79,1.24-1.41,2.31-1.87,1.07-.46,2.49-.69,4.26-.69h5.08v2.72h-4.78c-1.38,0-2.31,.22-2.8,.67-.49,.45-.74,1.01-.74,1.69,0,.72,.29,1.3,.88,1.74,.59,.44,1.41,.66,2.46,.66s1.91-.23,2.7-.69c.8-.46,1.38-1.14,1.75-2.03l.66,2.46c-.39,1.03-1.09,1.82-2.1,2.39-1,.57-2.29,.85-3.87,.85Zm5.5-.23v-3.57l-.2-.72v-6.19c0-1.2-.37-2.13-1.1-2.8-.73-.67-1.84-1-3.33-1-.96,0-1.91,.15-2.85,.46-.94,.31-1.75,.73-2.42,1.28l-1.61-2.98c.96-.72,2.09-1.27,3.38-1.64,1.29-.37,2.63-.56,4.03-.56,2.56,0,4.52,.61,5.9,1.83,1.38,1.22,2.06,3.1,2.06,5.63v10.25h-3.87Z"/><path class="m" d="M1213.83,1010.97v-24.31h4.06v24.31h-4.06Z"/><path class="m" d="M1224.74,1017.55c-.87,0-1.74-.14-2.59-.43-.85-.28-1.55-.68-2.1-1.18l1.61-2.98c.41,.35,.88,.63,1.39,.85,.51,.22,1.05,.33,1.62,.33,.74,0,1.34-.19,1.8-.56,.46-.37,.88-1,1.28-1.9l.98-2.23,.39-.52,6.58-15.46h3.93l-8.19,18.93c-.55,1.29-1.15,2.31-1.82,3.06-.67,.75-1.41,1.29-2.23,1.61-.82,.32-1.71,.47-2.67,.47Zm3.57-5.96l-7.89-18.12h4.23l6.45,15.1-2.78,3.01Z"/></g><g><path class="m" d="M1268.8,1010.97h-4.26v-22.93h4.26v22.93Zm12.19-9.83h-12.51v-3.64h12.51v3.64Zm-.33-13.1h4.23v22.93h-4.23v-22.93Z"/><path class="m" d="M1298.08,1011.2c-1.49,0-2.8-.28-3.93-.84-1.14-.56-2.03-1.41-2.67-2.55-.64-1.15-.97-2.59-.97-4.34v-9.99h4.13v9.47c0,1.55,.36,2.71,1.08,3.49,.72,.78,1.72,1.16,3.01,1.16,.96,0,1.8-.2,2.52-.59,.72-.39,1.28-.98,1.67-1.77,.39-.79,.59-1.76,.59-2.92v-8.84h4.09v17.49h-3.9v-4.75l.69,1.47c-.59,1.11-1.45,1.98-2.59,2.59s-2.38,.92-3.73,.92Z"/><path class="m" d="M1322.91,993.25c1.42,0,2.67,.27,3.75,.82s1.94,1.39,2.59,2.52,.97,2.59,.97,4.36v10.02h-4.09v-9.5c0-1.55-.36-2.71-1.08-3.47-.72-.76-1.75-1.15-3.08-1.15-.96,0-1.81,.2-2.56,.59-.74,.39-1.32,.98-1.72,1.75s-.61,1.75-.61,2.93v8.84h-4.06v-17.49h3.9v4.75l-.69-1.47c.59-1.11,1.47-1.98,2.64-2.59,1.17-.61,2.52-.92,4.04-.92Z"/><path class="m" d="M1342.86,1010.18c-1.68,0-3.19-.35-4.52-1.06-1.33-.71-2.39-1.7-3.16-2.96-.78-1.27-1.16-2.74-1.16-4.42s.39-3.19,1.16-4.47c.77-1.28,1.83-2.27,3.16-2.96,1.33-.7,2.84-1.05,4.52-1.05,1.48,0,2.82,.3,4.01,.9s2.13,1.52,2.83,2.77c.7,1.25,1.05,2.85,1.05,4.82s-.35,3.51-1.05,4.75c-.7,1.25-1.64,2.17-2.83,2.79s-2.53,.92-4.01,.92Zm.52,7.37c-1.64,0-3.22-.21-4.73-.64-1.52-.43-2.78-1.05-3.78-1.88l1.83-3.05c.76,.63,1.72,1.15,2.88,1.54,1.16,.39,2.36,.59,3.6,.59,1.9,0,3.3-.44,4.19-1.33,.9-.88,1.34-2.22,1.34-4.01v-3.11l.33-3.93-.13-3.96v-4.29h3.9v14.84c0,3.17-.81,5.5-2.42,6.99-1.62,1.5-3.95,2.24-7.01,2.24Zm.1-10.84c1.03,0,1.94-.21,2.75-.64,.81-.43,1.44-1.02,1.88-1.77,.45-.75,.67-1.61,.67-2.57s-.22-1.88-.67-2.62c-.45-.74-1.08-1.32-1.88-1.74-.81-.42-1.73-.62-2.75-.62s-1.95,.21-2.77,.62c-.82,.42-1.45,.99-1.9,1.74s-.67,1.62-.67,2.62,.22,1.82,.67,2.57c.45,.75,1.08,1.34,1.9,1.77,.82,.43,1.74,.64,2.77,.64Z"/><path class="m" d="M1363.47,1011.2c-1.31,0-2.46-.22-3.44-.67-.98-.45-1.74-1.07-2.28-1.87-.54-.8-.8-1.7-.8-2.7s.23-1.87,.7-2.65,1.24-1.41,2.31-1.87c1.07-.46,2.49-.69,4.26-.69h5.08v2.72h-4.78c-1.38,0-2.31,.22-2.8,.67-.49,.45-.74,1.01-.74,1.69,0,.72,.29,1.3,.88,1.74,.59,.44,1.41,.66,2.46,.66s1.91-.23,2.7-.69c.8-.46,1.38-1.14,1.75-2.03l.66,2.46c-.39,1.03-1.09,1.82-2.1,2.39-1,.57-2.29,.85-3.87,.85Zm5.5-.23v-3.57l-.2-.72v-6.19c0-1.2-.37-2.13-1.1-2.8s-1.84-1-3.33-1c-.96,0-1.91,.15-2.85,.46-.94,.31-1.75,.73-2.42,1.28l-1.61-2.98c.96-.72,2.08-1.27,3.37-1.64,1.29-.37,2.63-.56,4.03-.56,2.55,0,4.52,.61,5.9,1.83,1.38,1.22,2.06,3.1,2.06,5.63v10.25h-3.87Z"/><path class="m" d="M1378.11,1010.97v-17.49h3.9v4.82l-.46-1.41c.5-1.18,1.32-2.08,2.46-2.7,1.13-.62,2.52-.93,4.16-.93v3.9c-.15-.02-.31-.04-.46-.05-.15-.01-.29-.02-.43-.02-1.57,0-2.82,.45-3.73,1.34-.92,.9-1.38,2.26-1.38,4.1v8.45h-4.06Z"/><path class="m" d="M1393.8,1017.55c-.87,0-1.74-.14-2.59-.43s-1.55-.68-2.1-1.18l1.61-2.98c.41,.35,.88,.63,1.39,.85,.51,.22,1.05,.33,1.62,.33,.74,0,1.34-.19,1.8-.56,.46-.37,.88-1,1.28-1.9l.98-2.23,.39-.52,6.58-15.46h3.93l-8.19,18.93c-.55,1.29-1.15,2.31-1.82,3.06-.67,.75-1.41,1.29-2.23,1.61-.82,.32-1.71,.47-2.67,.47Zm3.57-5.96l-7.89-18.12h4.23l6.45,15.1-2.79,3.01Z"/></g><g><path class="m" d="M2150.25,1011.29c-1.79,0-3.43-.29-4.93-.87-1.5-.58-2.8-1.4-3.92-2.47-1.11-1.07-1.98-2.31-2.59-3.73s-.92-2.99-.92-4.72,.31-3.3,.92-4.72c.61-1.42,1.48-2.66,2.6-3.73,1.12-1.07,2.44-1.89,3.93-2.47,1.5-.58,3.16-.87,5-.87s3.66,.32,5.22,.95c1.56,.63,2.88,1.56,3.95,2.78l-2.69,2.62c-.9-.9-1.86-1.56-2.9-1.98s-2.18-.64-3.42-.64-2.34,.2-3.36,.59c-1.02,.39-1.9,.95-2.64,1.67s-1.32,1.57-1.74,2.56c-.42,.98-.62,2.06-.62,3.24s.21,2.23,.62,3.23c.42,.99,.99,1.85,1.74,2.57s1.62,1.28,2.62,1.67c1,.39,2.12,.59,3.34,.59,1.14,0,2.23-.18,3.29-.54,1.06-.36,2.07-.97,3.03-1.82l2.39,3.18c-1.18,.96-2.55,1.69-4.13,2.18-1.57,.49-3.18,.74-4.82,.74Zm4.95-3.47v-8.55h4v9.11l-4-.56Z"/><path class="m" d="M2164.47,1010.97v-17.49h3.9v4.82l-.46-1.41c.5-1.18,1.32-2.08,2.46-2.7,1.14-.62,2.52-.93,4.16-.93v3.9c-.15-.02-.31-.04-.46-.05-.15-.01-.29-.02-.43-.02-1.57,0-2.82,.45-3.73,1.34-.92,.9-1.38,2.26-1.38,4.1v8.45h-4.06Z"/><path class="m" d="M2186.09,1011.2c-1.94,0-3.64-.39-5.09-1.16-1.45-.78-2.58-1.83-3.37-3.18-.8-1.34-1.2-2.89-1.2-4.63s.39-3.29,1.16-4.64,1.85-2.4,3.21-3.18c1.36-.77,2.92-1.16,4.67-1.16s3.22,.38,4.55,1.13c1.33,.75,2.38,1.81,3.15,3.16,.76,1.35,1.15,2.96,1.15,4.82,0,.15,0,.34-.02,.57-.01,.23-.03,.43-.05,.61h-14.58v-2.72h12.42l-1.64,.85c.02-.98-.18-1.86-.61-2.64s-1.01-1.38-1.75-1.8-1.62-.64-2.62-.64-1.86,.21-2.64,.64-1.37,1.03-1.79,1.82-.62,1.69-.62,2.72v.66c0,1.05,.23,1.98,.7,2.78,.47,.81,1.14,1.44,2.01,1.88,.87,.45,1.89,.67,3.05,.67,.98,0,1.87-.16,2.65-.49,.79-.33,1.48-.81,2.1-1.44l2.23,2.55c-.81,.92-1.81,1.62-3,2.1s-2.55,.72-4.08,.72Z"/><path class="m" d="M2206.46,1011.2c-1.94,0-3.64-.39-5.09-1.16s-2.58-1.83-3.37-3.18-1.2-2.89-1.2-4.63,.39-3.29,1.16-4.64c.77-1.34,1.84-2.4,3.21-3.18,1.36-.77,2.92-1.16,4.67-1.16s3.22,.38,4.55,1.13c1.33,.75,2.38,1.81,3.14,3.16s1.15,2.96,1.15,4.82c0,.15,0,.34-.02,.57s-.03,.43-.05,.61h-14.58v-2.72h12.42l-1.64,.85c.02-.98-.18-1.86-.61-2.64s-1.01-1.38-1.75-1.8c-.74-.43-1.62-.64-2.62-.64s-1.86,.21-2.64,.64c-.78,.43-1.37,1.03-1.79,1.82-.42,.79-.62,1.69-.62,2.72v.66c0,1.05,.23,1.98,.71,2.78,.47,.81,1.14,1.44,2.01,1.88,.87,.45,1.89,.67,3.05,.67,.98,0,1.87-.16,2.65-.49,.79-.33,1.49-.81,2.1-1.44l2.23,2.55c-.81,.92-1.81,1.62-3,2.1-1.19,.48-2.55,.72-4.08,.72Z"/><path class="m" d="M2226.64,1011.2c-1.83,0-3.47-.39-4.9-1.16s-2.55-1.83-3.36-3.18c-.81-1.34-1.21-2.89-1.21-4.63s.4-3.32,1.21-4.65c.81-1.33,1.93-2.39,3.36-3.16,1.43-.77,3.06-1.16,4.9-1.16,1.68,0,3.18,.35,4.49,1.05s2.29,1.71,2.95,3.05l-3.11,1.83c-.52-.81-1.16-1.41-1.92-1.82-.75-.4-1.57-.61-2.44-.61-1,0-1.91,.22-2.72,.67-.81,.45-1.44,1.08-1.9,1.9s-.69,1.79-.69,2.9,.23,2.08,.69,2.92,1.09,1.47,1.9,1.92c.81,.45,1.71,.67,2.72,.67,.87,0,1.69-.2,2.44-.61,.75-.4,1.39-1.02,1.92-1.85l3.11,1.83c-.66,1.31-1.64,2.32-2.95,3.03s-2.81,1.06-4.49,1.06Z"/><path class="m" d="M2245.61,1011.2c-1.94,0-3.64-.39-5.09-1.16s-2.58-1.83-3.37-3.18-1.2-2.89-1.2-4.63,.39-3.29,1.16-4.64c.77-1.34,1.84-2.4,3.21-3.18,1.36-.77,2.92-1.16,4.67-1.16s3.22,.38,4.55,1.13c1.33,.75,2.38,1.81,3.14,3.16s1.15,2.96,1.15,4.82c0,.15,0,.34-.02,.57s-.03,.43-.05,.61h-14.58v-2.72h12.42l-1.64,.85c.02-.98-.18-1.86-.61-2.64s-1.01-1.38-1.75-1.8c-.74-.43-1.62-.64-2.62-.64s-1.86,.21-2.64,.64c-.78,.43-1.37,1.03-1.79,1.82-.42,.79-.62,1.69-.62,2.72v.66c0,1.05,.23,1.98,.71,2.78,.47,.81,1.14,1.44,2.01,1.88,.87,.45,1.89,.67,3.05,.67,.98,0,1.87-.16,2.65-.49,.79-.33,1.49-.81,2.1-1.44l2.23,2.55c-.81,.92-1.81,1.62-3,2.1-1.19,.48-2.55,.72-4.08,.72Z"/></g><g><path class="m" d="M1685.58,1011.29c-1.77,0-3.4-.29-4.88-.87-1.49-.58-2.78-1.4-3.88-2.47s-1.96-2.31-2.57-3.73-.92-2.99-.92-4.72,.31-3.3,.92-4.72c.61-1.42,1.47-2.66,2.59-3.73,1.11-1.07,2.41-1.89,3.9-2.47,1.48-.58,3.11-.87,4.88-.87,1.88,0,3.59,.32,5.14,.97,1.55,.64,2.86,1.6,3.93,2.87l-2.75,2.59c-.85-.9-1.79-1.57-2.82-2.01-1.03-.45-2.13-.67-3.31-.67s-2.3,.2-3.29,.59c-.99,.39-1.86,.95-2.59,1.67-.73,.72-1.31,1.57-1.72,2.56-.41,.98-.62,2.06-.62,3.24s.21,2.26,.62,3.24c.42,.98,.99,1.83,1.72,2.56,.73,.72,1.59,1.28,2.59,1.67,.99,.39,2.09,.59,3.29,.59s2.28-.22,3.31-.67,1.97-1.13,2.82-2.05l2.75,2.59c-1.07,1.27-2.38,2.23-3.93,2.88s-3.28,.98-5.18,.98Z"/><path class="m" d="M1696.46,1010.97v-2.59l10.78-13.04,.79,1.41h-11.37v-3.28h14.61v2.59l-10.78,13.04-.82-1.41h11.89v3.28h-15.1Z"/><path class="m" d="M1723.29,1011.2c-1.95,0-3.64-.39-5.09-1.16s-2.58-1.83-3.37-3.18-1.2-2.89-1.2-4.63,.39-3.29,1.16-4.64,1.85-2.4,3.21-3.18c1.36-.77,2.92-1.16,4.67-1.16s3.22,.38,4.55,1.13c1.33,.75,2.38,1.81,3.15,3.16s1.15,2.96,1.15,4.82c0,.15,0,.34-.02,.57-.01,.23-.03,.43-.05,.61h-14.58v-2.72h12.42l-1.64,.85c.02-.98-.18-1.86-.61-2.64s-1.01-1.38-1.75-1.8c-.74-.43-1.62-.64-2.62-.64s-1.86,.21-2.64,.64c-.78,.43-1.37,1.03-1.79,1.82-.42,.79-.62,1.69-.62,2.72v.66c0,1.05,.23,1.98,.71,2.78,.47,.81,1.14,1.44,2.01,1.88,.87,.45,1.89,.67,3.05,.67,.98,0,1.87-.16,2.65-.49,.79-.33,1.49-.81,2.1-1.44l2.23,2.55c-.81,.92-1.81,1.62-3,2.1-1.19,.48-2.55,.72-4.08,.72Z"/><path class="m" d="M1743.47,1011.2c-1.83,0-3.47-.39-4.9-1.16-1.43-.78-2.55-1.83-3.36-3.18-.81-1.34-1.21-2.89-1.21-4.63s.4-3.32,1.21-4.65c.81-1.33,1.93-2.39,3.36-3.16,1.43-.77,3.06-1.16,4.9-1.16,1.68,0,3.18,.35,4.49,1.05s2.29,1.71,2.95,3.05l-3.11,1.83c-.52-.81-1.16-1.41-1.92-1.82-.75-.4-1.57-.61-2.44-.61-1,0-1.91,.22-2.72,.67-.81,.45-1.44,1.08-1.9,1.9-.46,.82-.69,1.79-.69,2.9s.23,2.08,.69,2.92c.46,.83,1.09,1.47,1.9,1.92,.81,.45,1.71,.67,2.72,.67,.87,0,1.69-.2,2.44-.61s1.39-1.02,1.92-1.85l3.11,1.83c-.66,1.31-1.64,2.32-2.95,3.03s-2.81,1.06-4.49,1.06Z"/><path class="m" d="M1764.24,993.25c1.42,0,2.67,.27,3.75,.82s1.94,1.39,2.59,2.52c.64,1.14,.97,2.59,.97,4.36v10.02h-4.09v-9.5c0-1.55-.36-2.71-1.08-3.47-.72-.76-1.75-1.15-3.08-1.15-.96,0-1.81,.2-2.56,.59-.74,.39-1.32,.98-1.72,1.75s-.61,1.75-.61,2.93v8.84h-4.06v-24.31h4.06v11.56l-.85-1.47c.59-1.11,1.47-1.98,2.64-2.59,1.17-.61,2.52-.92,4.04-.92Z"/><path class="m" d="M1784.64,1011.2c-1.77,0-3.36-.39-4.77-1.16s-2.52-1.84-3.33-3.19c-.81-1.35-1.21-2.89-1.21-4.62s.4-3.32,1.21-4.65c.81-1.33,1.91-2.39,3.31-3.16,1.4-.77,2.99-1.16,4.78-1.16s3.42,.39,4.83,1.16c1.41,.78,2.51,1.83,3.31,3.16,.8,1.33,1.2,2.88,1.2,4.65s-.4,3.29-1.2,4.63c-.8,1.34-1.91,2.4-3.33,3.18-1.42,.78-3.03,1.16-4.82,1.16Zm0-3.47c1,0,1.9-.22,2.69-.67,.79-.45,1.4-1.09,1.85-1.93,.45-.84,.67-1.81,.67-2.9s-.22-2.08-.67-2.9c-.45-.82-1.06-1.45-1.85-1.9-.79-.45-1.67-.67-2.65-.67s-1.87,.22-2.65,.67c-.79,.45-1.41,1.08-1.87,1.9s-.69,1.79-.69,2.9,.23,2.06,.69,2.9c.46,.84,1.08,1.49,1.87,1.93,.79,.45,1.66,.67,2.62,.67Z"/><path class="m" d="M1803.35,1011.2c-1.49,0-2.89-.19-4.23-.57s-2.4-.85-3.21-1.39l1.57-3.11c.79,.5,1.73,.91,2.82,1.23,1.09,.32,2.2,.48,3.31,.48,1.27,0,2.19-.17,2.77-.51s.87-.8,.87-1.39c0-.48-.2-.85-.59-1.1-.39-.25-.91-.44-1.54-.57-.63-.13-1.34-.25-2.11-.36-.78-.11-1.55-.26-2.33-.44-.78-.19-1.48-.46-2.11-.82-.63-.36-1.15-.85-1.54-1.46-.39-.61-.59-1.43-.59-2.46,0-1.09,.32-2.05,.95-2.87,.63-.82,1.52-1.46,2.67-1.92,1.15-.46,2.51-.69,4.08-.69,1.16,0,2.34,.14,3.55,.41,1.21,.27,2.22,.65,3.03,1.13l-1.6,3.11c-.81-.48-1.64-.81-2.49-1s-1.69-.28-2.52-.28c-1.22,0-2.14,.18-2.75,.54-.61,.36-.92,.82-.92,1.39,0,.52,.2,.92,.59,1.18,.39,.26,.91,.46,1.54,.61,.63,.14,1.34,.27,2.11,.39,.78,.12,1.54,.27,2.31,.46s1.47,.45,2.11,.79c.64,.34,1.16,.81,1.56,1.42,.39,.61,.59,1.41,.59,2.39,0,1.11-.32,2.07-.97,2.87-.64,.8-1.55,1.42-2.72,1.87s-2.57,.67-4.21,.67Z"/><path class="m" d="M1814.81,1010.97v-24.31h4.06v24.31h-4.06Z"/><path class="m" d="M1832.11,1011.2c-1.77,0-3.36-.39-4.77-1.16s-2.52-1.84-3.32-3.19c-.81-1.35-1.21-2.89-1.21-4.62s.4-3.32,1.21-4.65c.81-1.33,1.91-2.39,3.31-3.16,1.4-.77,2.99-1.16,4.78-1.16s3.42,.39,4.83,1.16c1.41,.78,2.51,1.83,3.31,3.16,.8,1.33,1.2,2.88,1.2,4.65s-.4,3.29-1.2,4.63-1.9,2.4-3.32,3.18-3.03,1.16-4.82,1.16Zm0-3.47c1,0,1.9-.22,2.69-.67,.79-.45,1.4-1.09,1.85-1.93,.45-.84,.67-1.81,.67-2.9s-.22-2.08-.67-2.9c-.45-.82-1.06-1.45-1.85-1.9-.79-.45-1.67-.67-2.65-.67s-1.87,.22-2.65,.67c-.79,.45-1.41,1.08-1.87,1.9-.46,.82-.69,1.79-.69,2.9s.23,2.06,.69,2.9c.46,.84,1.08,1.49,1.87,1.93,.79,.45,1.66,.67,2.62,.67Z"/><path class="m" d="M1849.54,1010.97l-7.5-17.49h4.23l6.49,15.43h-2.1l6.68-15.43h3.93l-7.5,17.49h-4.23Z"/><path class="m" d="M1868.54,1011.2c-1.31,0-2.46-.22-3.44-.67s-1.74-1.07-2.28-1.87c-.54-.8-.8-1.7-.8-2.7s.23-1.87,.71-2.65c.47-.79,1.24-1.41,2.31-1.87,1.07-.46,2.49-.69,4.26-.69h5.08v2.72h-4.78c-1.38,0-2.31,.22-2.8,.67-.49,.45-.74,1.01-.74,1.69,0,.72,.29,1.3,.88,1.74,.59,.44,1.41,.66,2.46,.66s1.91-.23,2.7-.69c.8-.46,1.38-1.14,1.75-2.03l.66,2.46c-.39,1.03-1.09,1.82-2.1,2.39-1,.57-2.29,.85-3.87,.85Zm5.5-.23v-3.57l-.2-.72v-6.19c0-1.2-.37-2.13-1.1-2.8-.73-.67-1.84-1-3.32-1-.96,0-1.91,.15-2.85,.46-.94,.31-1.75,.73-2.42,1.28l-1.61-2.98c.96-.72,2.08-1.27,3.37-1.64s2.63-.56,4.03-.56c2.55,0,4.52,.61,5.9,1.83,1.38,1.22,2.06,3.1,2.06,5.63v10.25h-3.87Z"/><path class="m" d="M1883.18,1010.97v-24.31h4.06v24.31h-4.06Zm3.31-3.9l.1-5.14,9.14-8.45h4.91l-7.76,7.76-2.2,1.83-4.19,4Zm9.89,3.9l-6.45-7.89,2.59-3.28,8.81,11.17h-4.95Z"/><path class="m" d="M1906.04,990.59c-.77,0-1.39-.24-1.88-.72-.49-.48-.74-1.07-.74-1.77,0-.66,.25-1.22,.74-1.7,.49-.48,1.12-.72,1.88-.72s1.39,.22,1.88,.67c.49,.45,.74,1.02,.74,1.72s-.24,1.29-.72,1.79c-.48,.49-1.11,.74-1.9,.74Zm-2.03,20.38v-17.49h4.06v17.49h-4.06Z"/><path class="m" d="M1918.72,1011.2c-1.31,0-2.46-.22-3.44-.67-.98-.45-1.74-1.07-2.28-1.87-.54-.8-.8-1.7-.8-2.7s.23-1.87,.7-2.65c.47-.79,1.24-1.41,2.31-1.87,1.07-.46,2.49-.69,4.26-.69h5.08v2.72h-4.78c-1.38,0-2.31,.22-2.8,.67-.49,.45-.74,1.01-.74,1.69,0,.72,.29,1.3,.88,1.74,.59,.44,1.41,.66,2.46,.66s1.91-.23,2.7-.69c.8-.46,1.38-1.14,1.75-2.03l.66,2.46c-.39,1.03-1.09,1.82-2.1,2.39-1,.57-2.29,.85-3.87,.85Zm5.5-.23v-3.57l-.2-.72v-6.19c0-1.2-.37-2.13-1.1-2.8-.73-.67-1.84-1-3.33-1-.96,0-1.91,.15-2.85,.46-.94,.31-1.75,.73-2.42,1.28l-1.61-2.98c.96-.72,2.09-1.27,3.38-1.64,1.29-.37,2.63-.56,4.03-.56,2.56,0,4.52,.61,5.9,1.83,1.38,1.22,2.06,3.1,2.06,5.63v10.25h-3.87Z"/></g><g><path class="m" d="M1446.08,1011.29c-1.79,0-3.5-.26-5.13-.77s-2.93-1.17-3.92-1.98l1.47-3.31c.92,.72,2.05,1.32,3.41,1.8,1.35,.48,2.74,.72,4.16,.72,1.2,0,2.17-.13,2.92-.39s1.29-.62,1.64-1.06c.35-.45,.52-.96,.52-1.52,0-.7-.25-1.26-.75-1.69-.5-.43-1.15-.76-1.95-1.02-.8-.25-1.68-.48-2.65-.69-.97-.21-1.94-.46-2.92-.77s-1.86-.69-2.67-1.16c-.81-.47-1.46-1.1-1.95-1.88-.49-.79-.74-1.79-.74-3.01s.33-2.39,1-3.42c.67-1.04,1.68-1.87,3.05-2.49,1.37-.62,3.1-.93,5.19-.93,1.38,0,2.74,.18,4.09,.52,1.35,.35,2.53,.85,3.54,1.51l-1.34,3.31c-1.03-.61-2.09-1.06-3.18-1.36s-2.14-.44-3.14-.44c-1.16,0-2.11,.14-2.85,.43-.74,.28-1.28,.66-1.62,1.13s-.51,.99-.51,1.56c0,.7,.25,1.26,.74,1.69,.49,.43,1.13,.76,1.93,1,.8,.24,1.69,.47,2.67,.69,.98,.22,1.96,.47,2.92,.77s1.85,.68,2.65,1.15c.81,.47,1.46,1.09,1.95,1.87,.49,.78,.74,1.76,.74,2.96s-.33,2.35-1,3.39c-.67,1.04-1.69,1.87-3.06,2.49-1.38,.62-3.11,.93-5.21,.93Z"/><path class="m" d="M1467.04,1011.2c-1.77,0-3.36-.39-4.77-1.16-1.41-.78-2.52-1.84-3.32-3.19-.81-1.35-1.21-2.89-1.21-4.62s.4-3.32,1.21-4.65c.81-1.33,1.91-2.39,3.31-3.16,1.4-.77,2.99-1.16,4.78-1.16s3.42,.39,4.83,1.16c1.41,.78,2.51,1.83,3.31,3.16,.8,1.33,1.2,2.88,1.2,4.65s-.4,3.29-1.2,4.63c-.8,1.34-1.91,2.4-3.33,3.18s-3.03,1.16-4.81,1.16Zm0-3.47c1,0,1.9-.22,2.69-.67,.79-.45,1.4-1.09,1.85-1.93,.45-.84,.67-1.81,.67-2.9s-.22-2.08-.67-2.9-1.06-1.45-1.85-1.9c-.79-.45-1.67-.67-2.65-.67s-1.87,.22-2.65,.67c-.79,.45-1.41,1.08-1.87,1.9s-.69,1.79-.69,2.9,.23,2.06,.69,2.9c.46,.84,1.08,1.49,1.87,1.93,.79,.45,1.66,.67,2.62,.67Z"/><path class="m" d="M1484.47,1010.97l-7.5-17.49h4.23l6.49,15.43h-2.1l6.68-15.43h3.93l-7.5,17.49h-4.23Z"/><path class="m" d="M1500.82,990.59c-.76,0-1.39-.24-1.88-.72-.49-.48-.74-1.07-.74-1.77,0-.66,.25-1.22,.74-1.7,.49-.48,1.12-.72,1.88-.72s1.39,.22,1.88,.67c.49,.45,.74,1.02,.74,1.72s-.24,1.29-.72,1.79c-.48,.49-1.11,.74-1.9,.74Zm-2.03,20.38v-17.49h4.06v17.49h-4.06Z"/><path class="m" d="M1516.44,1011.2c-1.95,0-3.64-.39-5.09-1.16s-2.58-1.83-3.37-3.18-1.2-2.89-1.2-4.63,.39-3.29,1.16-4.64,1.85-2.4,3.21-3.18c1.36-.77,2.92-1.16,4.67-1.16s3.22,.38,4.55,1.13c1.33,.75,2.38,1.81,3.15,3.16s1.15,2.96,1.15,4.82c0,.15,0,.34-.02,.57-.01,.23-.03,.43-.05,.61h-14.58v-2.72h12.42l-1.64,.85c.02-.98-.18-1.86-.61-2.64s-1.01-1.38-1.75-1.8c-.74-.43-1.62-.64-2.62-.64s-1.86,.21-2.64,.64c-.78,.43-1.37,1.03-1.79,1.82-.42,.79-.62,1.69-.62,2.72v.66c0,1.05,.23,1.98,.71,2.78,.47,.81,1.14,1.44,2.01,1.88,.87,.45,1.89,.67,3.05,.67,.98,0,1.87-.16,2.65-.49,.79-.33,1.49-.81,2.1-1.44l2.23,2.55c-.81,.92-1.81,1.62-3,2.1-1.19,.48-2.55,.72-4.08,.72Z"/><path class="m" d="M1526.27,996.88v-3.28h11.66v3.28h-11.66Zm8.91,14.32c-1.92,0-3.41-.5-4.46-1.49-1.05-.99-1.57-2.45-1.57-4.37v-15.72h4.06v15.59c0,.83,.22,1.47,.65,1.93,.44,.46,1.05,.69,1.83,.69,.9,0,1.64-.24,2.23-.72l1.18,2.92c-.5,.39-1.1,.69-1.8,.88s-1.41,.29-2.13,.29Z"/><path class="m" d="M1561.75,1011.29c-3.12,0-5.57-.88-7.35-2.65-1.78-1.77-2.67-4.33-2.67-7.7v-12.91h4.26v12.78c0,2.36,.51,4.07,1.52,5.14s2.45,1.6,4.31,1.6,3.29-.53,4.29-1.6c1-1.07,1.51-2.79,1.51-5.14v-12.78h4.19v12.91c0,3.36-.89,5.93-2.67,7.7-1.78,1.77-4.24,2.65-7.39,2.65Z"/><path class="m" d="M1587.3,993.25c1.42,0,2.67,.27,3.75,.82,1.08,.55,1.94,1.39,2.59,2.52,.64,1.14,.97,2.59,.97,4.36v10.02h-4.09v-9.5c0-1.55-.36-2.71-1.08-3.47-.72-.76-1.75-1.15-3.08-1.15-.96,0-1.81,.2-2.55,.59-.74,.39-1.32,.98-1.72,1.75s-.61,1.75-.61,2.93v8.84h-4.06v-17.49h3.9v4.75l-.69-1.47c.59-1.11,1.47-1.98,2.64-2.59s2.52-.92,4.04-.92Z"/><path class="m" d="M1601.88,990.59c-.76,0-1.39-.24-1.88-.72-.49-.48-.74-1.07-.74-1.77,0-.66,.25-1.22,.74-1.7s1.12-.72,1.88-.72,1.39,.22,1.88,.67c.49,.45,.74,1.02,.74,1.72s-.24,1.29-.72,1.79c-.48,.49-1.11,.74-1.9,.74Zm-2.03,20.38v-17.49h4.06v17.49h-4.06Z"/><path class="m" d="M1617.14,1011.2c-1.77,0-3.36-.39-4.77-1.16s-2.52-1.84-3.32-3.19c-.81-1.35-1.21-2.89-1.21-4.62s.4-3.32,1.21-4.65c.81-1.33,1.91-2.39,3.31-3.16,1.4-.77,2.99-1.16,4.78-1.16s3.42,.39,4.83,1.16c1.41,.78,2.51,1.83,3.31,3.16,.8,1.33,1.2,2.88,1.2,4.65s-.4,3.29-1.2,4.63-1.9,2.4-3.32,3.18-3.03,1.16-4.82,1.16Zm0-3.47c1,0,1.9-.22,2.69-.67,.79-.45,1.4-1.09,1.85-1.93,.45-.84,.67-1.81,.67-2.9s-.22-2.08-.67-2.9c-.45-.82-1.06-1.45-1.85-1.9-.79-.45-1.67-.67-2.65-.67s-1.87,.22-2.65,.67c-.79,.45-1.41,1.08-1.87,1.9-.46,.82-.69,1.79-.69,2.9s.23,2.06,.69,2.9c.46,.84,1.08,1.49,1.87,1.93,.79,.45,1.66,.67,2.62,.67Z"/><path class="m" d="M1640.33,993.25c1.42,0,2.67,.27,3.75,.82s1.94,1.39,2.59,2.52c.64,1.14,.97,2.59,.97,4.36v10.02h-4.09v-9.5c0-1.55-.36-2.71-1.08-3.47-.72-.76-1.75-1.15-3.08-1.15-.96,0-1.81,.2-2.56,.59-.74,.39-1.32,.98-1.72,1.75s-.61,1.75-.61,2.93v8.84h-4.06v-17.49h3.9v4.75l-.69-1.47c.59-1.11,1.47-1.98,2.64-2.59,1.17-.61,2.52-.92,4.04-.92Z"/></g><g><path class="m" d="M1962.97,1010.97v-22.93h9.43c2.03,0,3.77,.32,5.23,.97,1.45,.64,2.57,1.58,3.36,2.8,.79,1.22,1.18,2.69,1.18,4.39s-.39,3.12-1.18,4.32c-.79,1.2-1.91,2.13-3.36,2.79-1.45,.65-3.19,.98-5.23,.98h-7.04l1.87-1.9v8.58h-4.26Zm4.26-8.12l-1.87-2.06h6.85c1.88,0,3.29-.4,4.24-1.21,.95-.81,1.42-1.93,1.42-3.38s-.47-2.56-1.42-3.36c-.95-.8-2.36-1.2-4.24-1.2h-6.85l1.87-2.1v13.3Zm10.75,8.12l-5.8-8.32h4.55l5.83,8.32h-4.59Z"/><path class="m" d="M1994.38,1011.2c-1.77,0-3.36-.39-4.77-1.16-1.41-.78-2.52-1.84-3.33-3.19-.81-1.35-1.21-2.89-1.21-4.62s.4-3.32,1.21-4.65c.81-1.33,1.91-2.39,3.31-3.16,1.4-.77,2.99-1.16,4.78-1.16s3.42,.39,4.83,1.16c1.41,.78,2.51,1.83,3.31,3.16,.8,1.33,1.2,2.88,1.2,4.65s-.4,3.29-1.2,4.63-1.91,2.4-3.32,3.18c-1.42,.78-3.03,1.16-4.82,1.16Zm0-3.47c1,0,1.9-.22,2.69-.67,.79-.45,1.4-1.09,1.85-1.93,.45-.84,.67-1.81,.67-2.9s-.22-2.08-.67-2.9-1.06-1.45-1.85-1.9c-.79-.45-1.67-.67-2.65-.67s-1.87,.22-2.65,.67c-.79,.45-1.41,1.08-1.87,1.9-.46,.82-.69,1.79-.69,2.9s.23,2.06,.69,2.9c.46,.84,1.08,1.49,1.87,1.93,.79,.45,1.66,.67,2.62,.67Z"/><path class="m" d="M2029.73,993.25c1.4,0,2.64,.27,3.72,.82s1.93,1.39,2.54,2.52,.92,2.59,.92,4.36v10.02h-4.06v-9.5c0-1.55-.34-2.71-1.03-3.47-.69-.76-1.67-1.15-2.93-1.15-.9,0-1.69,.2-2.38,.59-.69,.39-1.22,.98-1.6,1.75s-.57,1.74-.57,2.9v8.88h-4.06v-9.5c0-1.55-.34-2.71-1.03-3.47-.69-.76-1.67-1.15-2.93-1.15-.9,0-1.69,.2-2.38,.59-.69,.39-1.22,.98-1.61,1.75-.38,.78-.57,1.74-.57,2.9v8.88h-4.06v-17.49h3.9v4.68l-.72-1.41c.59-1.11,1.45-1.98,2.57-2.59s2.42-.92,3.88-.92c1.64,0,3.06,.4,4.26,1.21,1.2,.81,2,2.05,2.39,3.73l-1.57-.59c.55-1.29,1.47-2.34,2.79-3.14,1.31-.81,2.83-1.21,4.55-1.21Z"/><path class="m" d="M2047.42,1011.2c-1.31,0-2.46-.22-3.44-.67s-1.74-1.07-2.28-1.87c-.54-.8-.8-1.7-.8-2.7s.23-1.87,.7-2.65,1.24-1.41,2.31-1.87c1.07-.46,2.49-.69,4.26-.69h5.08v2.72h-4.78c-1.38,0-2.31,.22-2.8,.67-.49,.45-.74,1.01-.74,1.69,0,.72,.29,1.3,.88,1.74,.59,.44,1.41,.66,2.46,.66s1.91-.23,2.7-.69c.8-.46,1.38-1.14,1.75-2.03l.66,2.46c-.39,1.03-1.09,1.82-2.1,2.39-1,.57-2.29,.85-3.87,.85Zm5.5-.23v-3.57l-.2-.72v-6.19c0-1.2-.37-2.13-1.1-2.8s-1.84-1-3.33-1c-.96,0-1.91,.15-2.85,.46-.94,.31-1.75,.73-2.42,1.28l-1.61-2.98c.96-.72,2.08-1.27,3.37-1.64,1.29-.37,2.63-.56,4.03-.56,2.56,0,4.52,.61,5.9,1.83,1.38,1.22,2.06,3.1,2.06,5.63v10.25h-3.87Z"/><path class="m" d="M2071.96,993.25c1.42,0,2.67,.27,3.75,.82s1.94,1.39,2.59,2.52,.97,2.59,.97,4.36v10.02h-4.1v-9.5c0-1.55-.36-2.71-1.08-3.47-.72-.76-1.75-1.15-3.08-1.15-.96,0-1.81,.2-2.55,.59-.74,.39-1.32,.98-1.72,1.75-.41,.78-.61,1.75-.61,2.93v8.84h-4.06v-17.49h3.9v4.75l-.69-1.47c.59-1.11,1.47-1.98,2.64-2.59s2.52-.92,4.05-.92Z"/><path class="m" d="M2086.53,990.59c-.76,0-1.39-.24-1.88-.72-.49-.48-.74-1.07-.74-1.77,0-.66,.25-1.22,.74-1.7s1.12-.72,1.88-.72,1.39,.22,1.88,.67c.49,.45,.74,1.02,.74,1.72s-.24,1.29-.72,1.79c-.48,.49-1.11,.74-1.9,.74Zm-2.03,20.38v-17.49h4.06v17.49h-4.06Z"/><path class="m" d="M2099.21,1011.2c-1.31,0-2.46-.22-3.44-.67-.98-.45-1.74-1.07-2.28-1.87-.54-.8-.8-1.7-.8-2.7s.23-1.87,.7-2.65,1.24-1.41,2.31-1.87c1.07-.46,2.49-.69,4.26-.69h5.08v2.72h-4.78c-1.38,0-2.31,.22-2.8,.67-.49,.45-.74,1.01-.74,1.69,0,.72,.29,1.3,.88,1.74,.59,.44,1.41,.66,2.46,.66s1.9-.23,2.7-.69c.8-.46,1.38-1.14,1.75-2.03l.65,2.46c-.39,1.03-1.09,1.82-2.1,2.39-1.01,.57-2.29,.85-3.87,.85Zm5.5-.23v-3.57l-.2-.72v-6.19c0-1.2-.37-2.13-1.1-2.8-.73-.67-1.84-1-3.33-1-.96,0-1.91,.15-2.85,.46-.94,.31-1.75,.73-2.42,1.28l-1.61-2.98c.96-.72,2.09-1.27,3.38-1.64,1.29-.37,2.63-.56,4.03-.56,2.55,0,4.52,.61,5.9,1.83,1.38,1.22,2.06,3.1,2.06,5.63v10.25h-3.87Z"/></g><g><path class="m" d="M2287.61,1010.97v-9.07l.98,2.59-9.99-16.44h4.52l8.06,13.27h-2.56l8.03-13.27h4.19l-9.96,16.44,.95-2.59v9.07h-4.22Z"/><path class="m" d="M2309.49,1011.2c-1.49,0-2.8-.28-3.93-.84-1.14-.56-2.03-1.41-2.67-2.55s-.97-2.59-.97-4.34v-9.99h4.13v9.47c0,1.55,.36,2.71,1.08,3.49,.72,.78,1.72,1.16,3.01,1.16,.96,0,1.8-.2,2.52-.59,.72-.39,1.28-.98,1.67-1.77s.59-1.76,.59-2.92v-8.84h4.09v17.49h-3.9v-4.75l.69,1.47c-.59,1.11-1.45,1.98-2.59,2.59-1.14,.61-2.38,.92-3.74,.92Z"/><path class="m" d="M2331.8,1010.18c-1.68,0-3.19-.35-4.52-1.06s-2.39-1.7-3.16-2.96c-.78-1.27-1.16-2.74-1.16-4.42s.39-3.19,1.16-4.47c.77-1.28,1.83-2.27,3.16-2.96s2.84-1.05,4.52-1.05c1.49,0,2.82,.3,4.01,.9,1.19,.6,2.13,1.52,2.83,2.77,.7,1.25,1.05,2.85,1.05,4.82s-.35,3.51-1.05,4.75c-.7,1.25-1.64,2.17-2.83,2.79-1.19,.61-2.53,.92-4.01,.92Zm.52,7.37c-1.64,0-3.22-.21-4.73-.64-1.52-.43-2.78-1.05-3.78-1.88l1.83-3.05c.76,.63,1.72,1.15,2.88,1.54,1.16,.39,2.36,.59,3.6,.59,1.9,0,3.3-.44,4.19-1.33,.9-.88,1.34-2.22,1.34-4.01v-3.11l.33-3.93-.13-3.96v-4.29h3.9v14.84c0,3.17-.81,5.5-2.42,6.99-1.62,1.5-3.95,2.24-7.01,2.24Zm.1-10.84c1.03,0,1.94-.21,2.75-.64s1.44-1.02,1.88-1.77c.45-.75,.67-1.61,.67-2.57s-.22-1.88-.67-2.62c-.45-.74-1.08-1.32-1.88-1.74s-1.72-.62-2.75-.62-1.95,.21-2.77,.62-1.45,.99-1.9,1.74-.67,1.62-.67,2.62,.22,1.82,.67,2.57c.45,.75,1.08,1.34,1.9,1.77s1.74,.64,2.77,.64Z"/><path class="m" d="M2354.99,1011.2c-1.77,0-3.36-.39-4.77-1.16s-2.52-1.84-3.33-3.19c-.81-1.35-1.21-2.89-1.21-4.62s.4-3.32,1.21-4.65c.81-1.33,1.91-2.39,3.31-3.16,1.4-.77,2.99-1.16,4.78-1.16s3.42,.39,4.83,1.16c1.41,.78,2.51,1.83,3.31,3.16,.8,1.33,1.2,2.88,1.2,4.65s-.4,3.29-1.2,4.63c-.8,1.34-1.91,2.4-3.33,3.18-1.42,.78-3.03,1.16-4.82,1.16Zm0-3.47c1,0,1.9-.22,2.69-.67,.79-.45,1.4-1.09,1.85-1.93,.45-.84,.67-1.81,.67-2.9s-.22-2.08-.67-2.9c-.45-.82-1.06-1.45-1.85-1.9-.79-.45-1.67-.67-2.65-.67s-1.87,.22-2.65,.67c-.79,.45-1.41,1.08-1.87,1.9s-.69,1.79-.69,2.9,.23,2.06,.69,2.9c.46,.84,1.08,1.49,1.87,1.93,.79,.45,1.66,.67,2.62,.67Z"/><path class="m" d="M2373.69,1011.2c-1.49,0-2.89-.19-4.23-.57s-2.4-.85-3.21-1.39l1.57-3.11c.79,.5,1.73,.91,2.82,1.23,1.09,.32,2.2,.48,3.31,.48,1.27,0,2.19-.17,2.77-.51s.87-.8,.87-1.39c0-.48-.2-.85-.59-1.1-.39-.25-.91-.44-1.54-.57-.63-.13-1.34-.25-2.11-.36-.78-.11-1.55-.26-2.33-.44-.78-.19-1.48-.46-2.11-.82-.63-.36-1.15-.85-1.54-1.46-.39-.61-.59-1.43-.59-2.46,0-1.09,.32-2.05,.95-2.87,.63-.82,1.52-1.46,2.67-1.92,1.15-.46,2.51-.69,4.08-.69,1.16,0,2.34,.14,3.55,.41,1.21,.27,2.22,.65,3.03,1.13l-1.6,3.11c-.81-.48-1.64-.81-2.49-1s-1.69-.28-2.52-.28c-1.22,0-2.14,.18-2.75,.54-.61,.36-.92,.82-.92,1.39,0,.52,.2,.92,.59,1.18,.39,.26,.91,.46,1.54,.61,.63,.14,1.34,.27,2.11,.39,.78,.12,1.54,.27,2.31,.46s1.47,.45,2.11,.79c.64,.34,1.16,.81,1.56,1.42,.39,.61,.59,1.41,.59,2.39,0,1.11-.32,2.07-.97,2.87-.64,.8-1.55,1.42-2.72,1.87s-2.57,.67-4.21,.67Z"/><path class="m" d="M2385.16,1010.97v-24.31h4.06v24.31h-4.06Z"/><path class="m" d="M2399.87,1011.2c-1.31,0-2.46-.22-3.44-.67-.98-.45-1.74-1.07-2.28-1.87-.54-.8-.8-1.7-.8-2.7s.23-1.87,.7-2.65,1.24-1.41,2.31-1.87c1.07-.46,2.49-.69,4.26-.69h5.08v2.72h-4.78c-1.38,0-2.31,.22-2.8,.67-.49,.45-.74,1.01-.74,1.69,0,.72,.29,1.3,.88,1.74,.59,.44,1.41,.66,2.46,.66s1.9-.23,2.7-.69c.8-.46,1.38-1.14,1.75-2.03l.65,2.46c-.39,1.03-1.09,1.82-2.1,2.39-1.01,.57-2.29,.85-3.87,.85Zm5.5-.23v-3.57l-.2-.72v-6.19c0-1.2-.37-2.13-1.1-2.8-.73-.67-1.84-1-3.33-1-.96,0-1.91,.15-2.85,.46-.94,.31-1.75,.73-2.42,1.28l-1.61-2.98c.96-.72,2.09-1.27,3.38-1.64,1.29-.37,2.63-.56,4.03-.56,2.55,0,4.52,.61,5.9,1.83,1.38,1.22,2.06,3.1,2.06,5.63v10.25h-3.87Z"/><path class="m" d="M2418.8,1010.97l-7.5-17.49h4.23l6.49,15.43h-2.1l6.68-15.43h3.93l-7.5,17.49h-4.23Z"/><path class="m" d="M2435.15,990.59c-.76,0-1.39-.24-1.88-.72-.49-.48-.74-1.07-.74-1.77,0-.66,.25-1.22,.74-1.7s1.12-.72,1.88-.72,1.39,.22,1.88,.67c.49,.45,.74,1.02,.74,1.72s-.24,1.29-.72,1.79c-.48,.49-1.11,.74-1.9,.74Zm-2.03,20.38v-17.49h4.06v17.49h-4.06Z"/><path class="m" d="M2447.82,1011.2c-1.31,0-2.46-.22-3.44-.67-.98-.45-1.74-1.07-2.28-1.87-.54-.8-.8-1.7-.8-2.7s.23-1.87,.7-2.65,1.24-1.41,2.31-1.87c1.07-.46,2.49-.69,4.26-.69h5.08v2.72h-4.78c-1.38,0-2.31,.22-2.8,.67-.49,.45-.74,1.01-.74,1.69,0,.72,.29,1.3,.88,1.74,.59,.44,1.41,.66,2.46,.66s1.9-.23,2.7-.69c.8-.46,1.38-1.14,1.75-2.03l.65,2.46c-.39,1.03-1.09,1.82-2.1,2.39-1.01,.57-2.29,.85-3.87,.85Zm5.5-.23v-3.57l-.2-.72v-6.19c0-1.2-.37-2.13-1.1-2.8-.73-.67-1.84-1-3.33-1-.96,0-1.91,.15-2.85,.46-.94,.31-1.75,.73-2.42,1.28l-1.61-2.98c.96-.72,2.09-1.27,3.38-1.64,1.29-.37,2.63-.56,4.03-.56,2.55,0,4.52,.61,5.9,1.83,1.38,1.22,2.06,3.1,2.06,5.63v10.25h-3.87Z"/></g><g><path class="m" d="M161.36,1011.29c-3.12,0-5.57-.88-7.35-2.65-1.78-1.77-2.67-4.33-2.67-7.7v-12.91h4.26v12.78c0,2.36,.51,4.07,1.52,5.14s2.45,1.6,4.31,1.6,3.29-.53,4.29-1.6c1-1.07,1.51-2.79,1.51-5.14v-12.78h4.19v12.91c0,3.36-.89,5.93-2.67,7.7-1.78,1.77-4.24,2.65-7.39,2.65Z"/><path class="m" d="M186.91,993.25c1.42,0,2.67,.27,3.75,.82s1.94,1.39,2.59,2.52c.64,1.14,.97,2.59,.97,4.36v10.02h-4.09v-9.5c0-1.55-.36-2.71-1.08-3.47-.72-.76-1.75-1.15-3.08-1.15-.96,0-1.81,.2-2.56,.59-.74,.39-1.32,.98-1.72,1.75-.4,.78-.61,1.75-.61,2.93v8.84h-4.06v-17.49h3.9v4.75l-.69-1.47c.59-1.11,1.47-1.98,2.64-2.59,1.17-.61,2.52-.92,4.05-.92Z"/><path class="m" d="M201.49,990.59c-.76,0-1.39-.24-1.88-.72-.49-.48-.74-1.07-.74-1.77,0-.66,.25-1.22,.74-1.7,.49-.48,1.12-.72,1.88-.72s1.39,.22,1.88,.67c.49,.45,.74,1.02,.74,1.72s-.24,1.29-.72,1.79c-.48,.49-1.11,.74-1.9,.74Zm-2.03,20.38v-17.49h4.06v17.49h-4.06Z"/><path class="m" d="M206.56,996.88v-3.28h11.66v3.28h-11.66Zm8.91,14.32c-1.92,0-3.41-.5-4.46-1.49-1.05-.99-1.57-2.45-1.57-4.37v-15.72h4.06v15.59c0,.83,.22,1.47,.66,1.93,.44,.46,1.05,.69,1.83,.69,.9,0,1.64-.24,2.23-.72l1.18,2.92c-.5,.39-1.1,.69-1.8,.88-.7,.2-1.41,.29-2.13,.29Z"/><path class="m" d="M230.41,1011.2c-1.94,0-3.64-.39-5.09-1.16-1.45-.78-2.58-1.83-3.37-3.18-.8-1.34-1.2-2.89-1.2-4.63s.39-3.29,1.16-4.64c.77-1.34,1.85-2.4,3.21-3.18,1.36-.77,2.92-1.16,4.67-1.16s3.22,.38,4.55,1.13c1.33,.75,2.38,1.81,3.15,3.16,.76,1.35,1.15,2.96,1.15,4.82,0,.15,0,.34-.02,.57-.01,.23-.03,.43-.05,.61h-14.58v-2.72h12.42l-1.64,.85c.02-.98-.18-1.86-.61-2.64s-1.01-1.38-1.75-1.8c-.74-.43-1.62-.64-2.62-.64s-1.86,.21-2.64,.64c-.78,.43-1.37,1.03-1.79,1.82-.42,.79-.62,1.69-.62,2.72v.66c0,1.05,.23,1.98,.7,2.78,.47,.81,1.14,1.44,2.01,1.88,.87,.45,1.89,.67,3.05,.67,.98,0,1.87-.16,2.65-.49,.79-.33,1.48-.81,2.1-1.44l2.23,2.55c-.81,.92-1.81,1.62-3,2.1-1.19,.48-2.55,.72-4.08,.72Z"/><path class="m" d="M249.97,1011.2c-1.68,0-3.19-.37-4.54-1.11-1.34-.74-2.4-1.79-3.16-3.13-.76-1.34-1.15-2.92-1.15-4.73s.38-3.36,1.15-4.72c.76-1.35,1.82-2.4,3.16-3.14,1.34-.74,2.85-1.11,4.54-1.11,1.46,0,2.77,.32,3.93,.97,1.16,.64,2.07,1.63,2.75,2.95,.68,1.32,1.02,3.01,1.02,5.06s-.33,3.71-.98,5.04c-.66,1.33-1.56,2.32-2.7,2.96-1.15,.64-2.48,.97-4.01,.97Zm.49-3.47c.98,0,1.86-.22,2.64-.67,.77-.45,1.4-1.09,1.87-1.93,.47-.84,.7-1.81,.7-2.9s-.23-2.08-.7-2.9-1.09-1.45-1.87-1.9c-.78-.45-1.65-.67-2.64-.67s-1.86,.22-2.64,.67c-.78,.45-1.4,1.08-1.87,1.9-.47,.82-.7,1.79-.7,2.9s.23,2.06,.7,2.9c.47,.84,1.09,1.49,1.87,1.93,.77,.45,1.65,.67,2.64,.67Zm5.34,3.24v-4.13l.1-4.65-.33-4.65v-10.88h4.13v24.31h-3.9Z"/><path class="m" d="M274.14,1010.97v-24.31h4.06v24.31h-4.06Zm3.31-3.9l.1-5.14,9.14-8.45h4.91l-7.76,7.76-2.19,1.83-4.19,4Zm9.89,3.9l-6.45-7.89,2.59-3.28,8.81,11.17h-4.95Z"/><path class="m" d="M297.01,990.59c-.76,0-1.39-.24-1.88-.72-.49-.48-.74-1.07-.74-1.77,0-.66,.25-1.22,.74-1.7,.49-.48,1.12-.72,1.88-.72s1.39,.22,1.88,.67c.49,.45,.74,1.02,.74,1.72s-.24,1.29-.72,1.79c-.48,.49-1.11,.74-1.9,.74Zm-2.03,20.38v-17.49h4.06v17.49h-4.06Z"/><path class="m" d="M314.34,993.25c1.42,0,2.67,.27,3.75,.82s1.94,1.39,2.59,2.52c.64,1.14,.97,2.59,.97,4.36v10.02h-4.09v-9.5c0-1.55-.36-2.71-1.08-3.47-.72-.76-1.75-1.15-3.08-1.15-.96,0-1.81,.2-2.56,.59-.74,.39-1.32,.98-1.72,1.75-.4,.78-.61,1.75-.61,2.93v8.84h-4.06v-17.49h3.9v4.75l-.69-1.47c.59-1.11,1.47-1.98,2.64-2.59,1.17-.61,2.52-.92,4.05-.92Z"/><path class="m" d="M334.29,1010.18c-1.68,0-3.19-.35-4.52-1.06-1.33-.71-2.39-1.7-3.16-2.96-.78-1.27-1.16-2.74-1.16-4.42s.39-3.19,1.16-4.47c.77-1.28,1.83-2.27,3.16-2.96,1.33-.7,2.84-1.05,4.52-1.05,1.48,0,2.82,.3,4.01,.9,1.19,.6,2.13,1.52,2.83,2.77,.7,1.25,1.05,2.85,1.05,4.82s-.35,3.51-1.05,4.75c-.7,1.25-1.64,2.17-2.83,2.79-1.19,.61-2.53,.92-4.01,.92Zm.52,7.37c-1.64,0-3.22-.21-4.73-.64s-2.78-1.05-3.78-1.88l1.83-3.05c.76,.63,1.72,1.15,2.88,1.54,1.16,.39,2.36,.59,3.6,.59,1.9,0,3.3-.44,4.19-1.33,.9-.88,1.34-2.22,1.34-4.01v-3.11l.33-3.93-.13-3.96v-4.29h3.9v14.84c0,3.17-.81,5.5-2.42,6.99-1.62,1.5-3.95,2.24-7.01,2.24Zm.1-10.84c1.03,0,1.94-.21,2.75-.64,.81-.43,1.44-1.02,1.88-1.77,.45-.75,.67-1.61,.67-2.57s-.22-1.88-.67-2.62c-.45-.74-1.08-1.32-1.88-1.74-.81-.42-1.73-.62-2.75-.62s-1.95,.21-2.77,.62-1.45,.99-1.9,1.74c-.45,.74-.67,1.62-.67,2.62s.22,1.82,.67,2.57c.45,.75,1.08,1.34,1.9,1.77s1.74,.64,2.77,.64Z"/><path class="m" d="M357.02,1011.2c-1.68,0-3.19-.37-4.54-1.11-1.34-.74-2.4-1.79-3.16-3.13-.76-1.34-1.15-2.92-1.15-4.73s.38-3.36,1.15-4.72c.76-1.35,1.82-2.4,3.16-3.14,1.34-.74,2.85-1.11,4.54-1.11,1.46,0,2.77,.32,3.93,.97,1.16,.64,2.07,1.63,2.75,2.95,.68,1.32,1.02,3.01,1.02,5.06s-.33,3.71-.98,5.04c-.66,1.33-1.56,2.32-2.7,2.96-1.15,.64-2.48,.97-4.01,.97Zm.49-3.47c.98,0,1.86-.22,2.64-.67,.77-.45,1.4-1.09,1.87-1.93,.47-.84,.7-1.81,.7-2.9s-.23-2.08-.7-2.9-1.09-1.45-1.87-1.9c-.78-.45-1.65-.67-2.64-.67s-1.86,.22-2.64,.67c-.78,.45-1.4,1.08-1.87,1.9-.47,.82-.7,1.79-.7,2.9s.23,2.06,.7,2.9c.47,.84,1.09,1.49,1.87,1.93,.77,.45,1.65,.67,2.64,.67Zm5.34,3.24v-4.13l.1-4.65-.33-4.65v-10.88h4.13v24.31h-3.9Z"/><path class="m" d="M379.98,1011.2c-1.77,0-3.36-.39-4.77-1.16s-2.52-1.84-3.32-3.19c-.81-1.35-1.21-2.89-1.21-4.62s.4-3.32,1.21-4.65c.81-1.33,1.91-2.39,3.31-3.16,1.4-.77,2.99-1.16,4.78-1.16s3.42,.39,4.83,1.16c1.41,.78,2.51,1.83,3.31,3.16,.8,1.33,1.2,2.88,1.2,4.65s-.4,3.29-1.2,4.63c-.8,1.34-1.91,2.4-3.32,3.18-1.42,.78-3.03,1.16-4.82,1.16Zm0-3.47c1,0,1.9-.22,2.69-.67,.79-.45,1.4-1.09,1.85-1.93,.45-.84,.67-1.81,.67-2.9s-.22-2.08-.67-2.9-1.06-1.45-1.85-1.9c-.79-.45-1.67-.67-2.65-.67s-1.87,.22-2.65,.67c-.79,.45-1.41,1.08-1.87,1.9-.46,.82-.69,1.79-.69,2.9s.23,2.06,.69,2.9c.46,.84,1.08,1.49,1.87,1.93,.79,.45,1.66,.67,2.62,.67Z"/><path class="m" d="M415.33,993.25c1.4,0,2.64,.27,3.72,.82s1.93,1.39,2.54,2.52,.92,2.59,.92,4.36v10.02h-4.06v-9.5c0-1.55-.34-2.71-1.03-3.47-.69-.76-1.67-1.15-2.93-1.15-.9,0-1.69,.2-2.38,.59-.69,.39-1.22,.98-1.6,1.75-.38,.78-.57,1.74-.57,2.9v8.88h-4.06v-9.5c0-1.55-.34-2.71-1.03-3.47-.69-.76-1.67-1.15-2.93-1.15-.9,0-1.69,.2-2.38,.59-.69,.39-1.22,.98-1.61,1.75-.38,.78-.57,1.74-.57,2.9v8.88h-4.06v-17.49h3.9v4.68l-.72-1.41c.59-1.11,1.45-1.98,2.57-2.59s2.42-.92,3.88-.92c1.64,0,3.06,.4,4.26,1.21,1.2,.81,2,2.05,2.39,3.73l-1.57-.59c.55-1.29,1.47-2.34,2.78-3.14,1.31-.81,2.83-1.21,4.55-1.21Z"/></g><g><path class="m" d="M456.23,1010.97h-4.26v-22.93h16.74v3.6h-12.48v19.33Zm-.33-12.35h11.4v3.54h-11.4v-3.54Z"/><path class="m" d="M472.15,1010.97v-17.49h3.9v4.82l-.46-1.41c.5-1.18,1.32-2.08,2.46-2.7,1.14-.62,2.52-.93,4.16-.93v3.9c-.15-.02-.31-.04-.46-.05s-.29-.02-.43-.02c-1.57,0-2.82,.45-3.73,1.34-.92,.9-1.38,2.26-1.38,4.1v8.45h-4.06Z"/><path class="m" d="M489.74,1011.2c-1.31,0-2.46-.22-3.44-.67-.98-.45-1.74-1.07-2.28-1.87-.54-.8-.8-1.7-.8-2.7s.23-1.87,.7-2.65,1.24-1.41,2.31-1.87c1.07-.46,2.49-.69,4.26-.69h5.08v2.72h-4.78c-1.38,0-2.31,.22-2.8,.67-.49,.45-.74,1.01-.74,1.69,0,.72,.29,1.3,.88,1.74,.59,.44,1.41,.66,2.46,.66s1.91-.23,2.7-.69c.8-.46,1.38-1.14,1.75-2.03l.66,2.46c-.39,1.03-1.09,1.82-2.1,2.39-1,.57-2.29,.85-3.87,.85Zm5.5-.23v-3.57l-.2-.72v-6.19c0-1.2-.37-2.13-1.1-2.8-.73-.67-1.84-1-3.33-1-.96,0-1.91,.15-2.85,.46-.94,.31-1.75,.73-2.42,1.28l-1.61-2.98c.96-.72,2.09-1.27,3.37-1.64,1.29-.37,2.63-.56,4.03-.56,2.56,0,4.52,.61,5.9,1.83,1.38,1.22,2.06,3.1,2.06,5.63v10.25h-3.87Z"/><path class="m" d="M514.28,993.25c1.42,0,2.67,.27,3.75,.82s1.94,1.39,2.59,2.52c.64,1.14,.97,2.59,.97,4.36v10.02h-4.09v-9.5c0-1.55-.36-2.71-1.08-3.47-.72-.76-1.75-1.15-3.08-1.15-.96,0-1.81,.2-2.56,.59-.74,.39-1.32,.98-1.72,1.75-.4,.78-.61,1.75-.61,2.93v8.84h-4.06v-17.49h3.9v4.75l-.69-1.47c.59-1.11,1.47-1.98,2.64-2.59,1.17-.61,2.52-.92,4.05-.92Z"/><path class="m" d="M534.85,1011.2c-1.83,0-3.47-.39-4.9-1.16-1.43-.78-2.55-1.83-3.36-3.18-.81-1.34-1.21-2.89-1.21-4.63s.4-3.32,1.21-4.65c.81-1.33,1.93-2.39,3.36-3.16,1.43-.77,3.06-1.16,4.9-1.16,1.68,0,3.18,.35,4.49,1.05,1.31,.7,2.29,1.71,2.95,3.05l-3.11,1.83c-.52-.81-1.16-1.41-1.92-1.82-.75-.4-1.57-.61-2.44-.61-1,0-1.91,.22-2.72,.67-.81,.45-1.44,1.08-1.9,1.9-.46,.82-.69,1.79-.69,2.9s.23,2.08,.69,2.92c.46,.83,1.09,1.47,1.9,1.92,.81,.45,1.71,.67,2.72,.67,.87,0,1.69-.2,2.44-.61s1.39-1.02,1.92-1.85l3.11,1.83c-.65,1.31-1.64,2.32-2.95,3.03-1.31,.71-2.81,1.06-4.49,1.06Z"/><path class="m" d="M553.82,1011.2c-1.94,0-3.64-.39-5.09-1.16-1.45-.78-2.58-1.83-3.37-3.18-.8-1.34-1.2-2.89-1.2-4.63s.39-3.29,1.16-4.64c.77-1.34,1.85-2.4,3.21-3.18,1.36-.77,2.92-1.16,4.67-1.16s3.22,.38,4.55,1.13c1.33,.75,2.38,1.81,3.15,3.16,.76,1.35,1.15,2.96,1.15,4.82,0,.15,0,.34-.02,.57-.01,.23-.03,.43-.05,.61h-14.58v-2.72h12.42l-1.64,.85c.02-.98-.18-1.86-.61-2.64s-1.01-1.38-1.75-1.8c-.74-.43-1.62-.64-2.62-.64s-1.86,.21-2.64,.64c-.78,.43-1.37,1.03-1.79,1.82-.42,.79-.62,1.69-.62,2.72v.66c0,1.05,.23,1.98,.7,2.78,.47,.81,1.14,1.44,2.01,1.88,.87,.45,1.89,.67,3.05,.67,.98,0,1.87-.16,2.65-.49,.79-.33,1.48-.81,2.1-1.44l2.23,2.55c-.81,.92-1.81,1.62-3,2.1-1.19,.48-2.55,.72-4.08,.72Z"/></g><g><path class="m" d="M605.8,1011.29c-3.12,0-5.57-.88-7.35-2.65-1.78-1.77-2.67-4.33-2.67-7.7v-12.91h4.26v12.78c0,2.36,.51,4.07,1.52,5.14s2.45,1.6,4.31,1.6,3.29-.53,4.29-1.6c1-1.07,1.51-2.79,1.51-5.14v-12.78h4.19v12.91c0,3.36-.89,5.93-2.67,7.7-1.78,1.77-4.24,2.65-7.39,2.65Z"/><path class="m" d="M631.35,993.25c1.42,0,2.67,.27,3.75,.82s1.94,1.39,2.59,2.52c.64,1.14,.97,2.59,.97,4.36v10.02h-4.09v-9.5c0-1.55-.36-2.71-1.08-3.47-.72-.76-1.75-1.15-3.08-1.15-.96,0-1.81,.2-2.56,.59-.74,.39-1.32,.98-1.72,1.75-.4,.78-.61,1.75-.61,2.93v8.84h-4.06v-17.49h3.9v4.75l-.69-1.47c.59-1.11,1.47-1.98,2.64-2.59,1.17-.61,2.52-.92,4.05-.92Z"/><path class="m" d="M645.93,990.59c-.76,0-1.39-.24-1.88-.72-.49-.48-.74-1.07-.74-1.77,0-.66,.25-1.22,.74-1.7,.49-.48,1.12-.72,1.88-.72s1.39,.22,1.88,.67c.49,.45,.74,1.02,.74,1.72s-.24,1.29-.72,1.79c-.48,.49-1.11,.74-1.9,.74Zm-2.03,20.38v-17.49h4.06v17.49h-4.06Z"/><path class="m" d="M651,996.88v-3.28h11.66v3.28h-11.66Zm8.91,14.32c-1.92,0-3.41-.5-4.46-1.49-1.05-.99-1.57-2.45-1.57-4.37v-15.72h4.06v15.59c0,.83,.22,1.47,.66,1.93,.44,.46,1.05,.69,1.83,.69,.9,0,1.64-.24,2.23-.72l1.18,2.92c-.5,.39-1.1,.69-1.8,.88-.7,.2-1.41,.29-2.13,.29Z"/><path class="m" d="M674.85,1011.2c-1.94,0-3.64-.39-5.09-1.16-1.45-.78-2.58-1.83-3.37-3.18-.8-1.34-1.2-2.89-1.2-4.63s.39-3.29,1.16-4.64c.77-1.34,1.85-2.4,3.21-3.18,1.36-.77,2.92-1.16,4.67-1.16s3.22,.38,4.55,1.13c1.33,.75,2.38,1.81,3.15,3.16,.76,1.35,1.15,2.96,1.15,4.82,0,.15,0,.34-.02,.57-.01,.23-.03,.43-.05,.61h-14.58v-2.72h12.42l-1.64,.85c.02-.98-.18-1.86-.61-2.64s-1.01-1.38-1.75-1.8c-.74-.43-1.62-.64-2.62-.64s-1.86,.21-2.64,.64c-.78,.43-1.37,1.03-1.79,1.82-.42,.79-.62,1.69-.62,2.72v.66c0,1.05,.23,1.98,.7,2.78,.47,.81,1.14,1.44,2.01,1.88,.87,.45,1.89,.67,3.05,.67,.98,0,1.87-.16,2.65-.49,.79-.33,1.48-.81,2.1-1.44l2.23,2.55c-.81,.92-1.81,1.62-3,2.1-1.19,.48-2.55,.72-4.08,.72Z"/><path class="m" d="M694.41,1011.2c-1.68,0-3.19-.37-4.54-1.11-1.34-.74-2.4-1.79-3.16-3.13-.76-1.34-1.15-2.92-1.15-4.73s.38-3.36,1.15-4.72c.76-1.35,1.82-2.4,3.16-3.14,1.34-.74,2.85-1.11,4.54-1.11,1.46,0,2.77,.32,3.93,.97,1.16,.64,2.07,1.63,2.75,2.95,.68,1.32,1.02,3.01,1.02,5.06s-.33,3.71-.98,5.04c-.66,1.33-1.56,2.32-2.7,2.96-1.15,.64-2.48,.97-4.01,.97Zm.49-3.47c.98,0,1.86-.22,2.64-.67,.77-.45,1.4-1.09,1.87-1.93,.47-.84,.7-1.81,.7-2.9s-.23-2.08-.7-2.9-1.09-1.45-1.87-1.9c-.78-.45-1.65-.67-2.64-.67s-1.86,.22-2.64,.67c-.78,.45-1.4,1.08-1.87,1.9-.47,.82-.7,1.79-.7,2.9s.23,2.06,.7,2.9c.47,.84,1.09,1.49,1.87,1.93,.77,.45,1.65,.67,2.64,.67Zm5.34,3.24v-4.13l.1-4.65-.33-4.65v-10.88h4.13v24.31h-3.9Z"/><path class="m" d="M726.05,1011.29c-1.79,0-3.5-.26-5.13-.77s-2.93-1.17-3.91-1.98l1.47-3.31c.92,.72,2.05,1.32,3.41,1.8s2.74,.72,4.16,.72c1.2,0,2.17-.13,2.92-.39,.74-.26,1.29-.62,1.64-1.06,.35-.45,.52-.96,.52-1.52,0-.7-.25-1.26-.75-1.69-.5-.43-1.15-.76-1.95-1.02-.8-.25-1.68-.48-2.65-.69-.97-.21-1.94-.46-2.92-.77s-1.86-.69-2.67-1.16c-.81-.47-1.46-1.1-1.95-1.88s-.74-1.79-.74-3.01,.33-2.39,1-3.42c.67-1.04,1.68-1.87,3.05-2.49,1.36-.62,3.1-.93,5.19-.93,1.38,0,2.74,.18,4.09,.52,1.35,.35,2.53,.85,3.54,1.51l-1.34,3.31c-1.03-.61-2.09-1.06-3.18-1.36-1.09-.29-2.14-.44-3.15-.44-1.16,0-2.11,.14-2.85,.43-.74,.28-1.28,.66-1.62,1.13-.34,.47-.51,.99-.51,1.56,0,.7,.25,1.26,.74,1.69,.49,.43,1.14,.76,1.93,1,.8,.24,1.69,.47,2.67,.69,.98,.22,1.95,.47,2.92,.77s1.85,.68,2.65,1.15c.81,.47,1.46,1.09,1.95,1.87,.49,.78,.74,1.76,.74,2.96s-.33,2.35-1,3.39c-.67,1.04-1.69,1.87-3.06,2.49-1.38,.62-3.11,.93-5.21,.93Z"/><path class="m" d="M736.83,996.88v-3.28h11.66v3.28h-11.66Zm8.91,14.32c-1.92,0-3.41-.5-4.46-1.49-1.05-.99-1.57-2.45-1.57-4.37v-15.72h4.06v15.59c0,.83,.22,1.47,.66,1.93,.44,.46,1.05,.69,1.83,.69,.9,0,1.64-.24,2.23-.72l1.18,2.92c-.5,.39-1.1,.69-1.8,.88-.7,.2-1.41,.29-2.13,.29Z"/><path class="m" d="M758.32,1011.2c-1.31,0-2.46-.22-3.44-.67-.98-.45-1.74-1.07-2.28-1.87-.54-.8-.8-1.7-.8-2.7s.23-1.87,.7-2.65,1.24-1.41,2.31-1.87c1.07-.46,2.49-.69,4.26-.69h5.08v2.72h-4.78c-1.38,0-2.31,.22-2.8,.67-.49,.45-.74,1.01-.74,1.69,0,.72,.29,1.3,.88,1.74,.59,.44,1.41,.66,2.46,.66s1.91-.23,2.7-.69c.8-.46,1.38-1.14,1.75-2.03l.66,2.46c-.39,1.03-1.09,1.82-2.1,2.39-1,.57-2.29,.85-3.87,.85Zm5.5-.23v-3.57l-.2-.72v-6.19c0-1.2-.37-2.13-1.1-2.8-.73-.67-1.84-1-3.33-1-.96,0-1.91,.15-2.85,.46-.94,.31-1.75,.73-2.42,1.28l-1.61-2.98c.96-.72,2.09-1.27,3.37-1.64,1.29-.37,2.63-.56,4.03-.56,2.56,0,4.52,.61,5.9,1.83,1.38,1.22,2.06,3.1,2.06,5.63v10.25h-3.87Z"/><path class="m" d="M770.6,996.88v-3.28h11.66v3.28h-11.66Zm8.91,14.32c-1.92,0-3.41-.5-4.46-1.49-1.05-.99-1.57-2.45-1.57-4.37v-15.72h4.06v15.59c0,.83,.22,1.47,.66,1.93,.44,.46,1.05,.69,1.83,.69,.9,0,1.64-.24,2.23-.72l1.18,2.92c-.5,.39-1.1,.69-1.8,.88-.7,.2-1.41,.29-2.13,.29Z"/><path class="m" d="M794.45,1011.2c-1.94,0-3.64-.39-5.09-1.16-1.45-.78-2.58-1.83-3.37-3.18-.8-1.34-1.2-2.89-1.2-4.63s.39-3.29,1.16-4.64c.77-1.34,1.85-2.4,3.21-3.18,1.36-.77,2.92-1.16,4.67-1.16s3.22,.38,4.55,1.13c1.33,.75,2.38,1.81,3.15,3.16,.76,1.35,1.15,2.96,1.15,4.82,0,.15,0,.34-.02,.57-.01,.23-.03,.43-.05,.61h-14.58v-2.72h12.42l-1.64,.85c.02-.98-.18-1.86-.61-2.64s-1.01-1.38-1.75-1.8c-.74-.43-1.62-.64-2.62-.64s-1.86,.21-2.64,.64c-.78,.43-1.37,1.03-1.79,1.82-.42,.79-.62,1.69-.62,2.72v.66c0,1.05,.23,1.98,.7,2.78,.47,.81,1.14,1.44,2.01,1.88,.87,.45,1.89,.67,3.05,.67,.98,0,1.87-.16,2.65-.49,.79-.33,1.48-.81,2.1-1.44l2.23,2.55c-.81,.92-1.81,1.62-3,2.1-1.19,.48-2.55,.72-4.08,.72Z"/><path class="m" d="M812.04,1011.2c-1.49,0-2.89-.19-4.23-.57-1.33-.38-2.4-.85-3.21-1.39l1.57-3.11c.79,.5,1.73,.91,2.82,1.23,1.09,.32,2.19,.48,3.31,.48,1.27,0,2.19-.17,2.77-.51,.58-.34,.87-.8,.87-1.39,0-.48-.2-.85-.59-1.1-.39-.25-.91-.44-1.54-.57-.63-.13-1.34-.25-2.11-.36-.78-.11-1.55-.26-2.33-.44-.78-.19-1.48-.46-2.11-.82-.63-.36-1.15-.85-1.54-1.46-.39-.61-.59-1.43-.59-2.46,0-1.09,.32-2.05,.95-2.87,.63-.82,1.52-1.46,2.67-1.92,1.15-.46,2.51-.69,4.08-.69,1.16,0,2.34,.14,3.55,.41,1.21,.27,2.22,.65,3.03,1.13l-1.6,3.11c-.81-.48-1.64-.81-2.49-1s-1.69-.28-2.52-.28c-1.22,0-2.14,.18-2.75,.54-.61,.36-.92,.82-.92,1.39,0,.52,.2,.92,.59,1.18,.39,.26,.91,.46,1.54,.61,.63,.14,1.34,.27,2.11,.39,.77,.12,1.54,.27,2.31,.46,.76,.19,1.47,.45,2.11,.79,.64,.34,1.16,.81,1.56,1.42,.39,.61,.59,1.41,.59,2.39,0,1.11-.32,2.07-.97,2.87-.64,.8-1.55,1.42-2.72,1.87-1.17,.45-2.57,.67-4.21,.67Z"/></g></g></svg>