<?xml version="1.0" encoding="UTF-8"?><svg id="a" xmlns="http://www.w3.org/2000/svg" viewBox="0 0 1920 1080"><defs><style>.b{fill:#b76262;}.c{fill:#af5454;}.d{fill:#bf5c5c;}.e{fill:#c66767;}.f{fill:#b0504d;}.g{fill:#a34646;}</style></defs><polyline class="b" points=".61 569.13 68.8 455.79 483.53 569.02 833.27 540.17 1053.01 617.55 1535.83 710.87 1723.08 560.31 1920 685.78 1918.93 1080.35 -.45 1080.35 .61 760.64"/><polygon class="c" points=".61 601.61 126.44 522.52 333.31 690.58 659.6 604.43 825.95 725.88 1523 652 1920 786.44 1920 995.62 .61 995.62 .61 601.61"/><polygon class="g" points="-.45 686.34 77.22 564.66 464.19 617.55 615.88 847.33 983.08 715.85 1621.58 944.8 1918.93 871.17 1918.93 1080.35 -.45 1080.35 -.45 686.34"/><g><g><polygon class="e" points="1404.62 451.75 1406.49 440.46 1410.16 391.18 1446.04 378.39 1470.01 364.08 1513.23 316.03 1509.94 294.72 1484.42 224.06 1442.43 171.35 1358.07 122 1301.55 124.24 1251.68 139.95 1199.59 184.81 1175.21 252.83 1175.21 284.62 1160.8 298.09 1149.72 350.8 1207.35 376.6 1252.14 391.18 1259.44 370.99 1253.89 464.08 1252.79 524.65 1253.89 547.83 1250.57 635.69 1243.92 696.25 1261.9 696.25 1261.65 637.93 1266.08 601.29 1266.08 530.26 1269.41 486.52 1281.6 372.11 1301.55 384.45 1324.11 417.11 1324.82 421.46 1315.96 468.57 1350.31 511.19 1358.07 530.26 1359.31 552.69 1342.56 569.51 1332.58 580.73 1331.47 607.65 1340.34 621.11 1354.69 627.57 1355.86 618.86 1340.34 607.65 1342.56 580.04 1349.44 570 1358.37 570.63 1357.21 592.92 1357.44 588.53 1350.93 584.86 1342.21 584.39 1341.83 589.08 1351.42 589.08 1357.12 594.63 1355.86 618.86 1351.42 651.89 1341.45 762.43 1348.1 812.9 1350.59 892.58 1350.59 929.27 1352.78 1016.58 1352.78 1089.51 1414.42 1089.51 1415.06 1016.58 1415.06 1016.58 1414.42 1089.51 1425.39 1089.51 1432.33 975.53 1437.87 825.23 1446.73 805.05 1424.57 780.22 1436.76 793.87 1436.76 776.69 1451.17 772.52 1431.77 758.87 1433.64 691.1 1453.38 670.46 1456.71 644.66 1465.49 623.21 1447.79 618.86 1436.76 563.9 1426.79 557.18 1398.95 482.59 1400.67 468.57 1404.62 451.75"/><polygon class="e" points="1353.21 638.59 1353.87 633.64 1346.88 634.25 1346.4 623.84 1340.34 621.11 1340.34 634.56 1353.21 638.59"/></g><g><polygon class="e" points="1199.59 184.81 1251.68 139.95 1315.96 202.75 1199.59 184.81"/><polygon class="d" points="1358.07 122 1366.94 248.74 1442.43 171.35 1358.07 122"/><polygon class="d" points="1301.55 124.24 1315.96 202.75 1358.07 122 1301.55 124.24"/><polygon class="f" points="1251.68 139.95 1315.96 202.75 1301.55 124.24 1251.68 139.95"/><polygon class="d" points="1353.64 294.72 1315.96 251.2 1175.21 305.94 1353.64 294.72"/><polygon class="d" points="1366.94 248.74 1353.64 294.72 1315.96 251.2 1366.94 248.74"/><polygon class="f" points="1199.59 184.81 1315.96 251.2 1315.96 202.75 1199.59 184.81"/><polygon class="d" points="1175.21 252.83 1199.59 184.81 1315.96 251.2 1175.21 252.83"/><polygon class="e" points="1315.96 202.75 1366.94 248.74 1315.96 251.2 1315.96 202.75"/><polygon class="f" points="1358.07 122 1366.94 248.74 1315.96 202.75 1358.07 122"/><polygon class="d" points="1175.21 252.83 1175.21 284.62 1315.96 251.2 1175.21 252.83"/><polygon class="f" points="1149.72 350.8 1160.8 298.09 1175.21 305.94 1149.72 350.8"/><polygon class="f" points="1175.21 284.62 1315.96 251.2 1175.21 305.94 1175.21 284.62"/><polygon class="f" points="1160.8 298.09 1175.21 284.62 1175.21 305.94 1160.8 298.09"/><polygon class="e" points="1442.43 171.35 1446.04 271.73 1366.94 248.74 1442.43 171.35"/><polygon class="f" points="1484.42 224.06 1446.04 271.73 1442.43 171.35 1484.42 224.06"/><polygon class="f" points="1353.64 294.72 1446.04 271.73 1366.94 248.74 1353.64 294.72"/><polygon class="e" points="1484.42 224.06 1509.94 294.72 1446.04 271.73 1484.42 224.06"/><polygon class="f" points="1513.23 316.03 1470.01 327.25 1470.01 364.08 1513.23 316.03"/><polygon class="f" points="1429 350.8 1446.04 378.39 1410.16 391.18 1429 350.8"/><polygon class="e" points="1470.01 327.25 1478.88 294.72 1513.23 316.03 1470.01 327.25"/><polygon class="f" points="1509.94 294.72 1513.23 316.03 1478.88 294.72 1509.94 294.72"/><polygon class="f" points="1470.01 327.25 1429 350.8 1470.01 364.08 1470.01 327.25"/><polygon class="e" points="1446.04 378.39 1470.01 364.08 1429 350.8 1446.04 378.39"/><polygon class="f" points="1149.72 350.8 1207.35 376.6 1175.21 305.94 1149.72 350.8"/><polygon class="f" points="1207.35 376.6 1252.14 391.18 1259.44 370.99 1207.35 376.6"/><polygon class="f" points="1283.82 347.44 1259.44 370.99 1263.04 345.76 1283.82 347.44"/><polygon class="d" points="1281.6 372.11 1283.82 347.44 1259.44 370.99 1281.6 372.11"/><polygon class="f" points="1253.89 464.08 1259.44 370.99 1281.6 372.11 1253.89 464.08"/><polygon class="f" points="1252.79 524.65 1269.41 486.52 1253.89 464.08 1252.79 524.65"/><polygon class="f" points="1266.08 530.26 1253.89 547.83 1266.08 601.29 1266.08 530.26"/><polygon class="f" points="1250.57 635.69 1261.65 637.93 1266.08 601.29 1250.57 635.69"/><polygon class="f" points="1243.92 696.25 1261.9 696.25 1256.11 659.24 1243.92 696.25"/><polygon class="f" points="1250.57 635.69 1256.11 659.24 1261.65 637.93 1250.57 635.69"/><polygon class="e" points="1243.92 696.25 1250.57 635.69 1256.11 659.24 1243.92 696.25"/><polygon class="e" points="1261.65 637.93 1261.9 696.25 1256.11 659.24 1261.65 637.93"/><polygon class="e" points="1253.89 547.83 1250.57 635.69 1266.08 601.29 1253.89 547.83"/><polygon class="e" points="1269.41 486.52 1252.79 524.65 1266.08 530.26 1269.41 486.52"/><polygon class="f" points="1253.89 547.83 1252.79 524.65 1266.08 530.26 1253.89 547.83"/><polygon class="e" points="1269.41 486.52 1281.6 372.11 1253.89 464.08 1269.41 486.52"/><polygon class="d" points="1324.4 417.54 1410.16 391.18 1311.37 364.08 1324.4 417.54"/><polygon class="f" points="1301.55 384.45 1281.6 372.11 1283.82 347.44 1301.55 384.45"/><polygon class="f" points="1311.37 364.08 1301.55 384.45 1324.4 417.54 1311.37 364.08"/><polygon class="d" points="1283.82 347.44 1311.37 364.08 1301.55 384.45 1283.82 347.44"/><polygon class="d" points="1207.35 376.6 1263.04 345.76 1259.44 370.99 1207.35 376.6"/><polygon class="e" points="1175.21 305.94 1263.04 345.76 1207.35 376.6 1175.21 305.94"/><polygon class="f" points="1353.64 294.72 1263.04 345.76 1175.21 305.94 1353.64 294.72"/><polygon class="f" points="1429 350.8 1392.43 313.79 1442.43 289.85 1429 350.8"/><polygon class="d" points="1478.88 294.72 1442.43 289.85 1470.01 327.25 1478.88 294.72"/><polygon class="e" points="1429 350.8 1470.01 327.25 1442.43 289.85 1429 350.8"/><polygon class="f" points="1311.37 364.08 1373.59 332.86 1410.16 391.18 1311.37 364.08"/><polygon class="d" points="1283.82 347.44 1353.64 294.72 1263.04 345.76 1283.82 347.44"/><polygon class="d" points="1373.59 332.86 1429 350.8 1410.16 391.18 1373.59 332.86"/><polygon class="d" points="1392.43 313.79 1373.59 332.86 1283.82 347.44 1392.43 313.79"/><polygon class="e" points="1311.37 364.08 1283.82 347.44 1373.59 332.86 1311.37 364.08"/><polygon class="d" points="1353.64 294.72 1392.43 313.79 1442.43 289.85 1353.64 294.72"/><polygon class="f" points="1283.82 347.44 1392.43 313.79 1353.64 294.72 1283.82 347.44"/><polygon class="d" points="1373.59 332.86 1392.43 313.79 1429 350.8 1373.59 332.86"/><polygon class="f" points="1442.43 289.85 1446.04 271.73 1478.88 294.72 1442.43 289.85"/><polygon class="d" points="1509.94 294.72 1446.04 271.73 1478.88 294.72 1509.94 294.72"/><polygon class="e" points="1353.64 294.72 1446.04 271.73 1442.43 289.85 1353.64 294.72"/><polygon class="f" points="1352.78 1089.51 1414.42 1089.51 1381.35 1005.81 1352.78 1089.51"/><polygon class="e" points="1381.35 1005.81 1352.78 1089.51 1352.78 1016.58 1381.35 1005.81"/><polygon class="f" points="1363.61 964.75 1352.78 1016.58 1381.35 1005.81 1363.61 964.75"/><polygon class="f" points="1425.39 1089.51 1432.33 975.53 1415.06 1016.58 1425.39 1089.51"/><polygon class="e" points="1414.42 1089.51 1415.06 1016.58 1425.39 1089.51 1414.42 1089.51"/><polygon class="d" points="1308.2 320.52 1360.29 312.67 1368.05 429.31 1308.2 320.52"/><polygon class="f" points="1324.82 421.46 1368.05 429.31 1308.2 320.52 1324.82 421.46"/><polygon class="f" points="1360.29 312.67 1407.51 312.67 1381.35 353.05 1360.29 312.67"/><polygon class="f" points="1406.49 440.46 1368.05 429.31 1381.35 353.05 1406.49 440.46"/><polygon class="d" points="1407.51 312.67 1410.16 391.18 1381.35 353.05 1407.51 312.67"/><polygon class="e" points="1406.49 440.46 1410.16 391.18 1381.35 353.05 1406.49 440.46"/><polygon class="e" points="1360.29 312.67 1381.35 353.05 1368.05 429.31 1360.29 312.67"/><polygon class="f" points="1315.96 468.57 1340.34 453.99 1324.82 421.46 1315.96 468.57"/><polygon class="e" points="1368.05 429.31 1340.34 453.99 1324.82 421.46 1368.05 429.31"/><polygon class="d" points="1315.96 468.57 1350.31 511.19 1340.34 453.99 1315.96 468.57"/><polygon class="f" points="1368.05 429.31 1373.59 488.76 1340.34 453.99 1368.05 429.31"/><polygon class="f" points="1406.49 440.46 1404.62 451.75 1368.05 429.31 1406.49 440.46"/><polygon class="d" points="1373.59 488.76 1404.62 451.75 1368.05 429.31 1373.59 488.76"/><polygon class="f" points="1350.31 511.19 1373.59 488.76 1340.34 453.99 1350.31 511.19"/><polygon class="f" points="1404.62 451.75 1400.67 468.57 1373.59 488.76 1404.62 451.75"/><polygon class="f" points="1426.79 557.18 1373.59 488.76 1398.95 482.59 1426.79 557.18"/><polygon class="f" points="1400.67 468.57 1398.95 482.59 1373.59 488.76 1400.67 468.57"/><polygon class="f" points="1358.07 530.26 1373.59 488.76 1350.31 511.19 1358.07 530.26"/><polygon class="e" points="1426.79 557.18 1358.07 530.26 1373.59 488.76 1426.79 557.18"/><polygon class="f" points="1368.05 649.64 1426.79 557.18 1424.57 660.36 1368.05 649.64"/><polygon class="f" points="1355.86 618.86 1368.05 618.86 1371.37 552.69 1355.86 618.86"/><polygon class="d" points="1359.31 552.69 1355.86 618.86 1371.37 552.69 1359.31 552.69"/><polygon class="d" points="1358.07 530.26 1426.79 557.18 1371.37 552.69 1358.07 530.26"/><polygon class="f" points="1359.31 552.69 1358.07 530.26 1371.37 552.69 1359.31 552.69"/><polygon class="f" points="1368.05 618.86 1368.05 649.64 1355.86 618.86 1368.05 618.86"/><polygon class="f" points="1351.42 651.89 1355.86 618.86 1368.05 649.64 1351.42 651.89"/><polygon class="f" points="1426.79 557.18 1371.37 552.69 1368.05 618.86 1426.79 557.18"/><polygon class="e" points="1368.05 649.64 1426.79 557.18 1368.05 618.86 1368.05 649.64"/><polygon class="f" points="1351.42 651.89 1341.45 762.43 1359.73 762.43 1351.42 651.89"/><polygon class="d" points="1368.05 649.64 1359.73 762.43 1351.42 651.89 1368.05 649.64"/><polygon class="e" points="1424.57 660.36 1359.73 762.43 1368.05 649.64 1424.57 660.36"/><polygon class="f" points="1417.92 766.91 1424.57 660.36 1359.73 762.43 1417.92 766.91"/><polygon class="f" points="1341.45 762.43 1348.1 812.9 1359.73 762.43 1341.45 762.43"/><polygon class="f" points="1417.92 766.91 1415.7 820.75 1363.61 858.88 1417.92 766.91"/><polygon class="e" points="1359.73 762.43 1363.61 858.88 1417.92 766.91 1359.73 762.43"/><polygon class="f" points="1348.1 812.9 1363.61 858.88 1359.73 762.43 1348.1 812.9"/><polygon class="d" points="1415.7 820.75 1415.7 943.65 1363.61 858.88 1415.7 820.75"/><polygon class="e" points="1348.1 812.9 1350.59 892.58 1363.61 858.88 1348.1 812.9"/><polygon class="f" points="1363.61 964.75 1388.83 932.03 1358.07 917.2 1363.61 964.75"/><polygon class="d" points="1415.7 943.65 1381.35 1005.81 1414.42 1089.51 1415.7 943.65"/><polygon class="d" points="1363.61 964.75 1381.35 1005.81 1388.83 932.03 1363.61 964.75"/><polygon class="f" points="1350.59 892.58 1358.07 917.2 1350.59 929.27 1350.59 892.58"/><polygon class="e" points="1363.61 858.88 1388.83 932.03 1415.7 943.65 1363.61 858.88"/><polygon class="e" points="1350.59 929.27 1363.61 964.75 1358.07 917.2 1350.59 929.27"/><polygon class="f" points="1388.83 932.03 1415.7 943.65 1381.35 1005.81 1388.83 932.03"/><polygon class="d" points="1350.59 929.27 1363.61 964.75 1352.78 1016.58 1350.59 929.27"/><polygon class="f" points="1358.07 917.2 1363.61 858.88 1388.83 932.03 1358.07 917.2"/><polygon class="d" points="1350.59 892.58 1363.61 858.88 1358.07 917.2 1350.59 892.58"/><polygon class="f" points="1426.79 557.18 1436.76 563.9 1434.54 658.12 1426.79 557.18"/><polygon class="f" points="1415.7 820.75 1437.87 825.23 1423.46 921.69 1415.7 820.75"/><polygon class="e" points="1423.46 921.69 1432.33 975.53 1437.87 825.23 1423.46 921.69"/><polygon class="f" points="1415.7 820.75 1415.06 1016.58 1423.46 921.69 1415.7 820.75"/><polygon class="e" points="1432.33 975.53 1423.46 921.69 1415.06 1016.58 1432.33 975.53"/><polygon class="f" points="1434.54 658.12 1424.57 660.36 1431.77 758.87 1434.54 658.12"/><polygon class="e" points="1426.79 557.18 1424.57 660.36 1434.54 658.12 1426.79 557.18"/><polygon class="f" points="1437.87 825.23 1446.73 805.05 1424.57 780.22 1437.87 825.23"/><polygon class="f" points="1451.17 772.52 1424.57 780.22 1431.77 758.87 1451.17 772.52"/><polygon class="e" points="1436.76 793.87 1436.76 776.69 1424.57 780.22 1436.76 793.87"/><polygon class="e" points="1415.7 820.75 1424.57 780.22 1437.87 825.23 1415.7 820.75"/><polygon class="d" points="1431.77 758.87 1417.92 766.91 1424.57 660.36 1431.77 758.87"/><polygon class="f" points="1424.57 780.22 1431.77 758.87 1417.92 766.91 1424.57 780.22"/><polygon class="f" points="1415.7 820.75 1424.57 780.22 1417.92 766.91 1415.7 820.75"/><polygon class="f" points="1342.56 569.51 1359.31 552.69 1358.37 570.63 1342.56 569.51"/><polygon class="d" points="1332.58 580.73 1342.56 569.51 1342.56 580.04 1332.58 580.73"/><polygon class="f" points="1349.44 570 1342.56 580.04 1342.56 569.51 1349.44 570"/><polygon class="f" points="1332.58 580.73 1340.34 607.65 1342.56 580.04 1332.58 580.73"/><polygon class="d" points="1331.47 607.65 1332.58 580.73 1340.34 607.65 1331.47 607.65"/><polygon class="f" points="1340.34 621.11 1331.47 607.65 1340.34 607.65 1340.34 621.11"/><polygon class="d" points="1355.86 618.86 1340.34 621.11 1340.34 607.65 1355.86 618.86"/><polygon class="d" points="1340.34 634.56 1340.34 621.11 1346.88 634.25 1340.34 634.56"/><polygon class="f" points="1355.86 618.86 1354.69 627.57 1340.34 621.11 1355.86 618.86"/><polygon class="f" points="1346.88 634.25 1346.4 623.84 1340.34 621.11 1346.88 634.25"/><polygon class="f" points="1340.34 634.56 1353.21 638.59 1346.88 634.25 1340.34 634.56"/><polygon class="f" points="1353.87 633.64 1346.88 634.25 1353.21 638.59 1353.87 633.64"/><polygon class="f" points="1341.83 589.08 1351.42 589.08 1350.93 584.86 1341.83 589.08"/><polygon class="f" points="1342.21 584.39 1350.93 584.86 1341.83 589.08 1342.21 584.39"/><polygon class="f" points="1357.44 588.53 1350.93 584.86 1351.42 589.08 1357.44 588.53"/><polygon class="f" points="1357.12 594.63 1351.42 589.08 1357.44 588.53 1357.12 594.63"/><polygon class="f" points="1433.64 691.1 1453.38 670.46 1434.54 658.12 1433.64 691.1"/><polygon class="f" points="1436.76 563.9 1447.79 618.86 1434.54 658.12 1436.76 563.9"/><polygon class="f" points="1453.38 670.46 1456.71 644.66 1434.54 658.12 1453.38 670.46"/><polygon class="f" points="1447.79 618.86 1456.71 644.66 1434.54 658.12 1447.79 618.86"/><polygon class="e" points="1465.49 623.21 1447.79 618.86 1456.71 644.66 1465.49 623.21"/></g></g></svg>