<?xml version="1.0" encoding="UTF-8"?><svg xmlns="http://www.w3.org/2000/svg" viewBox="0 0 500 500"><defs><style>.i{fill:#af5454;}.j{fill:#bf5c5c;}.k{fill:#c66767;}.l{fill:#b0504d;}</style></defs><g id="a"/><g id="b"/><g id="c"/><g id="d"/><g id="e"><g><g><polygon class="l" points="444.06 299.53 455.55 297.5 445.39 290.8 447.1 279.57 435.61 281.95 428.17 302.57 444.06 299.53"/><polygon class="l" points="465.36 151.11 452.85 154.15 448.45 162.61 441.02 168.02 420.39 176.91 363.21 222.11 371.37 228.87 393.35 205.2 397.74 216.02 374.08 269.44 382.44 272.53 382.29 272.48 364.66 284.32 364.62 284.32 364.64 284.34 364.63 284.34 364.64 284.35 381.85 305.28 382.87 288.71 395.92 277.52 414.31 284.32 435.61 281.95 463.33 276.2 444.4 239.01 447.1 231.57 460.58 230.56 453.19 212.98 458.26 190.67 455.55 174.1 456.82 181.88 462.65 181.88 469.41 175.12 472.84 168.35 475.5 156.18 465.36 151.11"/><polygon class="l" points="149.76 283.34 151.95 277.39 162.86 276.57 156.87 262.5 160.98 244.64 159.82 237.61 164.54 237.61 170.02 232.19 172.79 226.78 174.95 217.04 166.73 212.98 156.6 215.42 153.04 222.18 147.02 226.51 130.31 233.63 84 269.81 90.61 275.22 108.41 256.28 111.97 264.94 92.8 307.69 99.58 310.17 99.46 310.13 85.33 319.5 76.08 297.16 77.79 291.35 86.36 290.56 81.66 276.83 84.88 259.41 83.16 246.48 83.97 252.55 87.67 252.55 91.97 247.27 94.15 241.99 95.84 232.49 89.39 228.53 81.45 230.91 78.65 237.51 73.93 241.73 60.83 248.68 24.5 283.96 29.68 289.24 43.64 270.76 46.44 279.21 31.4 320.91 36.72 323.33 36.62 323.28 25.42 332.53 25.39 332.52 25.41 332.54 25.4 332.55 25.41 332.55 36.34 348.89 36.99 335.96 45.28 327.22 56.96 332.52 70.49 330.68 65.77 346.78 75.86 344.4 77.79 328.82 88.1 326.19 85.6 320.16 99.1 336.38 99.92 323.12 110.49 314.16 125.39 319.6 142.64 317.71 165.09 313.11 149.76 283.34"/><polygon class="l" points="149.48 331.78 158.79 330.16 150.56 324.79 151.95 315.8 142.64 317.71 136.61 334.21 149.48 331.78"/><polygon class="l" points="230.18 190 226.93 197.55 221.42 202.37 206.14 210.32 163.79 250.65 169.83 256.69 186.11 235.57 189.37 245.22 171.84 292.9 178.03 295.66 177.92 295.61 164.86 306.18 164.83 306.18 164.85 306.2 164.84 306.2 164.85 306.21 177.6 324.88 178.35 310.1 188.01 300.11 201.63 306.18 217.41 304.06 237.94 298.93 223.92 265.74 225.92 259.1 235.91 258.2 230.43 242.51 234.19 222.59 232.18 207.81 233.12 214.75 237.44 214.75 242.45 208.71 244.99 202.68 246.96 191.81 239.45 187.29 230.18 190"/><polygon class="l" points="223.67 319.76 232.18 317.94 224.66 311.97 225.92 301.94 217.41 304.06 211.9 322.47 223.67 319.76"/><polygon class="l" points="76.71 337.59 75.86 344.4 83.16 342.82 76.71 337.59"/><polygon class="l" points="332.8 163.5 329.19 171.63 323.38 176.57 306.12 184.01 248.94 229.21 257.1 235.97 279.07 212.3 283.47 223.12 259.8 276.54 268.17 279.63 268.02 279.58 263.19 315.42 263.6 314.73 288.54 311.02 277.73 303.2 281.66 284.62 300.04 291.41 321.34 289.05 349.06 283.3 330.13 246.11 332.83 238.67 346.31 237.66 338.92 220.08 337.22 198.78 335.03 182.67 336.07 190.15 340.86 190.15 346.42 183.65 349.24 177.15 351.42 165.45 343.09 160.58 332.8 163.5"/><polygon class="l" points="329.79 308.66 341.96 307.64 331.26 298.03 332.83 286.67 321.34 289.05 313.9 309.67 329.79 308.66"/></g><g><polygon class="i" points="374.08 269.44 397.74 216.02 414.31 284.32 374.08 269.44"/><polygon class="k" points="420.39 211.97 441.02 168.02 420.39 176.91 420.39 211.97"/><polygon class="i" points="435.61 281.95 444.4 239.01 463.33 276.2 435.61 281.95"/><polygon class="i" points="452.85 154.15 465.36 151.11 459.1 165.36 452.85 154.15"/><polygon class="i" points="363.21 222.11 371.37 228.87 393.35 205.2 363.21 222.11"/><polygon class="i" points="416.34 230.56 434.17 230.56 425.25 267.29 416.34 230.56"/><polygon class="l" points="397.74 216.02 416.34 230.56 420.39 211.97 397.74 216.02"/><polygon class="k" points="447.1 231.57 460.58 230.56 453.19 212.98 447.1 231.57"/><polygon class="j" points="397.74 216.02 420.39 176.91 420.39 211.97 397.74 216.02"/><polygon class="k" points="397.74 216.02 393.35 205.2 420.39 176.91 397.74 216.02"/><polygon class="j" points="363.21 222.11 420.39 176.91 393.35 205.2 363.21 222.11"/><polygon class="j" points="364.62 284.32 382.87 288.71 381.85 305.28 364.62 284.32"/><polygon class="k" points="364.63 284.34 395.94 277.5 382.29 272.48 364.63 284.34"/><polygon class="i" points="395.94 277.5 382.87 288.71 364.63 284.34 395.94 277.5"/><polygon class="k" points="425.25 267.29 414.31 284.32 416.34 230.56 425.25 267.29"/><polygon class="j" points="414.31 284.32 416.34 230.56 397.74 216.02 414.31 284.32"/><polygon class="j" points="435.61 281.95 425.25 267.29 414.31 284.32 435.61 281.95"/><polygon class="j" points="458.26 190.67 453.19 212.98 420.39 211.97 458.26 190.67"/><polygon class="k" points="441.02 168.02 458.26 190.67 455.55 174.1 441.02 168.02"/><polygon class="l" points="441.02 168.02 458.26 190.67 420.39 211.97 441.02 168.02"/><polygon class="i" points="416.34 230.56 453.19 212.98 420.39 211.97 416.34 230.56"/><polygon class="k" points="434.17 230.56 453.19 212.98 416.34 230.56 434.17 230.56"/><polygon class="k" points="425.25 267.29 444.4 239.01 435.61 281.95 425.25 267.29"/><polygon class="i" points="447.1 231.57 444.4 239.01 434.17 230.56 447.1 231.57"/><polygon class="j" points="434.17 230.56 453.19 212.98 447.1 231.57 434.17 230.56"/><polygon class="j" points="444.4 239.01 425.25 267.29 434.17 230.56 444.4 239.01"/><polygon class="k" points="435.61 281.95 428.17 302.57 447.1 279.57 435.61 281.95"/><polygon class="i" points="428.17 302.57 444.06 299.53 447.1 279.57 428.17 302.57"/><polygon class="j" points="444.06 299.53 455.55 297.5 445.39 290.8 444.06 299.53"/><polygon class="l" points="455.55 174.1 448.45 162.61 441.02 168.02 455.55 174.1"/><polygon class="k" points="465.36 151.11 475.5 156.18 472.84 168.35 465.36 151.11"/><polygon class="k" points="462.65 181.88 469.41 175.12 467.39 164.97 462.65 181.88"/><polygon class="l" points="462.65 181.88 455.55 174.1 456.82 181.88 462.65 181.88"/><polygon class="j" points="472.84 168.35 467.39 164.97 465.36 151.11 472.84 168.35"/><polygon class="l" points="455.55 174.1 459.1 165.36 467.39 164.97 455.55 174.1"/><polygon class="j" points="462.65 181.88 467.39 164.97 455.55 174.1 462.65 181.88"/><polygon class="j" points="448.45 162.61 452.85 154.15 459.1 165.36 448.45 162.61"/><polygon class="k" points="448.45 162.61 459.1 165.36 455.55 174.1 448.45 162.61"/><polygon class="k" points="467.39 164.97 465.36 151.11 459.1 165.36 467.39 164.97"/><polygon class="l" points="469.41 175.12 472.84 168.35 467.39 164.97 469.41 175.12"/><polygon class="i" points="92.8 307.69 111.97 264.94 125.39 319.6 92.8 307.69"/><polygon class="k" points="130.31 261.69 147.02 226.51 130.31 233.63 130.31 261.69"/><polygon class="i" points="142.64 317.71 149.76 283.34 165.09 313.11 142.64 317.71"/><polygon class="i" points="156.6 215.42 166.73 212.98 161.67 224.39 156.6 215.42"/><polygon class="i" points="84 269.81 90.61 275.22 108.41 256.28 84 269.81"/><polygon class="i" points="127.03 276.57 141.47 276.57 134.25 305.98 127.03 276.57"/><polygon class="l" points="111.97 264.94 127.03 276.57 130.31 261.69 111.97 264.94"/><polygon class="k" points="151.95 277.39 162.86 276.57 156.87 262.5 151.95 277.39"/><polygon class="j" points="111.97 264.94 130.31 233.63 130.31 261.69 111.97 264.94"/><polygon class="k" points="111.97 264.94 108.41 256.28 130.31 233.63 111.97 264.94"/><polygon class="j" points="84 269.81 130.31 233.63 108.41 256.28 84 269.81"/><polygon class="j" points="85.14 319.6 99.92 323.12 99.1 336.38 85.14 319.6"/><polygon class="k" points="85.15 319.63 110.51 314.14 99.46 310.13 85.15 319.63"/><polygon class="i" points="110.51 314.14 99.92 323.12 85.15 319.63 110.51 314.14"/><polygon class="k" points="134.25 305.98 125.39 319.6 127.03 276.57 134.25 305.98"/><polygon class="j" points="125.39 319.6 127.03 276.57 111.97 264.94 125.39 319.6"/><polygon class="j" points="142.64 317.71 134.25 305.98 125.39 319.6 142.64 317.71"/><polygon class="j" points="160.98 244.64 156.87 262.5 130.31 261.69 160.98 244.64"/><polygon class="k" points="147.02 226.51 160.98 244.64 158.79 231.38 147.02 226.51"/><polygon class="l" points="147.02 226.51 160.98 244.64 130.31 261.69 147.02 226.51"/><polygon class="i" points="127.03 276.57 156.87 262.5 130.31 261.69 127.03 276.57"/><polygon class="k" points="141.47 276.57 156.87 262.5 127.03 276.57 141.47 276.57"/><polygon class="k" points="134.25 305.98 149.76 283.34 142.64 317.71 134.25 305.98"/><polygon class="i" points="151.95 277.39 149.76 283.34 141.47 276.57 151.95 277.39"/><polygon class="j" points="141.47 276.57 156.87 262.5 151.95 277.39 141.47 276.57"/><polygon class="j" points="149.76 283.34 134.25 305.98 141.47 276.57 149.76 283.34"/><polygon class="k" points="142.64 317.71 136.61 334.21 151.95 315.8 142.64 317.71"/><polygon class="i" points="136.61 334.21 149.48 331.78 151.95 315.8 136.61 334.21"/><polygon class="j" points="149.48 331.78 158.79 330.16 150.56 324.79 149.48 331.78"/><polygon class="l" points="158.79 231.38 153.04 222.18 147.02 226.51 158.79 231.38"/><polygon class="k" points="166.73 212.98 174.95 217.04 172.79 226.78 166.73 212.98"/><polygon class="k" points="164.54 237.61 170.02 232.19 168.37 224.08 164.54 237.61"/><polygon class="l" points="164.54 237.61 158.79 231.38 159.82 237.61 164.54 237.61"/><polygon class="j" points="172.79 226.78 168.37 224.08 166.73 212.98 172.79 226.78"/><polygon class="l" points="158.79 231.38 161.67 224.39 168.37 224.08 158.79 231.38"/><polygon class="j" points="164.54 237.61 168.37 224.08 158.79 231.38 164.54 237.61"/><polygon class="j" points="153.04 222.18 156.6 215.42 161.67 224.39 153.04 222.18"/><polygon class="k" points="153.04 222.18 161.67 224.39 158.79 231.38 153.04 222.18"/><polygon class="k" points="168.37 224.08 166.73 212.98 161.67 224.39 168.37 224.08"/><polygon class="l" points="170.02 232.19 172.79 226.78 168.37 224.08 170.02 232.19"/><polygon class="i" points="171.84 292.9 189.37 245.22 201.63 306.18 171.84 292.9"/><polygon class="k" points="206.14 241.6 221.42 202.37 206.14 210.32 206.14 241.6"/><polygon class="i" points="217.41 304.06 223.92 265.74 237.94 298.93 217.41 304.06"/><polygon class="i" points="230.18 190 239.45 187.29 234.81 200.01 230.18 190"/><polygon class="i" points="163.79 250.65 169.83 256.69 186.11 235.57 163.79 250.65"/><polygon class="i" points="203.14 258.2 216.34 258.2 209.74 290.98 203.14 258.2"/><polygon class="l" points="189.37 245.22 203.14 258.2 206.14 241.6 189.37 245.22"/><polygon class="k" points="225.92 259.1 235.91 258.2 230.43 242.51 225.92 259.1"/><polygon class="j" points="189.37 245.22 206.14 210.32 206.14 241.6 189.37 245.22"/><polygon class="k" points="189.37 245.22 186.11 235.57 206.14 210.32 189.37 245.22"/><polygon class="j" points="163.79 250.65 206.14 210.32 186.11 235.57 163.79 250.65"/><polygon class="j" points="164.83 306.18 178.35 310.1 177.6 324.88 164.83 306.18"/><polygon class="k" points="164.84 306.2 188.03 300.09 177.92 295.61 164.84 306.2"/><polygon class="i" points="188.03 300.09 178.35 310.1 164.84 306.2 188.03 300.09"/><polygon class="k" points="209.74 290.98 201.63 306.18 203.14 258.2 209.74 290.98"/><polygon class="j" points="201.63 306.18 203.14 258.2 189.37 245.22 201.63 306.18"/><polygon class="j" points="217.41 304.06 209.74 290.98 201.63 306.18 217.41 304.06"/><polygon class="j" points="234.19 222.59 230.43 242.51 206.14 241.6 234.19 222.59"/><polygon class="k" points="221.42 202.37 234.19 222.59 232.18 207.81 221.42 202.37"/><polygon class="l" points="221.42 202.37 234.19 222.59 206.14 241.6 221.42 202.37"/><polygon class="i" points="203.14 258.2 230.43 242.51 206.14 241.6 203.14 258.2"/><polygon class="k" points="216.34 258.2 230.43 242.51 203.14 258.2 216.34 258.2"/><polygon class="k" points="209.74 290.98 223.92 265.74 217.41 304.06 209.74 290.98"/><polygon class="i" points="225.92 259.1 223.92 265.74 216.34 258.2 225.92 259.1"/><polygon class="j" points="216.34 258.2 230.43 242.51 225.92 259.1 216.34 258.2"/><polygon class="j" points="223.92 265.74 209.74 290.98 216.34 258.2 223.92 265.74"/><polygon class="k" points="217.41 304.06 211.9 322.47 225.92 301.94 217.41 304.06"/><polygon class="i" points="211.9 322.47 223.67 319.76 225.92 301.94 211.9 322.47"/><polygon class="j" points="223.67 319.76 232.18 317.94 224.66 311.97 223.67 319.76"/><polygon class="l" points="232.18 207.81 226.93 197.55 221.42 202.37 232.18 207.81"/><polygon class="k" points="239.45 187.29 246.96 191.81 244.99 202.68 239.45 187.29"/><polygon class="k" points="237.44 214.75 242.45 208.71 240.95 199.66 237.44 214.75"/><polygon class="l" points="237.44 214.75 232.18 207.81 233.12 214.75 237.44 214.75"/><polygon class="j" points="244.99 202.68 240.95 199.66 239.45 187.29 244.99 202.68"/><polygon class="l" points="232.18 207.81 234.81 200.01 240.95 199.66 232.18 207.81"/><polygon class="j" points="237.44 214.75 240.95 199.66 232.18 207.81 237.44 214.75"/><polygon class="j" points="226.93 197.55 230.18 190 234.81 200.01 226.93 197.55"/><polygon class="k" points="226.93 197.55 234.81 200.01 232.18 207.81 226.93 197.55"/><polygon class="k" points="240.95 199.66 239.45 187.29 234.81 200.01 240.95 199.66"/><polygon class="l" points="242.45 208.71 244.99 202.68 240.95 199.66 242.45 208.71"/><polygon class="i" points="31.4 320.91 46.44 279.21 56.96 332.52 31.4 320.91"/><polygon class="k" points="60.83 276.04 73.93 241.73 60.83 248.68 60.83 276.04"/><polygon class="i" points="70.49 330.68 76.08 297.16 88.1 326.19 70.49 330.68"/><polygon class="i" points="81.45 230.91 89.39 228.53 85.42 239.66 81.45 230.91"/><polygon class="i" points="24.5 283.96 29.68 289.24 43.65 270.76 24.5 283.96"/><polygon class="i" points="58.25 290.56 69.58 290.56 63.91 319.23 58.25 290.56"/><polygon class="l" points="46.44 279.21 58.25 290.56 60.83 276.04 46.44 279.21"/><polygon class="k" points="77.79 291.35 86.36 290.56 81.66 276.83 77.79 291.35"/><polygon class="j" points="46.44 279.21 60.83 248.68 60.83 276.04 46.44 279.21"/><polygon class="k" points="46.44 279.21 43.65 270.76 60.83 248.68 46.44 279.21"/><polygon class="j" points="24.5 283.96 60.83 248.68 43.65 270.76 24.5 283.96"/><polygon class="j" points="25.39 332.52 36.99 335.96 36.34 348.89 25.39 332.52"/><polygon class="k" points="25.4 332.55 45.29 327.2 36.62 323.28 25.4 332.55"/><polygon class="i" points="45.29 327.2 36.99 335.96 25.4 332.55 45.29 327.2"/><polygon class="k" points="63.91 319.23 56.96 332.52 58.25 290.56 63.91 319.23"/><polygon class="j" points="56.96 332.52 58.25 290.56 46.44 279.21 56.96 332.52"/><polygon class="j" points="70.49 330.68 63.91 319.23 56.96 332.52 70.49 330.68"/><polygon class="j" points="84.88 259.41 81.66 276.83 60.83 276.04 84.88 259.41"/><polygon class="k" points="73.93 241.73 84.88 259.41 83.16 246.48 73.93 241.73"/><polygon class="l" points="73.93 241.73 84.88 259.41 60.83 276.04 73.93 241.73"/><polygon class="i" points="58.25 290.56 81.66 276.83 60.83 276.04 58.25 290.56"/><polygon class="k" points="69.58 290.56 81.66 276.83 58.25 290.56 69.58 290.56"/><polygon class="k" points="63.91 319.23 76.08 297.16 70.49 330.68 63.91 319.23"/><polygon class="i" points="77.79 291.35 76.08 297.16 69.58 290.56 77.79 291.35"/><polygon class="j" points="69.58 290.56 81.66 276.83 77.79 291.35 69.58 290.56"/><polygon class="j" points="76.08 297.16 63.91 319.23 69.58 290.56 76.08 297.16"/><polygon class="k" points="70.49 330.68 65.77 346.78 77.79 328.82 70.49 330.68"/><polygon class="i" points="65.77 346.78 75.86 344.4 77.79 328.82 65.77 346.78"/><polygon class="j" points="75.86 344.4 83.16 342.82 76.71 337.59 75.86 344.4"/><polygon class="l" points="83.16 246.48 78.65 237.51 73.93 241.73 83.16 246.48"/><polygon class="k" points="89.39 228.53 95.84 232.49 94.15 241.99 89.39 228.53"/><polygon class="k" points="87.67 252.55 91.97 247.27 90.68 239.35 87.67 252.55"/><polygon class="l" points="87.67 252.55 83.16 246.48 83.97 252.55 87.67 252.55"/><polygon class="j" points="94.15 241.99 90.68 239.35 89.39 228.53 94.15 241.99"/><polygon class="l" points="83.16 246.48 85.42 239.66 90.68 239.35 83.16 246.48"/><polygon class="j" points="87.67 252.55 90.68 239.35 83.16 246.48 87.67 252.55"/><polygon class="j" points="78.65 237.51 81.45 230.91 85.42 239.66 78.65 237.51"/><polygon class="k" points="78.65 237.51 85.42 239.66 83.16 246.48 78.65 237.51"/><polygon class="k" points="90.68 239.35 89.39 228.53 85.42 239.66 90.68 239.35"/><polygon class="l" points="91.97 247.27 94.15 241.99 90.68 239.35 91.97 247.27"/><polygon class="i" points="259.8 276.54 283.47 223.12 300.04 291.41 259.8 276.54"/><polygon class="k" points="306.12 219.07 326.74 175.12 306.12 184.01 306.12 219.07"/><polygon class="i" points="321.34 289.05 330.13 246.11 349.06 283.3 321.34 289.05"/><polygon class="i" points="332.8 163.5 343.09 160.58 337.94 174.27 332.8 163.5"/><polygon class="i" points="248.94 229.21 257.1 235.97 279.07 212.3 248.94 229.21"/><polygon class="i" points="302.06 237.66 319.9 237.66 310.98 274.39 302.06 237.66"/><polygon class="l" points="283.47 223.12 302.06 237.66 306.12 219.07 283.47 223.12"/><polygon class="k" points="332.83 238.67 346.31 237.66 338.92 220.08 332.83 238.67"/><polygon class="j" points="283.47 223.12 306.12 184.01 306.12 219.07 283.47 223.12"/><polygon class="k" points="283.47 223.12 279.07 212.3 306.12 184.01 283.47 223.12"/><polygon class="j" points="248.94 229.21 306.12 184.01 279.07 212.3 248.94 229.21"/><polygon class="j" points="263.52 314.74 272.65 299.53 288.54 311.02 263.52 314.74"/><polygon class="k" points="263.19 315.42 281.67 284.59 268.02 279.58 263.19 315.42"/><polygon class="i" points="281.67 284.59 272.65 299.53 277.72 303.25 281.67 284.59"/><polygon class="k" points="310.98 274.39 300.04 291.41 302.06 237.66 310.98 274.39"/><polygon class="j" points="300.04 291.41 302.06 237.66 283.47 223.12 300.04 291.41"/><polygon class="j" points="321.34 289.05 310.98 274.39 300.04 291.41 321.34 289.05"/><polygon class="j" points="337.22 198.78 338.92 220.08 306.12 219.07 337.22 198.78"/><polygon class="k" points="323.08 176.82 337.22 198.78 335.03 182.67 323.08 176.82"/><polygon class="l" points="323.08 176.82 337.22 198.78 306.12 219.07 323.08 176.82"/><polygon class="i" points="302.06 237.66 338.92 220.08 306.12 219.07 302.06 237.66"/><polygon class="k" points="319.9 237.66 338.92 220.08 302.06 237.66 319.9 237.66"/><polygon class="k" points="310.98 274.39 330.13 246.11 321.34 289.05 310.98 274.39"/><polygon class="i" points="332.83 238.67 330.13 246.11 319.9 237.66 332.83 238.67"/><polygon class="j" points="319.9 237.66 338.92 220.08 332.83 238.67 319.9 237.66"/><polygon class="j" points="330.13 246.11 310.98 274.39 319.9 237.66 330.13 246.11"/><polygon class="k" points="321.34 289.05 313.9 309.67 332.83 286.67 321.34 289.05"/><polygon class="i" points="313.9 309.67 329.79 308.66 332.83 286.67 313.9 309.67"/><polygon class="j" points="329.79 308.66 341.96 307.64 331.12 297.9 329.79 308.66"/><polygon class="l" points="335.03 182.67 329.19 171.63 323.08 176.82 335.03 182.67"/><polygon class="k" points="343.09 160.58 351.42 165.45 349.24 177.15 343.09 160.58"/><polygon class="k" points="340.86 190.15 346.42 183.65 344.75 173.9 340.86 190.15"/><polygon class="l" points="340.86 190.15 335.03 182.67 336.07 190.15 340.86 190.15"/><polygon class="j" points="349.24 177.15 344.75 173.9 343.09 160.58 349.24 177.15"/><polygon class="l" points="335.03 182.67 337.94 174.27 344.75 173.9 335.03 182.67"/><polygon class="j" points="340.86 190.15 344.75 173.9 335.03 182.67 340.86 190.15"/><polygon class="j" points="329.19 171.63 332.8 163.5 337.94 174.27 329.19 171.63"/><polygon class="k" points="329.19 171.63 337.94 174.27 335.03 182.67 329.19 171.63"/><polygon class="k" points="344.75 173.9 343.09 160.58 337.94 174.27 344.75 173.9"/><polygon class="l" points="346.42 183.65 349.24 177.15 344.75 173.9 346.42 183.65"/></g></g></g><g id="f"/><g id="g"/><g id="h"/></svg>