<?xml version="1.0" encoding="UTF-8"?><svg xmlns="http://www.w3.org/2000/svg" viewBox="0 0 500 500"><defs><style>.i{fill:#bf5c5c;}.j{fill:#c66767;}.k{fill:#b0504d;}</style></defs><g id="a"/><g id="b"/><g id="c"/><g id="d"/><g id="e"/><g id="f"><g><polygon class="k" points="359.5 89.5 323.2 102.5 175.5 102.5 110.5 151.5 147.17 221.5 194.5 366.5 252.5 410.5 311.5 303.5 346.5 271.5 356.35 232.28 389.5 151.5 359.5 89.5"/><g><polygon class="k" points="147.17 221.5 110.5 151.5 175.5 102.5 147.17 221.5"/><polygon class="i" points="194.5 366.5 252.5 410.5 226.5 294.5 194.5 366.5"/><polygon class="k" points="359.5 89.5 389.5 151.5 323.2 102.5 359.5 89.5"/><polygon class="i" points="311.5 303.5 356.35 232.28 346.5 271.5 311.5 303.5"/><polygon class="k" points="215.55 120.5 240.5 179.31 291.5 151.5 215.55 120.5"/><polygon class="j" points="175.5 102.5 215.55 120.5 323.2 102.5 175.5 102.5"/><polygon class="j" points="311.5 303.5 252.5 410.5 226.5 294.5 311.5 303.5"/><polygon class="j" points="240.5 179.31 180.5 229.5 259 236.76 240.5 179.31"/><polygon class="j" points="291.5 151.5 323.2 102.5 389.5 151.5 291.5 151.5"/><polygon class="i" points="215.55 120.5 323.2 102.5 291.5 151.5 215.55 120.5"/><polygon class="j" points="291.5 151.5 311.5 303.5 356.35 232.28 291.5 151.5"/><polygon class="i" points="389.5 151.5 356.35 232.28 291.5 151.5 389.5 151.5"/><polygon class="i" points="147.17 221.5 215.55 120.5 175.5 102.5 147.17 221.5"/><polygon class="k" points="259 236.76 226.5 294.5 180.5 229.5 259 236.76"/><polygon class="k" points="147.17 221.5 194.5 366.5 226.5 294.5 147.17 221.5"/><polygon class="i" points="147.17 221.5 180.5 229.5 226.5 294.5 147.17 221.5"/><polygon class="j" points="147.17 221.5 240.5 179.31 215.55 120.5 147.17 221.5"/><polygon class="k" points="240.5 179.31 147.17 221.5 180.5 229.5 240.5 179.31"/><polygon class="i" points="259 236.76 291.5 151.5 240.5 179.31 259 236.76"/><polygon class="i" points="311.5 303.5 259 236.76 226.5 294.5 311.5 303.5"/><polygon class="k" points="291.5 151.5 311.5 303.5 259 236.76 291.5 151.5"/></g></g></g><g id="g"/><g id="h"/></svg>