<?xml version="1.0" encoding="UTF-8"?><svg id="a" xmlns="http://www.w3.org/2000/svg" viewBox="0 0 1920 1080"><defs><style>.b{fill:#bf5c5c;}.c{fill:#c66767;}.d{fill:#b0504d;}</style></defs><g><polygon class="b" points="480.37 755.94 478.48 772.36 507.41 774.06 480.37 755.94"/><polygon class="b" points="778.93 814.47 776.24 797.88 774.49 820.85 778.93 814.47"/><polygon class="b" points="1460.23 331.68 1428.13 311.26 1392.17 326.57 1393.07 363.58 1404.08 379.32 1408.51 390.08 1389.08 395.97 1431.65 401.44 1463.64 369.11 1460.23 331.68"/><path class="b" d="M1548.71,746.84l-13.61-59.55-27.22-23.82-20.95-85.79-16.48-45.14,3.36-49.43,17.06-61.25-6.81-22.12-23.82-5.49-1.7-13.23,5.1-11.91-9.51,9.62-22.47,22.71-69.51-8.93-26.08-16.82,1.57-4.67-17.72-15.37-4.09-6.82,21.81-24.54,1.36-13.63-16.36-24.54h-25.9l-16.49,11.34,14.19-32.66-4.36-25-27.22-15.31-43.39,7.47-26.37,30.09,3.4,21.99,10.21,22.12-4.8,23.82h-36.03l-10.05,26.04,37.27-12.42-66.36,22.12-1.87,2.44-6.09-2.27-17.8,1.77-7.14-14.48,9.32-15.23,4.09-34.08-26.27-17.84-39.57,17.63-5.05,17.93,2.25,21.81,10.47,19.99-5.91,10-27.11,2.73-20.61,19.08-63.02,51.8-42.08,29.76-15.06-10.65-78.66-64.66-25.72-23.82-33.83-3.4-.23-.02h0l.23,.02-7.37-12.48,13.07-24.95,2.81-27.22-6.3-22.38-49.38-22-17.64,11.98-15.57-17.76-34.76-5.98-21.81,12.27-3.49,20.03,14.4,33.13,24.54,15-10.91,12.27-23.33-2.73-13.61,15.41-45.32,29.24-3.93,.51-13.71-10.91-16.38,.85,.41-1.01,8.82-12.61,.72-29.65-28.81-12.27-25.72,16.36-2.73,29.99,2.03,2.06h0l-2.03-2.06,.73,1.7-8.86-2.44-10.21-12.9-1.7-18.85,11.91-5.13-5.1-47.62-27.22-18.72h-32.33l-20.42,30.63,1.7,17.01,27.22,30.63-5.1,8.51-22.12,19.18,15.31,45.48,10.21,35.6,28.93,57.98-1.7,28.93,11.91,20.42,2.03,1.97-10.62,43.47-21.81,19.08-10.91,47.71-2.73,32.72h31.65l-9.83-6.59v-35.67l36.81-36.81,10.91-19.04,25.94-2.51,47.25,28.82-56.15,34.03-17.01,32.17-31.88,21.62,30.18,43.2,20.42,8.51,5.96-51.71,55.3-55.48,12.48-16.86h0l-.57,.76,.47,.33-1.04,11.61-1.36,44.99h11.95l-2.41-40.9,2.73,46.35-6.82,25.9,8.49,.42v8.13l-5.2,48.57v15.98l-11.91,23.15,39.13,1.7,17.01-13.68-15.31-9.54-1.7-22.71,25.52-37.43,17.01-51.04,22.12-30.63,30.96,.8,7.63,1.48,8.01,30.71,9.54,15,.65,39.53h15.71l9.95-4.98,2.43,17.37,18.19,44.28,2.63,41.05,49.12-3.19-26.23-37.86-4.53,7.57,1.84-24.15,6.76-67.37-11.86-27.91,1.7-28.93,10.16-52.75-40.79-71.46,6.81-57.85,11.73-53.61,19.34,19.88,22.97,10.22,28.03,20.59,12.17,5,9.38,12.98,24.94,7.1,3.28-4.65,48.51,19.91,14.43,20.42,31.13-8.86,19.41-26.87,25.27-13.61,16.99-7.56,2.5,21.22-32.68,57.25,8.14,42.26,1.36,23.17-9.5,22.36,5.41,53.98-2.16,13.29,3.56,5.11,.07,.95-3.63-6.06-21.02,30.33,39.36,2.56,2.11-32.89,14.57-35.48,4.91-35.07,15.28-39.87,23.01-4.47,24.8-.64,17.72,24.54,12.11,36.32-8.98,20.96-3.4,69.76v55.77l-13.61,25.9,20.42,10.21h19.61l.81-49.34,11.91-18.72,11.45-43.88,15.14-.66-9.54-18.55v-2.23l3.38-12.95,3.4-30.63,23.82-51.04-46.52-15.15h0l46.52,15.15,1.48-2.41,26.05,26.13,1.24,1.8,3.18,27.65-21.66,14.52,23.17-1.36,16.36-6.82,1.22-1.74,15.5,22.44,10.02,45.7,10.21,20.42,3.4,27.22-28.93,18.63v13.7l68.06-3.4-8.51-32.33,.4-6.81h14.91l-1.7-56.15-5.73-63.69,2.33-21.39,28.93,8.51,88.48,8.57,13.61,23.76,45.94,45.94v44.52l-12.28,8.22h39.5l-3.4-40.84Zm-414.19-244.53l-9.54-47.14,9.54-36.59,13.17-5.08,18.19,13.39,.48,4.33-18.2,4.85-13.63,8.18,24.54,6.82,9.35-1.17,4.76,43.41-18.17,67.3-5.48-10.03-20.14-39.53,5.15-8.75Zm19.88,103.37h0Zm133.39-192.82l.83-3.42h0l-.83,3.42h0Zm-41.94-87.98l28.39-17.35-3.36,31.33-11.42,1.33-13.61-15.31Zm-653.37,146.33l21.26-5.9-21.31,71.09-7.9,21.02-36.19-28.63-8.01-31.13-5.62-7.04,.87-28.63,16.07,4.12,40.84,5.1Zm14.17-46.9l7.75,33.17-8.31-4.99-51.04-13.61-24.25-8.23,17.44-1.98,44.24-9.83,14.17,5.46Zm123.19,307.54l-1.56-2.98v-4.54l.8,2.1,.76,5.42Zm269.29-258.94l-52.04,40.84-9.22-3.4-29.45-20.83,59.46-24.41,56.21-41.29,6.42,29.36-31.39,19.73Zm310.44,131.01l-9.86-26.24-16.06-53.59,2.18-2.12,9.54-16.36-1.36-23.17,23.17-46.45,8.18-28.52,1.35-4.01,12.71-2,45.94,22.12-15.31,40.84,1.7,56.15-7.02,8.78-10,38.86-45.17,35.73Z"/></g><g><polygon class="b" points="1337.64 324.3 1315.82 348.83 1287.2 333.84 1337.64 324.3"/><polygon class="b" points="1296.74 376.1 1325.37 407.45 1337.64 371.02 1296.74 376.1"/><polygon class="b" points="1287.2 415.25 1254.48 399.27 1258.57 382.91 1287.2 415.25"/><polygon class="b" points="1317.19 435.97 1265.39 464.7 1294.01 482.43 1317.19 435.97"/><polygon class="c" points="1254.48 435.97 1257.21 478.34 1234.03 460.62 1254.48 435.97"/><polygon class="b" points="1285.83 521.96 1242.21 491.97 1240.85 530.14 1285.83 521.96"/><polygon class="d" points="1257.21 549.81 1206.77 580.58 1216.31 516.51 1257.21 549.81"/><polygon class="b" points="1201.32 606.48 1245.62 650.93 1251.75 607.84 1201.32 606.48"/><polygon class="c" points="1339 310.66 1322.64 286.13 1296.74 286.13 1339 310.66"/><polygon class="c" points="1287.2 415.25 1296.74 376.1 1325.37 407.45 1287.2 415.25"/><polygon class="c" points="1258.57 382.91 1281.82 389.23 1287.2 415.25 1258.57 382.91"/><polygon class="d" points="1319.91 355.65 1296.74 376.1 1337.64 371.02 1319.91 355.65"/><polygon class="b" points="1287.2 415.25 1317.19 435.97 1325.37 407.45 1287.2 415.25"/><polygon class="d" points="1296.74 286.13 1274.93 301.12 1306.28 320.59 1296.74 286.13"/><polygon class="b" points="1339 310.66 1306.28 320.59 1296.74 286.13 1339 310.66"/><polygon class="c" points="1287.2 333.84 1274.93 301.12 1306.28 320.59 1287.2 333.84"/><polygon class="d" points="1339 310.66 1337.64 324.3 1306.28 320.59 1339 310.66"/><polygon class="b" points="1287.2 333.84 1306.28 320.59 1337.64 324.3 1287.2 333.84"/><polygon class="b" points="1270.84 339.27 1274.93 301.12 1287.2 333.84 1270.84 339.27"/><polygon class="c" points="1251.75 607.84 1206.77 580.58 1201.32 606.48 1251.75 607.84"/><polygon class="c" points="1216.31 516.51 1184.96 561.49 1206.77 580.58 1216.31 516.51"/><polygon class="b" points="1201.32 606.48 1182.15 580.58 1206.77 580.58 1201.32 606.48"/><polygon class="d" points="1182.15 580.58 1184.96 561.49 1206.77 580.58 1182.15 580.58"/><polygon class="b" points="1258.57 382.91 1239.48 377.46 1254.48 399.27 1258.57 382.91"/><polygon class="c" points="1243.57 393.82 1216.31 407.45 1225.85 387 1243.57 393.82"/><polygon class="b" points="1292.65 392.86 1281.82 389.23 1287.2 415.25 1292.65 392.86"/><polygon class="b" points="1270.84 339.27 1280.38 343.38 1287.2 333.84 1270.84 339.27"/><polygon class="d" points="1315.82 348.83 1280.38 343.38 1287.2 333.84 1315.82 348.83"/><polygon class="d" points="1319.91 355.65 1315.82 348.83 1279.02 358.49 1319.91 355.65"/><polygon class="c" points="1296.74 376.1 1279.02 358.49 1319.91 355.65 1296.74 376.1"/><polygon class="c" points="1280.38 343.38 1279.02 358.49 1315.82 348.83 1280.38 343.38"/><polygon class="d" points="1239.48 377.46 1270.84 368.82 1292.65 392.86 1239.48 377.46"/><polygon class="b" points="1296.74 376.1 1270.84 368.82 1292.65 392.86 1296.74 376.1"/><polygon class="d" points="1279.02 358.49 1270.84 368.82 1296.74 376.1 1279.02 358.49"/><polygon class="d" points="1294.01 482.43 1295.38 505.6 1265.39 494.01 1294.01 482.43"/><polygon class="b" points="1285.83 521.96 1265.39 494.01 1295.38 505.6 1285.83 521.96"/><polygon class="c" points="1242.21 491.97 1265.39 494.01 1285.83 521.96 1242.21 491.97"/><polygon class="b" points="1194.5 416.99 1216.31 407.45 1200.63 386.19 1194.5 416.99"/><polygon class="b" points="1225.85 387 1213.3 376.1 1216.31 407.45 1225.85 387"/><polygon class="b" points="1200.63 386.19 1213.3 376.1 1216.31 407.45 1200.63 386.19"/><polygon class="c" points="1285.83 521.96 1257.21 549.81 1240.85 530.14 1285.83 521.96"/><polygon class="c" points="1265.39 464.7 1294.01 482.43 1265.39 494.01 1265.39 464.7"/><polygon class="d" points="1287.2 415.25 1265.39 464.7 1317.19 435.97 1287.2 415.25"/><polygon class="d" points="1254.48 435.97 1254.48 399.27 1287.2 415.25 1254.48 435.97"/><polygon class="b" points="1265.39 464.7 1254.48 435.97 1287.2 415.25 1265.39 464.7"/><polygon class="c" points="1254.48 399.27 1243.57 393.82 1239.48 377.46 1254.48 399.27"/><polygon class="b" points="1225.85 387 1239.48 377.46 1243.57 393.82 1225.85 387"/><polygon class="b" points="1213.3 376.1 1239.48 377.46 1225.85 387 1213.3 376.1"/><polygon class="d" points="1242.21 491.97 1216.31 516.51 1240.85 530.14 1242.21 491.97"/><polygon class="b" points="1257.21 549.81 1216.31 516.51 1240.85 530.14 1257.21 549.81"/><polygon class="d" points="1160.42 632.38 1150.88 613.29 1175.41 560.13 1160.42 632.38"/><polygon class="c" points="1182.15 580.58 1160.42 632.38 1175.41 560.13 1182.15 580.58"/><polygon class="b" points="1183.59 515.14 1209.49 519.23 1184.96 561.49 1183.59 515.14"/><polygon class="b" points="1175.41 560.13 1184.96 561.49 1182.15 580.58 1175.41 560.13"/><polygon class="d" points="1183.59 515.14 1175.41 560.13 1184.96 561.49 1183.59 515.14"/><polygon class="b" points="1234.03 460.62 1216.31 489.7 1257.21 478.34 1234.03 460.62"/><polygon class="d" points="1265.39 464.7 1254.48 435.97 1257.21 478.34 1265.39 464.7"/><polygon class="b" points="1265.39 494.01 1257.21 478.34 1242.21 491.97 1265.39 494.01"/><polygon class="b" points="1265.39 464.7 1257.21 478.34 1265.39 494.01 1265.39 464.7"/><polygon class="c" points="1216.31 489.7 1216.31 516.51 1257.21 478.34 1216.31 489.7"/><polygon class="c" points="1183.59 515.14 1216.31 489.7 1209.49 519.23 1183.59 515.14"/><polygon class="b" points="1216.31 516.51 1216.31 489.7 1209.49 519.23 1216.31 516.51"/><polygon class="d" points="1184.96 561.49 1209.49 519.23 1216.31 516.51 1184.96 561.49"/><polygon class="b" points="1290.93 650.93 1266.75 685.54 1265.39 633.61 1290.93 650.93"/><polygon class="c" points="1251.75 607.84 1265.39 633.61 1245.62 650.93 1251.75 607.84"/><polygon class="b" points="1266.75 685.54 1250.39 692.36 1245.62 650.93 1266.75 685.54"/><polygon class="d" points="1265.39 633.61 1266.75 685.54 1245.62 650.93 1265.39 633.61"/><polygon class="d" points="1250.39 692.36 1227.22 693.72 1248.88 679.2 1250.39 692.36"/><polygon class="c" points="1254.48 399.27 1234.71 435.97 1208.47 418.58 1254.48 399.27"/><polygon class="b" points="1243.57 393.82 1208.47 418.58 1254.48 399.27 1243.57 393.82"/><polygon class="b" points="1234.71 435.97 1191.77 446.98 1189.05 425.17 1234.71 435.97"/><polygon class="b" points="1208.47 418.58 1189.05 425.17 1234.71 435.97 1208.47 418.58"/><polygon class="b" points="1191.77 446.98 1148.15 442.89 1148.15 436.08 1191.77 446.98"/><polygon class="c" points="1189.05 425.17 1148.15 436.08 1191.77 446.98 1189.05 425.17"/><polygon class="b" points="1159.06 451.07 1148.15 442.89 1134.52 444.26 1159.06 451.07"/><polygon class="b" points="1191.77 446.98 1148.15 442.89 1159.06 451.07 1191.77 446.98"/><polygon class="b" points="1148.15 436.08 1134.52 444.26 1148.15 442.89 1148.15 436.08"/><polygon class="b" points="1254.48 412.74 1234.71 435.97 1254.48 399.27 1254.48 412.74"/><polygon class="c" points="1194.5 416.99 1159.06 409.12 1200.63 386.19 1194.5 416.99"/><polygon class="d" points="1160.17 377.46 1186.23 387 1159.06 409.12 1160.17 377.46"/><polygon class="b" points="1200.63 386.19 1186.23 387 1159.06 409.12 1200.63 386.19"/><polygon class="d" points="1132.57 371.02 1062.72 425.17 1124.98 455.16 1132.57 371.02"/><polygon class="b" points="1134.52 502.31 1056.82 502.87 1124.98 455.16 1134.52 502.31"/><polygon class="b" points="1062.72 460.62 1041.42 430.62 1070.41 439.98 1062.72 460.62"/><polygon class="c" points="1159.06 409.12 1134.52 418.58 1144.45 365.87 1159.06 409.12"/><polygon class="b" points="1118.79 365.87 1043.18 373.37 1084.3 401.59 1118.79 365.87"/><polygon class="b" points="1047.27 400.63 1024.1 423.81 1016.08 376.1 1047.27 400.63"/><polygon class="d" points="995.47 395.18 1024.1 423.81 1016.08 376.1 995.47 395.18"/><polygon class="d" points="889.14 497.42 932.45 446.98 882.33 482.43 889.14 497.42"/><polygon class="b" points="1108.62 586.03 1064.89 539 1115.46 539 1108.62 586.03"/><polygon class="d" points="1039.09 513.78 1006.42 571.03 1030.12 586.03 1039.09 513.78"/><polygon class="d" points="1134.52 502.31 1129.37 511.05 1056.82 502.87 1134.52 502.31"/><polygon class="c" points="1077.26 577.85 1045.91 545.13 1050 576.49 1077.26 577.85"/><polygon class="d" points="1087.91 530.14 1073.38 521.96 1071.93 530.14 1087.91 530.14"/><polygon class="d" points="1125.47 533.16 1141.33 570.35 1149.51 550.59 1125.47 533.16"/><polygon class="d" points="1138.54 596.25 1159.06 595.57 1159.06 568.05 1138.54 596.25"/><polygon class="b" points="1166.22 580.06 1159.06 568.05 1159.06 595.57 1166.22 580.06"/><polygon class="c" points="1138.54 596.25 1108.62 586.03 1115.46 539 1138.54 596.25"/><polygon class="b" points="1149.51 550.59 1129.37 511.05 1125.47 533.16 1149.51 550.59"/><polygon class="c" points="1141.33 570.35 1159.06 568.05 1149.51 550.59 1141.33 570.35"/><polygon class="b" points="1138.54 596.25 1141.33 570.35 1159.06 568.05 1138.54 596.25"/><polygon class="c" points="1129.37 511.05 1115.46 539 1056.82 502.87 1129.37 511.05"/><polygon class="b" points="1108.62 586.03 1086.57 594.21 1077.26 577.85 1108.62 586.03"/><polygon class="d" points="1064.89 539 1077.26 577.85 1108.62 586.03 1064.89 539"/><polygon class="c" points="1045.91 591.25 1039.09 513.78 1030.12 586.03 1045.91 591.25"/><polygon class="c" points="1077.26 577.85 1045.91 591.25 1086.57 594.21 1077.26 577.85"/><polygon class="b" points="1050 576.49 1045.91 591.25 1077.26 577.85 1050 576.49"/><polygon class="b" points="1064.89 539 1056.82 502.87 1045.91 545.13 1077.26 577.85 1064.89 539"/><polygon class="b" points="1073.38 521.96 1056.82 502.87 1071.93 530.14 1073.38 521.96"/><polygon class="d" points="1087.91 530.14 1115.46 539 1064.89 539 1087.91 530.14"/><polygon class="d" points="1141.33 570.35 1115.46 539 1138.54 596.25 1141.33 570.35"/><polygon class="c" points="1125.47 533.16 1115.46 539 1141.33 570.35 1125.47 533.16"/><polygon class="d" points="1129.37 511.05 1115.46 539 1125.47 533.16 1129.37 511.05"/><polygon class="b" points="1030.12 586.03 1014.56 613.29 1006.42 571.03 1030.12 586.03"/><polygon class="c" points="1160.42 632.38 1144.06 676 1182.15 671.16 1160.42 632.38"/><polygon class="d" points="1130.43 635.1 1160.42 632.38 1144.06 676 1130.43 635.1"/><polygon class="b" points="1150.88 613.29 1138.54 596.25 1159.06 595.57 1150.88 613.29"/><polygon class="b" points="1160.42 632.38 1182.15 654.19 1182.15 671.16 1160.42 632.38"/><polygon class="b" points="1169.96 609.2 1182.15 655.55 1160.42 632.38 1169.96 609.2"/><polygon class="c" points="1138.54 596.25 1130.43 635.1 1150.88 613.29 1138.54 596.25"/><polygon class="b" points="1160.42 632.38 1130.43 635.1 1150.88 613.29 1160.42 632.38"/><polygon class="b" points="1144.06 676 1164.51 705.99 1182.15 671.16 1144.06 676"/><polygon class="b" points="1195.86 741.43 1164.51 742.8 1163.15 724.19 1195.86 741.43"/><polygon class="c" points="1150.88 731.83 1164.51 742.8 1163.15 724.19 1150.88 731.83"/><polygon class="d" points="1164.51 705.99 1186.32 710.08 1182.15 671.16 1164.51 705.99"/><polygon class="d" points="1195.86 741.43 1186.32 722.88 1163.15 724.19 1195.86 741.43"/><polygon class="c" points="1164.51 705.99 1163.15 724.19 1186.32 722.88 1164.51 705.99"/><polygon class="b" points="1186.32 710.08 1186.32 722.88 1164.51 705.99 1186.32 710.08"/><polygon class="d" points="1130.43 635.1 1112.71 610.57 1138.54 596.25 1130.43 635.1"/><polygon class="d" points="1064.89 615.68 1049.61 655.55 1033.38 607.84 1064.89 615.68"/><polygon class="b" points="1045.91 591.25 1033.38 607.84 1064.89 615.68 1045.91 591.25"/><polygon class="b" points="1087.91 611.21 1086.57 594.21 1112.71 610.57 1087.91 611.21"/><polygon class="c" points="1138.54 596.25 1086.57 594.21 1112.71 610.57 1138.54 596.25"/><polygon class="b" points="1108.62 586.03 1086.57 594.21 1138.54 596.25 1108.62 586.03"/><polygon class="c" points="1087.91 611.21 1064.89 615.68 1086.57 594.21 1087.91 611.21"/><polygon class="d" points="1045.91 591.25 1086.57 594.21 1064.89 615.68 1045.91 591.25"/><polygon class="b" points="1014.56 613.29 1015.92 636.47 1033.38 607.84 1014.56 613.29"/><polygon class="d" points="1030.12 586.03 1033.38 607.84 1014.56 613.29 1030.12 586.03"/><polygon class="c" points="1049.61 655.55 1044.7 690.62 1006.42 658.83 1049.61 655.55"/><polygon class="b" points="1015.92 636.47 1049.61 655.55 1006.42 658.83 1015.92 636.47"/><polygon class="c" points="1033.38 607.84 1049.61 655.55 1015.92 636.47 1033.38 607.84"/><polygon class="b" points="1030.12 586.03 1045.91 591.25 1033.38 607.84 1030.12 586.03"/><polygon class="b" points="1006.42 658.83 1011.83 712.81 1032.76 699.19 1006.42 658.83"/><polygon class="d" points="1028.01 758.98 1013.3 732.16 988.66 756.43 1028.01 758.98"/><polygon class="c" points="1030.12 726.1 1028.01 758.98 1013.3 732.16 1030.12 726.1"/><polygon class="c" points="988.66 756.43 1009.67 726.1 1013.3 732.16 988.66 756.43"/><polygon class="c" points="1032.76 699.19 1030.12 726.1 1011.83 712.81 1032.76 699.19"/><polygon class="d" points="1044.7 690.62 1032.76 699.19 1006.42 658.83 1044.7 690.62"/><polygon class="b" points="1030.12 726.1 1044.7 690.62 1032.76 699.19 1030.12 726.1"/><polygon class="b" points="1011.83 712.81 1013.3 732.16 1030.12 726.1 1011.83 712.81"/><polygon class="b" points="1009.67 726.1 1011.83 712.81 1013.23 731.21 1009.67 726.1"/><polygon class="d" points="1191.77 593.58 1169.96 609.2 1182.15 580.58 1191.77 593.58"/><polygon class="c" points="1039.09 513.78 1056.82 502.87 1045.91 545.13 1039.09 513.78"/><polygon class="d" points="1064.89 539 1071.93 530.14 1056.82 502.87 1064.89 539"/><polygon class="b" points="1115.46 539 1087.91 530.14 1056.82 502.87 1115.46 539"/><polygon class="c" points="1071.93 530.14 1064.89 539 1087.91 530.14 1071.93 530.14"/><polygon class="c" points="1073.38 521.96 1056.82 502.87 1087.91 530.14 1073.38 521.96"/><polygon class="d" points="1039.09 513.78 1050 576.49 1045.91 591.25 1039.09 513.78"/><polygon class="b" points="1045.91 545.13 1050 576.49 1039.09 513.78 1045.91 545.13"/><polygon class="d" points="1033.64 467.43 1062.72 460.62 1041.42 430.62 1033.64 467.43"/><polygon class="c" points="1124.98 455.16 1062.72 460.62 1070.41 439.98 1124.98 455.16"/><polygon class="b" points="1033.64 467.43 1056.82 502.87 1080.99 469.58 1033.64 467.43"/><polygon class="d" points="1039.09 513.78 1033.64 467.43 1056.82 502.87 1039.09 513.78"/><polygon class="c" points="1124.98 455.16 1080.99 469.58 1056.82 502.87 1124.98 455.16"/><polygon class="b" points="1062.72 460.62 1080.99 469.58 1033.64 467.43 1062.72 460.62"/><polygon class="d" points="1124.98 455.16 1062.72 460.62 1080.99 469.58 1124.98 455.16"/><polygon class="b" points="1041.42 430.62 1024.1 423.81 1033.64 467.43 1041.42 430.62"/><polygon class="c" points="1047.27 400.63 1041.42 430.62 1024.1 423.81 1047.27 400.63"/><polygon class="b" points="1062.72 425.17 1047.27 400.63 1084.3 401.59 1062.72 425.17"/><polygon class="b" points="1132.57 371.02 1144.45 365.87 1134.52 418.58 1132.57 371.02"/><polygon class="b" points="1208.47 418.58 1194.5 416.99 1243.57 393.82 1208.47 418.58"/><polygon class="b" points="1159.06 409.12 1160.17 377.46 1144.45 365.87 1159.06 409.12"/><polygon class="b" points="1134.52 418.58 1124.98 455.16 1132.57 371.02 1134.52 418.58"/><polygon class="c" points="1043.18 373.37 1047.27 400.63 1016.08 376.1 1043.18 373.37"/><polygon class="d" points="1084.3 401.59 1043.18 373.37 1047.27 400.63 1084.3 401.59"/><polygon class="c" points="1062.72 425.17 1041.42 430.62 1070.41 439.98 1062.72 425.17"/><polygon class="d" points="1047.27 400.63 1041.42 430.62 1062.72 425.17 1047.27 400.63"/><polygon class="d" points="1118.79 365.87 1132.57 371.02 1084.3 401.59 1118.79 365.87"/><polygon class="c" points="1062.72 425.17 1084.3 401.59 1132.57 371.02 1062.72 425.17"/><polygon class="b" points="1124.98 455.16 1062.72 425.17 1070.41 439.98 1124.98 455.16"/><polygon class="b" points="1024.1 423.81 967.89 465.1 995.47 395.18 1024.1 423.81"/><polygon class="c" points="932.45 446.98 967.89 465.1 995.47 395.18 932.45 446.98"/><polygon class="b" points="889.14 497.42 967.89 465.1 932.45 446.98 889.14 497.42"/><polygon class="b" points="874.94 485.15 877.58 513.78 852.64 506.68 874.94 485.15"/><polygon class="d" points="889.14 497.42 877.58 513.78 874.94 485.15 889.14 497.42"/><polygon class="b" points="882.33 482.43 874.94 485.15 889.14 497.42 882.33 482.43"/><polygon class="d" points="852.64 506.68 844.16 474.25 874.94 485.15 852.64 506.68"/><polygon class="b" points="833.25 452.44 816.84 474.25 785.54 422.45 833.25 452.44"/><polygon class="b" points="844.16 474.25 816.84 474.25 833.25 452.44 844.16 474.25"/><polygon class="b" points="852.64 506.68 837.09 485.15 844.16 474.25 852.64 506.68"/><polygon class="d" points="816.84 474.25 837.09 485.15 844.16 474.25 816.84 474.25"/><polygon class="b" points="833.25 452.44 844.16 474.25 874.94 485.15 833.25 452.44"/><polygon class="d" points="785.54 422.45 780.09 457.89 816.84 474.25 785.54 422.45"/><polygon class="d" points="746.72 387 753.56 430.62 718.65 401.59 746.72 387"/><polygon class="b" points="785.54 422.45 753.56 430.62 746.72 387 785.54 422.45"/><polygon class="b" points="780.09 457.89 753.56 430.62 785.54 422.45 780.09 457.89"/><polygon class="c" points="731.01 366.55 688.75 396.54 677.85 348.83 731.01 366.55"/><polygon class="d" points="699.66 337.93 707.71 358.79 677.85 348.83 699.66 337.93"/><polygon class="b" points="670.79 337.93 677.85 348.83 699.66 337.93 670.79 337.93"/><polygon class="b" points="718.65 401.59 688.75 396.54 731.01 366.55 718.65 401.59"/><polygon class="b" points="746.72 387 731.01 366.55 718.65 401.59 746.72 387"/><polygon class="d" points="688.75 396.54 643.8 429.94 624.68 346.11 688.75 396.54"/><polygon class="b" points="718.65 401.59 699.66 415.58 688.75 396.54 718.65 401.59"/><polygon class="b" points="693.82 468.79 643.8 429.94 688.75 396.54 693.82 468.79"/><polygon class="d" points="699.66 415.58 693.82 468.79 688.75 396.54 699.66 415.58"/><polygon class="b" points="670.79 337.93 624.68 346.11 677.85 348.83 670.79 337.93"/><polygon class="b" points="688.75 396.54 677.85 348.83 624.68 346.11 688.75 396.54"/><polygon class="d" points="670.79 337.93 635.59 333.84 666.94 318.84 670.79 337.93"/><polygon class="c" points="646.49 312.03 616.5 280.67 656.72 259.39 646.49 312.03"/><polygon class="b" points="621.96 253.41 616.5 280.67 600.14 265.68 621.96 253.41"/><polygon class="d" points="656.72 259.39 621.96 253.41 616.5 280.67 656.72 259.39"/><polygon class="d" points="677.85 283.5 662.85 288.85 656.72 259.39 677.85 283.5"/><polygon class="b" points="675.12 301.12 646.49 312.03 666.94 318.84 675.12 301.12"/><polygon class="b" points="662.85 288.85 675.12 301.12 677.85 283.5 662.85 288.85"/><polygon class="b" points="656.72 259.39 646.49 312.03 662.85 288.85 656.72 259.39"/><polygon class="b" points="675.12 301.12 662.85 288.85 646.49 312.03 675.12 301.12"/><polygon class="b" points="635.59 333.84 611.05 318.84 646.49 312.03 635.59 333.84"/><polygon class="b" points="616.5 280.67 611.05 318.84 596.65 285.71 616.5 280.67"/><polygon class="c" points="600.14 265.68 596.65 285.71 616.5 280.67 600.14 265.68"/><polygon class="d" points="646.49 312.03 616.5 280.67 611.05 318.84 646.49 312.03"/><polygon class="b" points="635.59 333.84 646.49 312.03 666.94 318.84 635.59 333.84"/><polygon class="d" points="693.82 468.79 635.59 457.89 643.8 429.94 693.82 468.79"/><polygon class="b" points="624.68 346.11 601.35 401.59 643.8 429.94 624.68 346.11"/><polygon class="c" points="601.35 343.38 601.35 377.26 587.74 358.79 601.35 343.38"/><polygon class="b" points="624.68 346.11 601.35 343.38 601.35 377.26 624.68 346.11"/><polygon class="b" points="601.35 401.59 601.35 377.26 624.68 346.11 601.35 401.59"/><polygon class="c" points="635.59 333.84 624.68 346.11 670.79 337.93 635.59 333.84"/><polygon class="b" points="635.59 457.89 615.14 460.62 601.35 401.59 635.59 457.89"/><polygon class="c" points="643.8 429.94 601.35 401.59 635.59 457.89 643.8 429.94"/><polygon class="d" points="717.38 556.04 716.15 556.44 658.76 575.12 668.81 497.64 717.38 556.04"/><polygon class="b" points="635.59 457.89 618.47 497.64 615.14 460.62 635.59 457.89"/><polygon class="c" points="693.82 468.79 668.81 497.64 635.59 457.89 693.82 468.79"/><polygon class="b" points="717.38 556.04 693.82 468.79 668.81 497.64 717.38 556.04"/><polygon class="b" points="658.76 575.12 647.86 557.4 668.81 497.64 658.76 575.12"/><polygon class="c" points="615.14 460.62 592.43 536.38 618.47 497.64 615.14 460.62"/><polygon class="b" points="647.86 557.4 645.13 581.94 602.87 580.58 647.86 557.4"/><polygon class="c" points="584.53 557.4 602.87 580.58 647.86 557.4 584.53 557.4"/><polygon class="d" points="592.43 536.38 647.86 557.4 584.53 557.4 592.43 536.38"/><polygon class="b" points="618.47 497.64 647.86 557.4 592.43 536.38 618.47 497.64"/><polygon class="b" points="635.59 457.89 668.81 497.64 618.47 497.64 635.59 457.89"/><polygon class="d" points="647.86 557.4 618.47 497.64 668.81 497.64 647.86 557.4"/><polygon class="d" points="717.38 556.04 717.38 609.2 677.85 616.02 717.38 556.04"/><polygon class="b" points="658.76 575.12 677.85 616.02 717.38 556.04 658.76 575.12"/><polygon class="d" points="728.29 684.18 725.56 628.29 680.57 640.56 728.29 684.18"/><polygon class="d" points="645.13 581.94 605.45 639.39 602.87 580.58 645.13 581.94"/><polygon class="b" points="584.53 557.4 584.53 594.18 602.87 580.58 584.53 557.4"/><polygon class="b" points="605.45 639.39 570.15 632.38 559.25 665.1 605.45 639.39"/><polygon class="b" points="677.85 616.02 680.57 640.56 725.56 628.29 677.85 616.02"/><polygon class="c" points="725.56 628.29 717.38 609.2 677.85 616.02 725.56 628.29"/><polygon class="b" points="570.15 632.38 584.53 594.18 605.45 639.39 570.15 632.38"/><polygon class="b" points="602.87 580.58 584.53 594.18 605.45 639.39 602.87 580.58"/><polygon class="b" points="559.25 665.1 586.51 714.17 561.97 711.44 559.25 665.1"/><polygon class="c" points="605.45 639.39 597.42 676 559.25 665.1 605.45 639.39"/><polygon class="c" points="589.24 692.36 559.25 665.1 586.51 714.17 589.24 692.36"/><polygon class="b" points="597.42 676 589.24 692.36 559.25 665.1 597.42 676"/><polygon class="d" points="561.97 711.44 555.16 737.34 609.69 740.07 561.97 711.44"/><polygon class="b" points="609.69 729.1 609.69 740.07 586.51 714.17 609.69 729.1"/><polygon class="c" points="561.97 711.44 586.51 714.17 609.69 740.07 561.97 711.44"/><polygon class="b" points="680.57 640.56 696.93 703.26 728.29 684.18 680.57 640.56"/><polygon class="d" points="728.29 728.86 728.29 684.18 696.93 703.26 728.29 728.86"/><polygon class="d" points="722.83 757.79 707.12 757.79 706.47 718.26 722.83 757.79"/><polygon class="c" points="739.19 749.61 722.83 757.79 728.29 728.86 739.19 749.61"/><polygon class="b" points="696.93 703.26 706.47 718.26 728.29 728.86 696.93 703.26"/><polygon class="b" points="722.83 757.79 706.47 718.26 728.29 728.86 722.83 757.79"/><polygon class="c" points="601.35 401.59 560.61 395.18 601.35 377.26 601.35 401.59"/><polygon class="d" points="587.74 358.79 560.61 395.18 601.35 377.26 587.74 358.79"/><polygon class="b" points="587.74 358.79 542.41 388.02 560.61 395.18 587.74 358.79"/><polygon class="b" points="486.72 395.18 472 419.72 501.99 421.08 486.72 395.18"/><polygon class="d" points="560.61 395.18 523.81 412.9 542.41 388.02 560.61 395.18"/><polygon class="d" points="486.72 395.18 523.81 412.9 501.99 421.08 486.72 395.18"/><polygon class="b" points="542.41 388.02 486.72 395.18 523.81 412.9 542.41 388.02"/><polygon class="c" points="463.82 389.42 444.74 393.82 439.29 411.54 463.82 389.42"/><polygon class="b" points="472 419.72 463.82 389.42 439.29 411.54 472 419.72"/><polygon class="d" points="486.72 395.18 463.82 389.42 472 419.72 486.72 395.18"/><polygon class="c" points="461.1 369.28 477.68 371.33 480.18 358.38 461.1 369.28"/><polygon class="d" points="489.54 322.93 503.36 344.74 518.35 335.2 489.54 322.93"/><polygon class="c" points="517.63 364.85 518.35 335.2 503.36 344.74 517.63 364.85"/><polygon class="b" points="486.72 395.18 477.68 371.33 461.1 369.28 486.72 395.18"/><polygon class="c" points="463.82 389.42 468.72 376.98 486.72 395.18 463.82 389.42"/><polygon class="b" points="461.1 369.28 465.19 378.82 468.72 376.98 461.1 369.28"/><polygon class="d" points="463.82 389.42 465.19 378.82 468.72 376.98 463.82 389.42"/><polygon class="b" points="517.63 364.85 508.81 377.46 503.36 344.74 517.63 364.85"/><polygon class="d" points="489.54 322.93 480.18 358.38 463.82 339.29 489.54 322.93"/><polygon class="b" points="503.36 344.74 480.18 358.38 489.54 322.93 503.36 344.74"/><polygon class="c" points="508.81 377.46 480.18 358.38 503.36 344.74 508.81 377.46"/><polygon class="b" points="505.26 386.08 477.68 371.33 508.81 377.46 505.26 386.08"/><polygon class="b" points="480.18 358.38 477.68 371.33 508.81 377.46 480.18 358.38"/><polygon class="b" points="463.82 339.29 461.1 369.28 480.18 358.38 463.82 339.29"/><polygon class="c" points="505.26 386.08 486.72 395.18 477.68 371.33 505.26 386.08"/><polygon class="d" points="520.83 390.8 505.26 386.08 486.72 395.18 520.83 390.8"/><polygon class="d" points="439.29 411.54 452.96 460.62 472 419.72 439.29 411.54"/><polygon class="c" points="534.71 490.61 499.27 456.53 536.07 445.62 534.71 490.61"/><polygon class="b" points="523.81 412.9 536.07 445.62 508.81 433.3 523.81 412.9"/><polygon class="c" points="499.27 456.53 472 419.72 501.99 421.08 499.27 456.53"/><polygon class="c" points="508.81 433.3 501.99 421.08 523.81 412.9 508.81 433.3"/><polygon class="b" points="484.89 460.62 465.19 496.06 459.73 466.07 484.89 460.62"/><polygon class="c" points="472 419.72 484.89 460.62 459.73 466.07 472 419.72"/><polygon class="b" points="508.81 433.3 499.27 456.53 501.99 421.08 508.81 433.3"/><polygon class="b" points="536.07 445.62 508.81 433.3 499.27 456.53 536.07 445.62"/><polygon class="d" points="530.62 599.66 459.73 606.52 472.31 557.4 530.62 599.66"/><polygon class="d" points="455.65 500.22 459.73 543.62 442.44 536.38 455.65 500.22"/><polygon class="d" points="540.33 497.64 548.34 528.78 503.36 501.51 540.33 497.64"/><polygon class="c" points="534.71 490.61 503.36 501.51 540.33 497.64 534.71 490.61"/><polygon class="b" points="484.89 460.62 499.27 456.53 503.36 501.51 484.89 460.62"/><polygon class="d" points="534.71 490.61 499.27 456.53 503.36 501.51 534.71 490.61"/><polygon class="d" points="472 419.72 484.89 460.62 499.27 456.53 472 419.72"/><polygon class="b" points="459.73 466.07 452.96 460.62 472 419.72 459.73 466.07"/><polygon class="d" points="455.65 500.22 452.96 460.62 459.73 466.07 455.65 500.22"/><polygon class="c" points="503.36 501.51 465.19 496.06 484.89 460.62 503.36 501.51"/><polygon class="c" points="455.65 500.22 465.19 496.06 459.73 466.07 455.65 500.22"/><polygon class="b" points="503.36 501.51 472.31 557.4 465.19 496.06 503.36 501.51"/><polygon class="d" points="548.34 528.78 584.53 557.4 553.8 592.85 548.34 528.78"/><polygon class="c" points="584.53 594.18 553.8 592.85 584.53 557.4 584.53 594.18"/><polygon class="c" points="548.34 528.78 472.31 557.4 503.36 501.51 548.34 528.78"/><polygon class="b" points="530.62 599.66 548.34 528.78 472.31 557.4 530.62 599.66"/><polygon class="c" points="553.8 592.85 530.62 599.66 548.34 528.78 553.8 592.85"/><polygon class="d" points="459.73 543.62 459.73 606.52 425.65 605.11 459.73 543.62"/><polygon class="b" points="442.44 536.38 425.65 605.11 459.73 543.62 442.44 536.38"/><polygon class="c" points="472.31 557.4 459.73 543.62 459.73 606.52 472.31 557.4"/><polygon class="b" points="465.19 496.06 459.73 543.62 455.65 500.22 465.19 496.06"/><polygon class="d" points="472.31 557.4 459.73 543.62 465.19 496.06 472.31 557.4"/><polygon class="b" points="425.65 605.11 403.84 624.2 412.02 662.37 425.65 605.11"/><polygon class="b" points="459.73 606.52 448.83 625.56 425.65 605.11 459.73 606.52"/><polygon class="c" points="412.02 662.37 448.83 625.56 425.65 605.11 412.02 662.37"/><polygon class="d" points="403.84 624.2 392.94 671.91 412.02 662.37 403.84 624.2"/><polygon class="d" points="390.21 704.63 408.86 704.63 392.94 671.91 390.21 704.63"/><polygon class="b" points="412.02 662.37 412.02 698.04 392.94 671.91 412.02 662.37"/><polygon class="c" points="421.86 704.63 408.86 704.63 412.02 698.04 421.86 704.63"/><polygon class="b" points="392.94 671.91 412.02 698.04 408.86 704.63 392.94 671.91"/><polygon class="b" points="553.8 592.85 555.66 609.98 584.53 594.18 553.8 592.85"/><polygon class="b" points="551.07 661.01 555.66 609.98 570.15 632.38 551.07 661.01"/><polygon class="d" points="584.53 594.18 555.66 609.98 570.15 632.38 584.53 594.18"/><polygon class="d" points="551.07 661.01 549.71 705.99 561.65 705.99 551.07 661.01"/><polygon class="c" points="559.25 665.1 551.07 661.01 570.15 632.38 559.25 665.1"/><polygon class="b" points="561.65 705.99 551.07 661.01 559.25 665.1 561.65 705.99"/><polygon class="c" points="1043.18 373.37 1060.91 343.38 1100.99 367.64 1043.18 373.37"/><polygon class="c" points="1103.16 337.93 1093.85 353.16 1060.91 343.38 1103.16 337.93"/><polygon class="b" points="1100.99 367.64 1093.85 353.16 1060.91 343.38 1100.99 367.64"/><polygon class="b" points="1041.42 303.63 1080.99 286.01 1065.79 331.17 1041.42 303.63"/><polygon class="c" points="1107.25 303.85 1080.99 286.01 1065.79 331.17 1107.25 303.85"/><polygon class="d" points="1103.16 337.93 1065.79 331.17 1107.25 303.85 1103.16 337.93"/><polygon class="c" points="1041.42 303.63 1036.37 321.57 1065.79 331.17 1041.42 303.63"/><polygon class="b" points="1049.09 363.37 1038.62 343.38 1060.91 343.38 1049.09 363.37"/><polygon class="c" points="1036.37 321.57 1060.91 343.38 1038.62 343.38 1036.37 321.57"/><polygon class="c" points="1065.79 331.17 1060.91 343.38 1036.37 321.57 1065.79 331.17"/><polygon class="b" points="1103.16 337.93 1065.79 331.17 1060.91 343.38 1103.16 337.93"/><polygon class="b" points="369.59 312.96 396.81 343.59 432.54 324.87 369.59 312.96"/><polygon class="b" points="420.63 377.62 384.9 416.75 369.59 371.27 420.63 377.62"/><polygon class="b" points="432.54 426.49 473.38 406.54 468.27 386.12 432.54 426.49"/><polygon class="b" points="395.11 452.35 459.77 488.21 424.04 510.33 395.11 452.35"/><polygon class="c" points="473.38 452.35 469.98 505.23 498.9 483.11 473.38 452.35"/><polygon class="b" points="434.25 559.67 488.69 522.24 490.39 569.88 434.25 559.67"/><polygon class="d" points="469.98 594.43 532.93 632.84 521.02 552.87 469.98 594.43"/><polygon class="b" points="539.74 665.16 484.44 720.65 476.78 666.87 539.74 665.16"/><polygon class="c" points="367.89 295.95 388.31 265.32 420.63 265.32 367.89 295.95"/><polygon class="c" points="432.54 426.49 420.63 377.62 384.9 416.75 432.54 426.49"/><polygon class="c" points="468.27 386.12 439.25 394.01 432.54 426.49 468.27 386.12"/><polygon class="d" points="391.71 352.09 420.63 377.62 369.59 371.27 391.71 352.09"/><polygon class="b" points="432.54 426.49 395.11 452.35 384.9 416.75 432.54 426.49"/><polygon class="d" points="420.63 265.32 447.86 284.04 408.72 308.34 420.63 265.32"/><polygon class="b" points="367.89 295.95 408.72 308.34 420.63 265.32 367.89 295.95"/><polygon class="c" points="432.54 324.87 447.86 284.04 408.72 308.34 432.54 324.87"/><polygon class="d" points="367.89 295.95 369.59 312.96 408.72 308.34 367.89 295.95"/><polygon class="b" points="432.54 324.87 408.72 308.34 369.59 312.96 432.54 324.87"/><polygon class="b" points="452.96 331.65 447.86 284.04 432.54 324.87 452.96 331.65"/><polygon class="c" points="476.78 666.87 532.93 632.84 539.74 665.16 476.78 666.87"/><polygon class="c" points="521.02 552.87 560.15 609.02 532.93 632.84 521.02 552.87"/><polygon class="b" points="539.74 665.16 563.65 632.84 532.93 632.84 539.74 665.16"/><polygon class="d" points="563.65 632.84 560.15 609.02 532.93 632.84 563.65 632.84"/><polygon class="b" points="468.27 386.12 492.1 379.32 473.38 406.54 468.27 386.12"/><polygon class="c" points="486.99 399.74 521.02 416.75 509.11 391.23 486.99 399.74"/><polygon class="b" points="425.73 398.53 439.25 394.01 432.54 426.49 425.73 398.53"/><polygon class="b" points="452.96 331.65 441.05 336.78 432.54 324.87 452.96 331.65"/><polygon class="d" points="396.81 343.59 441.05 336.78 432.54 324.87 396.81 343.59"/><polygon class="d" points="391.71 352.09 396.81 343.59 442.75 355.63 391.71 352.09"/><polygon class="c" points="420.63 377.62 442.75 355.63 391.71 352.09 420.63 377.62"/><polygon class="c" points="441.05 336.78 442.75 355.63 396.81 343.59 441.05 336.78"/><polygon class="d" points="492.1 379.32 452.96 368.53 425.73 398.53 492.1 379.32"/><polygon class="b" points="420.63 377.62 452.96 368.53 425.73 398.53 420.63 377.62"/><polygon class="d" points="442.75 355.63 452.96 368.53 420.63 377.62 442.75 355.63"/><polygon class="d" points="424.04 510.33 422.33 539.26 459.77 524.79 424.04 510.33"/><polygon class="b" points="434.25 559.67 459.77 524.79 422.33 539.26 434.25 559.67"/><polygon class="c" points="488.69 522.24 459.77 524.79 434.25 559.67 488.69 522.24"/><polygon class="b" points="548.24 428.66 521.02 416.75 540.59 390.21 548.24 428.66"/><polygon class="b" points="509.11 391.23 524.77 377.62 521.02 416.75 509.11 391.23"/><polygon class="b" points="540.59 390.21 524.77 377.62 521.02 416.75 540.59 390.21"/><polygon class="c" points="434.25 559.67 469.98 594.43 490.39 569.88 434.25 559.67"/><polygon class="c" points="459.77 488.21 424.04 510.33 459.77 524.79 459.77 488.21"/><polygon class="d" points="432.54 426.49 459.77 488.21 395.11 452.35 432.54 426.49"/><polygon class="d" points="473.38 452.35 473.38 406.54 432.54 426.49 473.38 452.35"/><polygon class="b" points="459.77 488.21 473.38 452.35 432.54 426.49 459.77 488.21"/><polygon class="c" points="473.38 406.54 486.99 399.74 492.1 379.32 473.38 406.54"/><polygon class="b" points="509.11 391.23 492.1 379.32 486.99 399.74 509.11 391.23"/><polygon class="b" points="524.77 377.62 492.1 379.32 509.11 391.23 524.77 377.62"/><polygon class="d" points="488.69 522.24 521.02 552.87 490.39 569.88 488.69 522.24"/><polygon class="b" points="469.98 594.43 521.02 552.87 490.39 569.88 469.98 594.43"/><polygon class="d" points="590.78 697.49 602.69 673.67 572.06 607.31 590.78 697.49"/><polygon class="c" points="563.65 632.84 590.78 697.49 572.06 607.31 563.65 632.84"/><polygon class="b" points="561.86 551.17 529.53 556.27 560.15 609.02 561.86 551.17"/><polygon class="b" points="572.06 607.31 560.15 609.02 563.65 632.84 572.06 607.31"/><polygon class="d" points="561.86 551.17 572.06 607.31 560.15 609.02 561.86 551.17"/><polygon class="b" points="498.9 483.11 521.02 519.41 469.98 505.23 498.9 483.11"/><polygon class="d" points="459.77 488.21 473.38 452.35 469.98 505.23 459.77 488.21"/><polygon class="b" points="459.77 524.79 469.98 505.23 488.69 522.24 459.77 524.79"/><polygon class="b" points="459.77 488.21 469.98 505.23 459.77 524.79 459.77 488.21"/><polygon class="c" points="521.02 519.41 521.02 552.87 469.98 505.23 521.02 519.41"/><polygon class="c" points="561.86 551.17 521.02 519.41 529.53 556.27 561.86 551.17"/><polygon class="b" points="521.02 552.87 521.02 519.41 529.53 556.27 521.02 552.87"/><polygon class="d" points="560.15 609.02 529.53 556.27 521.02 552.87 560.15 609.02"/><polygon class="b" points="427.89 720.65 458.07 763.85 459.77 699.03 427.89 720.65"/><polygon class="c" points="476.78 666.87 459.77 699.03 484.44 720.65 476.78 666.87"/><polygon class="b" points="458.07 763.85 478.48 772.36 484.44 720.65 458.07 763.85"/><polygon class="d" points="459.77 699.03 458.07 763.85 484.44 720.65 459.77 699.03"/><polygon class="d" points="478.48 772.36 507.41 774.06 480.37 755.94 478.48 772.36"/><polygon class="c" points="473.38 406.54 498.05 452.35 530.8 430.64 473.38 406.54"/><polygon class="b" points="486.99 399.74 530.8 430.64 473.38 406.54 486.99 399.74"/><polygon class="b" points="498.05 452.35 551.65 466.09 555.05 438.87 498.05 452.35"/><polygon class="b" points="530.8 430.64 555.05 438.87 498.05 452.35 530.8 430.64"/><polygon class="b" points="551.65 466.09 606.09 460.99 606.09 452.48 551.65 466.09"/><polygon class="c" points="555.05 438.87 606.09 452.48 551.65 466.09 555.05 438.87"/><polygon class="b" points="592.48 471.2 606.09 460.99 623.11 462.69 592.48 471.2"/><polygon class="b" points="551.65 466.09 606.09 460.99 592.48 471.2 551.65 466.09"/><polygon class="b" points="606.09 452.48 623.11 462.69 606.09 460.99 606.09 452.48"/><polygon class="b" points="473.38 423.35 498.05 452.35 473.38 406.54 473.38 423.35"/><polygon class="c" points="548.24 428.66 592.48 418.83 540.59 390.21 548.24 428.66"/><polygon class="d" points="591.09 379.32 558.56 391.23 592.48 418.83 591.09 379.32"/><polygon class="b" points="540.59 390.21 558.56 391.23 592.48 418.83 540.59 390.21"/><polygon class="d" points="625.54 371.27 712.72 438.87 635.02 476.3 625.54 371.27"/><polygon class="b" points="623.11 535.14 720.09 535.85 635.02 476.3 623.11 535.14"/><polygon class="b" points="712.72 483.11 739.31 445.68 703.13 457.35 712.72 483.11"/><polygon class="c" points="592.48 418.83 623.11 430.64 610.72 364.86 592.48 418.83"/><polygon class="b" points="642.74 364.86 737.11 374.21 685.79 409.43 642.74 364.86"/><polygon class="b" points="732 408.24 760.93 437.17 770.94 377.62 732 408.24"/><polygon class="d" points="796.66 401.44 760.93 437.17 770.94 377.62 796.66 401.44"/><polygon class="d" points="929.37 529.05 875.31 466.09 937.88 510.33 929.37 529.05"/><polygon class="b" points="655.44 639.64 710.01 580.94 646.89 580.94 655.44 639.64"/><polygon class="d" points="742.21 549.46 783 620.93 753.41 639.64 742.21 549.46"/><polygon class="d" points="623.11 535.14 629.53 546.06 720.09 535.85 623.11 535.14"/><polygon class="c" points="694.57 629.43 733.7 588.6 728.6 627.73 694.57 629.43"/><polygon class="d" points="681.29 569.88 699.42 559.67 701.23 569.88 681.29 569.88"/><polygon class="d" points="634.4 573.65 614.6 620.08 604.39 595.4 634.4 573.65"/><polygon class="d" points="618.08 652.4 592.48 651.55 592.48 617.21 618.08 652.4"/><polygon class="b" points="583.55 632.19 592.48 617.21 592.48 651.55 583.55 632.19"/><polygon class="c" points="618.08 652.4 655.44 639.64 646.89 580.94 618.08 652.4"/><polygon class="b" points="604.39 595.4 629.53 546.06 634.4 573.65 604.39 595.4"/><polygon class="c" points="614.6 620.08 592.48 617.21 604.39 595.4 614.6 620.08"/><polygon class="b" points="618.08 652.4 614.6 620.08 592.48 617.21 618.08 652.4"/><polygon class="c" points="629.53 546.06 646.89 580.94 720.09 535.85 629.53 546.06"/><polygon class="b" points="655.44 639.64 682.96 649.85 694.57 629.43 655.44 639.64"/><polygon class="d" points="710.01 580.94 694.57 629.43 655.44 639.64 710.01 580.94"/><polygon class="c" points="733.7 646.16 742.21 549.46 753.41 639.64 733.7 646.16"/><polygon class="c" points="694.57 629.43 733.7 646.16 682.96 649.85 694.57 629.43"/><polygon class="b" points="728.6 627.73 733.7 646.16 694.57 629.43 728.6 627.73"/><polygon class="b" points="710.01 580.94 720.09 535.85 733.7 588.6 694.57 629.43 710.01 580.94"/><polygon class="b" points="699.42 559.67 720.09 535.85 701.23 569.88 699.42 559.67"/><polygon class="d" points="681.29 569.88 646.89 580.94 710.01 580.94 681.29 569.88"/><polygon class="d" points="614.6 620.08 646.89 580.94 618.08 652.4 614.6 620.08"/><polygon class="c" points="634.4 573.65 646.89 580.94 614.6 620.08 634.4 573.65"/><polygon class="d" points="629.53 546.06 646.89 580.94 634.4 573.65 629.53 546.06"/><polygon class="b" points="753.41 639.64 772.84 673.67 783 620.93 753.41 639.64"/><polygon class="c" points="590.78 697.49 611.2 751.94 563.65 745.9 590.78 697.49"/><polygon class="d" points="628.21 700.9 590.78 697.49 611.2 751.94 628.21 700.9"/><polygon class="b" points="602.69 673.67 618.08 652.4 592.48 651.55 602.69 673.67"/><polygon class="b" points="590.78 697.49 563.65 724.72 563.65 745.9 590.78 697.49"/><polygon class="b" points="578.87 668.57 563.65 726.42 590.78 697.49 578.87 668.57"/><polygon class="c" points="618.08 652.4 628.21 700.9 602.69 673.67 618.08 652.4"/><polygon class="b" points="590.78 697.49 628.21 700.9 602.69 673.67 590.78 697.49"/><polygon class="b" points="611.2 751.94 585.68 789.37 563.65 745.9 611.2 751.94"/><polygon class="b" points="546.54 833.61 585.68 835.31 587.38 812.09 546.54 833.61"/><polygon class="c" points="602.69 821.63 585.68 835.31 587.38 812.09 602.69 821.63"/><polygon class="d" points="585.68 789.37 558.45 794.48 563.65 745.9 585.68 789.37"/><polygon class="d" points="546.54 833.61 558.45 810.46 587.38 812.09 546.54 833.61"/><polygon class="c" points="585.68 789.37 587.38 812.09 558.45 810.46 585.68 789.37"/><polygon class="b" points="558.45 794.48 558.45 810.46 585.68 789.37 558.45 794.48"/><polygon class="d" points="628.21 700.9 650.33 670.27 618.08 652.4 628.21 700.9"/><polygon class="d" points="710.01 676.65 729.09 726.42 749.35 666.87 710.01 676.65"/><polygon class="b" points="733.7 646.16 749.35 666.87 710.01 676.65 733.7 646.16"/><polygon class="b" points="681.29 671.07 682.96 649.85 650.33 670.27 681.29 671.07"/><polygon class="c" points="618.08 652.4 682.96 649.85 650.33 670.27 618.08 652.4"/><polygon class="b" points="655.44 639.64 682.96 649.85 618.08 652.4 655.44 639.64"/><polygon class="c" points="681.29 671.07 710.01 676.65 682.96 649.85 681.29 671.07"/><polygon class="d" points="733.7 646.16 682.96 649.85 710.01 676.65 733.7 646.16"/><polygon class="b" points="772.84 673.67 771.14 702.6 749.35 666.87 772.84 673.67"/><polygon class="d" points="753.41 639.64 749.35 666.87 772.84 673.67 753.41 639.64"/><polygon class="c" points="729.09 726.42 735.22 770.19 783 730.51 729.09 726.42"/><polygon class="b" points="771.14 702.6 729.09 726.42 783 730.51 771.14 702.6"/><polygon class="c" points="749.35 666.87 729.09 726.42 771.14 702.6 749.35 666.87"/><polygon class="b" points="753.41 639.64 733.7 646.16 749.35 666.87 753.41 639.64"/><polygon class="b" points="783 730.51 776.24 797.88 750.11 780.88 783 730.51"/><polygon class="d" points="756.04 855.52 774.4 822.03 805.17 852.33 756.04 855.52"/><polygon class="c" points="753.41 814.47 756.04 855.52 774.4 822.03 753.41 814.47"/><polygon class="c" points="805.17 852.33 778.93 814.47 774.4 822.03 805.17 852.33"/><polygon class="c" points="750.11 780.88 753.41 814.47 776.24 797.88 750.11 780.88"/><polygon class="d" points="735.22 770.19 750.11 780.88 783 730.51 735.22 770.19"/><polygon class="b" points="753.41 814.47 735.22 770.19 750.11 780.88 753.41 814.47"/><polygon class="b" points="776.24 797.88 774.4 822.03 753.41 814.47 776.24 797.88"/><polygon class="b" points="778.93 814.47 776.24 797.88 774.49 820.85 778.93 814.47"/><polygon class="d" points="551.65 649.07 578.87 668.57 563.65 632.84 551.65 649.07"/><polygon class="c" points="742.21 549.46 720.09 535.85 733.7 588.6 742.21 549.46"/><polygon class="d" points="710.01 580.94 701.23 569.88 720.09 535.85 710.01 580.94"/><polygon class="b" points="646.89 580.94 681.29 569.88 720.09 535.85 646.89 580.94"/><polygon class="c" points="701.23 569.88 710.01 580.94 681.29 569.88 701.23 569.88"/><polygon class="c" points="699.42 559.67 720.09 535.85 681.29 569.88 699.42 559.67"/><polygon class="d" points="742.21 549.46 728.6 627.73 733.7 646.16 742.21 549.46"/><polygon class="b" points="733.7 588.6 728.6 627.73 742.21 549.46 733.7 588.6"/><polygon class="d" points="749.02 491.61 712.72 483.11 739.31 445.68 749.02 491.61"/><polygon class="c" points="635.02 476.3 712.72 483.11 703.13 457.35 635.02 476.3"/><polygon class="b" points="749.02 491.61 720.09 535.85 689.93 494.3 749.02 491.61"/><polygon class="d" points="742.21 549.46 749.02 491.61 720.09 535.85 742.21 549.46"/><polygon class="c" points="635.02 476.3 689.93 494.3 720.09 535.85 635.02 476.3"/><polygon class="b" points="712.72 483.11 689.93 494.3 749.02 491.61 712.72 483.11"/><polygon class="d" points="635.02 476.3 712.72 483.11 689.93 494.3 635.02 476.3"/><polygon class="b" points="739.31 445.68 760.93 437.17 749.02 491.61 739.31 445.68"/><polygon class="c" points="732 408.24 739.31 445.68 760.93 437.17 732 408.24"/><polygon class="b" points="712.72 438.87 732 408.24 685.79 409.43 712.72 438.87"/><polygon class="b" points="625.54 371.27 610.72 364.86 623.11 430.64 625.54 371.27"/><polygon class="b" points="530.8 430.64 548.24 428.66 486.99 399.74 530.8 430.64"/><polygon class="b" points="592.48 418.83 591.09 379.32 610.72 364.86 592.48 418.83"/><polygon class="b" points="623.11 430.64 635.02 476.3 625.54 371.27 623.11 430.64"/><polygon class="c" points="737.11 374.21 732 408.24 770.94 377.62 737.11 374.21"/><polygon class="d" points="685.79 409.43 737.11 374.21 732 408.24 685.79 409.43"/><polygon class="c" points="712.72 438.87 739.31 445.68 703.13 457.35 712.72 438.87"/><polygon class="d" points="732 408.24 739.31 445.68 712.72 438.87 732 408.24"/><polygon class="d" points="642.74 364.86 625.54 371.27 685.79 409.43 642.74 364.86"/><polygon class="c" points="712.72 438.87 685.79 409.43 625.54 371.27 712.72 438.87"/><polygon class="b" points="635.02 476.3 712.72 438.87 703.13 457.35 635.02 476.3"/><polygon class="b" points="760.93 437.17 831.09 488.7 796.66 401.44 760.93 437.17"/><polygon class="c" points="875.31 466.09 831.09 488.7 796.66 401.44 875.31 466.09"/><polygon class="b" points="929.37 529.05 831.09 488.7 875.31 466.09 929.37 529.05"/><polygon class="b" points="947.1 513.73 943.8 549.46 974.93 540.6 947.1 513.73"/><polygon class="d" points="929.37 529.05 943.8 549.46 947.1 513.73 929.37 529.05"/><polygon class="b" points="937.88 510.33 947.1 513.73 929.37 529.05 937.88 510.33"/><polygon class="d" points="974.93 540.6 985.52 500.12 947.1 513.73 974.93 540.6"/><polygon class="b" points="999.13 472.9 1019.61 500.12 1058.69 435.47 999.13 472.9"/><polygon class="b" points="985.52 500.12 1019.61 500.12 999.13 472.9 985.52 500.12"/><polygon class="b" points="974.93 540.6 994.34 513.73 985.52 500.12 974.93 540.6"/><polygon class="d" points="1019.61 500.12 994.34 513.73 985.52 500.12 1019.61 500.12"/><polygon class="b" points="999.13 472.9 985.52 500.12 947.1 513.73 999.13 472.9"/><polygon class="d" points="1058.69 435.47 1065.49 479.7 1019.61 500.12 1058.69 435.47"/><polygon class="d" points="1107.14 391.23 1098.6 445.68 1142.17 409.43 1107.14 391.23"/><polygon class="b" points="1058.69 435.47 1098.6 445.68 1107.14 391.23 1058.69 435.47"/><polygon class="b" points="1065.49 479.7 1098.6 445.68 1058.69 435.47 1065.49 479.7"/><polygon class="c" points="1126.74 365.71 1179.49 403.14 1193.1 343.59 1126.74 365.71"/><polygon class="d" points="1165.88 329.98 1155.83 356.01 1193.1 343.59 1165.88 329.98"/><polygon class="b" points="1201.91 329.98 1193.1 343.59 1165.88 329.98 1201.91 329.98"/><polygon class="b" points="1142.17 409.43 1179.49 403.14 1126.74 365.71 1142.17 409.43"/><polygon class="b" points="1107.14 391.23 1126.74 365.71 1142.17 409.43 1107.14 391.23"/><polygon class="d" points="1179.49 403.14 1235.6 444.82 1259.46 340.18 1179.49 403.14"/><polygon class="b" points="1142.17 409.43 1165.88 426.89 1179.49 403.14 1142.17 409.43"/><polygon class="b" points="1173.16 493.32 1235.6 444.82 1179.49 403.14 1173.16 493.32"/><polygon class="d" points="1165.88 426.89 1173.16 493.32 1179.49 403.14 1165.88 426.89"/><polygon class="b" points="1201.91 329.98 1259.46 340.18 1193.1 343.59 1201.91 329.98"/><polygon class="b" points="1179.49 403.14 1193.1 343.59 1259.46 340.18 1179.49 403.14"/><polygon class="d" points="1201.91 329.98 1245.85 324.87 1206.71 306.15 1201.91 329.98"/><polygon class="c" points="1232.24 297.65 1269.67 258.51 1219.47 231.95 1232.24 297.65"/><polygon class="b" points="1262.86 224.48 1269.67 258.51 1290.09 239.8 1262.86 224.48"/><polygon class="d" points="1219.47 231.95 1262.86 224.48 1269.67 258.51 1219.47 231.95"/><polygon class="d" points="1193.1 262.04 1211.82 268.72 1219.47 231.95 1193.1 262.04"/><polygon class="b" points="1196.5 284.04 1232.24 297.65 1206.71 306.15 1196.5 284.04"/><polygon class="b" points="1211.82 268.72 1196.5 284.04 1193.1 262.04 1211.82 268.72"/><polygon class="b" points="1219.47 231.95 1232.24 297.65 1211.82 268.72 1219.47 231.95"/><polygon class="b" points="1196.5 284.04 1211.82 268.72 1232.24 297.65 1196.5 284.04"/><polygon class="b" points="1245.85 324.87 1276.47 306.15 1232.24 297.65 1245.85 324.87"/><polygon class="b" points="1269.67 258.51 1276.47 306.15 1294.44 264.8 1269.67 258.51"/><polygon class="c" points="1290.09 239.8 1294.44 264.8 1269.67 258.51 1290.09 239.8"/><polygon class="d" points="1232.24 297.65 1269.67 258.51 1276.47 306.15 1232.24 297.65"/><polygon class="b" points="1245.85 324.87 1232.24 297.65 1206.71 306.15 1245.85 324.87"/><polygon class="d" points="1173.16 493.32 1245.85 479.7 1235.6 444.82 1173.16 493.32"/><polygon class="b" points="1259.46 340.18 1288.58 409.43 1235.6 444.82 1259.46 340.18"/><polygon class="c" points="1288.58 336.78 1288.58 379.06 1305.57 356.01 1288.58 336.78"/><polygon class="b" points="1259.46 340.18 1288.58 336.78 1288.58 379.06 1259.46 340.18"/><polygon class="b" points="1288.58 409.43 1288.58 379.06 1259.46 340.18 1288.58 409.43"/><polygon class="c" points="1245.85 324.87 1259.46 340.18 1201.91 329.98 1245.85 324.87"/><polygon class="b" points="1245.85 479.7 1271.37 483.11 1288.58 409.43 1245.85 479.7"/><polygon class="c" points="1235.6 444.82 1288.58 409.43 1245.85 479.7 1235.6 444.82"/><polygon class="d" points="1143.76 602.21 1145.3 602.71 1216.92 626.03 1204.38 529.32 1143.76 602.21"/><polygon class="b" points="1245.85 479.7 1267.21 529.32 1271.37 483.11 1245.85 479.7"/><polygon class="c" points="1173.16 493.32 1204.38 529.32 1245.85 479.7 1173.16 493.32"/><polygon class="b" points="1143.76 602.21 1173.16 493.32 1204.38 529.32 1143.76 602.21"/><polygon class="b" points="1216.92 626.03 1230.53 603.91 1204.38 529.32 1216.92 626.03"/><polygon class="c" points="1271.37 483.11 1299.72 577.68 1267.21 529.32 1271.37 483.11"/><polygon class="b" points="1230.53 603.91 1233.94 634.54 1286.68 632.84 1230.53 603.91"/><polygon class="c" points="1309.57 603.91 1286.68 632.84 1230.53 603.91 1309.57 603.91"/><polygon class="d" points="1299.72 577.68 1230.53 603.91 1309.57 603.91 1299.72 577.68"/><polygon class="b" points="1267.21 529.32 1230.53 603.91 1299.72 577.68 1267.21 529.32"/><polygon class="b" points="1245.85 479.7 1204.38 529.32 1267.21 529.32 1245.85 479.7"/><polygon class="d" points="1230.53 603.91 1267.21 529.32 1204.38 529.32 1230.53 603.91"/><polygon class="d" points="1143.76 602.21 1143.76 668.57 1193.1 677.08 1143.76 602.21"/><polygon class="b" points="1216.92 626.03 1193.1 677.08 1143.76 602.21 1216.92 626.03"/><polygon class="d" points="1130.15 762.15 1133.55 692.39 1189.7 707.7 1130.15 762.15"/><polygon class="d" points="1233.94 634.54 1283.46 706.24 1286.68 632.84 1233.94 634.54"/><polygon class="b" points="1309.57 603.91 1309.57 649.81 1286.68 632.84 1309.57 603.91"/><polygon class="b" points="1283.46 706.24 1327.52 697.49 1341.13 738.33 1283.46 706.24"/><polygon class="b" points="1193.1 677.08 1189.7 707.7 1133.55 692.39 1193.1 677.08"/><polygon class="c" points="1133.55 692.39 1143.76 668.57 1193.1 677.08 1133.55 692.39"/><polygon class="b" points="1327.52 697.49 1309.57 649.81 1283.46 706.24 1327.52 697.49"/><polygon class="b" points="1286.68 632.84 1309.57 649.81 1283.46 706.24 1286.68 632.84"/><polygon class="b" points="1341.13 738.33 1307.1 799.58 1337.73 796.18 1341.13 738.33"/><polygon class="c" points="1283.46 706.24 1293.49 751.94 1341.13 738.33 1283.46 706.24"/><polygon class="c" points="1303.7 772.36 1341.13 738.33 1307.1 799.58 1303.7 772.36"/><polygon class="b" points="1293.49 751.94 1303.7 772.36 1341.13 738.33 1293.49 751.94"/><polygon class="d" points="1337.73 796.18 1346.23 828.51 1278.18 831.91 1337.73 796.18"/><polygon class="b" points="1278.18 818.21 1278.18 831.91 1307.1 799.58 1278.18 818.21"/><polygon class="c" points="1337.73 796.18 1307.1 799.58 1278.18 831.91 1337.73 796.18"/><polygon class="b" points="1189.7 707.7 1169.28 785.97 1130.15 762.15 1189.7 707.7"/><polygon class="d" points="1130.15 817.92 1130.15 762.15 1169.28 785.97 1130.15 817.92"/><polygon class="d" points="1136.95 854.03 1156.56 854.03 1157.37 804.69 1136.95 854.03"/><polygon class="c" points="1116.54 843.82 1136.95 854.03 1130.15 817.92 1116.54 843.82"/><polygon class="b" points="1169.28 785.97 1157.37 804.69 1130.15 817.92 1169.28 785.97"/><polygon class="b" points="1136.95 854.03 1157.37 804.69 1130.15 817.92 1136.95 854.03"/><polygon class="c" points="1288.58 409.43 1339.43 401.44 1288.58 379.06 1288.58 409.43"/><polygon class="d" points="1305.57 356.01 1339.43 401.44 1288.58 379.06 1305.57 356.01"/><polygon class="b" points="1305.57 356.01 1362.14 392.5 1339.43 401.44 1305.57 356.01"/><polygon class="b" points="1431.65 401.44 1450.02 432.06 1412.59 433.76 1431.65 401.44"/><polygon class="d" points="1339.43 401.44 1385.37 423.56 1362.14 392.5 1339.43 401.44"/><polygon class="d" points="1431.65 401.44 1385.37 423.56 1412.59 433.76 1431.65 401.44"/><polygon class="b" points="1362.14 392.5 1431.65 401.44 1385.37 423.56 1362.14 392.5"/><polygon class="c" points="1460.23 394.25 1484.05 399.74 1490.86 421.85 1460.23 394.25"/><polygon class="b" points="1450.02 432.06 1460.23 394.25 1490.86 421.85 1450.02 432.06"/><polygon class="d" points="1431.65 401.44 1460.23 394.25 1450.02 432.06 1431.65 401.44"/><polygon class="c" points="1463.64 369.11 1442.94 371.66 1439.81 355.5 1463.64 369.11"/><polygon class="d" points="1428.13 311.26 1410.89 338.48 1392.17 326.57 1428.13 311.26"/><polygon class="c" points="1393.07 363.58 1392.17 326.57 1410.89 338.48 1393.07 363.58"/><polygon class="b" points="1431.65 401.44 1442.94 371.66 1463.64 369.11 1431.65 401.44"/><polygon class="c" points="1460.23 394.25 1454.12 378.72 1431.65 401.44 1460.23 394.25"/><polygon class="b" points="1463.64 369.11 1458.53 381.02 1454.12 378.72 1463.64 369.11"/><polygon class="d" points="1460.23 394.25 1458.53 381.02 1454.12 378.72 1460.23 394.25"/><polygon class="b" points="1393.07 363.58 1404.08 379.32 1410.89 338.48 1393.07 363.58"/><polygon class="d" points="1428.13 311.26 1439.81 355.5 1460.23 331.68 1428.13 311.26"/><polygon class="b" points="1410.89 338.48 1439.81 355.5 1428.13 311.26 1410.89 338.48"/><polygon class="c" points="1404.08 379.32 1439.81 355.5 1410.89 338.48 1404.08 379.32"/><polygon class="b" points="1408.51 390.08 1442.94 371.66 1404.08 379.32 1408.51 390.08"/><polygon class="b" points="1439.81 355.5 1442.94 371.66 1404.08 379.32 1439.81 355.5"/><polygon class="b" points="1460.23 331.68 1463.64 369.11 1439.81 355.5 1460.23 331.68"/><polygon class="c" points="1408.51 390.08 1431.65 401.44 1442.94 371.66 1408.51 390.08"/><polygon class="d" points="1389.08 395.97 1408.51 390.08 1431.65 401.44 1389.08 395.97"/><polygon class="d" points="1490.86 421.85 1473.8 483.11 1450.02 432.06 1490.86 421.85"/><polygon class="c" points="1371.76 520.54 1415.99 478 1370.05 464.39 1371.76 520.54"/><polygon class="b" points="1385.37 423.56 1370.05 464.39 1404.08 449.02 1385.37 423.56"/><polygon class="c" points="1415.99 478 1450.02 432.06 1412.59 433.76 1415.99 478"/><polygon class="c" points="1404.08 449.02 1412.59 433.76 1385.37 423.56 1404.08 449.02"/><polygon class="b" points="1433.94 483.11 1458.53 527.35 1465.34 489.91 1433.94 483.11"/><polygon class="c" points="1450.02 432.06 1433.94 483.11 1465.34 489.91 1450.02 432.06"/><polygon class="b" points="1404.08 449.02 1415.99 478 1412.59 433.76 1404.08 449.02"/><polygon class="b" points="1370.05 464.39 1404.08 449.02 1415.99 478 1370.05 464.39"/><polygon class="d" points="1376.86 656.66 1465.34 665.22 1449.64 603.91 1376.86 656.66"/><polygon class="d" points="1470.44 532.54 1465.34 586.71 1486.92 577.68 1470.44 532.54"/><polygon class="d" points="1364.74 529.32 1354.74 568.18 1410.89 534.15 1364.74 529.32"/><polygon class="c" points="1371.76 520.54 1410.89 534.15 1364.74 529.32 1371.76 520.54"/><polygon class="b" points="1433.94 483.11 1415.99 478 1410.89 534.15 1433.94 483.11"/><polygon class="d" points="1371.76 520.54 1415.99 478 1410.89 534.15 1371.76 520.54"/><polygon class="d" points="1450.02 432.06 1433.94 483.11 1415.99 478 1450.02 432.06"/><polygon class="b" points="1465.34 489.91 1473.8 483.11 1450.02 432.06 1465.34 489.91"/><polygon class="d" points="1470.44 532.54 1473.8 483.11 1465.34 489.91 1470.44 532.54"/><polygon class="c" points="1410.89 534.15 1458.53 527.35 1433.94 483.11 1410.89 534.15"/><polygon class="c" points="1470.44 532.54 1458.53 527.35 1465.34 489.91 1470.44 532.54"/><polygon class="b" points="1410.89 534.15 1449.64 603.91 1458.53 527.35 1410.89 534.15"/><polygon class="d" points="1354.74 568.18 1309.57 603.91 1347.94 648.15 1354.74 568.18"/><polygon class="c" points="1309.57 649.81 1347.94 648.15 1309.57 603.91 1309.57 649.81"/><polygon class="c" points="1354.74 568.18 1449.64 603.91 1410.89 534.15 1354.74 568.18"/><polygon class="b" points="1376.86 656.66 1354.74 568.18 1449.64 603.91 1376.86 656.66"/><polygon class="c" points="1347.94 648.15 1376.86 656.66 1354.74 568.18 1347.94 648.15"/><polygon class="d" points="1465.34 586.71 1465.34 665.22 1507.87 663.46 1465.34 586.71"/><polygon class="b" points="1486.92 577.68 1507.87 663.46 1465.34 586.71 1486.92 577.68"/><polygon class="c" points="1449.64 603.91 1465.34 586.71 1465.34 665.22 1449.64 603.91"/><polygon class="b" points="1458.53 527.35 1465.34 586.71 1470.44 532.54 1458.53 527.35"/><polygon class="d" points="1449.64 603.91 1465.34 586.71 1458.53 527.35 1449.64 603.91"/><polygon class="b" points="1507.87 663.46 1535.1 687.28 1524.89 734.93 1507.87 663.46"/><polygon class="b" points="1465.34 665.22 1478.95 688.99 1507.87 663.46 1465.34 665.22"/><polygon class="c" points="1524.89 734.93 1478.95 688.99 1507.87 663.46 1524.89 734.93"/><polygon class="d" points="1535.1 687.28 1548.71 746.84 1524.89 734.93 1535.1 687.28"/><polygon class="d" points="1552.11 787.67 1528.84 787.67 1548.71 746.84 1552.11 787.67"/><polygon class="b" points="1524.89 734.93 1524.89 779.45 1548.71 746.84 1524.89 734.93"/><polygon class="c" points="1512.61 787.67 1528.84 787.67 1524.89 779.45 1512.61 787.67"/><polygon class="b" points="1548.71 746.84 1524.89 779.45 1528.84 787.67 1548.71 746.84"/><polygon class="b" points="1347.94 648.15 1345.61 669.54 1309.57 649.81 1347.94 648.15"/><polygon class="b" points="1351.34 733.22 1345.61 669.54 1327.52 697.49 1351.34 733.22"/><polygon class="d" points="1309.57 649.81 1345.61 669.54 1327.52 697.49 1309.57 649.81"/><polygon class="d" points="1351.34 733.22 1353.04 789.37 1338.13 789.37 1351.34 733.22"/><polygon class="c" points="1341.13 738.33 1351.34 733.22 1327.52 697.49 1341.13 738.33"/><polygon class="b" points="1338.13 789.37 1351.34 733.22 1341.13 738.33 1338.13 789.37"/><polygon class="c" points="737.11 374.21 714.99 336.78 664.96 367.06 737.11 374.21"/><polygon class="c" points="662.24 329.98 673.87 348.98 714.99 336.78 662.24 329.98"/><polygon class="b" points="664.96 367.06 673.87 348.98 714.99 336.78 664.96 367.06"/><polygon class="b" points="739.31 287.17 689.93 265.17 708.9 321.54 739.31 287.17"/><polygon class="c" points="657.14 287.44 689.93 265.17 708.9 321.54 657.14 287.44"/><polygon class="d" points="662.24 329.98 708.9 321.54 657.14 287.44 662.24 329.98"/><polygon class="c" points="739.31 287.17 745.61 309.56 708.9 321.54 739.31 287.17"/><polygon class="b" points="729.73 361.73 742.8 336.78 714.99 336.78 729.73 361.73"/><polygon class="c" points="745.61 309.56 714.99 336.78 742.8 336.78 745.61 309.56"/><polygon class="c" points="708.9 321.54 714.99 336.78 745.61 309.56 708.9 321.54"/><polygon class="b" points="662.24 329.98 708.9 321.54 714.99 336.78 662.24 329.98"/></g></svg>