<?xml version="1.0" encoding="UTF-8"?><svg xmlns="http://www.w3.org/2000/svg" viewBox="0 0 500 500"><defs><style>.i{fill:#bf5c5c;}.j{fill:#c66767;}.k{fill:#b0504d;}</style></defs><g id="a"/><g id="b"><g><g><polygon class="k" points="123.49 292.91 124.79 289.34 132.8 289.34 133.19 289.34 151.01 289.34 151.39 289.34 138.21 230.21 122.91 224.41 119.75 210.27 122.98 201.42 130.04 189.36 124.21 175.35 108.65 164.85 108.39 164.94 108.26 164.85 93.76 170.08 99.68 153.87 105.69 143.6 100.72 131.68 87.47 122.74 87.26 122.82 87.14 122.74 65.29 130.63 57.67 153.87 58.01 153.84 58 153.87 68.94 152.9 71.91 160.82 41.77 177.71 32.5 192.28 32.5 228.71 32.83 228.71 56.24 228.71 54.96 229.43 44.07 246.54 44.07 289.34 44.46 289.34 71.61 289.34 47.92 302.61 34.35 323.94 34.35 377.26 34.84 377.26 72.65 377.26 73.13 377.26 144.92 377.26 145.41 377.26 167.61 377.26 168.09 377.26 151.66 303.58 123.49 292.91"/><path class="k" d="M451.07,303.58l-28.17-10.66,9.19-25.21,8.8-15.03-7.27-17.45-19.39-13.09-.32,.11-.17-.11-31.99,11.54-1.48,4.52-1.78-8-22.61-8.56,7.38-20.23,7.06-12.06-5.84-14-15.56-10.5-.25,.09-.14-.09-25.67,9.26-3.94,12.02-1.73-7.76-19.25-7.29,6.28-17.22,6.01-10.27-4.97-11.92-13.25-8.94-.22,.08-.12-.08-21.86,7.89-7.62,23.24,.34-.03v.03l10.93-.97,2.97,7.92-30.14,16.89-.04,.06-1.01-2.42-15.56-10.5-.25,.09-.14-.09-25.26,9.12-7.6-2.88,6.28-17.22,6.01-10.27-4.97-11.92-13.25-8.94-.22,.08-.12-.08-21.86,7.89-7.62,23.24,.34-.03v.03l10.93-.97,2.97,7.92-30.14,16.89-9.27,14.57v36.43h41.74l-1.27,.71-10.89,17.12v42.79h57.33l-23.68,13.27-13.57,21.33v53.32h133.74l-16.43-73.68-28.17-10.66,9.19-25.21,.8-1.37v22.99h86.67l-23.68,13.27-13.57,21.33v53.32h133.74l-16.43-73.68Zm-163.44-62.2l-2.56-6.15-9.65-6.51h21.09l-1.27,.71-7.6,11.95Zm-50.59-20.76v1.18l-.38-.14,.38-1.04Zm87.82-7.79l-2.7-12.1,4.98-.44,3.49,9.3-5.77,3.23Zm64.51,66.23l-2.83-12.7,.56-.05,4.35,11.59-2.07,1.16Z"/></g><g><g><polygon class="k" points="215.37 178.38 196.13 171.09 202.41 153.87 208.42 143.6 203.45 131.68 190.21 122.74 168.35 130.63 160.73 153.87 171.99 152.88 174.97 160.82 144.84 177.71 135.56 192.28 135.56 228.71 161.73 228.71 211.1 228.71 226.6 228.71 215.37 178.38"/><g><polygon class="i" points="157.75 181.02 168.68 171.09 189.21 194.27 157.75 181.02"/><polygon class="i" points="189.21 194.27 196.46 171.09 209.08 191.62 189.21 194.27"/><polygon class="j" points="168.68 171.09 175.3 160.82 196.46 171.09 168.68 171.09"/><polygon class="k" points="168.68 171.09 189.21 194.27 196.46 171.09 168.68 171.09"/><polygon class="i" points="161.06 153.87 168.68 130.63 172.32 152.88 161.06 153.87"/><polygon class="i" points="190.54 122.74 203.78 131.68 187.56 145.59 190.54 122.74"/><polygon class="k" points="168.68 130.63 190.54 122.74 187.56 145.59 168.68 130.63"/><polygon class="j" points="187.56 145.59 208.75 143.6 203.78 131.68 187.56 145.59"/><polygon class="j" points="168.68 130.63 187.56 145.59 172.32 152.88 168.68 130.63"/><polygon class="k" points="196.46 171.09 202.74 153.87 175.3 160.82 196.46 171.09"/><polygon class="i" points="202.74 153.87 187.56 145.59 175.3 160.82 202.74 153.87"/><polygon class="k" points="208.75 143.6 202.74 153.87 187.56 145.59 208.75 143.6"/><polygon class="k" points="187.56 145.59 172.32 152.88 175.3 160.82 187.56 145.59"/><polygon class="k" points="196.46 171.09 215.71 178.38 209.08 191.62 196.46 171.09"/><polygon class="k" points="175.3 160.82 145.17 177.71 168.68 171.09 175.3 160.82"/><polygon class="j" points="168.68 171.09 145.17 177.71 157.75 181.02 168.68 171.09"/><polygon class="k" points="157.75 181.02 162.06 223.08 189.21 194.27 157.75 181.02"/><polygon class="i" points="162.06 223.08 135.89 192.28 157.75 181.02 162.06 223.08"/><polygon class="j" points="215.71 178.38 226.93 228.71 211.43 228.71 215.71 178.38"/><polygon class="k" points="135.89 192.28 145.17 177.71 157.75 181.02 135.89 192.28"/><polygon class="j" points="135.89 192.28 135.89 228.71 162.06 223.08 135.89 192.28"/><polygon class="k" points="209.08 191.62 211.43 228.71 189.21 194.27 209.08 191.62"/><polygon class="i" points="211.43 228.71 215.71 178.38 209.08 191.62 211.43 228.71"/><polygon class="i" points="189.21 194.27 211.43 228.71 162.06 223.08 189.21 194.27"/><polygon class="j" points="162.06 223.08 211.43 228.71 162.06 228.71 162.06 223.08"/><polygon class="k" points="162.06 228.71 162.06 223.08 135.89 228.71 162.06 228.71"/></g></g><g><polygon class="k" points="112.31 178.38 93.06 171.09 99.35 153.87 105.36 143.6 100.39 131.68 87.14 122.74 65.29 130.63 57.67 153.87 68.93 152.88 71.91 160.82 41.77 177.71 32.5 192.28 32.5 228.71 58.66 228.71 108.04 228.71 123.53 228.71 112.31 178.38"/><g><polygon class="i" points="54.69 181.02 65.62 171.09 86.15 194.27 54.69 181.02"/><polygon class="i" points="86.15 194.27 93.4 171.09 106.02 191.62 86.15 194.27"/><polygon class="j" points="65.62 171.09 72.24 160.82 93.4 171.09 65.62 171.09"/><polygon class="k" points="65.62 171.09 86.15 194.27 93.4 171.09 65.62 171.09"/><polygon class="i" points="58 153.87 65.62 130.63 69.26 152.88 58 153.87"/><polygon class="i" points="87.47 122.74 100.72 131.68 84.49 145.59 87.47 122.74"/><polygon class="k" points="65.62 130.63 87.47 122.74 84.49 145.59 65.62 130.63"/><polygon class="j" points="84.49 145.59 105.69 143.6 100.72 131.68 84.49 145.59"/><polygon class="j" points="65.62 130.63 84.49 145.59 69.26 152.88 65.62 130.63"/><polygon class="k" points="93.4 171.09 99.68 153.87 72.24 160.82 93.4 171.09"/><polygon class="i" points="99.68 153.87 84.49 145.59 72.24 160.82 99.68 153.87"/><polygon class="k" points="105.69 143.6 99.68 153.87 84.49 145.59 105.69 143.6"/><polygon class="k" points="84.49 145.59 69.26 152.88 72.24 160.82 84.49 145.59"/><polygon class="k" points="93.4 171.09 112.64 178.38 106.02 191.62 93.4 171.09"/><polygon class="k" points="72.24 160.82 42.1 177.71 65.62 171.09 72.24 160.82"/><polygon class="j" points="65.62 171.09 42.1 177.71 54.69 181.02 65.62 171.09"/><polygon class="k" points="54.69 181.02 58.99 223.08 86.15 194.27 54.69 181.02"/><polygon class="i" points="58.99 223.08 32.83 192.28 54.69 181.02 58.99 223.08"/><polygon class="j" points="112.64 178.38 123.87 228.71 108.37 228.71 112.64 178.38"/><polygon class="k" points="32.83 192.28 42.1 177.71 54.69 181.02 32.83 192.28"/><polygon class="j" points="32.83 192.28 32.83 228.71 58.99 223.08 32.83 192.28"/><polygon class="k" points="106.02 191.62 108.37 228.71 86.15 194.27 106.02 191.62"/><polygon class="i" points="108.37 228.71 112.64 178.38 106.02 191.62 108.37 228.71"/><polygon class="i" points="86.15 194.27 108.37 228.71 58.99 223.08 86.15 194.27"/><polygon class="j" points="58.99 223.08 108.37 228.71 58.99 228.71 58.99 223.08"/><polygon class="k" points="58.99 228.71 58.99 223.08 32.83 228.71 58.99 228.71"/></g></g><g><polygon class="k" points="316.86 178.38 297.61 171.09 303.89 153.87 309.9 143.6 304.94 131.68 291.69 122.74 269.83 130.63 262.21 153.87 273.47 152.88 276.45 160.82 246.32 177.71 237.05 192.28 237.05 228.71 263.21 228.71 312.58 228.71 328.08 228.71 316.86 178.38"/><g><polygon class="i" points="259.23 181.02 270.16 171.09 290.69 194.27 259.23 181.02"/><polygon class="i" points="290.69 194.27 297.94 171.09 310.56 191.62 290.69 194.27"/><polygon class="j" points="270.16 171.09 276.79 160.82 297.94 171.09 270.16 171.09"/><polygon class="k" points="270.16 171.09 290.69 194.27 297.94 171.09 270.16 171.09"/><polygon class="i" points="262.55 153.87 270.16 130.63 273.81 152.88 262.55 153.87"/><polygon class="i" points="292.02 122.74 305.27 131.68 289.04 145.59 292.02 122.74"/><polygon class="k" points="270.16 130.63 292.02 122.74 289.04 145.59 270.16 130.63"/><polygon class="j" points="289.04 145.59 310.23 143.6 305.27 131.68 289.04 145.59"/><polygon class="j" points="270.16 130.63 289.04 145.59 273.81 152.88 270.16 130.63"/><polygon class="k" points="297.94 171.09 304.22 153.87 276.79 160.82 297.94 171.09"/><polygon class="i" points="304.22 153.87 289.04 145.59 276.79 160.82 304.22 153.87"/><polygon class="k" points="310.23 143.6 304.22 153.87 289.04 145.59 310.23 143.6"/><polygon class="k" points="289.04 145.59 273.81 152.88 276.79 160.82 289.04 145.59"/><polygon class="k" points="297.94 171.09 317.19 178.38 310.56 191.62 297.94 171.09"/><polygon class="k" points="276.79 160.82 246.65 177.71 270.16 171.09 276.79 160.82"/><polygon class="j" points="270.16 171.09 246.65 177.71 259.23 181.02 270.16 171.09"/><polygon class="k" points="259.23 181.02 263.54 223.08 290.69 194.27 259.23 181.02"/><polygon class="i" points="263.54 223.08 237.38 192.28 259.23 181.02 263.54 223.08"/><polygon class="j" points="317.19 178.38 328.41 228.71 312.92 228.71 317.19 178.38"/><polygon class="k" points="237.38 192.28 246.65 177.71 259.23 181.02 237.38 192.28"/><polygon class="j" points="237.38 192.28 237.38 228.71 263.54 223.08 237.38 192.28"/><polygon class="k" points="310.56 191.62 312.92 228.71 290.69 194.27 310.56 191.62"/><polygon class="i" points="312.92 228.71 317.19 178.38 310.56 191.62 312.92 228.71"/><polygon class="i" points="290.69 194.27 312.92 228.71 263.54 223.08 290.69 194.27"/><polygon class="j" points="263.54 223.08 312.92 228.71 263.54 228.71 263.54 223.08"/><polygon class="k" points="263.54 228.71 263.54 223.08 237.38 228.71 263.54 228.71"/></g></g><g><polygon class="k" points="258.89 230.21 236.28 221.65 243.66 201.42 250.72 189.36 244.88 175.35 229.32 164.85 203.65 174.12 194.7 201.42 207.93 200.25 211.43 209.59 176.03 229.43 165.13 246.54 165.13 289.34 195.87 289.34 253.87 289.34 272.07 289.34 258.89 230.21"/><g><polygon class="i" points="191.2 233.32 204.04 221.65 228.15 248.88 191.2 233.32"/><polygon class="i" points="228.15 248.88 236.67 221.65 251.5 245.77 228.15 248.88"/><polygon class="j" points="204.04 221.65 211.82 209.59 236.67 221.65 204.04 221.65"/><polygon class="k" points="204.04 221.65 228.15 248.88 236.67 221.65 204.04 221.65"/><polygon class="i" points="195.09 201.42 204.04 174.12 208.32 200.25 195.09 201.42"/><polygon class="i" points="229.71 164.85 245.27 175.35 226.21 191.69 229.71 164.85"/><polygon class="k" points="204.04 174.12 229.71 164.85 226.21 191.69 204.04 174.12"/><polygon class="j" points="226.21 191.69 251.11 189.36 245.27 175.35 226.21 191.69"/><polygon class="j" points="204.04 174.12 226.21 191.69 208.32 200.25 204.04 174.12"/><polygon class="k" points="236.67 221.65 244.05 201.42 211.82 209.59 236.67 221.65"/><polygon class="i" points="244.05 201.42 226.21 191.69 211.82 209.59 244.05 201.42"/><polygon class="k" points="251.11 189.36 244.05 201.42 226.21 191.69 251.11 189.36"/><polygon class="k" points="226.21 191.69 208.32 200.25 211.82 209.59 226.21 191.69"/><polygon class="k" points="236.67 221.65 259.28 230.21 251.5 245.77 236.67 221.65"/><polygon class="k" points="211.82 209.59 176.42 229.43 204.04 221.65 211.82 209.59"/><polygon class="j" points="204.04 221.65 176.42 229.43 191.2 233.32 204.04 221.65"/><polygon class="k" points="191.2 233.32 196.26 282.72 228.15 248.88 191.2 233.32"/><polygon class="i" points="196.26 282.72 165.52 246.54 191.2 233.32 196.26 282.72"/><polygon class="j" points="259.28 230.21 272.46 289.34 254.26 289.34 259.28 230.21"/><polygon class="k" points="165.52 246.54 176.42 229.43 191.2 233.32 165.52 246.54"/><polygon class="j" points="165.52 246.54 165.52 289.34 196.26 282.72 165.52 246.54"/><polygon class="k" points="251.5 245.77 254.26 289.34 228.15 248.88 251.5 245.77"/><polygon class="i" points="254.26 289.34 259.28 230.21 251.5 245.77 254.26 289.34"/><polygon class="i" points="228.15 248.88 254.26 289.34 196.26 282.72 228.15 248.88"/><polygon class="j" points="196.26 282.72 254.26 289.34 196.26 289.34 196.26 282.72"/><polygon class="k" points="196.26 289.34 196.26 282.72 165.52 289.34 196.26 289.34"/></g></g><g><polygon class="k" points="137.82 230.21 115.21 221.65 122.59 201.42 129.65 189.36 123.82 175.35 108.26 164.85 82.58 174.12 73.63 201.42 86.86 200.25 90.36 209.59 54.96 229.43 44.07 246.54 44.07 289.34 74.8 289.34 132.8 289.34 151.01 289.34 137.82 230.21"/><g><polygon class="i" points="70.13 233.32 82.97 221.65 107.09 248.88 70.13 233.32"/><polygon class="i" points="107.09 248.88 115.6 221.65 130.43 245.77 107.09 248.88"/><polygon class="j" points="82.97 221.65 90.75 209.59 115.6 221.65 82.97 221.65"/><polygon class="k" points="82.97 221.65 107.09 248.88 115.6 221.65 82.97 221.65"/><polygon class="i" points="74.02 201.42 82.97 174.12 87.25 200.25 74.02 201.42"/><polygon class="i" points="108.65 164.85 124.21 175.35 105.14 191.69 108.65 164.85"/><polygon class="k" points="82.97 174.12 108.65 164.85 105.14 191.69 82.97 174.12"/><polygon class="j" points="105.14 191.69 130.04 189.36 124.21 175.35 105.14 191.69"/><polygon class="j" points="82.97 174.12 105.14 191.69 87.25 200.25 82.97 174.12"/><polygon class="k" points="115.6 221.65 122.98 201.42 90.75 209.59 115.6 221.65"/><polygon class="i" points="122.98 201.42 105.14 191.69 90.75 209.59 122.98 201.42"/><polygon class="k" points="130.04 189.36 122.98 201.42 105.14 191.69 130.04 189.36"/><polygon class="k" points="105.14 191.69 87.25 200.25 90.75 209.59 105.14 191.69"/><polygon class="k" points="115.6 221.65 138.21 230.21 130.43 245.77 115.6 221.65"/><polygon class="k" points="90.75 209.59 55.35 229.43 82.97 221.65 90.75 209.59"/><polygon class="j" points="82.97 221.65 55.35 229.43 70.13 233.32 82.97 221.65"/><polygon class="k" points="70.13 233.32 75.19 282.72 107.09 248.88 70.13 233.32"/><polygon class="i" points="75.19 282.72 44.46 246.54 70.13 233.32 75.19 282.72"/><polygon class="j" points="138.21 230.21 151.39 289.34 133.19 289.34 138.21 230.21"/><polygon class="k" points="44.46 246.54 55.35 229.43 70.13 233.32 44.46 246.54"/><polygon class="j" points="44.46 246.54 44.46 289.34 75.19 282.72 44.46 246.54"/><polygon class="k" points="130.43 245.77 133.19 289.34 107.09 248.88 130.43 245.77"/><polygon class="i" points="133.19 289.34 138.21 230.21 130.43 245.77 133.19 289.34"/><polygon class="i" points="107.09 248.88 133.19 289.34 75.19 282.72 107.09 248.88"/><polygon class="j" points="75.19 282.72 133.19 289.34 75.19 289.34 75.19 282.72"/><polygon class="k" points="75.19 289.34 75.19 282.72 44.46 289.34 75.19 289.34"/></g></g><g><polygon class="k" points="378.1 230.21 355.49 221.65 362.87 201.42 369.93 189.36 364.09 175.35 348.53 164.85 322.86 174.12 313.91 201.42 327.13 200.25 330.64 209.59 295.24 229.43 284.34 246.54 284.34 289.34 315.08 289.34 373.08 289.34 391.28 289.34 378.1 230.21"/><g><polygon class="i" points="310.41 233.32 323.24 221.65 347.36 248.88 310.41 233.32"/><polygon class="i" points="347.36 248.88 355.88 221.65 370.7 245.77 347.36 248.88"/><polygon class="j" points="323.24 221.65 331.03 209.59 355.88 221.65 323.24 221.65"/><polygon class="k" points="323.24 221.65 347.36 248.88 355.88 221.65 323.24 221.65"/><polygon class="i" points="314.3 201.42 323.24 174.12 327.52 200.25 314.3 201.42"/><polygon class="i" points="348.92 164.85 364.48 175.35 345.42 191.69 348.92 164.85"/><polygon class="k" points="323.24 174.12 348.92 164.85 345.42 191.69 323.24 174.12"/><polygon class="j" points="345.42 191.69 370.32 189.36 364.48 175.35 345.42 191.69"/><polygon class="j" points="323.24 174.12 345.42 191.69 327.52 200.25 323.24 174.12"/><polygon class="k" points="355.88 221.65 363.25 201.42 331.03 209.59 355.88 221.65"/><polygon class="i" points="363.25 201.42 345.42 191.69 331.03 209.59 363.25 201.42"/><polygon class="k" points="370.32 189.36 363.25 201.42 345.42 191.69 370.32 189.36"/><polygon class="k" points="345.42 191.69 327.52 200.25 331.03 209.59 345.42 191.69"/><polygon class="k" points="355.88 221.65 378.48 230.21 370.7 245.77 355.88 221.65"/><polygon class="k" points="331.03 209.59 295.62 229.43 323.24 221.65 331.03 209.59"/><polygon class="j" points="323.24 221.65 295.62 229.43 310.41 233.32 323.24 221.65"/><polygon class="k" points="310.41 233.32 315.46 282.72 347.36 248.88 310.41 233.32"/><polygon class="i" points="315.46 282.72 284.73 246.54 310.41 233.32 315.46 282.72"/><polygon class="j" points="378.48 230.21 391.67 289.34 373.47 289.34 378.48 230.21"/><polygon class="k" points="284.73 246.54 295.62 229.43 310.41 233.32 284.73 246.54"/><polygon class="j" points="284.73 246.54 284.73 289.34 315.46 282.72 284.73 246.54"/><polygon class="k" points="370.7 245.77 373.47 289.34 347.36 248.88 370.7 245.77"/><polygon class="i" points="373.47 289.34 378.48 230.21 370.7 245.77 373.47 289.34"/><polygon class="i" points="347.36 248.88 373.47 289.34 315.46 282.72 347.36 248.88"/><polygon class="j" points="315.46 282.72 373.47 289.34 315.46 289.34 315.46 282.72"/><polygon class="k" points="315.46 289.34 315.46 282.72 284.73 289.34 315.46 289.34"/></g></g><g><polygon class="k" points="302.04 303.58 273.87 292.91 283.06 267.71 291.86 252.68 284.59 235.23 265.2 222.14 233.2 233.68 222.05 267.71 238.54 266.25 242.9 277.89 198.79 302.61 185.21 323.94 185.21 377.26 223.51 377.26 295.78 377.26 318.47 377.26 302.04 303.58"/><g><polygon class="i" points="217.69 307.46 233.69 292.91 263.74 326.85 217.69 307.46"/><polygon class="i" points="263.74 326.85 274.35 292.91 292.83 322.97 263.74 326.85"/><polygon class="j" points="233.69 292.91 243.38 277.89 274.35 292.91 233.69 292.91"/><polygon class="k" points="233.69 292.91 263.74 326.85 274.35 292.91 233.69 292.91"/><polygon class="i" points="222.54 267.71 233.69 233.68 239.02 266.25 222.54 267.71"/><polygon class="i" points="265.68 222.14 285.07 235.23 261.32 255.59 265.68 222.14"/><polygon class="k" points="233.69 233.68 265.68 222.14 261.32 255.59 233.69 233.68"/><polygon class="j" points="261.32 255.59 292.34 252.68 285.07 235.23 261.32 255.59"/><polygon class="j" points="233.69 233.68 261.32 255.59 239.02 266.25 233.69 233.68"/><polygon class="k" points="274.35 292.91 283.54 267.71 243.38 277.89 274.35 292.91"/><polygon class="i" points="283.54 267.71 261.32 255.59 243.38 277.89 283.54 267.71"/><polygon class="k" points="292.34 252.68 283.54 267.71 261.32 255.59 292.34 252.68"/><polygon class="k" points="261.32 255.59 239.02 266.25 243.38 277.89 261.32 255.59"/><polygon class="k" points="274.35 292.91 302.52 303.58 292.83 322.97 274.35 292.91"/><polygon class="k" points="243.38 277.89 199.27 302.61 233.69 292.91 243.38 277.89"/><polygon class="j" points="233.69 292.91 199.27 302.61 217.69 307.46 233.69 292.91"/><polygon class="k" points="217.69 307.46 223.99 369.02 263.74 326.85 217.69 307.46"/><polygon class="i" points="223.99 369.02 185.7 323.94 217.69 307.46 223.99 369.02"/><polygon class="j" points="302.52 303.58 318.95 377.26 296.27 377.26 302.52 303.58"/><polygon class="k" points="185.7 323.94 199.27 302.61 217.69 307.46 185.7 323.94"/><polygon class="j" points="185.7 323.94 185.7 377.26 223.99 369.02 185.7 323.94"/><polygon class="k" points="292.83 322.97 296.27 377.26 263.74 326.85 292.83 322.97"/><polygon class="i" points="296.27 377.26 302.52 303.58 292.83 322.97 296.27 377.26"/><polygon class="i" points="263.74 326.85 296.27 377.26 223.99 369.02 263.74 326.85"/><polygon class="j" points="223.99 369.02 296.27 377.26 223.99 377.26 223.99 369.02"/><polygon class="k" points="223.99 377.26 223.99 369.02 185.7 377.26 223.99 377.26"/></g></g><g><polygon class="k" points="151.18 303.58 123 292.91 132.2 267.71 141 252.68 133.73 235.23 114.34 222.14 82.34 233.68 71.19 267.71 87.67 266.25 92.04 277.89 47.92 302.61 34.35 323.94 34.35 377.26 72.65 377.26 144.92 377.26 167.61 377.26 151.18 303.58"/><g><polygon class="i" points="66.83 307.46 82.83 292.91 112.88 326.85 66.83 307.46"/><polygon class="i" points="112.88 326.85 123.49 292.91 141.97 322.97 112.88 326.85"/><polygon class="j" points="82.83 292.91 92.52 277.89 123.49 292.91 82.83 292.91"/><polygon class="k" points="82.83 292.91 112.88 326.85 123.49 292.91 82.83 292.91"/><polygon class="i" points="71.68 267.71 82.83 233.68 88.16 266.25 71.68 267.71"/><polygon class="i" points="114.82 222.14 134.21 235.23 110.46 255.59 114.82 222.14"/><polygon class="k" points="82.83 233.68 114.82 222.14 110.46 255.59 82.83 233.68"/><polygon class="j" points="110.46 255.59 141.48 252.68 134.21 235.23 110.46 255.59"/><polygon class="j" points="82.83 233.68 110.46 255.59 88.16 266.25 82.83 233.68"/><polygon class="k" points="123.49 292.91 132.68 267.71 92.52 277.89 123.49 292.91"/><polygon class="i" points="132.68 267.71 110.46 255.59 92.52 277.89 132.68 267.71"/><polygon class="k" points="141.48 252.68 132.68 267.71 110.46 255.59 141.48 252.68"/><polygon class="k" points="110.46 255.59 88.16 266.25 92.52 277.89 110.46 255.59"/><polygon class="k" points="123.49 292.91 151.66 303.58 141.97 322.97 123.49 292.91"/><polygon class="k" points="92.52 277.89 48.41 302.61 82.83 292.91 92.52 277.89"/><polygon class="j" points="82.83 292.91 48.41 302.61 66.83 307.46 82.83 292.91"/><polygon class="k" points="66.83 307.46 73.13 369.02 112.88 326.85 66.83 307.46"/><polygon class="i" points="73.13 369.02 34.84 323.94 66.83 307.46 73.13 369.02"/><polygon class="j" points="151.66 303.58 168.09 377.26 145.41 377.26 151.66 303.58"/><polygon class="k" points="34.84 323.94 48.41 302.61 66.83 307.46 34.84 323.94"/><polygon class="j" points="34.84 323.94 34.84 377.26 73.13 369.02 34.84 323.94"/><polygon class="k" points="141.97 322.97 145.41 377.26 112.88 326.85 141.97 322.97"/><polygon class="i" points="145.41 377.26 151.66 303.58 141.97 322.97 145.41 377.26"/><polygon class="i" points="112.88 326.85 145.41 377.26 73.13 369.02 112.88 326.85"/><polygon class="j" points="73.13 369.02 145.41 377.26 73.13 377.26 73.13 369.02"/><polygon class="k" points="73.13 377.26 73.13 369.02 34.84 377.26 73.13 377.26"/></g></g><g><polygon class="k" points="450.59 303.58 422.41 292.91 431.61 267.71 440.41 252.68 433.14 235.23 413.75 222.14 381.75 233.68 370.6 267.71 387.08 266.25 391.45 277.89 347.33 302.61 333.76 323.94 333.76 377.26 372.06 377.26 444.33 377.26 467.02 377.26 450.59 303.58"/><g><polygon class="i" points="366.24 307.46 382.24 292.91 412.29 326.85 366.24 307.46"/><polygon class="i" points="412.29 326.85 422.9 292.91 441.38 322.97 412.29 326.85"/><polygon class="j" points="382.24 292.91 391.93 277.89 422.9 292.91 382.24 292.91"/><polygon class="k" points="382.24 292.91 412.29 326.85 422.9 292.91 382.24 292.91"/><polygon class="i" points="371.09 267.71 382.24 233.68 387.57 266.25 371.09 267.71"/><polygon class="i" points="414.23 222.14 433.62 235.23 409.87 255.59 414.23 222.14"/><polygon class="k" points="382.24 233.68 414.23 222.14 409.87 255.59 382.24 233.68"/><polygon class="j" points="409.87 255.59 440.89 252.68 433.62 235.23 409.87 255.59"/><polygon class="j" points="382.24 233.68 409.87 255.59 387.57 266.25 382.24 233.68"/><polygon class="k" points="422.9 292.91 432.09 267.71 391.93 277.89 422.9 292.91"/><polygon class="i" points="432.09 267.71 409.87 255.59 391.93 277.89 432.09 267.71"/><polygon class="k" points="440.89 252.68 432.09 267.71 409.87 255.59 440.89 252.68"/><polygon class="k" points="409.87 255.59 387.57 266.25 391.93 277.89 409.87 255.59"/><polygon class="k" points="422.9 292.91 451.07 303.58 441.38 322.97 422.9 292.91"/><polygon class="k" points="391.93 277.89 347.82 302.61 382.24 292.91 391.93 277.89"/><polygon class="j" points="382.24 292.91 347.82 302.61 366.24 307.46 382.24 292.91"/><polygon class="k" points="366.24 307.46 372.54 369.02 412.29 326.85 366.24 307.46"/><polygon class="i" points="372.54 369.02 334.25 323.94 366.24 307.46 372.54 369.02"/><polygon class="j" points="451.07 303.58 467.5 377.26 444.82 377.26 451.07 303.58"/><polygon class="k" points="334.25 323.94 347.82 302.61 366.24 307.46 334.25 323.94"/><polygon class="j" points="334.25 323.94 334.25 377.26 372.54 369.02 334.25 323.94"/><polygon class="k" points="441.38 322.97 444.82 377.26 412.29 326.85 441.38 322.97"/><polygon class="i" points="444.82 377.26 451.07 303.58 441.38 322.97 444.82 377.26"/><polygon class="i" points="412.29 326.85 444.82 377.26 372.54 369.02 412.29 326.85"/><polygon class="j" points="372.54 369.02 444.82 377.26 372.54 377.26 372.54 369.02"/><polygon class="k" points="372.54 377.26 372.54 369.02 334.25 377.26 372.54 377.26"/></g></g></g></g></g><g id="c"/><g id="d"/><g id="e"/><g id="f"/><g id="g"/><g id="h"/></svg>