<?xml version="1.0" encoding="UTF-8"?><svg xmlns="http://www.w3.org/2000/svg" viewBox="0 0 500 500"><defs><style>.i{fill:#bf5c5c;}.j{fill:#c66767;}.k{fill:#b0504d;}</style></defs><g id="a"/><g id="b"/><g id="c"/><g id="d"><g><polygon class="k" points="374.19 150.16 360.19 112.16 384.87 40.16 291.19 130.16 265.19 149.16 240.19 192.16 208.02 220.16 188.61 213.16 198.19 215.16 196.43 192.16 178.19 181.16 163.19 187.16 162.19 213.16 137.19 215.16 105.19 241.16 154.19 273.16 159.19 289.16 151.69 329.23 154.19 356.08 114.19 421.16 166.19 432.16 169.16 431.36 165.19 459.84 178.24 459.84 196.72 459.84 178.89 449.32 180.17 428.36 207.07 421.06 199.69 423.06 199.69 459.84 219.24 459.84 237.72 459.84 219.58 449.14 220.6 417.38 247.19 410.16 234.19 332.16 221.19 278.16 219.19 248.16 257.19 206.16 275.19 155.16 291.71 135.04 295.19 167.16 298.19 216.16 316.19 254.16 394.81 183.16 374.19 150.16"/><g><polygon class="j" points="139.19 232.16 164.19 227.16 154.19 273.16 139.19 232.16"/><polygon class="k" points="219.19 248.16 257.19 206.16 240.19 192.16 219.19 248.16"/><polygon class="i" points="154.19 273.16 219.19 248.16 164.19 227.16 154.19 273.16"/><polygon class="i" points="208.02 220.16 219.19 248.16 240.19 192.16 208.02 220.16"/><polygon class="i" points="139.19 232.16 105.19 241.16 154.19 273.16 139.19 232.16"/><polygon class="j" points="219.19 248.16 208.02 220.16 164.19 227.16 219.19 248.16"/><polygon class="k" points="208.02 220.16 162.19 213.16 164.19 227.16 208.02 220.16"/><polygon class="k" points="105.19 241.16 137.19 215.16 139.19 232.16 105.19 241.16"/><polygon class="k" points="219.19 248.16 221.19 278.16 159.19 289.16 219.19 248.16"/><polygon class="j" points="159.19 289.16 154.19 273.16 219.19 248.16 159.19 289.16"/><polygon class="k" points="198.19 354.16 234.19 332.16 221.19 278.16 198.19 354.16"/><polygon class="k" points="164.19 317.62 184.19 339.16 151.69 329.23 164.19 317.62"/><polygon class="i" points="114.19 421.16 166.19 432.16 154.19 356.08 114.19 421.16"/><polygon class="i" points="198.19 354.16 247.19 410.16 234.19 332.16 198.19 354.16"/><polygon class="i" points="154.19 356.08 184.19 339.16 151.69 329.23 154.19 356.08"/><polygon class="i" points="151.69 329.23 159.19 289.16 164.19 317.62 151.69 329.23"/><polygon class="j" points="291.19 130.16 384.87 40.16 360.19 112.16 291.19 130.16"/><polygon class="k" points="291.19 130.16 295.19 167.16 360.19 112.16 291.19 130.16"/><polygon class="j" points="360.19 112.16 374.19 150.16 295.19 167.16 360.19 112.16"/><polygon class="i" points="295.19 167.16 298.19 216.16 374.19 150.16 295.19 167.16"/><polygon class="k" points="374.19 150.16 394.81 183.16 298.19 216.16 374.19 150.16"/><polygon class="j" points="298.19 216.16 316.19 254.16 394.81 183.16 298.19 216.16"/><polygon class="j" points="154.19 356.08 198.19 354.16 166.19 432.16 154.19 356.08"/><polygon class="k" points="198.19 354.16 166.19 432.16 247.19 410.16 198.19 354.16"/><polygon class="i" points="164.19 317.62 221.19 278.16 184.19 339.16 164.19 317.62"/><polygon class="j" points="164.19 317.62 221.19 278.16 159.19 289.16 164.19 317.62"/><polygon class="j" points="198.19 354.16 184.19 339.16 221.19 278.16 198.19 354.16"/><polygon class="k" points="154.19 356.08 184.19 339.16 198.19 354.16 154.19 356.08"/><polygon class="i" points="162.19 213.16 163.19 187.16 190.19 196.44 162.19 213.16"/><polygon class="j" points="196.43 192.16 198.19 215.16 188.61 213.16 196.43 192.16"/><polygon class="k" points="163.19 187.16 178.19 181.16 190.19 196.44 163.19 187.16"/><polygon class="i" points="196.43 192.16 190.19 196.44 178.19 181.16 196.43 192.16"/><polygon class="i" points="162.19 213.16 188.61 213.16 208.02 220.16 162.19 213.16"/><polygon class="k" points="196.43 192.16 190.19 196.44 162.19 213.16 188.61 213.16 196.43 192.16"/><polygon class="i" points="137.19 215.16 164.19 227.16 139.19 232.16 137.19 215.16"/><polygon class="j" points="137.19 215.16 162.19 213.16 164.19 227.16 137.19 215.16"/><polygon class="j" points="240.19 192.16 265.19 149.16 275.19 155.16 240.19 192.16"/><polygon class="i" points="257.19 206.16 275.19 155.16 240.19 192.16 257.19 206.16"/><polygon class="i" points="265.19 149.16 291.19 130.16 291.71 135.04 265.19 149.16"/><polygon class="k" points="275.19 155.16 291.71 135.04 265.19 149.16 275.19 155.16"/><polygon class="i" points="199.69 423.06 199.69 459.84 219.24 459.84 199.69 423.06"/><polygon class="j" points="220.6 417.38 219.24 459.84 199.69 423.06 220.6 417.38"/><polygon class="k" points="219.24 459.84 219.58 449.14 237.72 459.84 219.24 459.84"/><polygon class="i" points="169.19 431.16 165.19 459.84 178.24 459.84 169.19 431.16"/><polygon class="j" points="180.19 428.16 178.24 459.84 169.19 431.16 180.19 428.16"/><polygon class="k" points="178.24 459.84 178.58 449.14 196.72 459.84 178.24 459.84"/></g></g></g><g id="e"/><g id="f"/><g id="g"/><g id="h"/></svg>