<?xml version="1.0" encoding="UTF-8"?><svg id="a" xmlns="http://www.w3.org/2000/svg" viewBox="0 0 500 500"><defs><style>.b{fill:#bf5c5c;}.c{fill:#c66767;}.d{fill:#b0504d;}</style></defs><polygon class="c" points="337.41 181.24 352.41 159.5 357.41 136.5 285.41 158.5 171.41 141.5 117.41 219.5 132.41 318.5 161.41 335.5 186.41 363.5 268.2 363.5 330.41 304.5 337.41 235.5 382.59 203 337.41 181.24"/><g><polygon class="d" points="171.41 141.5 117.41 219.5 196.41 215.5 171.41 141.5"/><polygon class="c" points="352.41 159.5 357.41 136.5 317.41 170.5 352.41 159.5"/><polygon class="c" points="270.41 324.5 288.41 235.5 330.41 304.5 270.41 324.5"/><polygon class="b" points="132.41 318.5 234.81 235.5 161.41 335.5 132.41 318.5"/><polygon class="b" points="337.41 235.5 337.41 181.24 382.59 203 337.41 235.5"/><polygon class="d" points="238.41 172.5 281.41 192.5 285.41 158.5 238.41 172.5"/><polygon class="d" points="132.41 318.5 117.41 219.5 234.81 235.5 132.41 318.5"/><polygon class="b" points="330.41 304.5 337.41 235.5 288.41 235.5 330.41 304.5"/><polygon class="b" points="268.2 363.5 330.41 304.5 270.41 324.5 268.2 363.5"/><polygon class="c" points="161.41 335.5 270.41 324.5 234.81 235.5 161.41 335.5"/><polygon class="c" points="171.41 141.5 285.41 158.5 238.41 172.5 171.41 141.5"/><polygon class="b" points="196.41 215.5 238.41 172.5 171.41 141.5 196.41 215.5"/><polygon class="c" points="196.41 215.5 234.81 235.5 117.41 219.5 196.41 215.5"/><polygon class="c" points="288.41 235.5 238.41 172.5 234.81 235.5 288.41 235.5"/><polygon class="d" points="317.41 170.5 285.41 158.5 357.41 136.5 317.41 170.5"/><polygon class="b" points="337.41 181.24 352.41 159.5 317.41 170.5 337.41 181.24"/><polygon class="d" points="288.41 235.5 234.81 235.5 270.41 324.5 288.41 235.5"/><polygon class="b" points="186.41 363.5 270.41 324.5 161.41 335.5 186.41 363.5"/><polygon class="d" points="238.41 172.5 234.81 235.5 196.41 215.5 238.41 172.5"/><polygon class="c" points="186.41 363.5 270.41 324.5 268.2 363.5 186.41 363.5"/><polygon class="c" points="337.41 181.24 288.41 235.5 337.41 235.5 337.41 181.24"/><polygon class="b" points="281.41 192.5 317.41 170.5 285.41 158.5 281.41 192.5"/><polygon class="b" points="288.41 235.5 281.41 192.5 238.41 172.5 288.41 235.5"/><polygon class="d" points="281.41 192.5 337.41 181.24 288.41 235.5 281.41 192.5"/><polygon class="c" points="337.41 181.24 317.41 170.5 281.41 192.5 337.41 181.24"/></g></svg>