<?xml version="1.0" encoding="UTF-8"?><svg id="a" xmlns="http://www.w3.org/2000/svg" viewBox="0 0 500 500"><defs><style>.b{fill:#bf5c5c;}.c{fill:#c66767;}.d{fill:#b0504d;}</style></defs><polygon class="b" points="346 162 271 89 251 131 190 84 142 135 137 315 190 416 271 397 346 341.85 363 257 346 162"/><g><polygon class="c" points="137 315 194.68 172.32 194.68 304.32 137 315"/><polygon class="b" points="194.68 172.32 142 135 137 315 194.68 172.32"/><polygon class="d" points="194.68 304.32 270.83 235.32 194.68 172.32 194.68 304.32"/><polygon class="d" points="137 315 190 416 194.68 304.32 137 315"/><polygon class="b" points="194.68 172.32 251 131 190 84 194.68 172.32"/><polygon class="c" points="142 135 190 84 194.68 172.32 142 135"/><polygon class="b" points="251 131 271 89 346 162 251 131"/><polygon class="d" points="346 162 270.83 235.32 251 131 346 162"/><polygon class="c" points="270.83 235.32 251 131 194.68 172.32 270.83 235.32"/><polygon class="c" points="190 416 271 397 346 341.85 190 416"/><polygon class="d" points="346 162 363 257 331.25 235.32 346 162"/><polygon class="b" points="363 257 346 341.85 331.25 235.32 363 257"/><polygon class="b" points="194.68 304.32 270.83 235.32 331.25 235.32 194.68 304.32"/><polygon class="c" points="331.25 235.32 346 162 270.83 235.32 331.25 235.32"/><polygon class="d" points="346 341.85 190 416 331.25 235.32 346 341.85"/><polygon class="c" points="194.68 304.32 331.25 235.32 190 416 194.68 304.32"/></g></svg>