<?xml version="1.0" encoding="UTF-8"?><svg id="a" xmlns="http://www.w3.org/2000/svg" viewBox="0 0 500 500"><defs><style>.b{fill:#bf5c5c;}.c{fill:#c66767;}.d{fill:#b0504d;}</style></defs><polygon class="b" points="358.24 172.81 303.95 115.77 234.78 107.47 212.65 121.3 160.08 124.07 162.36 182.59 135 264 234.78 392.53 341.3 295.6 364.82 247.19 358.24 172.81"/><g><polygon class="b" points="134.63 264 161.99 182.59 210.82 325.08 134.63 264"/><polygon class="d" points="161.99 182.59 340.94 295.6 210.82 325.08 161.99 182.59"/><polygon class="c" points="234.42 107.47 303.58 115.77 269 172.81 234.42 107.47"/><polygon class="b" points="269 209.47 357.87 172.81 364.45 247.19 269 209.47"/><polygon class="d" points="269 209.47 303.58 115.77 357.87 172.81 269 209.47"/><polygon class="c" points="210.82 325.08 234.42 392.53 340.94 295.6 210.82 325.08"/><polygon class="b" points="191.53 165.57 212.28 121.3 159.71 124.07 191.53 165.57"/><polygon class="b" points="269 172.81 191.53 165.57 234.42 107.47 269 172.81"/><polygon class="d" points="234.42 392.53 134.63 264 210.82 325.08 234.42 392.53"/><polygon class="c" points="159.71 124.07 161.99 182.59 191.53 165.57 159.71 124.07"/><polygon class="c" points="161.99 182.59 269 172.81 269 209.47 161.99 182.59"/><polygon class="c" points="364.45 247.19 340.94 295.6 269 209.47 364.45 247.19"/><polygon class="b" points="340.94 295.6 269 209.47 161.99 182.59 340.94 295.6"/><polygon class="d" points="234.42 107.47 212.28 121.3 191.53 165.57 234.42 107.47"/><polygon class="d" points="191.53 165.57 269 172.81 161.99 182.59 191.53 165.57"/><polygon class="b" points="303.58 115.77 269 172.81 269 209.47 303.58 115.77"/></g></svg>